<?xml version="1.0" encoding="utf-8" standalone="no"?>
<!DOCTYPE svg PUBLIC "-//W3C//DTD SVG 1.1//EN"
  "http://www.w3.org/Graphics/SVG/1.1/DTD/svg11.dtd">
<svg xmlns:xlink="http://www.w3.org/1999/xlink" width="1105.92pt" height="648.36pt" viewBox="0 0 1105.92 648.36" xmlns="http://www.w3.org/2000/svg" version="1.1">
 <metadata>
  <rdf:RDF xmlns:dc="http://purl.org/dc/elements/1.1/" xmlns:cc="http://creativecommons.org/ns#" xmlns:rdf="http://www.w3.org/1999/02/22-rdf-syntax-ns#">
   <cc:Work>
    <dc:type rdf:resource="http://purl.org/dc/dcmitype/StillImage"/>
    <dc:date>2024-06-09T12:41:41.012478</dc:date>
    <dc:format>image/svg+xml</dc:format>
    <dc:creator>
     <cc:Agent>
      <dc:title>Matplotlib v3.8.4, https://matplotlib.org/</dc:title>
     </cc:Agent>
    </dc:creator>
   </cc:Work>
  </rdf:RDF>
 </metadata>
 <defs>
  <style type="text/css">*{stroke-linejoin: round; stroke-linecap: butt}</style>
 </defs>
 <g id="figure_1">
  <g id="patch_1">
   <path d="M 0 648.36 
L 1105.92 648.36 
L 1105.92 0 
L 0 0 
z
" style="fill: #ffffff"/>
  </g>
  <g id="axes_1">
   <g id="patch_2">
    <path d="M 182.4768 551.106 
L 1022.976 551.106 
L 1022.976 64.836 
L 182.4768 64.836 
z
" style="fill: #ffffff"/>
   </g>
   <g id="matplotlib.axis_1">
    <g id="xtick_1">
     <g id="line2d_1">
      <path d="M 258.503773 551.106 
L 258.503773 64.836 
" clip-path="url(#p3091642830)" style="fill: none; stroke: #b0b0b0; stroke-width: 0.8; stroke-linecap: square"/>
     </g>
     <g id="line2d_2">
      <defs>
       <path id="m07bae6ab15" d="M 0 0 
L 0 3.5 
" style="stroke: #000000; stroke-width: 0.8"/>
      </defs>
      <g>
       <use xlink:href="#m07bae6ab15" x="258.503773" y="551.106" style="stroke: #000000; stroke-width: 0.8"/>
      </g>
     </g>
     <g id="text_1">
      <!-- 250 -->
      <g transform="translate(248.960023 565.704438) scale(0.1 -0.1)">
       <defs>
        <path id="DejaVuSans-32" d="M 1228 531 
L 3431 531 
L 3431 0 
L 469 0 
L 469 531 
Q 828 903 1448 1529 
Q 2069 2156 2228 2338 
Q 2531 2678 2651 2914 
Q 2772 3150 2772 3378 
Q 2772 3750 2511 3984 
Q 2250 4219 1831 4219 
Q 1534 4219 1204 4116 
Q 875 4013 500 3803 
L 500 4441 
Q 881 4594 1212 4672 
Q 1544 4750 1819 4750 
Q 2544 4750 2975 4387 
Q 3406 4025 3406 3419 
Q 3406 3131 3298 2873 
Q 3191 2616 2906 2266 
Q 2828 2175 2409 1742 
Q 1991 1309 1228 531 
z
" transform="scale(0.015625)"/>
        <path id="DejaVuSans-35" d="M 691 4666 
L 3169 4666 
L 3169 4134 
L 1269 4134 
L 1269 2991 
Q 1406 3038 1543 3061 
Q 1681 3084 1819 3084 
Q 2600 3084 3056 2656 
Q 3513 2228 3513 1497 
Q 3513 744 3044 326 
Q 2575 -91 1722 -91 
Q 1428 -91 1123 -41 
Q 819 9 494 109 
L 494 744 
Q 775 591 1075 516 
Q 1375 441 1709 441 
Q 2250 441 2565 725 
Q 2881 1009 2881 1497 
Q 2881 1984 2565 2268 
Q 2250 2553 1709 2553 
Q 1456 2553 1204 2497 
Q 953 2441 691 2322 
L 691 4666 
z
" transform="scale(0.015625)"/>
        <path id="DejaVuSans-30" d="M 2034 4250 
Q 1547 4250 1301 3770 
Q 1056 3291 1056 2328 
Q 1056 1369 1301 889 
Q 1547 409 2034 409 
Q 2525 409 2770 889 
Q 3016 1369 3016 2328 
Q 3016 3291 2770 3770 
Q 2525 4250 2034 4250 
z
M 2034 4750 
Q 2819 4750 3233 4129 
Q 3647 3509 3647 2328 
Q 3647 1150 3233 529 
Q 2819 -91 2034 -91 
Q 1250 -91 836 529 
Q 422 1150 422 2328 
Q 422 3509 836 4129 
Q 1250 4750 2034 4750 
z
" transform="scale(0.015625)"/>
       </defs>
       <use xlink:href="#DejaVuSans-32"/>
       <use xlink:href="#DejaVuSans-35" x="63.623047"/>
       <use xlink:href="#DejaVuSans-30" x="127.246094"/>
      </g>
     </g>
    </g>
    <g id="xtick_2">
     <g id="line2d_3">
      <path d="M 354.015046 551.106 
L 354.015046 64.836 
" clip-path="url(#p3091642830)" style="fill: none; stroke: #b0b0b0; stroke-width: 0.8; stroke-linecap: square"/>
     </g>
     <g id="line2d_4">
      <g>
       <use xlink:href="#m07bae6ab15" x="354.015046" y="551.106" style="stroke: #000000; stroke-width: 0.8"/>
      </g>
     </g>
     <g id="text_2">
      <!-- 500 -->
      <g transform="translate(344.471296 565.704438) scale(0.1 -0.1)">
       <use xlink:href="#DejaVuSans-35"/>
       <use xlink:href="#DejaVuSans-30" x="63.623047"/>
       <use xlink:href="#DejaVuSans-30" x="127.246094"/>
      </g>
     </g>
    </g>
    <g id="xtick_3">
     <g id="line2d_5">
      <path d="M 449.526319 551.106 
L 449.526319 64.836 
" clip-path="url(#p3091642830)" style="fill: none; stroke: #b0b0b0; stroke-width: 0.8; stroke-linecap: square"/>
     </g>
     <g id="line2d_6">
      <g>
       <use xlink:href="#m07bae6ab15" x="449.526319" y="551.106" style="stroke: #000000; stroke-width: 0.8"/>
      </g>
     </g>
     <g id="text_3">
      <!-- 750 -->
      <g transform="translate(439.982569 565.704438) scale(0.1 -0.1)">
       <defs>
        <path id="DejaVuSans-37" d="M 525 4666 
L 3525 4666 
L 3525 4397 
L 1831 0 
L 1172 0 
L 2766 4134 
L 525 4134 
L 525 4666 
z
" transform="scale(0.015625)"/>
       </defs>
       <use xlink:href="#DejaVuSans-37"/>
       <use xlink:href="#DejaVuSans-35" x="63.623047"/>
       <use xlink:href="#DejaVuSans-30" x="127.246094"/>
      </g>
     </g>
    </g>
    <g id="xtick_4">
     <g id="line2d_7">
      <path d="M 545.037591 551.106 
L 545.037591 64.836 
" clip-path="url(#p3091642830)" style="fill: none; stroke: #b0b0b0; stroke-width: 0.8; stroke-linecap: square"/>
     </g>
     <g id="line2d_8">
      <g>
       <use xlink:href="#m07bae6ab15" x="545.037591" y="551.106" style="stroke: #000000; stroke-width: 0.8"/>
      </g>
     </g>
     <g id="text_4">
      <!-- 1000 -->
      <g transform="translate(532.312591 565.704438) scale(0.1 -0.1)">
       <defs>
        <path id="DejaVuSans-31" d="M 794 531 
L 1825 531 
L 1825 4091 
L 703 3866 
L 703 4441 
L 1819 4666 
L 2450 4666 
L 2450 531 
L 3481 531 
L 3481 0 
L 794 0 
L 794 531 
z
" transform="scale(0.015625)"/>
       </defs>
       <use xlink:href="#DejaVuSans-31"/>
       <use xlink:href="#DejaVuSans-30" x="63.623047"/>
       <use xlink:href="#DejaVuSans-30" x="127.246094"/>
       <use xlink:href="#DejaVuSans-30" x="190.869141"/>
      </g>
     </g>
    </g>
    <g id="xtick_5">
     <g id="line2d_9">
      <path d="M 640.548864 551.106 
L 640.548864 64.836 
" clip-path="url(#p3091642830)" style="fill: none; stroke: #b0b0b0; stroke-width: 0.8; stroke-linecap: square"/>
     </g>
     <g id="line2d_10">
      <g>
       <use xlink:href="#m07bae6ab15" x="640.548864" y="551.106" style="stroke: #000000; stroke-width: 0.8"/>
      </g>
     </g>
     <g id="text_5">
      <!-- 1250 -->
      <g transform="translate(627.823864 565.704438) scale(0.1 -0.1)">
       <use xlink:href="#DejaVuSans-31"/>
       <use xlink:href="#DejaVuSans-32" x="63.623047"/>
       <use xlink:href="#DejaVuSans-35" x="127.246094"/>
       <use xlink:href="#DejaVuSans-30" x="190.869141"/>
      </g>
     </g>
    </g>
    <g id="xtick_6">
     <g id="line2d_11">
      <path d="M 736.060137 551.106 
L 736.060137 64.836 
" clip-path="url(#p3091642830)" style="fill: none; stroke: #b0b0b0; stroke-width: 0.8; stroke-linecap: square"/>
     </g>
     <g id="line2d_12">
      <g>
       <use xlink:href="#m07bae6ab15" x="736.060137" y="551.106" style="stroke: #000000; stroke-width: 0.8"/>
      </g>
     </g>
     <g id="text_6">
      <!-- 1500 -->
      <g transform="translate(723.335137 565.704438) scale(0.1 -0.1)">
       <use xlink:href="#DejaVuSans-31"/>
       <use xlink:href="#DejaVuSans-35" x="63.623047"/>
       <use xlink:href="#DejaVuSans-30" x="127.246094"/>
       <use xlink:href="#DejaVuSans-30" x="190.869141"/>
      </g>
     </g>
    </g>
    <g id="xtick_7">
     <g id="line2d_13">
      <path d="M 831.571409 551.106 
L 831.571409 64.836 
" clip-path="url(#p3091642830)" style="fill: none; stroke: #b0b0b0; stroke-width: 0.8; stroke-linecap: square"/>
     </g>
     <g id="line2d_14">
      <g>
       <use xlink:href="#m07bae6ab15" x="831.571409" y="551.106" style="stroke: #000000; stroke-width: 0.8"/>
      </g>
     </g>
     <g id="text_7">
      <!-- 1750 -->
      <g transform="translate(818.846409 565.704438) scale(0.1 -0.1)">
       <use xlink:href="#DejaVuSans-31"/>
       <use xlink:href="#DejaVuSans-37" x="63.623047"/>
       <use xlink:href="#DejaVuSans-35" x="127.246094"/>
       <use xlink:href="#DejaVuSans-30" x="190.869141"/>
      </g>
     </g>
    </g>
    <g id="xtick_8">
     <g id="line2d_15">
      <path d="M 927.082682 551.106 
L 927.082682 64.836 
" clip-path="url(#p3091642830)" style="fill: none; stroke: #b0b0b0; stroke-width: 0.8; stroke-linecap: square"/>
     </g>
     <g id="line2d_16">
      <g>
       <use xlink:href="#m07bae6ab15" x="927.082682" y="551.106" style="stroke: #000000; stroke-width: 0.8"/>
      </g>
     </g>
     <g id="text_8">
      <!-- 2000 -->
      <g transform="translate(914.357682 565.704438) scale(0.1 -0.1)">
       <use xlink:href="#DejaVuSans-32"/>
       <use xlink:href="#DejaVuSans-30" x="63.623047"/>
       <use xlink:href="#DejaVuSans-30" x="127.246094"/>
       <use xlink:href="#DejaVuSans-30" x="190.869141"/>
      </g>
     </g>
    </g>
    <g id="xtick_9">
     <g id="line2d_17">
      <path d="M 1022.593955 551.106 
L 1022.593955 64.836 
" clip-path="url(#p3091642830)" style="fill: none; stroke: #b0b0b0; stroke-width: 0.8; stroke-linecap: square"/>
     </g>
     <g id="line2d_18">
      <g>
       <use xlink:href="#m07bae6ab15" x="1022.593955" y="551.106" style="stroke: #000000; stroke-width: 0.8"/>
      </g>
     </g>
     <g id="text_9">
      <!-- 2250 -->
      <g transform="translate(1009.868955 565.704438) scale(0.1 -0.1)">
       <use xlink:href="#DejaVuSans-32"/>
       <use xlink:href="#DejaVuSans-32" x="63.623047"/>
       <use xlink:href="#DejaVuSans-35" x="127.246094"/>
       <use xlink:href="#DejaVuSans-30" x="190.869141"/>
      </g>
     </g>
    </g>
    <g id="text_10">
     <!-- Nx -->
     <g transform="translate(596.0264 579.382562) scale(0.1 -0.1)">
      <defs>
       <path id="DejaVuSans-4e" d="M 628 4666 
L 1478 4666 
L 3547 763 
L 3547 4666 
L 4159 4666 
L 4159 0 
L 3309 0 
L 1241 3903 
L 1241 0 
L 628 0 
L 628 4666 
z
" transform="scale(0.015625)"/>
       <path id="DejaVuSans-78" d="M 3513 3500 
L 2247 1797 
L 3578 0 
L 2900 0 
L 1881 1375 
L 863 0 
L 184 0 
L 1544 1831 
L 300 3500 
L 978 3500 
L 1906 2253 
L 2834 3500 
L 3513 3500 
z
" transform="scale(0.015625)"/>
      </defs>
      <use xlink:href="#DejaVuSans-4e"/>
      <use xlink:href="#DejaVuSans-78" x="74.804688"/>
     </g>
    </g>
   </g>
   <g id="matplotlib.axis_2">
    <g id="ytick_1">
     <g id="line2d_19">
      <path d="M 182.4768 504.202056 
L 1022.976 504.202056 
" clip-path="url(#p3091642830)" style="fill: none; stroke: #b0b0b0; stroke-width: 0.8; stroke-linecap: square"/>
     </g>
     <g id="line2d_20">
      <defs>
       <path id="m01f8e5b794" d="M 0 0 
L -3.5 0 
" style="stroke: #000000; stroke-width: 0.8"/>
      </defs>
      <g>
       <use xlink:href="#m01f8e5b794" x="182.4768" y="504.202056" style="stroke: #000000; stroke-width: 0.8"/>
      </g>
     </g>
     <g id="text_11">
      <!-- 0.02 -->
      <g transform="translate(153.211175 508.001275) scale(0.1 -0.1)">
       <defs>
        <path id="DejaVuSans-2e" d="M 684 794 
L 1344 794 
L 1344 0 
L 684 0 
L 684 794 
z
" transform="scale(0.015625)"/>
       </defs>
       <use xlink:href="#DejaVuSans-30"/>
       <use xlink:href="#DejaVuSans-2e" x="63.623047"/>
       <use xlink:href="#DejaVuSans-30" x="95.410156"/>
       <use xlink:href="#DejaVuSans-32" x="159.033203"/>
      </g>
     </g>
    </g>
    <g id="ytick_2">
     <g id="line2d_21">
      <path d="M 182.4768 442.168071 
L 1022.976 442.168071 
" clip-path="url(#p3091642830)" style="fill: none; stroke: #b0b0b0; stroke-width: 0.8; stroke-linecap: square"/>
     </g>
     <g id="line2d_22">
      <g>
       <use xlink:href="#m01f8e5b794" x="182.4768" y="442.168071" style="stroke: #000000; stroke-width: 0.8"/>
      </g>
     </g>
     <g id="text_12">
      <!-- 0.04 -->
      <g transform="translate(153.211175 445.96729) scale(0.1 -0.1)">
       <defs>
        <path id="DejaVuSans-34" d="M 2419 4116 
L 825 1625 
L 2419 1625 
L 2419 4116 
z
M 2253 4666 
L 3047 4666 
L 3047 1625 
L 3713 1625 
L 3713 1100 
L 3047 1100 
L 3047 0 
L 2419 0 
L 2419 1100 
L 313 1100 
L 313 1709 
L 2253 4666 
z
" transform="scale(0.015625)"/>
       </defs>
       <use xlink:href="#DejaVuSans-30"/>
       <use xlink:href="#DejaVuSans-2e" x="63.623047"/>
       <use xlink:href="#DejaVuSans-30" x="95.410156"/>
       <use xlink:href="#DejaVuSans-34" x="159.033203"/>
      </g>
     </g>
    </g>
    <g id="ytick_3">
     <g id="line2d_23">
      <path d="M 182.4768 380.134087 
L 1022.976 380.134087 
" clip-path="url(#p3091642830)" style="fill: none; stroke: #b0b0b0; stroke-width: 0.8; stroke-linecap: square"/>
     </g>
     <g id="line2d_24">
      <g>
       <use xlink:href="#m01f8e5b794" x="182.4768" y="380.134087" style="stroke: #000000; stroke-width: 0.8"/>
      </g>
     </g>
     <g id="text_13">
      <!-- 0.06 -->
      <g transform="translate(153.211175 383.933305) scale(0.1 -0.1)">
       <defs>
        <path id="DejaVuSans-36" d="M 2113 2584 
Q 1688 2584 1439 2293 
Q 1191 2003 1191 1497 
Q 1191 994 1439 701 
Q 1688 409 2113 409 
Q 2538 409 2786 701 
Q 3034 994 3034 1497 
Q 3034 2003 2786 2293 
Q 2538 2584 2113 2584 
z
M 3366 4563 
L 3366 3988 
Q 3128 4100 2886 4159 
Q 2644 4219 2406 4219 
Q 1781 4219 1451 3797 
Q 1122 3375 1075 2522 
Q 1259 2794 1537 2939 
Q 1816 3084 2150 3084 
Q 2853 3084 3261 2657 
Q 3669 2231 3669 1497 
Q 3669 778 3244 343 
Q 2819 -91 2113 -91 
Q 1303 -91 875 529 
Q 447 1150 447 2328 
Q 447 3434 972 4092 
Q 1497 4750 2381 4750 
Q 2619 4750 2861 4703 
Q 3103 4656 3366 4563 
z
" transform="scale(0.015625)"/>
       </defs>
       <use xlink:href="#DejaVuSans-30"/>
       <use xlink:href="#DejaVuSans-2e" x="63.623047"/>
       <use xlink:href="#DejaVuSans-30" x="95.410156"/>
       <use xlink:href="#DejaVuSans-36" x="159.033203"/>
      </g>
     </g>
    </g>
    <g id="ytick_4">
     <g id="line2d_25">
      <path d="M 182.4768 318.100102 
L 1022.976 318.100102 
" clip-path="url(#p3091642830)" style="fill: none; stroke: #b0b0b0; stroke-width: 0.8; stroke-linecap: square"/>
     </g>
     <g id="line2d_26">
      <g>
       <use xlink:href="#m01f8e5b794" x="182.4768" y="318.100102" style="stroke: #000000; stroke-width: 0.8"/>
      </g>
     </g>
     <g id="text_14">
      <!-- 0.08 -->
      <g transform="translate(153.211175 321.899321) scale(0.1 -0.1)">
       <defs>
        <path id="DejaVuSans-38" d="M 2034 2216 
Q 1584 2216 1326 1975 
Q 1069 1734 1069 1313 
Q 1069 891 1326 650 
Q 1584 409 2034 409 
Q 2484 409 2743 651 
Q 3003 894 3003 1313 
Q 3003 1734 2745 1975 
Q 2488 2216 2034 2216 
z
M 1403 2484 
Q 997 2584 770 2862 
Q 544 3141 544 3541 
Q 544 4100 942 4425 
Q 1341 4750 2034 4750 
Q 2731 4750 3128 4425 
Q 3525 4100 3525 3541 
Q 3525 3141 3298 2862 
Q 3072 2584 2669 2484 
Q 3125 2378 3379 2068 
Q 3634 1759 3634 1313 
Q 3634 634 3220 271 
Q 2806 -91 2034 -91 
Q 1263 -91 848 271 
Q 434 634 434 1313 
Q 434 1759 690 2068 
Q 947 2378 1403 2484 
z
M 1172 3481 
Q 1172 3119 1398 2916 
Q 1625 2713 2034 2713 
Q 2441 2713 2670 2916 
Q 2900 3119 2900 3481 
Q 2900 3844 2670 4047 
Q 2441 4250 2034 4250 
Q 1625 4250 1398 4047 
Q 1172 3844 1172 3481 
z
" transform="scale(0.015625)"/>
       </defs>
       <use xlink:href="#DejaVuSans-30"/>
       <use xlink:href="#DejaVuSans-2e" x="63.623047"/>
       <use xlink:href="#DejaVuSans-30" x="95.410156"/>
       <use xlink:href="#DejaVuSans-38" x="159.033203"/>
      </g>
     </g>
    </g>
    <g id="ytick_5">
     <g id="line2d_27">
      <path d="M 182.4768 256.066117 
L 1022.976 256.066117 
" clip-path="url(#p3091642830)" style="fill: none; stroke: #b0b0b0; stroke-width: 0.8; stroke-linecap: square"/>
     </g>
     <g id="line2d_28">
      <g>
       <use xlink:href="#m01f8e5b794" x="182.4768" y="256.066117" style="stroke: #000000; stroke-width: 0.8"/>
      </g>
     </g>
     <g id="text_15">
      <!-- 0.10 -->
      <g transform="translate(153.211175 259.865336) scale(0.1 -0.1)">
       <use xlink:href="#DejaVuSans-30"/>
       <use xlink:href="#DejaVuSans-2e" x="63.623047"/>
       <use xlink:href="#DejaVuSans-31" x="95.410156"/>
       <use xlink:href="#DejaVuSans-30" x="159.033203"/>
      </g>
     </g>
    </g>
    <g id="ytick_6">
     <g id="line2d_29">
      <path d="M 182.4768 194.032132 
L 1022.976 194.032132 
" clip-path="url(#p3091642830)" style="fill: none; stroke: #b0b0b0; stroke-width: 0.8; stroke-linecap: square"/>
     </g>
     <g id="line2d_30">
      <g>
       <use xlink:href="#m01f8e5b794" x="182.4768" y="194.032132" style="stroke: #000000; stroke-width: 0.8"/>
      </g>
     </g>
     <g id="text_16">
      <!-- 0.12 -->
      <g transform="translate(153.211175 197.831351) scale(0.1 -0.1)">
       <use xlink:href="#DejaVuSans-30"/>
       <use xlink:href="#DejaVuSans-2e" x="63.623047"/>
       <use xlink:href="#DejaVuSans-31" x="95.410156"/>
       <use xlink:href="#DejaVuSans-32" x="159.033203"/>
      </g>
     </g>
    </g>
    <g id="ytick_7">
     <g id="line2d_31">
      <path d="M 182.4768 131.998148 
L 1022.976 131.998148 
" clip-path="url(#p3091642830)" style="fill: none; stroke: #b0b0b0; stroke-width: 0.8; stroke-linecap: square"/>
     </g>
     <g id="line2d_32">
      <g>
       <use xlink:href="#m01f8e5b794" x="182.4768" y="131.998148" style="stroke: #000000; stroke-width: 0.8"/>
      </g>
     </g>
     <g id="text_17">
      <!-- 0.14 -->
      <g transform="translate(153.211175 135.797366) scale(0.1 -0.1)">
       <use xlink:href="#DejaVuSans-30"/>
       <use xlink:href="#DejaVuSans-2e" x="63.623047"/>
       <use xlink:href="#DejaVuSans-31" x="95.410156"/>
       <use xlink:href="#DejaVuSans-34" x="159.033203"/>
      </g>
     </g>
    </g>
    <g id="ytick_8">
     <g id="line2d_33">
      <path d="M 182.4768 69.964163 
L 1022.976 69.964163 
" clip-path="url(#p3091642830)" style="fill: none; stroke: #b0b0b0; stroke-width: 0.8; stroke-linecap: square"/>
     </g>
     <g id="line2d_34">
      <g>
       <use xlink:href="#m01f8e5b794" x="182.4768" y="69.964163" style="stroke: #000000; stroke-width: 0.8"/>
      </g>
     </g>
     <g id="text_18">
      <!-- 0.16 -->
      <g transform="translate(153.211175 73.763382) scale(0.1 -0.1)">
       <use xlink:href="#DejaVuSans-30"/>
       <use xlink:href="#DejaVuSans-2e" x="63.623047"/>
       <use xlink:href="#DejaVuSans-31" x="95.410156"/>
       <use xlink:href="#DejaVuSans-36" x="159.033203"/>
      </g>
     </g>
    </g>
    <g id="text_19">
     <!-- operation time [s] -->
     <g transform="translate(147.131488 352.9585) rotate(-90) scale(0.1 -0.1)">
      <defs>
       <path id="DejaVuSans-6f" d="M 1959 3097 
Q 1497 3097 1228 2736 
Q 959 2375 959 1747 
Q 959 1119 1226 758 
Q 1494 397 1959 397 
Q 2419 397 2687 759 
Q 2956 1122 2956 1747 
Q 2956 2369 2687 2733 
Q 2419 3097 1959 3097 
z
M 1959 3584 
Q 2709 3584 3137 3096 
Q 3566 2609 3566 1747 
Q 3566 888 3137 398 
Q 2709 -91 1959 -91 
Q 1206 -91 779 398 
Q 353 888 353 1747 
Q 353 2609 779 3096 
Q 1206 3584 1959 3584 
z
" transform="scale(0.015625)"/>
       <path id="DejaVuSans-70" d="M 1159 525 
L 1159 -1331 
L 581 -1331 
L 581 3500 
L 1159 3500 
L 1159 2969 
Q 1341 3281 1617 3432 
Q 1894 3584 2278 3584 
Q 2916 3584 3314 3078 
Q 3713 2572 3713 1747 
Q 3713 922 3314 415 
Q 2916 -91 2278 -91 
Q 1894 -91 1617 61 
Q 1341 213 1159 525 
z
M 3116 1747 
Q 3116 2381 2855 2742 
Q 2594 3103 2138 3103 
Q 1681 3103 1420 2742 
Q 1159 2381 1159 1747 
Q 1159 1113 1420 752 
Q 1681 391 2138 391 
Q 2594 391 2855 752 
Q 3116 1113 3116 1747 
z
" transform="scale(0.015625)"/>
       <path id="DejaVuSans-65" d="M 3597 1894 
L 3597 1613 
L 953 1613 
Q 991 1019 1311 708 
Q 1631 397 2203 397 
Q 2534 397 2845 478 
Q 3156 559 3463 722 
L 3463 178 
Q 3153 47 2828 -22 
Q 2503 -91 2169 -91 
Q 1331 -91 842 396 
Q 353 884 353 1716 
Q 353 2575 817 3079 
Q 1281 3584 2069 3584 
Q 2775 3584 3186 3129 
Q 3597 2675 3597 1894 
z
M 3022 2063 
Q 3016 2534 2758 2815 
Q 2500 3097 2075 3097 
Q 1594 3097 1305 2825 
Q 1016 2553 972 2059 
L 3022 2063 
z
" transform="scale(0.015625)"/>
       <path id="DejaVuSans-72" d="M 2631 2963 
Q 2534 3019 2420 3045 
Q 2306 3072 2169 3072 
Q 1681 3072 1420 2755 
Q 1159 2438 1159 1844 
L 1159 0 
L 581 0 
L 581 3500 
L 1159 3500 
L 1159 2956 
Q 1341 3275 1631 3429 
Q 1922 3584 2338 3584 
Q 2397 3584 2469 3576 
Q 2541 3569 2628 3553 
L 2631 2963 
z
" transform="scale(0.015625)"/>
       <path id="DejaVuSans-61" d="M 2194 1759 
Q 1497 1759 1228 1600 
Q 959 1441 959 1056 
Q 959 750 1161 570 
Q 1363 391 1709 391 
Q 2188 391 2477 730 
Q 2766 1069 2766 1631 
L 2766 1759 
L 2194 1759 
z
M 3341 1997 
L 3341 0 
L 2766 0 
L 2766 531 
Q 2569 213 2275 61 
Q 1981 -91 1556 -91 
Q 1019 -91 701 211 
Q 384 513 384 1019 
Q 384 1609 779 1909 
Q 1175 2209 1959 2209 
L 2766 2209 
L 2766 2266 
Q 2766 2663 2505 2880 
Q 2244 3097 1772 3097 
Q 1472 3097 1187 3025 
Q 903 2953 641 2809 
L 641 3341 
Q 956 3463 1253 3523 
Q 1550 3584 1831 3584 
Q 2591 3584 2966 3190 
Q 3341 2797 3341 1997 
z
" transform="scale(0.015625)"/>
       <path id="DejaVuSans-74" d="M 1172 4494 
L 1172 3500 
L 2356 3500 
L 2356 3053 
L 1172 3053 
L 1172 1153 
Q 1172 725 1289 603 
Q 1406 481 1766 481 
L 2356 481 
L 2356 0 
L 1766 0 
Q 1100 0 847 248 
Q 594 497 594 1153 
L 594 3053 
L 172 3053 
L 172 3500 
L 594 3500 
L 594 4494 
L 1172 4494 
z
" transform="scale(0.015625)"/>
       <path id="DejaVuSans-69" d="M 603 3500 
L 1178 3500 
L 1178 0 
L 603 0 
L 603 3500 
z
M 603 4863 
L 1178 4863 
L 1178 4134 
L 603 4134 
L 603 4863 
z
" transform="scale(0.015625)"/>
       <path id="DejaVuSans-6e" d="M 3513 2113 
L 3513 0 
L 2938 0 
L 2938 2094 
Q 2938 2591 2744 2837 
Q 2550 3084 2163 3084 
Q 1697 3084 1428 2787 
Q 1159 2491 1159 1978 
L 1159 0 
L 581 0 
L 581 3500 
L 1159 3500 
L 1159 2956 
Q 1366 3272 1645 3428 
Q 1925 3584 2291 3584 
Q 2894 3584 3203 3211 
Q 3513 2838 3513 2113 
z
" transform="scale(0.015625)"/>
       <path id="DejaVuSans-20" transform="scale(0.015625)"/>
       <path id="DejaVuSans-6d" d="M 3328 2828 
Q 3544 3216 3844 3400 
Q 4144 3584 4550 3584 
Q 5097 3584 5394 3201 
Q 5691 2819 5691 2113 
L 5691 0 
L 5113 0 
L 5113 2094 
Q 5113 2597 4934 2840 
Q 4756 3084 4391 3084 
Q 3944 3084 3684 2787 
Q 3425 2491 3425 1978 
L 3425 0 
L 2847 0 
L 2847 2094 
Q 2847 2600 2669 2842 
Q 2491 3084 2119 3084 
Q 1678 3084 1418 2786 
Q 1159 2488 1159 1978 
L 1159 0 
L 581 0 
L 581 3500 
L 1159 3500 
L 1159 2956 
Q 1356 3278 1631 3431 
Q 1906 3584 2284 3584 
Q 2666 3584 2933 3390 
Q 3200 3197 3328 2828 
z
" transform="scale(0.015625)"/>
       <path id="DejaVuSans-5b" d="M 550 4863 
L 1875 4863 
L 1875 4416 
L 1125 4416 
L 1125 -397 
L 1875 -397 
L 1875 -844 
L 550 -844 
L 550 4863 
z
" transform="scale(0.015625)"/>
       <path id="DejaVuSans-73" d="M 2834 3397 
L 2834 2853 
Q 2591 2978 2328 3040 
Q 2066 3103 1784 3103 
Q 1356 3103 1142 2972 
Q 928 2841 928 2578 
Q 928 2378 1081 2264 
Q 1234 2150 1697 2047 
L 1894 2003 
Q 2506 1872 2764 1633 
Q 3022 1394 3022 966 
Q 3022 478 2636 193 
Q 2250 -91 1575 -91 
Q 1294 -91 989 -36 
Q 684 19 347 128 
L 347 722 
Q 666 556 975 473 
Q 1284 391 1588 391 
Q 1994 391 2212 530 
Q 2431 669 2431 922 
Q 2431 1156 2273 1281 
Q 2116 1406 1581 1522 
L 1381 1569 
Q 847 1681 609 1914 
Q 372 2147 372 2553 
Q 372 3047 722 3315 
Q 1072 3584 1716 3584 
Q 2034 3584 2315 3537 
Q 2597 3491 2834 3397 
z
" transform="scale(0.015625)"/>
       <path id="DejaVuSans-5d" d="M 1947 4863 
L 1947 -844 
L 622 -844 
L 622 -397 
L 1369 -397 
L 1369 4416 
L 622 4416 
L 622 4863 
L 1947 4863 
z
" transform="scale(0.015625)"/>
      </defs>
      <use xlink:href="#DejaVuSans-6f"/>
      <use xlink:href="#DejaVuSans-70" x="61.181641"/>
      <use xlink:href="#DejaVuSans-65" x="124.658203"/>
      <use xlink:href="#DejaVuSans-72" x="186.181641"/>
      <use xlink:href="#DejaVuSans-61" x="227.294922"/>
      <use xlink:href="#DejaVuSans-74" x="288.574219"/>
      <use xlink:href="#DejaVuSans-69" x="327.783203"/>
      <use xlink:href="#DejaVuSans-6f" x="355.566406"/>
      <use xlink:href="#DejaVuSans-6e" x="416.748047"/>
      <use xlink:href="#DejaVuSans-20" x="480.126953"/>
      <use xlink:href="#DejaVuSans-74" x="511.914062"/>
      <use xlink:href="#DejaVuSans-69" x="551.123047"/>
      <use xlink:href="#DejaVuSans-6d" x="578.90625"/>
      <use xlink:href="#DejaVuSans-65" x="676.318359"/>
      <use xlink:href="#DejaVuSans-20" x="737.841797"/>
      <use xlink:href="#DejaVuSans-5b" x="769.628906"/>
      <use xlink:href="#DejaVuSans-73" x="808.642578"/>
      <use xlink:href="#DejaVuSans-5d" x="860.742188"/>
     </g>
    </g>
   </g>
   <g id="line2d_35">
    <path d="M 220.681309 528.995423 
L 228.322211 529.002818 
L 235.963113 527.145927 
L 243.604015 525.133 
L 251.244916 519.225113 
L 258.885818 519.721319 
L 266.52672 519.710227 
L 274.167622 513.230704 
L 281.808524 465.166724 
L 289.449425 470.260419 
L 297.090327 476.284408 
L 304.731229 480.606802 
L 312.372131 479.354084 
L 320.013033 459.353494 
L 327.653935 470.870509 
L 335.294836 478.100627 
L 342.935738 417.267654 
L 350.57664 477.810003 
L 358.217542 482.543559 
L 365.858444 479.266083 
L 373.499345 463.765367 
L 381.140247 460.356259 
L 388.781149 439.081505 
L 396.422051 466.745563 
L 404.062953 469.489857 
L 411.703855 439.054144 
L 419.344756 455.635274 
L 426.985658 454.188067 
L 434.62656 460.780734 
L 442.267462 449.714076 
L 449.908364 435.019417 
L 457.549265 442.208123 
L 465.190167 446.287959 
L 472.831069 435.899425 
L 480.471971 436.298757 
L 488.112873 438.713972 
L 495.753775 434.1823 
L 503.394676 420.508155 
L 511.035578 399.445638 
L 518.67648 431.458711 
L 526.317382 429.609215 
L 533.958284 428.019284 
L 541.599185 420.507415 
L 549.240087 417.780869 
L 556.880989 417.21367 
L 564.521891 395.915252 
L 572.162793 398.734976 
L 579.803695 403.318414 
L 587.444596 392.584532 
L 595.085498 397.292206 
L 602.7264 385.79146 
L 610.367302 390.541286 
L 618.008204 390.956147 
L 625.649105 379.504947 
L 633.290007 372.152072 
L 640.930909 341.081125 
L 648.571811 357.171226 
L 656.212713 366.28116 
L 663.853615 351.924454 
L 671.494516 352.16849 
L 679.135418 337.822876 
L 686.77632 341.295581 
L 694.417222 332.839367 
L 702.058124 331.765609 
L 709.699025 324.170916 
L 717.339927 335.403963 
L 724.980829 326.941833 
L 732.621731 317.490249 
L 740.262633 326.577258 
L 747.903535 336.750597 
L 755.544436 321.772709 
L 763.185338 193.803981 
L 770.82624 251.186435 
L 778.467142 305.848997 
L 786.108044 283.369593 
L 793.748945 309.941405 
L 801.389847 285.163627 
L 809.030749 204.570401 
L 816.671651 239.92159 
L 824.312553 276.508487 
L 831.953455 139.265655 
L 839.594356 148.516834 
L 847.235258 123.563054 
L 854.87616 221.172977 
L 862.517062 246.885487 
L 870.157964 274.58578 
L 877.798865 215.306502 
L 885.439767 252.404396 
L 893.080669 260.476807 
L 900.721571 255.397163 
L 908.362473 232.408981 
L 916.003375 246.384104 
L 923.644276 236.839342 
L 931.285178 239.626528 
L 938.92608 104.063107 
L 946.566982 114.647609 
L 954.207884 109.460737 
L 961.848785 231.648773 
L 969.489687 86.939182 
L 977.130589 117.797152 
L 984.771491 107.460382 
" clip-path="url(#p3091642830)" style="fill: none; stroke: #1f77b4; stroke-width: 1.5; stroke-linecap: square"/>
    <defs>
     <path id="m3c0485859b" d="M 0 3 
C 0.795609 3 1.55874 2.683901 2.12132 2.12132 
C 2.683901 1.55874 3 0.795609 3 0 
C 3 -0.795609 2.683901 -1.55874 2.12132 -2.12132 
C 1.55874 -2.683901 0.795609 -3 0 -3 
C -0.795609 -3 -1.55874 -2.683901 -2.12132 -2.12132 
C -2.683901 -1.55874 -3 -0.795609 -3 0 
C -3 0.795609 -2.683901 1.55874 -2.12132 2.12132 
C -1.55874 2.683901 -0.795609 3 0 3 
z
" style="stroke: #1f77b4"/>
    </defs>
    <g clip-path="url(#p3091642830)">
     <use xlink:href="#m3c0485859b" x="220.681309" y="528.995423" style="fill: #1f77b4; stroke: #1f77b4"/>
     <use xlink:href="#m3c0485859b" x="228.322211" y="529.002818" style="fill: #1f77b4; stroke: #1f77b4"/>
     <use xlink:href="#m3c0485859b" x="235.963113" y="527.145927" style="fill: #1f77b4; stroke: #1f77b4"/>
     <use xlink:href="#m3c0485859b" x="243.604015" y="525.133" style="fill: #1f77b4; stroke: #1f77b4"/>
     <use xlink:href="#m3c0485859b" x="251.244916" y="519.225113" style="fill: #1f77b4; stroke: #1f77b4"/>
     <use xlink:href="#m3c0485859b" x="258.885818" y="519.721319" style="fill: #1f77b4; stroke: #1f77b4"/>
     <use xlink:href="#m3c0485859b" x="266.52672" y="519.710227" style="fill: #1f77b4; stroke: #1f77b4"/>
     <use xlink:href="#m3c0485859b" x="274.167622" y="513.230704" style="fill: #1f77b4; stroke: #1f77b4"/>
     <use xlink:href="#m3c0485859b" x="281.808524" y="465.166724" style="fill: #1f77b4; stroke: #1f77b4"/>
     <use xlink:href="#m3c0485859b" x="289.449425" y="470.260419" style="fill: #1f77b4; stroke: #1f77b4"/>
     <use xlink:href="#m3c0485859b" x="297.090327" y="476.284408" style="fill: #1f77b4; stroke: #1f77b4"/>
     <use xlink:href="#m3c0485859b" x="304.731229" y="480.606802" style="fill: #1f77b4; stroke: #1f77b4"/>
     <use xlink:href="#m3c0485859b" x="312.372131" y="479.354084" style="fill: #1f77b4; stroke: #1f77b4"/>
     <use xlink:href="#m3c0485859b" x="320.013033" y="459.353494" style="fill: #1f77b4; stroke: #1f77b4"/>
     <use xlink:href="#m3c0485859b" x="327.653935" y="470.870509" style="fill: #1f77b4; stroke: #1f77b4"/>
     <use xlink:href="#m3c0485859b" x="335.294836" y="478.100627" style="fill: #1f77b4; stroke: #1f77b4"/>
     <use xlink:href="#m3c0485859b" x="342.935738" y="417.267654" style="fill: #1f77b4; stroke: #1f77b4"/>
     <use xlink:href="#m3c0485859b" x="350.57664" y="477.810003" style="fill: #1f77b4; stroke: #1f77b4"/>
     <use xlink:href="#m3c0485859b" x="358.217542" y="482.543559" style="fill: #1f77b4; stroke: #1f77b4"/>
     <use xlink:href="#m3c0485859b" x="365.858444" y="479.266083" style="fill: #1f77b4; stroke: #1f77b4"/>
     <use xlink:href="#m3c0485859b" x="373.499345" y="463.765367" style="fill: #1f77b4; stroke: #1f77b4"/>
     <use xlink:href="#m3c0485859b" x="381.140247" y="460.356259" style="fill: #1f77b4; stroke: #1f77b4"/>
     <use xlink:href="#m3c0485859b" x="388.781149" y="439.081505" style="fill: #1f77b4; stroke: #1f77b4"/>
     <use xlink:href="#m3c0485859b" x="396.422051" y="466.745563" style="fill: #1f77b4; stroke: #1f77b4"/>
     <use xlink:href="#m3c0485859b" x="404.062953" y="469.489857" style="fill: #1f77b4; stroke: #1f77b4"/>
     <use xlink:href="#m3c0485859b" x="411.703855" y="439.054144" style="fill: #1f77b4; stroke: #1f77b4"/>
     <use xlink:href="#m3c0485859b" x="419.344756" y="455.635274" style="fill: #1f77b4; stroke: #1f77b4"/>
     <use xlink:href="#m3c0485859b" x="426.985658" y="454.188067" style="fill: #1f77b4; stroke: #1f77b4"/>
     <use xlink:href="#m3c0485859b" x="434.62656" y="460.780734" style="fill: #1f77b4; stroke: #1f77b4"/>
     <use xlink:href="#m3c0485859b" x="442.267462" y="449.714076" style="fill: #1f77b4; stroke: #1f77b4"/>
     <use xlink:href="#m3c0485859b" x="449.908364" y="435.019417" style="fill: #1f77b4; stroke: #1f77b4"/>
     <use xlink:href="#m3c0485859b" x="457.549265" y="442.208123" style="fill: #1f77b4; stroke: #1f77b4"/>
     <use xlink:href="#m3c0485859b" x="465.190167" y="446.287959" style="fill: #1f77b4; stroke: #1f77b4"/>
     <use xlink:href="#m3c0485859b" x="472.831069" y="435.899425" style="fill: #1f77b4; stroke: #1f77b4"/>
     <use xlink:href="#m3c0485859b" x="480.471971" y="436.298757" style="fill: #1f77b4; stroke: #1f77b4"/>
     <use xlink:href="#m3c0485859b" x="488.112873" y="438.713972" style="fill: #1f77b4; stroke: #1f77b4"/>
     <use xlink:href="#m3c0485859b" x="495.753775" y="434.1823" style="fill: #1f77b4; stroke: #1f77b4"/>
     <use xlink:href="#m3c0485859b" x="503.394676" y="420.508155" style="fill: #1f77b4; stroke: #1f77b4"/>
     <use xlink:href="#m3c0485859b" x="511.035578" y="399.445638" style="fill: #1f77b4; stroke: #1f77b4"/>
     <use xlink:href="#m3c0485859b" x="518.67648" y="431.458711" style="fill: #1f77b4; stroke: #1f77b4"/>
     <use xlink:href="#m3c0485859b" x="526.317382" y="429.609215" style="fill: #1f77b4; stroke: #1f77b4"/>
     <use xlink:href="#m3c0485859b" x="533.958284" y="428.019284" style="fill: #1f77b4; stroke: #1f77b4"/>
     <use xlink:href="#m3c0485859b" x="541.599185" y="420.507415" style="fill: #1f77b4; stroke: #1f77b4"/>
     <use xlink:href="#m3c0485859b" x="549.240087" y="417.780869" style="fill: #1f77b4; stroke: #1f77b4"/>
     <use xlink:href="#m3c0485859b" x="556.880989" y="417.21367" style="fill: #1f77b4; stroke: #1f77b4"/>
     <use xlink:href="#m3c0485859b" x="564.521891" y="395.915252" style="fill: #1f77b4; stroke: #1f77b4"/>
     <use xlink:href="#m3c0485859b" x="572.162793" y="398.734976" style="fill: #1f77b4; stroke: #1f77b4"/>
     <use xlink:href="#m3c0485859b" x="579.803695" y="403.318414" style="fill: #1f77b4; stroke: #1f77b4"/>
     <use xlink:href="#m3c0485859b" x="587.444596" y="392.584532" style="fill: #1f77b4; stroke: #1f77b4"/>
     <use xlink:href="#m3c0485859b" x="595.085498" y="397.292206" style="fill: #1f77b4; stroke: #1f77b4"/>
     <use xlink:href="#m3c0485859b" x="602.7264" y="385.79146" style="fill: #1f77b4; stroke: #1f77b4"/>
     <use xlink:href="#m3c0485859b" x="610.367302" y="390.541286" style="fill: #1f77b4; stroke: #1f77b4"/>
     <use xlink:href="#m3c0485859b" x="618.008204" y="390.956147" style="fill: #1f77b4; stroke: #1f77b4"/>
     <use xlink:href="#m3c0485859b" x="625.649105" y="379.504947" style="fill: #1f77b4; stroke: #1f77b4"/>
     <use xlink:href="#m3c0485859b" x="633.290007" y="372.152072" style="fill: #1f77b4; stroke: #1f77b4"/>
     <use xlink:href="#m3c0485859b" x="640.930909" y="341.081125" style="fill: #1f77b4; stroke: #1f77b4"/>
     <use xlink:href="#m3c0485859b" x="648.571811" y="357.171226" style="fill: #1f77b4; stroke: #1f77b4"/>
     <use xlink:href="#m3c0485859b" x="656.212713" y="366.28116" style="fill: #1f77b4; stroke: #1f77b4"/>
     <use xlink:href="#m3c0485859b" x="663.853615" y="351.924454" style="fill: #1f77b4; stroke: #1f77b4"/>
     <use xlink:href="#m3c0485859b" x="671.494516" y="352.16849" style="fill: #1f77b4; stroke: #1f77b4"/>
     <use xlink:href="#m3c0485859b" x="679.135418" y="337.822876" style="fill: #1f77b4; stroke: #1f77b4"/>
     <use xlink:href="#m3c0485859b" x="686.77632" y="341.295581" style="fill: #1f77b4; stroke: #1f77b4"/>
     <use xlink:href="#m3c0485859b" x="694.417222" y="332.839367" style="fill: #1f77b4; stroke: #1f77b4"/>
     <use xlink:href="#m3c0485859b" x="702.058124" y="331.765609" style="fill: #1f77b4; stroke: #1f77b4"/>
     <use xlink:href="#m3c0485859b" x="709.699025" y="324.170916" style="fill: #1f77b4; stroke: #1f77b4"/>
     <use xlink:href="#m3c0485859b" x="717.339927" y="335.403963" style="fill: #1f77b4; stroke: #1f77b4"/>
     <use xlink:href="#m3c0485859b" x="724.980829" y="326.941833" style="fill: #1f77b4; stroke: #1f77b4"/>
     <use xlink:href="#m3c0485859b" x="732.621731" y="317.490249" style="fill: #1f77b4; stroke: #1f77b4"/>
     <use xlink:href="#m3c0485859b" x="740.262633" y="326.577258" style="fill: #1f77b4; stroke: #1f77b4"/>
     <use xlink:href="#m3c0485859b" x="747.903535" y="336.750597" style="fill: #1f77b4; stroke: #1f77b4"/>
     <use xlink:href="#m3c0485859b" x="755.544436" y="321.772709" style="fill: #1f77b4; stroke: #1f77b4"/>
     <use xlink:href="#m3c0485859b" x="763.185338" y="193.803981" style="fill: #1f77b4; stroke: #1f77b4"/>
     <use xlink:href="#m3c0485859b" x="770.82624" y="251.186435" style="fill: #1f77b4; stroke: #1f77b4"/>
     <use xlink:href="#m3c0485859b" x="778.467142" y="305.848997" style="fill: #1f77b4; stroke: #1f77b4"/>
     <use xlink:href="#m3c0485859b" x="786.108044" y="283.369593" style="fill: #1f77b4; stroke: #1f77b4"/>
     <use xlink:href="#m3c0485859b" x="793.748945" y="309.941405" style="fill: #1f77b4; stroke: #1f77b4"/>
     <use xlink:href="#m3c0485859b" x="801.389847" y="285.163627" style="fill: #1f77b4; stroke: #1f77b4"/>
     <use xlink:href="#m3c0485859b" x="809.030749" y="204.570401" style="fill: #1f77b4; stroke: #1f77b4"/>
     <use xlink:href="#m3c0485859b" x="816.671651" y="239.92159" style="fill: #1f77b4; stroke: #1f77b4"/>
     <use xlink:href="#m3c0485859b" x="824.312553" y="276.508487" style="fill: #1f77b4; stroke: #1f77b4"/>
     <use xlink:href="#m3c0485859b" x="831.953455" y="139.265655" style="fill: #1f77b4; stroke: #1f77b4"/>
     <use xlink:href="#m3c0485859b" x="839.594356" y="148.516834" style="fill: #1f77b4; stroke: #1f77b4"/>
     <use xlink:href="#m3c0485859b" x="847.235258" y="123.563054" style="fill: #1f77b4; stroke: #1f77b4"/>
     <use xlink:href="#m3c0485859b" x="854.87616" y="221.172977" style="fill: #1f77b4; stroke: #1f77b4"/>
     <use xlink:href="#m3c0485859b" x="862.517062" y="246.885487" style="fill: #1f77b4; stroke: #1f77b4"/>
     <use xlink:href="#m3c0485859b" x="870.157964" y="274.58578" style="fill: #1f77b4; stroke: #1f77b4"/>
     <use xlink:href="#m3c0485859b" x="877.798865" y="215.306502" style="fill: #1f77b4; stroke: #1f77b4"/>
     <use xlink:href="#m3c0485859b" x="885.439767" y="252.404396" style="fill: #1f77b4; stroke: #1f77b4"/>
     <use xlink:href="#m3c0485859b" x="893.080669" y="260.476807" style="fill: #1f77b4; stroke: #1f77b4"/>
     <use xlink:href="#m3c0485859b" x="900.721571" y="255.397163" style="fill: #1f77b4; stroke: #1f77b4"/>
     <use xlink:href="#m3c0485859b" x="908.362473" y="232.408981" style="fill: #1f77b4; stroke: #1f77b4"/>
     <use xlink:href="#m3c0485859b" x="916.003375" y="246.384104" style="fill: #1f77b4; stroke: #1f77b4"/>
     <use xlink:href="#m3c0485859b" x="923.644276" y="236.839342" style="fill: #1f77b4; stroke: #1f77b4"/>
     <use xlink:href="#m3c0485859b" x="931.285178" y="239.626528" style="fill: #1f77b4; stroke: #1f77b4"/>
     <use xlink:href="#m3c0485859b" x="938.92608" y="104.063107" style="fill: #1f77b4; stroke: #1f77b4"/>
     <use xlink:href="#m3c0485859b" x="946.566982" y="114.647609" style="fill: #1f77b4; stroke: #1f77b4"/>
     <use xlink:href="#m3c0485859b" x="954.207884" y="109.460737" style="fill: #1f77b4; stroke: #1f77b4"/>
     <use xlink:href="#m3c0485859b" x="961.848785" y="231.648773" style="fill: #1f77b4; stroke: #1f77b4"/>
     <use xlink:href="#m3c0485859b" x="969.489687" y="86.939182" style="fill: #1f77b4; stroke: #1f77b4"/>
     <use xlink:href="#m3c0485859b" x="977.130589" y="117.797152" style="fill: #1f77b4; stroke: #1f77b4"/>
     <use xlink:href="#m3c0485859b" x="984.771491" y="107.460382" style="fill: #1f77b4; stroke: #1f77b4"/>
    </g>
   </g>
   <g id="patch_3">
    <path d="M 182.4768 551.106 
L 182.4768 64.836 
" style="fill: none; stroke: #000000; stroke-width: 0.8; stroke-linejoin: miter; stroke-linecap: square"/>
   </g>
   <g id="patch_4">
    <path d="M 1022.976 551.106 
L 1022.976 64.836 
" style="fill: none; stroke: #000000; stroke-width: 0.8; stroke-linejoin: miter; stroke-linecap: square"/>
   </g>
   <g id="patch_5">
    <path d="M 182.4768 551.106 
L 1022.976 551.106 
" style="fill: none; stroke: #000000; stroke-width: 0.8; stroke-linejoin: miter; stroke-linecap: square"/>
   </g>
   <g id="patch_6">
    <path d="M 182.4768 64.836 
L 1022.976 64.836 
" style="fill: none; stroke: #000000; stroke-width: 0.8; stroke-linejoin: miter; stroke-linecap: square"/>
   </g>
   <g id="text_20">
    <!-- Operation time for different Nx  -->
    <g transform="translate(507.916088 45.398625) scale(0.12 -0.12)">
     <defs>
      <path id="DejaVuSans-4f" d="M 2522 4238 
Q 1834 4238 1429 3725 
Q 1025 3213 1025 2328 
Q 1025 1447 1429 934 
Q 1834 422 2522 422 
Q 3209 422 3611 934 
Q 4013 1447 4013 2328 
Q 4013 3213 3611 3725 
Q 3209 4238 2522 4238 
z
M 2522 4750 
Q 3503 4750 4090 4092 
Q 4678 3434 4678 2328 
Q 4678 1225 4090 567 
Q 3503 -91 2522 -91 
Q 1538 -91 948 565 
Q 359 1222 359 2328 
Q 359 3434 948 4092 
Q 1538 4750 2522 4750 
z
" transform="scale(0.015625)"/>
      <path id="DejaVuSans-66" d="M 2375 4863 
L 2375 4384 
L 1825 4384 
Q 1516 4384 1395 4259 
Q 1275 4134 1275 3809 
L 1275 3500 
L 2222 3500 
L 2222 3053 
L 1275 3053 
L 1275 0 
L 697 0 
L 697 3053 
L 147 3053 
L 147 3500 
L 697 3500 
L 697 3744 
Q 697 4328 969 4595 
Q 1241 4863 1831 4863 
L 2375 4863 
z
" transform="scale(0.015625)"/>
      <path id="DejaVuSans-64" d="M 2906 2969 
L 2906 4863 
L 3481 4863 
L 3481 0 
L 2906 0 
L 2906 525 
Q 2725 213 2448 61 
Q 2172 -91 1784 -91 
Q 1150 -91 751 415 
Q 353 922 353 1747 
Q 353 2572 751 3078 
Q 1150 3584 1784 3584 
Q 2172 3584 2448 3432 
Q 2725 3281 2906 2969 
z
M 947 1747 
Q 947 1113 1208 752 
Q 1469 391 1925 391 
Q 2381 391 2643 752 
Q 2906 1113 2906 1747 
Q 2906 2381 2643 2742 
Q 2381 3103 1925 3103 
Q 1469 3103 1208 2742 
Q 947 2381 947 1747 
z
" transform="scale(0.015625)"/>
     </defs>
     <use xlink:href="#DejaVuSans-4f"/>
     <use xlink:href="#DejaVuSans-70" x="78.710938"/>
     <use xlink:href="#DejaVuSans-65" x="142.1875"/>
     <use xlink:href="#DejaVuSans-72" x="203.710938"/>
     <use xlink:href="#DejaVuSans-61" x="244.824219"/>
     <use xlink:href="#DejaVuSans-74" x="306.103516"/>
     <use xlink:href="#DejaVuSans-69" x="345.3125"/>
     <use xlink:href="#DejaVuSans-6f" x="373.095703"/>
     <use xlink:href="#DejaVuSans-6e" x="434.277344"/>
     <use xlink:href="#DejaVuSans-20" x="497.65625"/>
     <use xlink:href="#DejaVuSans-74" x="529.443359"/>
     <use xlink:href="#DejaVuSans-69" x="568.652344"/>
     <use xlink:href="#DejaVuSans-6d" x="596.435547"/>
     <use xlink:href="#DejaVuSans-65" x="693.847656"/>
     <use xlink:href="#DejaVuSans-20" x="755.371094"/>
     <use xlink:href="#DejaVuSans-66" x="787.158203"/>
     <use xlink:href="#DejaVuSans-6f" x="822.363281"/>
     <use xlink:href="#DejaVuSans-72" x="883.544922"/>
     <use xlink:href="#DejaVuSans-20" x="924.658203"/>
     <use xlink:href="#DejaVuSans-64" x="956.445312"/>
     <use xlink:href="#DejaVuSans-69" x="1019.921875"/>
     <use xlink:href="#DejaVuSans-66" x="1047.705078"/>
     <use xlink:href="#DejaVuSans-66" x="1082.910156"/>
     <use xlink:href="#DejaVuSans-65" x="1118.115234"/>
     <use xlink:href="#DejaVuSans-72" x="1179.638672"/>
     <use xlink:href="#DejaVuSans-65" x="1218.501953"/>
     <use xlink:href="#DejaVuSans-6e" x="1280.025391"/>
     <use xlink:href="#DejaVuSans-74" x="1343.404297"/>
     <use xlink:href="#DejaVuSans-20" x="1382.613281"/>
     <use xlink:href="#DejaVuSans-4e" x="1414.400391"/>
     <use xlink:href="#DejaVuSans-78" x="1489.205078"/>
     <use xlink:href="#DejaVuSans-20" x="1548.384766"/>
    </g>
    <!--  Crank-Nicolson scheme -->
    <g transform="translate(530.290462 58.836) scale(0.12 -0.12)">
     <defs>
      <path id="DejaVuSans-43" d="M 4122 4306 
L 4122 3641 
Q 3803 3938 3442 4084 
Q 3081 4231 2675 4231 
Q 1875 4231 1450 3742 
Q 1025 3253 1025 2328 
Q 1025 1406 1450 917 
Q 1875 428 2675 428 
Q 3081 428 3442 575 
Q 3803 722 4122 1019 
L 4122 359 
Q 3791 134 3420 21 
Q 3050 -91 2638 -91 
Q 1578 -91 968 557 
Q 359 1206 359 2328 
Q 359 3453 968 4101 
Q 1578 4750 2638 4750 
Q 3056 4750 3426 4639 
Q 3797 4528 4122 4306 
z
" transform="scale(0.015625)"/>
      <path id="DejaVuSans-6b" d="M 581 4863 
L 1159 4863 
L 1159 1991 
L 2875 3500 
L 3609 3500 
L 1753 1863 
L 3688 0 
L 2938 0 
L 1159 1709 
L 1159 0 
L 581 0 
L 581 4863 
z
" transform="scale(0.015625)"/>
      <path id="DejaVuSans-2d" d="M 313 2009 
L 1997 2009 
L 1997 1497 
L 313 1497 
L 313 2009 
z
" transform="scale(0.015625)"/>
      <path id="DejaVuSans-63" d="M 3122 3366 
L 3122 2828 
Q 2878 2963 2633 3030 
Q 2388 3097 2138 3097 
Q 1578 3097 1268 2742 
Q 959 2388 959 1747 
Q 959 1106 1268 751 
Q 1578 397 2138 397 
Q 2388 397 2633 464 
Q 2878 531 3122 666 
L 3122 134 
Q 2881 22 2623 -34 
Q 2366 -91 2075 -91 
Q 1284 -91 818 406 
Q 353 903 353 1747 
Q 353 2603 823 3093 
Q 1294 3584 2113 3584 
Q 2378 3584 2631 3529 
Q 2884 3475 3122 3366 
z
" transform="scale(0.015625)"/>
      <path id="DejaVuSans-6c" d="M 603 4863 
L 1178 4863 
L 1178 0 
L 603 0 
L 603 4863 
z
" transform="scale(0.015625)"/>
      <path id="DejaVuSans-68" d="M 3513 2113 
L 3513 0 
L 2938 0 
L 2938 2094 
Q 2938 2591 2744 2837 
Q 2550 3084 2163 3084 
Q 1697 3084 1428 2787 
Q 1159 2491 1159 1978 
L 1159 0 
L 581 0 
L 581 4863 
L 1159 4863 
L 1159 2956 
Q 1366 3272 1645 3428 
Q 1925 3584 2291 3584 
Q 2894 3584 3203 3211 
Q 3513 2838 3513 2113 
z
" transform="scale(0.015625)"/>
     </defs>
     <use xlink:href="#DejaVuSans-20"/>
     <use xlink:href="#DejaVuSans-43" x="31.787109"/>
     <use xlink:href="#DejaVuSans-72" x="101.611328"/>
     <use xlink:href="#DejaVuSans-61" x="142.724609"/>
     <use xlink:href="#DejaVuSans-6e" x="204.003906"/>
     <use xlink:href="#DejaVuSans-6b" x="267.382812"/>
     <use xlink:href="#DejaVuSans-2d" x="325.292969"/>
     <use xlink:href="#DejaVuSans-4e" x="361.376953"/>
     <use xlink:href="#DejaVuSans-69" x="436.181641"/>
     <use xlink:href="#DejaVuSans-63" x="463.964844"/>
     <use xlink:href="#DejaVuSans-6f" x="518.945312"/>
     <use xlink:href="#DejaVuSans-6c" x="580.126953"/>
     <use xlink:href="#DejaVuSans-73" x="607.910156"/>
     <use xlink:href="#DejaVuSans-6f" x="660.009766"/>
     <use xlink:href="#DejaVuSans-6e" x="721.191406"/>
     <use xlink:href="#DejaVuSans-20" x="784.570312"/>
     <use xlink:href="#DejaVuSans-73" x="816.357422"/>
     <use xlink:href="#DejaVuSans-63" x="868.457031"/>
     <use xlink:href="#DejaVuSans-68" x="923.4375"/>
     <use xlink:href="#DejaVuSans-65" x="986.816406"/>
     <use xlink:href="#DejaVuSans-6d" x="1048.339844"/>
     <use xlink:href="#DejaVuSans-65" x="1145.751953"/>
    </g>
   </g>
  </g>
 </g>
 <defs>
  <clipPath id="p3091642830">
   <rect x="182.4768" y="64.836" width="840.4992" height="486.27"/>
  </clipPath>
 </defs>
</svg>
