<?xml version="1.0" encoding="utf-8" standalone="no"?>
<!DOCTYPE svg PUBLIC "-//W3C//DTD SVG 1.1//EN"
  "http://www.w3.org/Graphics/SVG/1.1/DTD/svg11.dtd">
<svg xmlns:xlink="http://www.w3.org/1999/xlink" width="1105.92pt" height="648.36pt" viewBox="0 0 1105.92 648.36" xmlns="http://www.w3.org/2000/svg" version="1.1">
 <metadata>
  <rdf:RDF xmlns:dc="http://purl.org/dc/elements/1.1/" xmlns:cc="http://creativecommons.org/ns#" xmlns:rdf="http://www.w3.org/1999/02/22-rdf-syntax-ns#">
   <cc:Work>
    <dc:type rdf:resource="http://purl.org/dc/dcmitype/StillImage"/>
    <dc:date>2024-06-09T12:42:49.545759</dc:date>
    <dc:format>image/svg+xml</dc:format>
    <dc:creator>
     <cc:Agent>
      <dc:title>Matplotlib v3.8.4, https://matplotlib.org/</dc:title>
     </cc:Agent>
    </dc:creator>
   </cc:Work>
  </rdf:RDF>
 </metadata>
 <defs>
  <style type="text/css">*{stroke-linejoin: round; stroke-linecap: butt}</style>
 </defs>
 <g id="figure_1">
  <g id="patch_1">
   <path d="M 0 648.36 
L 1105.92 648.36 
L 1105.92 0 
L 0 0 
z
" style="fill: #ffffff"/>
  </g>
  <g id="axes_1">
   <g id="patch_2">
    <path d="M 182.4768 551.106 
L 1022.976 551.106 
L 1022.976 64.836 
L 182.4768 64.836 
z
" style="fill: #ffffff"/>
   </g>
   <g id="matplotlib.axis_1">
    <g id="xtick_1">
     <g id="line2d_1">
      <path d="M 258.503773 551.106 
L 258.503773 64.836 
" clip-path="url(#pa0322ae34b)" style="fill: none; stroke: #b0b0b0; stroke-width: 0.8; stroke-linecap: square"/>
     </g>
     <g id="line2d_2">
      <defs>
       <path id="mc4cb710411" d="M 0 0 
L 0 3.5 
" style="stroke: #000000; stroke-width: 0.8"/>
      </defs>
      <g>
       <use xlink:href="#mc4cb710411" x="258.503773" y="551.106" style="stroke: #000000; stroke-width: 0.8"/>
      </g>
     </g>
     <g id="text_1">
      <!-- 250 -->
      <g transform="translate(248.960023 565.704438) scale(0.1 -0.1)">
       <defs>
        <path id="DejaVuSans-32" d="M 1228 531 
L 3431 531 
L 3431 0 
L 469 0 
L 469 531 
Q 828 903 1448 1529 
Q 2069 2156 2228 2338 
Q 2531 2678 2651 2914 
Q 2772 3150 2772 3378 
Q 2772 3750 2511 3984 
Q 2250 4219 1831 4219 
Q 1534 4219 1204 4116 
Q 875 4013 500 3803 
L 500 4441 
Q 881 4594 1212 4672 
Q 1544 4750 1819 4750 
Q 2544 4750 2975 4387 
Q 3406 4025 3406 3419 
Q 3406 3131 3298 2873 
Q 3191 2616 2906 2266 
Q 2828 2175 2409 1742 
Q 1991 1309 1228 531 
z
" transform="scale(0.015625)"/>
        <path id="DejaVuSans-35" d="M 691 4666 
L 3169 4666 
L 3169 4134 
L 1269 4134 
L 1269 2991 
Q 1406 3038 1543 3061 
Q 1681 3084 1819 3084 
Q 2600 3084 3056 2656 
Q 3513 2228 3513 1497 
Q 3513 744 3044 326 
Q 2575 -91 1722 -91 
Q 1428 -91 1123 -41 
Q 819 9 494 109 
L 494 744 
Q 775 591 1075 516 
Q 1375 441 1709 441 
Q 2250 441 2565 725 
Q 2881 1009 2881 1497 
Q 2881 1984 2565 2268 
Q 2250 2553 1709 2553 
Q 1456 2553 1204 2497 
Q 953 2441 691 2322 
L 691 4666 
z
" transform="scale(0.015625)"/>
        <path id="DejaVuSans-30" d="M 2034 4250 
Q 1547 4250 1301 3770 
Q 1056 3291 1056 2328 
Q 1056 1369 1301 889 
Q 1547 409 2034 409 
Q 2525 409 2770 889 
Q 3016 1369 3016 2328 
Q 3016 3291 2770 3770 
Q 2525 4250 2034 4250 
z
M 2034 4750 
Q 2819 4750 3233 4129 
Q 3647 3509 3647 2328 
Q 3647 1150 3233 529 
Q 2819 -91 2034 -91 
Q 1250 -91 836 529 
Q 422 1150 422 2328 
Q 422 3509 836 4129 
Q 1250 4750 2034 4750 
z
" transform="scale(0.015625)"/>
       </defs>
       <use xlink:href="#DejaVuSans-32"/>
       <use xlink:href="#DejaVuSans-35" x="63.623047"/>
       <use xlink:href="#DejaVuSans-30" x="127.246094"/>
      </g>
     </g>
    </g>
    <g id="xtick_2">
     <g id="line2d_3">
      <path d="M 354.015046 551.106 
L 354.015046 64.836 
" clip-path="url(#pa0322ae34b)" style="fill: none; stroke: #b0b0b0; stroke-width: 0.8; stroke-linecap: square"/>
     </g>
     <g id="line2d_4">
      <g>
       <use xlink:href="#mc4cb710411" x="354.015046" y="551.106" style="stroke: #000000; stroke-width: 0.8"/>
      </g>
     </g>
     <g id="text_2">
      <!-- 500 -->
      <g transform="translate(344.471296 565.704438) scale(0.1 -0.1)">
       <use xlink:href="#DejaVuSans-35"/>
       <use xlink:href="#DejaVuSans-30" x="63.623047"/>
       <use xlink:href="#DejaVuSans-30" x="127.246094"/>
      </g>
     </g>
    </g>
    <g id="xtick_3">
     <g id="line2d_5">
      <path d="M 449.526319 551.106 
L 449.526319 64.836 
" clip-path="url(#pa0322ae34b)" style="fill: none; stroke: #b0b0b0; stroke-width: 0.8; stroke-linecap: square"/>
     </g>
     <g id="line2d_6">
      <g>
       <use xlink:href="#mc4cb710411" x="449.526319" y="551.106" style="stroke: #000000; stroke-width: 0.8"/>
      </g>
     </g>
     <g id="text_3">
      <!-- 750 -->
      <g transform="translate(439.982569 565.704438) scale(0.1 -0.1)">
       <defs>
        <path id="DejaVuSans-37" d="M 525 4666 
L 3525 4666 
L 3525 4397 
L 1831 0 
L 1172 0 
L 2766 4134 
L 525 4134 
L 525 4666 
z
" transform="scale(0.015625)"/>
       </defs>
       <use xlink:href="#DejaVuSans-37"/>
       <use xlink:href="#DejaVuSans-35" x="63.623047"/>
       <use xlink:href="#DejaVuSans-30" x="127.246094"/>
      </g>
     </g>
    </g>
    <g id="xtick_4">
     <g id="line2d_7">
      <path d="M 545.037591 551.106 
L 545.037591 64.836 
" clip-path="url(#pa0322ae34b)" style="fill: none; stroke: #b0b0b0; stroke-width: 0.8; stroke-linecap: square"/>
     </g>
     <g id="line2d_8">
      <g>
       <use xlink:href="#mc4cb710411" x="545.037591" y="551.106" style="stroke: #000000; stroke-width: 0.8"/>
      </g>
     </g>
     <g id="text_4">
      <!-- 1000 -->
      <g transform="translate(532.312591 565.704438) scale(0.1 -0.1)">
       <defs>
        <path id="DejaVuSans-31" d="M 794 531 
L 1825 531 
L 1825 4091 
L 703 3866 
L 703 4441 
L 1819 4666 
L 2450 4666 
L 2450 531 
L 3481 531 
L 3481 0 
L 794 0 
L 794 531 
z
" transform="scale(0.015625)"/>
       </defs>
       <use xlink:href="#DejaVuSans-31"/>
       <use xlink:href="#DejaVuSans-30" x="63.623047"/>
       <use xlink:href="#DejaVuSans-30" x="127.246094"/>
       <use xlink:href="#DejaVuSans-30" x="190.869141"/>
      </g>
     </g>
    </g>
    <g id="xtick_5">
     <g id="line2d_9">
      <path d="M 640.548864 551.106 
L 640.548864 64.836 
" clip-path="url(#pa0322ae34b)" style="fill: none; stroke: #b0b0b0; stroke-width: 0.8; stroke-linecap: square"/>
     </g>
     <g id="line2d_10">
      <g>
       <use xlink:href="#mc4cb710411" x="640.548864" y="551.106" style="stroke: #000000; stroke-width: 0.8"/>
      </g>
     </g>
     <g id="text_5">
      <!-- 1250 -->
      <g transform="translate(627.823864 565.704438) scale(0.1 -0.1)">
       <use xlink:href="#DejaVuSans-31"/>
       <use xlink:href="#DejaVuSans-32" x="63.623047"/>
       <use xlink:href="#DejaVuSans-35" x="127.246094"/>
       <use xlink:href="#DejaVuSans-30" x="190.869141"/>
      </g>
     </g>
    </g>
    <g id="xtick_6">
     <g id="line2d_11">
      <path d="M 736.060137 551.106 
L 736.060137 64.836 
" clip-path="url(#pa0322ae34b)" style="fill: none; stroke: #b0b0b0; stroke-width: 0.8; stroke-linecap: square"/>
     </g>
     <g id="line2d_12">
      <g>
       <use xlink:href="#mc4cb710411" x="736.060137" y="551.106" style="stroke: #000000; stroke-width: 0.8"/>
      </g>
     </g>
     <g id="text_6">
      <!-- 1500 -->
      <g transform="translate(723.335137 565.704438) scale(0.1 -0.1)">
       <use xlink:href="#DejaVuSans-31"/>
       <use xlink:href="#DejaVuSans-35" x="63.623047"/>
       <use xlink:href="#DejaVuSans-30" x="127.246094"/>
       <use xlink:href="#DejaVuSans-30" x="190.869141"/>
      </g>
     </g>
    </g>
    <g id="xtick_7">
     <g id="line2d_13">
      <path d="M 831.571409 551.106 
L 831.571409 64.836 
" clip-path="url(#pa0322ae34b)" style="fill: none; stroke: #b0b0b0; stroke-width: 0.8; stroke-linecap: square"/>
     </g>
     <g id="line2d_14">
      <g>
       <use xlink:href="#mc4cb710411" x="831.571409" y="551.106" style="stroke: #000000; stroke-width: 0.8"/>
      </g>
     </g>
     <g id="text_7">
      <!-- 1750 -->
      <g transform="translate(818.846409 565.704438) scale(0.1 -0.1)">
       <use xlink:href="#DejaVuSans-31"/>
       <use xlink:href="#DejaVuSans-37" x="63.623047"/>
       <use xlink:href="#DejaVuSans-35" x="127.246094"/>
       <use xlink:href="#DejaVuSans-30" x="190.869141"/>
      </g>
     </g>
    </g>
    <g id="xtick_8">
     <g id="line2d_15">
      <path d="M 927.082682 551.106 
L 927.082682 64.836 
" clip-path="url(#pa0322ae34b)" style="fill: none; stroke: #b0b0b0; stroke-width: 0.8; stroke-linecap: square"/>
     </g>
     <g id="line2d_16">
      <g>
       <use xlink:href="#mc4cb710411" x="927.082682" y="551.106" style="stroke: #000000; stroke-width: 0.8"/>
      </g>
     </g>
     <g id="text_8">
      <!-- 2000 -->
      <g transform="translate(914.357682 565.704438) scale(0.1 -0.1)">
       <use xlink:href="#DejaVuSans-32"/>
       <use xlink:href="#DejaVuSans-30" x="63.623047"/>
       <use xlink:href="#DejaVuSans-30" x="127.246094"/>
       <use xlink:href="#DejaVuSans-30" x="190.869141"/>
      </g>
     </g>
    </g>
    <g id="xtick_9">
     <g id="line2d_17">
      <path d="M 1022.593955 551.106 
L 1022.593955 64.836 
" clip-path="url(#pa0322ae34b)" style="fill: none; stroke: #b0b0b0; stroke-width: 0.8; stroke-linecap: square"/>
     </g>
     <g id="line2d_18">
      <g>
       <use xlink:href="#mc4cb710411" x="1022.593955" y="551.106" style="stroke: #000000; stroke-width: 0.8"/>
      </g>
     </g>
     <g id="text_9">
      <!-- 2250 -->
      <g transform="translate(1009.868955 565.704438) scale(0.1 -0.1)">
       <use xlink:href="#DejaVuSans-32"/>
       <use xlink:href="#DejaVuSans-32" x="63.623047"/>
       <use xlink:href="#DejaVuSans-35" x="127.246094"/>
       <use xlink:href="#DejaVuSans-30" x="190.869141"/>
      </g>
     </g>
    </g>
    <g id="text_10">
     <!-- Nx -->
     <g transform="translate(596.0264 579.382562) scale(0.1 -0.1)">
      <defs>
       <path id="DejaVuSans-4e" d="M 628 4666 
L 1478 4666 
L 3547 763 
L 3547 4666 
L 4159 4666 
L 4159 0 
L 3309 0 
L 1241 3903 
L 1241 0 
L 628 0 
L 628 4666 
z
" transform="scale(0.015625)"/>
       <path id="DejaVuSans-78" d="M 3513 3500 
L 2247 1797 
L 3578 0 
L 2900 0 
L 1881 1375 
L 863 0 
L 184 0 
L 1544 1831 
L 300 3500 
L 978 3500 
L 1906 2253 
L 2834 3500 
L 3513 3500 
z
" transform="scale(0.015625)"/>
      </defs>
      <use xlink:href="#DejaVuSans-4e"/>
      <use xlink:href="#DejaVuSans-78" x="74.804688"/>
     </g>
    </g>
   </g>
   <g id="matplotlib.axis_2">
    <g id="ytick_1">
     <g id="line2d_19">
      <path d="M 182.4768 529.002818 
L 1022.976 529.002818 
" clip-path="url(#pa0322ae34b)" style="fill: none; stroke: #b0b0b0; stroke-width: 0.8; stroke-linecap: square"/>
     </g>
     <g id="line2d_20">
      <defs>
       <path id="m7167b5cd00" d="M 0 0 
L -3.5 0 
" style="stroke: #000000; stroke-width: 0.8"/>
      </defs>
      <g>
       <use xlink:href="#m7167b5cd00" x="182.4768" y="529.002818" style="stroke: #000000; stroke-width: 0.8"/>
      </g>
     </g>
     <g id="text_11">
      <!-- 0.0 -->
      <g transform="translate(159.573675 532.802037) scale(0.1 -0.1)">
       <defs>
        <path id="DejaVuSans-2e" d="M 684 794 
L 1344 794 
L 1344 0 
L 684 0 
L 684 794 
z
" transform="scale(0.015625)"/>
       </defs>
       <use xlink:href="#DejaVuSans-30"/>
       <use xlink:href="#DejaVuSans-2e" x="63.623047"/>
       <use xlink:href="#DejaVuSans-30" x="95.410156"/>
      </g>
     </g>
    </g>
    <g id="ytick_2">
     <g id="line2d_21">
      <path d="M 182.4768 443.156835 
L 1022.976 443.156835 
" clip-path="url(#pa0322ae34b)" style="fill: none; stroke: #b0b0b0; stroke-width: 0.8; stroke-linecap: square"/>
     </g>
     <g id="line2d_22">
      <g>
       <use xlink:href="#m7167b5cd00" x="182.4768" y="443.156835" style="stroke: #000000; stroke-width: 0.8"/>
      </g>
     </g>
     <g id="text_12">
      <!-- 0.5 -->
      <g transform="translate(159.573675 446.956054) scale(0.1 -0.1)">
       <use xlink:href="#DejaVuSans-30"/>
       <use xlink:href="#DejaVuSans-2e" x="63.623047"/>
       <use xlink:href="#DejaVuSans-35" x="95.410156"/>
      </g>
     </g>
    </g>
    <g id="ytick_3">
     <g id="line2d_23">
      <path d="M 182.4768 357.310852 
L 1022.976 357.310852 
" clip-path="url(#pa0322ae34b)" style="fill: none; stroke: #b0b0b0; stroke-width: 0.8; stroke-linecap: square"/>
     </g>
     <g id="line2d_24">
      <g>
       <use xlink:href="#m7167b5cd00" x="182.4768" y="357.310852" style="stroke: #000000; stroke-width: 0.8"/>
      </g>
     </g>
     <g id="text_13">
      <!-- 1.0 -->
      <g transform="translate(159.573675 361.110071) scale(0.1 -0.1)">
       <use xlink:href="#DejaVuSans-31"/>
       <use xlink:href="#DejaVuSans-2e" x="63.623047"/>
       <use xlink:href="#DejaVuSans-30" x="95.410156"/>
      </g>
     </g>
    </g>
    <g id="ytick_4">
     <g id="line2d_25">
      <path d="M 182.4768 271.464869 
L 1022.976 271.464869 
" clip-path="url(#pa0322ae34b)" style="fill: none; stroke: #b0b0b0; stroke-width: 0.8; stroke-linecap: square"/>
     </g>
     <g id="line2d_26">
      <g>
       <use xlink:href="#m7167b5cd00" x="182.4768" y="271.464869" style="stroke: #000000; stroke-width: 0.8"/>
      </g>
     </g>
     <g id="text_14">
      <!-- 1.5 -->
      <g transform="translate(159.573675 275.264088) scale(0.1 -0.1)">
       <use xlink:href="#DejaVuSans-31"/>
       <use xlink:href="#DejaVuSans-2e" x="63.623047"/>
       <use xlink:href="#DejaVuSans-35" x="95.410156"/>
      </g>
     </g>
    </g>
    <g id="ytick_5">
     <g id="line2d_27">
      <path d="M 182.4768 185.618886 
L 1022.976 185.618886 
" clip-path="url(#pa0322ae34b)" style="fill: none; stroke: #b0b0b0; stroke-width: 0.8; stroke-linecap: square"/>
     </g>
     <g id="line2d_28">
      <g>
       <use xlink:href="#m7167b5cd00" x="182.4768" y="185.618886" style="stroke: #000000; stroke-width: 0.8"/>
      </g>
     </g>
     <g id="text_15">
      <!-- 2.0 -->
      <g transform="translate(159.573675 189.418105) scale(0.1 -0.1)">
       <use xlink:href="#DejaVuSans-32"/>
       <use xlink:href="#DejaVuSans-2e" x="63.623047"/>
       <use xlink:href="#DejaVuSans-30" x="95.410156"/>
      </g>
     </g>
    </g>
    <g id="ytick_6">
     <g id="line2d_29">
      <path d="M 182.4768 99.772903 
L 1022.976 99.772903 
" clip-path="url(#pa0322ae34b)" style="fill: none; stroke: #b0b0b0; stroke-width: 0.8; stroke-linecap: square"/>
     </g>
     <g id="line2d_30">
      <g>
       <use xlink:href="#m7167b5cd00" x="182.4768" y="99.772903" style="stroke: #000000; stroke-width: 0.8"/>
      </g>
     </g>
     <g id="text_16">
      <!-- 2.5 -->
      <g transform="translate(159.573675 103.572121) scale(0.1 -0.1)">
       <use xlink:href="#DejaVuSans-32"/>
       <use xlink:href="#DejaVuSans-2e" x="63.623047"/>
       <use xlink:href="#DejaVuSans-35" x="95.410156"/>
      </g>
     </g>
    </g>
    <g id="text_17">
     <!-- relative error -->
     <g transform="translate(153.493988 340.520219) rotate(-90) scale(0.1 -0.1)">
      <defs>
       <path id="DejaVuSans-72" d="M 2631 2963 
Q 2534 3019 2420 3045 
Q 2306 3072 2169 3072 
Q 1681 3072 1420 2755 
Q 1159 2438 1159 1844 
L 1159 0 
L 581 0 
L 581 3500 
L 1159 3500 
L 1159 2956 
Q 1341 3275 1631 3429 
Q 1922 3584 2338 3584 
Q 2397 3584 2469 3576 
Q 2541 3569 2628 3553 
L 2631 2963 
z
" transform="scale(0.015625)"/>
       <path id="DejaVuSans-65" d="M 3597 1894 
L 3597 1613 
L 953 1613 
Q 991 1019 1311 708 
Q 1631 397 2203 397 
Q 2534 397 2845 478 
Q 3156 559 3463 722 
L 3463 178 
Q 3153 47 2828 -22 
Q 2503 -91 2169 -91 
Q 1331 -91 842 396 
Q 353 884 353 1716 
Q 353 2575 817 3079 
Q 1281 3584 2069 3584 
Q 2775 3584 3186 3129 
Q 3597 2675 3597 1894 
z
M 3022 2063 
Q 3016 2534 2758 2815 
Q 2500 3097 2075 3097 
Q 1594 3097 1305 2825 
Q 1016 2553 972 2059 
L 3022 2063 
z
" transform="scale(0.015625)"/>
       <path id="DejaVuSans-6c" d="M 603 4863 
L 1178 4863 
L 1178 0 
L 603 0 
L 603 4863 
z
" transform="scale(0.015625)"/>
       <path id="DejaVuSans-61" d="M 2194 1759 
Q 1497 1759 1228 1600 
Q 959 1441 959 1056 
Q 959 750 1161 570 
Q 1363 391 1709 391 
Q 2188 391 2477 730 
Q 2766 1069 2766 1631 
L 2766 1759 
L 2194 1759 
z
M 3341 1997 
L 3341 0 
L 2766 0 
L 2766 531 
Q 2569 213 2275 61 
Q 1981 -91 1556 -91 
Q 1019 -91 701 211 
Q 384 513 384 1019 
Q 384 1609 779 1909 
Q 1175 2209 1959 2209 
L 2766 2209 
L 2766 2266 
Q 2766 2663 2505 2880 
Q 2244 3097 1772 3097 
Q 1472 3097 1187 3025 
Q 903 2953 641 2809 
L 641 3341 
Q 956 3463 1253 3523 
Q 1550 3584 1831 3584 
Q 2591 3584 2966 3190 
Q 3341 2797 3341 1997 
z
" transform="scale(0.015625)"/>
       <path id="DejaVuSans-74" d="M 1172 4494 
L 1172 3500 
L 2356 3500 
L 2356 3053 
L 1172 3053 
L 1172 1153 
Q 1172 725 1289 603 
Q 1406 481 1766 481 
L 2356 481 
L 2356 0 
L 1766 0 
Q 1100 0 847 248 
Q 594 497 594 1153 
L 594 3053 
L 172 3053 
L 172 3500 
L 594 3500 
L 594 4494 
L 1172 4494 
z
" transform="scale(0.015625)"/>
       <path id="DejaVuSans-69" d="M 603 3500 
L 1178 3500 
L 1178 0 
L 603 0 
L 603 3500 
z
M 603 4863 
L 1178 4863 
L 1178 4134 
L 603 4134 
L 603 4863 
z
" transform="scale(0.015625)"/>
       <path id="DejaVuSans-76" d="M 191 3500 
L 800 3500 
L 1894 563 
L 2988 3500 
L 3597 3500 
L 2284 0 
L 1503 0 
L 191 3500 
z
" transform="scale(0.015625)"/>
       <path id="DejaVuSans-20" transform="scale(0.015625)"/>
       <path id="DejaVuSans-6f" d="M 1959 3097 
Q 1497 3097 1228 2736 
Q 959 2375 959 1747 
Q 959 1119 1226 758 
Q 1494 397 1959 397 
Q 2419 397 2687 759 
Q 2956 1122 2956 1747 
Q 2956 2369 2687 2733 
Q 2419 3097 1959 3097 
z
M 1959 3584 
Q 2709 3584 3137 3096 
Q 3566 2609 3566 1747 
Q 3566 888 3137 398 
Q 2709 -91 1959 -91 
Q 1206 -91 779 398 
Q 353 888 353 1747 
Q 353 2609 779 3096 
Q 1206 3584 1959 3584 
z
" transform="scale(0.015625)"/>
      </defs>
      <use xlink:href="#DejaVuSans-72"/>
      <use xlink:href="#DejaVuSans-65" x="38.863281"/>
      <use xlink:href="#DejaVuSans-6c" x="100.386719"/>
      <use xlink:href="#DejaVuSans-61" x="128.169922"/>
      <use xlink:href="#DejaVuSans-74" x="189.449219"/>
      <use xlink:href="#DejaVuSans-69" x="228.658203"/>
      <use xlink:href="#DejaVuSans-76" x="256.441406"/>
      <use xlink:href="#DejaVuSans-65" x="315.621094"/>
      <use xlink:href="#DejaVuSans-20" x="377.144531"/>
      <use xlink:href="#DejaVuSans-65" x="408.931641"/>
      <use xlink:href="#DejaVuSans-72" x="470.455078"/>
      <use xlink:href="#DejaVuSans-72" x="509.818359"/>
      <use xlink:href="#DejaVuSans-6f" x="548.681641"/>
      <use xlink:href="#DejaVuSans-72" x="609.863281"/>
     </g>
    </g>
   </g>
   <g id="line2d_31">
    <path d="M 220.681309 86.939182 
L 228.322211 95.854101 
L 235.963113 102.864678 
L 243.604015 164.39033 
L 251.244916 169.554684 
L 258.885818 213.813062 
L 266.52672 217.972308 
L 274.167622 221.680718 
L 281.808524 255.126102 
L 289.449425 258.120134 
L 297.090327 284.798065 
L 304.731229 287.338746 
L 312.372131 289.701981 
L 320.013033 311.408007 
L 327.653935 313.4154 
L 335.294836 331.685365 
L 342.935738 333.441157 
L 350.57664 335.106373 
L 358.217542 350.645413 
L 365.858444 352.10418 
L 373.499345 365.625707 
L 381.140247 366.932081 
L 388.781149 368.185658 
L 396.422051 380.010557 
L 404.062953 381.134406 
L 411.703855 391.655149 
L 419.344756 392.677161 
L 426.985658 393.665522 
L 434.62656 403.047403 
L 442.267462 403.947296 
L 449.908364 412.429713 
L 457.549265 413.258226 
L 465.190167 414.063714 
L 472.831069 421.740443 
L 480.471971 422.482402 
L 488.112873 429.509053 
L 495.753775 430.198325 
L 503.394676 430.870841 
L 511.035578 437.302976 
L 518.67648 437.92804 
L 526.317382 443.872393 
L 533.958284 444.457351 
L 541.599185 445.029746 
L 549.240087 450.52076 
L 556.880989 451.05668 
L 564.521891 456.170753 
L 572.162793 456.675339 
L 579.803695 457.170239 
L 587.444596 461.929343 
L 595.085498 462.395486 
L 602.7264 466.856194 
L 610.367302 467.297293 
L 618.008204 467.73074 
L 625.649105 471.907339 
L 633.290007 472.317628 
L 640.930909 476.253215 
L 648.571811 476.643109 
L 656.212713 477.026833 
L 663.853615 480.730819 
L 671.494516 481.095567 
L 679.135418 484.601571 
L 686.77632 484.949448 
L 694.417222 485.292262 
L 702.058124 488.606519 
L 709.699025 488.933554 
L 717.339927 492.082818 
L 724.980829 492.395712 
L 732.621731 492.70439 
L 740.262633 495.692778 
L 747.903535 495.98817 
L 755.544436 498.837339 
L 763.185338 499.120739 
L 770.82624 499.400586 
L 778.467142 502.113214 
L 786.108044 502.381751 
L 793.748945 504.975629 
L 801.389847 505.233893 
L 809.030749 505.489128 
L 816.671651 507.965943 
L 824.312553 508.211456 
L 831.953455 510.586012 
L 839.594356 510.822647 
L 847.235258 511.056675 
L 854.87616 513.329967 
L 862.517062 513.555566 
L 870.157964 515.740053 
L 877.798865 515.957917 
L 885.439767 516.173519 
L 893.080669 518.26971 
L 900.721571 518.477948 
L 908.362473 520.496435 
L 916.003375 520.697884 
L 923.644276 520.897357 
L 931.285178 522.838304 
L 938.92608 523.031297 
L 946.566982 524.903791 
L 954.207884 525.090789 
L 961.848785 525.276046 
L 969.489687 527.080008 
L 977.130589 527.25953 
L 984.771491 529.002818 
" clip-path="url(#pa0322ae34b)" style="fill: none; stroke: #1f77b4; stroke-width: 1.5; stroke-linecap: square"/>
    <defs>
     <path id="m6852c7788d" d="M 0 3 
C 0.795609 3 1.55874 2.683901 2.12132 2.12132 
C 2.683901 1.55874 3 0.795609 3 0 
C 3 -0.795609 2.683901 -1.55874 2.12132 -2.12132 
C 1.55874 -2.683901 0.795609 -3 0 -3 
C -0.795609 -3 -1.55874 -2.683901 -2.12132 -2.12132 
C -2.683901 -1.55874 -3 -0.795609 -3 0 
C -3 0.795609 -2.683901 1.55874 -2.12132 2.12132 
C -1.55874 2.683901 -0.795609 3 0 3 
z
" style="stroke: #1f77b4"/>
    </defs>
    <g clip-path="url(#pa0322ae34b)">
     <use xlink:href="#m6852c7788d" x="220.681309" y="86.939182" style="fill: #1f77b4; stroke: #1f77b4"/>
     <use xlink:href="#m6852c7788d" x="228.322211" y="95.854101" style="fill: #1f77b4; stroke: #1f77b4"/>
     <use xlink:href="#m6852c7788d" x="235.963113" y="102.864678" style="fill: #1f77b4; stroke: #1f77b4"/>
     <use xlink:href="#m6852c7788d" x="243.604015" y="164.39033" style="fill: #1f77b4; stroke: #1f77b4"/>
     <use xlink:href="#m6852c7788d" x="251.244916" y="169.554684" style="fill: #1f77b4; stroke: #1f77b4"/>
     <use xlink:href="#m6852c7788d" x="258.885818" y="213.813062" style="fill: #1f77b4; stroke: #1f77b4"/>
     <use xlink:href="#m6852c7788d" x="266.52672" y="217.972308" style="fill: #1f77b4; stroke: #1f77b4"/>
     <use xlink:href="#m6852c7788d" x="274.167622" y="221.680718" style="fill: #1f77b4; stroke: #1f77b4"/>
     <use xlink:href="#m6852c7788d" x="281.808524" y="255.126102" style="fill: #1f77b4; stroke: #1f77b4"/>
     <use xlink:href="#m6852c7788d" x="289.449425" y="258.120134" style="fill: #1f77b4; stroke: #1f77b4"/>
     <use xlink:href="#m6852c7788d" x="297.090327" y="284.798065" style="fill: #1f77b4; stroke: #1f77b4"/>
     <use xlink:href="#m6852c7788d" x="304.731229" y="287.338746" style="fill: #1f77b4; stroke: #1f77b4"/>
     <use xlink:href="#m6852c7788d" x="312.372131" y="289.701981" style="fill: #1f77b4; stroke: #1f77b4"/>
     <use xlink:href="#m6852c7788d" x="320.013033" y="311.408007" style="fill: #1f77b4; stroke: #1f77b4"/>
     <use xlink:href="#m6852c7788d" x="327.653935" y="313.4154" style="fill: #1f77b4; stroke: #1f77b4"/>
     <use xlink:href="#m6852c7788d" x="335.294836" y="331.685365" style="fill: #1f77b4; stroke: #1f77b4"/>
     <use xlink:href="#m6852c7788d" x="342.935738" y="333.441157" style="fill: #1f77b4; stroke: #1f77b4"/>
     <use xlink:href="#m6852c7788d" x="350.57664" y="335.106373" style="fill: #1f77b4; stroke: #1f77b4"/>
     <use xlink:href="#m6852c7788d" x="358.217542" y="350.645413" style="fill: #1f77b4; stroke: #1f77b4"/>
     <use xlink:href="#m6852c7788d" x="365.858444" y="352.10418" style="fill: #1f77b4; stroke: #1f77b4"/>
     <use xlink:href="#m6852c7788d" x="373.499345" y="365.625707" style="fill: #1f77b4; stroke: #1f77b4"/>
     <use xlink:href="#m6852c7788d" x="381.140247" y="366.932081" style="fill: #1f77b4; stroke: #1f77b4"/>
     <use xlink:href="#m6852c7788d" x="388.781149" y="368.185658" style="fill: #1f77b4; stroke: #1f77b4"/>
     <use xlink:href="#m6852c7788d" x="396.422051" y="380.010557" style="fill: #1f77b4; stroke: #1f77b4"/>
     <use xlink:href="#m6852c7788d" x="404.062953" y="381.134406" style="fill: #1f77b4; stroke: #1f77b4"/>
     <use xlink:href="#m6852c7788d" x="411.703855" y="391.655149" style="fill: #1f77b4; stroke: #1f77b4"/>
     <use xlink:href="#m6852c7788d" x="419.344756" y="392.677161" style="fill: #1f77b4; stroke: #1f77b4"/>
     <use xlink:href="#m6852c7788d" x="426.985658" y="393.665522" style="fill: #1f77b4; stroke: #1f77b4"/>
     <use xlink:href="#m6852c7788d" x="434.62656" y="403.047403" style="fill: #1f77b4; stroke: #1f77b4"/>
     <use xlink:href="#m6852c7788d" x="442.267462" y="403.947296" style="fill: #1f77b4; stroke: #1f77b4"/>
     <use xlink:href="#m6852c7788d" x="449.908364" y="412.429713" style="fill: #1f77b4; stroke: #1f77b4"/>
     <use xlink:href="#m6852c7788d" x="457.549265" y="413.258226" style="fill: #1f77b4; stroke: #1f77b4"/>
     <use xlink:href="#m6852c7788d" x="465.190167" y="414.063714" style="fill: #1f77b4; stroke: #1f77b4"/>
     <use xlink:href="#m6852c7788d" x="472.831069" y="421.740443" style="fill: #1f77b4; stroke: #1f77b4"/>
     <use xlink:href="#m6852c7788d" x="480.471971" y="422.482402" style="fill: #1f77b4; stroke: #1f77b4"/>
     <use xlink:href="#m6852c7788d" x="488.112873" y="429.509053" style="fill: #1f77b4; stroke: #1f77b4"/>
     <use xlink:href="#m6852c7788d" x="495.753775" y="430.198325" style="fill: #1f77b4; stroke: #1f77b4"/>
     <use xlink:href="#m6852c7788d" x="503.394676" y="430.870841" style="fill: #1f77b4; stroke: #1f77b4"/>
     <use xlink:href="#m6852c7788d" x="511.035578" y="437.302976" style="fill: #1f77b4; stroke: #1f77b4"/>
     <use xlink:href="#m6852c7788d" x="518.67648" y="437.92804" style="fill: #1f77b4; stroke: #1f77b4"/>
     <use xlink:href="#m6852c7788d" x="526.317382" y="443.872393" style="fill: #1f77b4; stroke: #1f77b4"/>
     <use xlink:href="#m6852c7788d" x="533.958284" y="444.457351" style="fill: #1f77b4; stroke: #1f77b4"/>
     <use xlink:href="#m6852c7788d" x="541.599185" y="445.029746" style="fill: #1f77b4; stroke: #1f77b4"/>
     <use xlink:href="#m6852c7788d" x="549.240087" y="450.52076" style="fill: #1f77b4; stroke: #1f77b4"/>
     <use xlink:href="#m6852c7788d" x="556.880989" y="451.05668" style="fill: #1f77b4; stroke: #1f77b4"/>
     <use xlink:href="#m6852c7788d" x="564.521891" y="456.170753" style="fill: #1f77b4; stroke: #1f77b4"/>
     <use xlink:href="#m6852c7788d" x="572.162793" y="456.675339" style="fill: #1f77b4; stroke: #1f77b4"/>
     <use xlink:href="#m6852c7788d" x="579.803695" y="457.170239" style="fill: #1f77b4; stroke: #1f77b4"/>
     <use xlink:href="#m6852c7788d" x="587.444596" y="461.929343" style="fill: #1f77b4; stroke: #1f77b4"/>
     <use xlink:href="#m6852c7788d" x="595.085498" y="462.395486" style="fill: #1f77b4; stroke: #1f77b4"/>
     <use xlink:href="#m6852c7788d" x="602.7264" y="466.856194" style="fill: #1f77b4; stroke: #1f77b4"/>
     <use xlink:href="#m6852c7788d" x="610.367302" y="467.297293" style="fill: #1f77b4; stroke: #1f77b4"/>
     <use xlink:href="#m6852c7788d" x="618.008204" y="467.73074" style="fill: #1f77b4; stroke: #1f77b4"/>
     <use xlink:href="#m6852c7788d" x="625.649105" y="471.907339" style="fill: #1f77b4; stroke: #1f77b4"/>
     <use xlink:href="#m6852c7788d" x="633.290007" y="472.317628" style="fill: #1f77b4; stroke: #1f77b4"/>
     <use xlink:href="#m6852c7788d" x="640.930909" y="476.253215" style="fill: #1f77b4; stroke: #1f77b4"/>
     <use xlink:href="#m6852c7788d" x="648.571811" y="476.643109" style="fill: #1f77b4; stroke: #1f77b4"/>
     <use xlink:href="#m6852c7788d" x="656.212713" y="477.026833" style="fill: #1f77b4; stroke: #1f77b4"/>
     <use xlink:href="#m6852c7788d" x="663.853615" y="480.730819" style="fill: #1f77b4; stroke: #1f77b4"/>
     <use xlink:href="#m6852c7788d" x="671.494516" y="481.095567" style="fill: #1f77b4; stroke: #1f77b4"/>
     <use xlink:href="#m6852c7788d" x="679.135418" y="484.601571" style="fill: #1f77b4; stroke: #1f77b4"/>
     <use xlink:href="#m6852c7788d" x="686.77632" y="484.949448" style="fill: #1f77b4; stroke: #1f77b4"/>
     <use xlink:href="#m6852c7788d" x="694.417222" y="485.292262" style="fill: #1f77b4; stroke: #1f77b4"/>
     <use xlink:href="#m6852c7788d" x="702.058124" y="488.606519" style="fill: #1f77b4; stroke: #1f77b4"/>
     <use xlink:href="#m6852c7788d" x="709.699025" y="488.933554" style="fill: #1f77b4; stroke: #1f77b4"/>
     <use xlink:href="#m6852c7788d" x="717.339927" y="492.082818" style="fill: #1f77b4; stroke: #1f77b4"/>
     <use xlink:href="#m6852c7788d" x="724.980829" y="492.395712" style="fill: #1f77b4; stroke: #1f77b4"/>
     <use xlink:href="#m6852c7788d" x="732.621731" y="492.70439" style="fill: #1f77b4; stroke: #1f77b4"/>
     <use xlink:href="#m6852c7788d" x="740.262633" y="495.692778" style="fill: #1f77b4; stroke: #1f77b4"/>
     <use xlink:href="#m6852c7788d" x="747.903535" y="495.98817" style="fill: #1f77b4; stroke: #1f77b4"/>
     <use xlink:href="#m6852c7788d" x="755.544436" y="498.837339" style="fill: #1f77b4; stroke: #1f77b4"/>
     <use xlink:href="#m6852c7788d" x="763.185338" y="499.120739" style="fill: #1f77b4; stroke: #1f77b4"/>
     <use xlink:href="#m6852c7788d" x="770.82624" y="499.400586" style="fill: #1f77b4; stroke: #1f77b4"/>
     <use xlink:href="#m6852c7788d" x="778.467142" y="502.113214" style="fill: #1f77b4; stroke: #1f77b4"/>
     <use xlink:href="#m6852c7788d" x="786.108044" y="502.381751" style="fill: #1f77b4; stroke: #1f77b4"/>
     <use xlink:href="#m6852c7788d" x="793.748945" y="504.975629" style="fill: #1f77b4; stroke: #1f77b4"/>
     <use xlink:href="#m6852c7788d" x="801.389847" y="505.233893" style="fill: #1f77b4; stroke: #1f77b4"/>
     <use xlink:href="#m6852c7788d" x="809.030749" y="505.489128" style="fill: #1f77b4; stroke: #1f77b4"/>
     <use xlink:href="#m6852c7788d" x="816.671651" y="507.965943" style="fill: #1f77b4; stroke: #1f77b4"/>
     <use xlink:href="#m6852c7788d" x="824.312553" y="508.211456" style="fill: #1f77b4; stroke: #1f77b4"/>
     <use xlink:href="#m6852c7788d" x="831.953455" y="510.586012" style="fill: #1f77b4; stroke: #1f77b4"/>
     <use xlink:href="#m6852c7788d" x="839.594356" y="510.822647" style="fill: #1f77b4; stroke: #1f77b4"/>
     <use xlink:href="#m6852c7788d" x="847.235258" y="511.056675" style="fill: #1f77b4; stroke: #1f77b4"/>
     <use xlink:href="#m6852c7788d" x="854.87616" y="513.329967" style="fill: #1f77b4; stroke: #1f77b4"/>
     <use xlink:href="#m6852c7788d" x="862.517062" y="513.555566" style="fill: #1f77b4; stroke: #1f77b4"/>
     <use xlink:href="#m6852c7788d" x="870.157964" y="515.740053" style="fill: #1f77b4; stroke: #1f77b4"/>
     <use xlink:href="#m6852c7788d" x="877.798865" y="515.957917" style="fill: #1f77b4; stroke: #1f77b4"/>
     <use xlink:href="#m6852c7788d" x="885.439767" y="516.173519" style="fill: #1f77b4; stroke: #1f77b4"/>
     <use xlink:href="#m6852c7788d" x="893.080669" y="518.26971" style="fill: #1f77b4; stroke: #1f77b4"/>
     <use xlink:href="#m6852c7788d" x="900.721571" y="518.477948" style="fill: #1f77b4; stroke: #1f77b4"/>
     <use xlink:href="#m6852c7788d" x="908.362473" y="520.496435" style="fill: #1f77b4; stroke: #1f77b4"/>
     <use xlink:href="#m6852c7788d" x="916.003375" y="520.697884" style="fill: #1f77b4; stroke: #1f77b4"/>
     <use xlink:href="#m6852c7788d" x="923.644276" y="520.897357" style="fill: #1f77b4; stroke: #1f77b4"/>
     <use xlink:href="#m6852c7788d" x="931.285178" y="522.838304" style="fill: #1f77b4; stroke: #1f77b4"/>
     <use xlink:href="#m6852c7788d" x="938.92608" y="523.031297" style="fill: #1f77b4; stroke: #1f77b4"/>
     <use xlink:href="#m6852c7788d" x="946.566982" y="524.903791" style="fill: #1f77b4; stroke: #1f77b4"/>
     <use xlink:href="#m6852c7788d" x="954.207884" y="525.090789" style="fill: #1f77b4; stroke: #1f77b4"/>
     <use xlink:href="#m6852c7788d" x="961.848785" y="525.276046" style="fill: #1f77b4; stroke: #1f77b4"/>
     <use xlink:href="#m6852c7788d" x="969.489687" y="527.080008" style="fill: #1f77b4; stroke: #1f77b4"/>
     <use xlink:href="#m6852c7788d" x="977.130589" y="527.25953" style="fill: #1f77b4; stroke: #1f77b4"/>
     <use xlink:href="#m6852c7788d" x="984.771491" y="529.002818" style="fill: #1f77b4; stroke: #1f77b4"/>
    </g>
   </g>
   <g id="patch_3">
    <path d="M 182.4768 551.106 
L 182.4768 64.836 
" style="fill: none; stroke: #000000; stroke-width: 0.8; stroke-linejoin: miter; stroke-linecap: square"/>
   </g>
   <g id="patch_4">
    <path d="M 1022.976 551.106 
L 1022.976 64.836 
" style="fill: none; stroke: #000000; stroke-width: 0.8; stroke-linejoin: miter; stroke-linecap: square"/>
   </g>
   <g id="patch_5">
    <path d="M 182.4768 551.106 
L 1022.976 551.106 
" style="fill: none; stroke: #000000; stroke-width: 0.8; stroke-linejoin: miter; stroke-linecap: square"/>
   </g>
   <g id="patch_6">
    <path d="M 182.4768 64.836 
L 1022.976 64.836 
" style="fill: none; stroke: #000000; stroke-width: 0.8; stroke-linejoin: miter; stroke-linecap: square"/>
   </g>
   <g id="text_18">
    <!-- Relative error for different Nx  -->
    <g transform="translate(512.612025 45.398625) scale(0.12 -0.12)">
     <defs>
      <path id="DejaVuSans-52" d="M 2841 2188 
Q 3044 2119 3236 1894 
Q 3428 1669 3622 1275 
L 4263 0 
L 3584 0 
L 2988 1197 
Q 2756 1666 2539 1819 
Q 2322 1972 1947 1972 
L 1259 1972 
L 1259 0 
L 628 0 
L 628 4666 
L 2053 4666 
Q 2853 4666 3247 4331 
Q 3641 3997 3641 3322 
Q 3641 2881 3436 2590 
Q 3231 2300 2841 2188 
z
M 1259 4147 
L 1259 2491 
L 2053 2491 
Q 2509 2491 2742 2702 
Q 2975 2913 2975 3322 
Q 2975 3731 2742 3939 
Q 2509 4147 2053 4147 
L 1259 4147 
z
" transform="scale(0.015625)"/>
      <path id="DejaVuSans-66" d="M 2375 4863 
L 2375 4384 
L 1825 4384 
Q 1516 4384 1395 4259 
Q 1275 4134 1275 3809 
L 1275 3500 
L 2222 3500 
L 2222 3053 
L 1275 3053 
L 1275 0 
L 697 0 
L 697 3053 
L 147 3053 
L 147 3500 
L 697 3500 
L 697 3744 
Q 697 4328 969 4595 
Q 1241 4863 1831 4863 
L 2375 4863 
z
" transform="scale(0.015625)"/>
      <path id="DejaVuSans-64" d="M 2906 2969 
L 2906 4863 
L 3481 4863 
L 3481 0 
L 2906 0 
L 2906 525 
Q 2725 213 2448 61 
Q 2172 -91 1784 -91 
Q 1150 -91 751 415 
Q 353 922 353 1747 
Q 353 2572 751 3078 
Q 1150 3584 1784 3584 
Q 2172 3584 2448 3432 
Q 2725 3281 2906 2969 
z
M 947 1747 
Q 947 1113 1208 752 
Q 1469 391 1925 391 
Q 2381 391 2643 752 
Q 2906 1113 2906 1747 
Q 2906 2381 2643 2742 
Q 2381 3103 1925 3103 
Q 1469 3103 1208 2742 
Q 947 2381 947 1747 
z
" transform="scale(0.015625)"/>
      <path id="DejaVuSans-6e" d="M 3513 2113 
L 3513 0 
L 2938 0 
L 2938 2094 
Q 2938 2591 2744 2837 
Q 2550 3084 2163 3084 
Q 1697 3084 1428 2787 
Q 1159 2491 1159 1978 
L 1159 0 
L 581 0 
L 581 3500 
L 1159 3500 
L 1159 2956 
Q 1366 3272 1645 3428 
Q 1925 3584 2291 3584 
Q 2894 3584 3203 3211 
Q 3513 2838 3513 2113 
z
" transform="scale(0.015625)"/>
     </defs>
     <use xlink:href="#DejaVuSans-52"/>
     <use xlink:href="#DejaVuSans-65" x="64.982422"/>
     <use xlink:href="#DejaVuSans-6c" x="126.505859"/>
     <use xlink:href="#DejaVuSans-61" x="154.289062"/>
     <use xlink:href="#DejaVuSans-74" x="215.568359"/>
     <use xlink:href="#DejaVuSans-69" x="254.777344"/>
     <use xlink:href="#DejaVuSans-76" x="282.560547"/>
     <use xlink:href="#DejaVuSans-65" x="341.740234"/>
     <use xlink:href="#DejaVuSans-20" x="403.263672"/>
     <use xlink:href="#DejaVuSans-65" x="435.050781"/>
     <use xlink:href="#DejaVuSans-72" x="496.574219"/>
     <use xlink:href="#DejaVuSans-72" x="535.9375"/>
     <use xlink:href="#DejaVuSans-6f" x="574.800781"/>
     <use xlink:href="#DejaVuSans-72" x="635.982422"/>
     <use xlink:href="#DejaVuSans-20" x="677.095703"/>
     <use xlink:href="#DejaVuSans-66" x="708.882812"/>
     <use xlink:href="#DejaVuSans-6f" x="744.087891"/>
     <use xlink:href="#DejaVuSans-72" x="805.269531"/>
     <use xlink:href="#DejaVuSans-20" x="846.382812"/>
     <use xlink:href="#DejaVuSans-64" x="878.169922"/>
     <use xlink:href="#DejaVuSans-69" x="941.646484"/>
     <use xlink:href="#DejaVuSans-66" x="969.429688"/>
     <use xlink:href="#DejaVuSans-66" x="1004.634766"/>
     <use xlink:href="#DejaVuSans-65" x="1039.839844"/>
     <use xlink:href="#DejaVuSans-72" x="1101.363281"/>
     <use xlink:href="#DejaVuSans-65" x="1140.226562"/>
     <use xlink:href="#DejaVuSans-6e" x="1201.75"/>
     <use xlink:href="#DejaVuSans-74" x="1265.128906"/>
     <use xlink:href="#DejaVuSans-20" x="1304.337891"/>
     <use xlink:href="#DejaVuSans-4e" x="1336.125"/>
     <use xlink:href="#DejaVuSans-78" x="1410.929688"/>
     <use xlink:href="#DejaVuSans-20" x="1470.109375"/>
    </g>
    <!--  Crank-Nicolson scheme -->
    <g transform="translate(530.290462 58.836) scale(0.12 -0.12)">
     <defs>
      <path id="DejaVuSans-43" d="M 4122 4306 
L 4122 3641 
Q 3803 3938 3442 4084 
Q 3081 4231 2675 4231 
Q 1875 4231 1450 3742 
Q 1025 3253 1025 2328 
Q 1025 1406 1450 917 
Q 1875 428 2675 428 
Q 3081 428 3442 575 
Q 3803 722 4122 1019 
L 4122 359 
Q 3791 134 3420 21 
Q 3050 -91 2638 -91 
Q 1578 -91 968 557 
Q 359 1206 359 2328 
Q 359 3453 968 4101 
Q 1578 4750 2638 4750 
Q 3056 4750 3426 4639 
Q 3797 4528 4122 4306 
z
" transform="scale(0.015625)"/>
      <path id="DejaVuSans-6b" d="M 581 4863 
L 1159 4863 
L 1159 1991 
L 2875 3500 
L 3609 3500 
L 1753 1863 
L 3688 0 
L 2938 0 
L 1159 1709 
L 1159 0 
L 581 0 
L 581 4863 
z
" transform="scale(0.015625)"/>
      <path id="DejaVuSans-2d" d="M 313 2009 
L 1997 2009 
L 1997 1497 
L 313 1497 
L 313 2009 
z
" transform="scale(0.015625)"/>
      <path id="DejaVuSans-63" d="M 3122 3366 
L 3122 2828 
Q 2878 2963 2633 3030 
Q 2388 3097 2138 3097 
Q 1578 3097 1268 2742 
Q 959 2388 959 1747 
Q 959 1106 1268 751 
Q 1578 397 2138 397 
Q 2388 397 2633 464 
Q 2878 531 3122 666 
L 3122 134 
Q 2881 22 2623 -34 
Q 2366 -91 2075 -91 
Q 1284 -91 818 406 
Q 353 903 353 1747 
Q 353 2603 823 3093 
Q 1294 3584 2113 3584 
Q 2378 3584 2631 3529 
Q 2884 3475 3122 3366 
z
" transform="scale(0.015625)"/>
      <path id="DejaVuSans-73" d="M 2834 3397 
L 2834 2853 
Q 2591 2978 2328 3040 
Q 2066 3103 1784 3103 
Q 1356 3103 1142 2972 
Q 928 2841 928 2578 
Q 928 2378 1081 2264 
Q 1234 2150 1697 2047 
L 1894 2003 
Q 2506 1872 2764 1633 
Q 3022 1394 3022 966 
Q 3022 478 2636 193 
Q 2250 -91 1575 -91 
Q 1294 -91 989 -36 
Q 684 19 347 128 
L 347 722 
Q 666 556 975 473 
Q 1284 391 1588 391 
Q 1994 391 2212 530 
Q 2431 669 2431 922 
Q 2431 1156 2273 1281 
Q 2116 1406 1581 1522 
L 1381 1569 
Q 847 1681 609 1914 
Q 372 2147 372 2553 
Q 372 3047 722 3315 
Q 1072 3584 1716 3584 
Q 2034 3584 2315 3537 
Q 2597 3491 2834 3397 
z
" transform="scale(0.015625)"/>
      <path id="DejaVuSans-68" d="M 3513 2113 
L 3513 0 
L 2938 0 
L 2938 2094 
Q 2938 2591 2744 2837 
Q 2550 3084 2163 3084 
Q 1697 3084 1428 2787 
Q 1159 2491 1159 1978 
L 1159 0 
L 581 0 
L 581 4863 
L 1159 4863 
L 1159 2956 
Q 1366 3272 1645 3428 
Q 1925 3584 2291 3584 
Q 2894 3584 3203 3211 
Q 3513 2838 3513 2113 
z
" transform="scale(0.015625)"/>
      <path id="DejaVuSans-6d" d="M 3328 2828 
Q 3544 3216 3844 3400 
Q 4144 3584 4550 3584 
Q 5097 3584 5394 3201 
Q 5691 2819 5691 2113 
L 5691 0 
L 5113 0 
L 5113 2094 
Q 5113 2597 4934 2840 
Q 4756 3084 4391 3084 
Q 3944 3084 3684 2787 
Q 3425 2491 3425 1978 
L 3425 0 
L 2847 0 
L 2847 2094 
Q 2847 2600 2669 2842 
Q 2491 3084 2119 3084 
Q 1678 3084 1418 2786 
Q 1159 2488 1159 1978 
L 1159 0 
L 581 0 
L 581 3500 
L 1159 3500 
L 1159 2956 
Q 1356 3278 1631 3431 
Q 1906 3584 2284 3584 
Q 2666 3584 2933 3390 
Q 3200 3197 3328 2828 
z
" transform="scale(0.015625)"/>
     </defs>
     <use xlink:href="#DejaVuSans-20"/>
     <use xlink:href="#DejaVuSans-43" x="31.787109"/>
     <use xlink:href="#DejaVuSans-72" x="101.611328"/>
     <use xlink:href="#DejaVuSans-61" x="142.724609"/>
     <use xlink:href="#DejaVuSans-6e" x="204.003906"/>
     <use xlink:href="#DejaVuSans-6b" x="267.382812"/>
     <use xlink:href="#DejaVuSans-2d" x="325.292969"/>
     <use xlink:href="#DejaVuSans-4e" x="361.376953"/>
     <use xlink:href="#DejaVuSans-69" x="436.181641"/>
     <use xlink:href="#DejaVuSans-63" x="463.964844"/>
     <use xlink:href="#DejaVuSans-6f" x="518.945312"/>
     <use xlink:href="#DejaVuSans-6c" x="580.126953"/>
     <use xlink:href="#DejaVuSans-73" x="607.910156"/>
     <use xlink:href="#DejaVuSans-6f" x="660.009766"/>
     <use xlink:href="#DejaVuSans-6e" x="721.191406"/>
     <use xlink:href="#DejaVuSans-20" x="784.570312"/>
     <use xlink:href="#DejaVuSans-73" x="816.357422"/>
     <use xlink:href="#DejaVuSans-63" x="868.457031"/>
     <use xlink:href="#DejaVuSans-68" x="923.4375"/>
     <use xlink:href="#DejaVuSans-65" x="986.816406"/>
     <use xlink:href="#DejaVuSans-6d" x="1048.339844"/>
     <use xlink:href="#DejaVuSans-65" x="1145.751953"/>
    </g>
   </g>
  </g>
 </g>
 <defs>
  <clipPath id="pa0322ae34b">
   <rect x="182.4768" y="64.836" width="840.4992" height="486.27"/>
  </clipPath>
 </defs>
</svg>
