<?xml version="1.0" encoding="utf-8" standalone="no"?>
<!DOCTYPE svg PUBLIC "-//W3C//DTD SVG 1.1//EN"
  "http://www.w3.org/Graphics/SVG/1.1/DTD/svg11.dtd">
<svg xmlns:xlink="http://www.w3.org/1999/xlink" width="1105.92pt" height="648.36pt" viewBox="0 0 1105.92 648.36" xmlns="http://www.w3.org/2000/svg" version="1.1">
 <metadata>
  <rdf:RDF xmlns:dc="http://purl.org/dc/elements/1.1/" xmlns:cc="http://creativecommons.org/ns#" xmlns:rdf="http://www.w3.org/1999/02/22-rdf-syntax-ns#">
   <cc:Work>
    <dc:type rdf:resource="http://purl.org/dc/dcmitype/StillImage"/>
    <dc:date>2024-06-08T22:17:10.340102</dc:date>
    <dc:format>image/svg+xml</dc:format>
    <dc:creator>
     <cc:Agent>
      <dc:title>Matplotlib v3.8.4, https://matplotlib.org/</dc:title>
     </cc:Agent>
    </dc:creator>
   </cc:Work>
  </rdf:RDF>
 </metadata>
 <defs>
  <style type="text/css">*{stroke-linejoin: round; stroke-linecap: butt}</style>
 </defs>
 <g id="figure_1">
  <g id="patch_1">
   <path d="M 0 648.36 
L 1105.92 648.36 
L 1105.92 0 
L 0 0 
z
" style="fill: #ffffff"/>
  </g>
  <g id="axes_1">
   <g id="patch_2">
    <path d="M 182.4768 551.106 
L 1022.976 551.106 
L 1022.976 64.836 
L 182.4768 64.836 
z
" style="fill: #ffffff"/>
   </g>
   <g id="matplotlib.axis_1">
    <g id="xtick_1">
     <g id="line2d_1">
      <path d="M 220.681309 551.106 
L 220.681309 64.836 
" clip-path="url(#p1006d3b1f1)" style="fill: none; stroke: #b0b0b0; stroke-width: 0.8; stroke-linecap: square"/>
     </g>
     <g id="line2d_2">
      <defs>
       <path id="m6711e18358" d="M 0 0 
L 0 3.5 
" style="stroke: #000000; stroke-width: 0.8"/>
      </defs>
      <g>
       <use xlink:href="#m6711e18358" x="220.681309" y="551.106" style="stroke: #000000; stroke-width: 0.8"/>
      </g>
     </g>
     <g id="text_1">
      <!-- 0 -->
      <g transform="translate(217.500059 565.704438) scale(0.1 -0.1)">
       <defs>
        <path id="DejaVuSans-30" d="M 2034 4250 
Q 1547 4250 1301 3770 
Q 1056 3291 1056 2328 
Q 1056 1369 1301 889 
Q 1547 409 2034 409 
Q 2525 409 2770 889 
Q 3016 1369 3016 2328 
Q 3016 3291 2770 3770 
Q 2525 4250 2034 4250 
z
M 2034 4750 
Q 2819 4750 3233 4129 
Q 3647 3509 3647 2328 
Q 3647 1150 3233 529 
Q 2819 -91 2034 -91 
Q 1250 -91 836 529 
Q 422 1150 422 2328 
Q 422 3509 836 4129 
Q 1250 4750 2034 4750 
z
" transform="scale(0.015625)"/>
       </defs>
       <use xlink:href="#DejaVuSans-30"/>
      </g>
     </g>
    </g>
    <g id="xtick_2">
     <g id="line2d_3">
      <path d="M 371.986296 551.106 
L 371.986296 64.836 
" clip-path="url(#p1006d3b1f1)" style="fill: none; stroke: #b0b0b0; stroke-width: 0.8; stroke-linecap: square"/>
     </g>
     <g id="line2d_4">
      <g>
       <use xlink:href="#m6711e18358" x="371.986296" y="551.106" style="stroke: #000000; stroke-width: 0.8"/>
      </g>
     </g>
     <g id="text_2">
      <!-- 20 -->
      <g transform="translate(365.623796 565.704438) scale(0.1 -0.1)">
       <defs>
        <path id="DejaVuSans-32" d="M 1228 531 
L 3431 531 
L 3431 0 
L 469 0 
L 469 531 
Q 828 903 1448 1529 
Q 2069 2156 2228 2338 
Q 2531 2678 2651 2914 
Q 2772 3150 2772 3378 
Q 2772 3750 2511 3984 
Q 2250 4219 1831 4219 
Q 1534 4219 1204 4116 
Q 875 4013 500 3803 
L 500 4441 
Q 881 4594 1212 4672 
Q 1544 4750 1819 4750 
Q 2544 4750 2975 4387 
Q 3406 4025 3406 3419 
Q 3406 3131 3298 2873 
Q 3191 2616 2906 2266 
Q 2828 2175 2409 1742 
Q 1991 1309 1228 531 
z
" transform="scale(0.015625)"/>
       </defs>
       <use xlink:href="#DejaVuSans-32"/>
       <use xlink:href="#DejaVuSans-30" x="63.623047"/>
      </g>
     </g>
    </g>
    <g id="xtick_3">
     <g id="line2d_5">
      <path d="M 523.291282 551.106 
L 523.291282 64.836 
" clip-path="url(#p1006d3b1f1)" style="fill: none; stroke: #b0b0b0; stroke-width: 0.8; stroke-linecap: square"/>
     </g>
     <g id="line2d_6">
      <g>
       <use xlink:href="#m6711e18358" x="523.291282" y="551.106" style="stroke: #000000; stroke-width: 0.8"/>
      </g>
     </g>
     <g id="text_3">
      <!-- 40 -->
      <g transform="translate(516.928782 565.704438) scale(0.1 -0.1)">
       <defs>
        <path id="DejaVuSans-34" d="M 2419 4116 
L 825 1625 
L 2419 1625 
L 2419 4116 
z
M 2253 4666 
L 3047 4666 
L 3047 1625 
L 3713 1625 
L 3713 1100 
L 3047 1100 
L 3047 0 
L 2419 0 
L 2419 1100 
L 313 1100 
L 313 1709 
L 2253 4666 
z
" transform="scale(0.015625)"/>
       </defs>
       <use xlink:href="#DejaVuSans-34"/>
       <use xlink:href="#DejaVuSans-30" x="63.623047"/>
      </g>
     </g>
    </g>
    <g id="xtick_4">
     <g id="line2d_7">
      <path d="M 674.596269 551.106 
L 674.596269 64.836 
" clip-path="url(#p1006d3b1f1)" style="fill: none; stroke: #b0b0b0; stroke-width: 0.8; stroke-linecap: square"/>
     </g>
     <g id="line2d_8">
      <g>
       <use xlink:href="#m6711e18358" x="674.596269" y="551.106" style="stroke: #000000; stroke-width: 0.8"/>
      </g>
     </g>
     <g id="text_4">
      <!-- 60 -->
      <g transform="translate(668.233769 565.704438) scale(0.1 -0.1)">
       <defs>
        <path id="DejaVuSans-36" d="M 2113 2584 
Q 1688 2584 1439 2293 
Q 1191 2003 1191 1497 
Q 1191 994 1439 701 
Q 1688 409 2113 409 
Q 2538 409 2786 701 
Q 3034 994 3034 1497 
Q 3034 2003 2786 2293 
Q 2538 2584 2113 2584 
z
M 3366 4563 
L 3366 3988 
Q 3128 4100 2886 4159 
Q 2644 4219 2406 4219 
Q 1781 4219 1451 3797 
Q 1122 3375 1075 2522 
Q 1259 2794 1537 2939 
Q 1816 3084 2150 3084 
Q 2853 3084 3261 2657 
Q 3669 2231 3669 1497 
Q 3669 778 3244 343 
Q 2819 -91 2113 -91 
Q 1303 -91 875 529 
Q 447 1150 447 2328 
Q 447 3434 972 4092 
Q 1497 4750 2381 4750 
Q 2619 4750 2861 4703 
Q 3103 4656 3366 4563 
z
" transform="scale(0.015625)"/>
       </defs>
       <use xlink:href="#DejaVuSans-36"/>
       <use xlink:href="#DejaVuSans-30" x="63.623047"/>
      </g>
     </g>
    </g>
    <g id="xtick_5">
     <g id="line2d_9">
      <path d="M 825.901255 551.106 
L 825.901255 64.836 
" clip-path="url(#p1006d3b1f1)" style="fill: none; stroke: #b0b0b0; stroke-width: 0.8; stroke-linecap: square"/>
     </g>
     <g id="line2d_10">
      <g>
       <use xlink:href="#m6711e18358" x="825.901255" y="551.106" style="stroke: #000000; stroke-width: 0.8"/>
      </g>
     </g>
     <g id="text_5">
      <!-- 80 -->
      <g transform="translate(819.538755 565.704438) scale(0.1 -0.1)">
       <defs>
        <path id="DejaVuSans-38" d="M 2034 2216 
Q 1584 2216 1326 1975 
Q 1069 1734 1069 1313 
Q 1069 891 1326 650 
Q 1584 409 2034 409 
Q 2484 409 2743 651 
Q 3003 894 3003 1313 
Q 3003 1734 2745 1975 
Q 2488 2216 2034 2216 
z
M 1403 2484 
Q 997 2584 770 2862 
Q 544 3141 544 3541 
Q 544 4100 942 4425 
Q 1341 4750 2034 4750 
Q 2731 4750 3128 4425 
Q 3525 4100 3525 3541 
Q 3525 3141 3298 2862 
Q 3072 2584 2669 2484 
Q 3125 2378 3379 2068 
Q 3634 1759 3634 1313 
Q 3634 634 3220 271 
Q 2806 -91 2034 -91 
Q 1263 -91 848 271 
Q 434 634 434 1313 
Q 434 1759 690 2068 
Q 947 2378 1403 2484 
z
M 1172 3481 
Q 1172 3119 1398 2916 
Q 1625 2713 2034 2713 
Q 2441 2713 2670 2916 
Q 2900 3119 2900 3481 
Q 2900 3844 2670 4047 
Q 2441 4250 2034 4250 
Q 1625 4250 1398 4047 
Q 1172 3844 1172 3481 
z
" transform="scale(0.015625)"/>
       </defs>
       <use xlink:href="#DejaVuSans-38"/>
       <use xlink:href="#DejaVuSans-30" x="63.623047"/>
      </g>
     </g>
    </g>
    <g id="xtick_6">
     <g id="line2d_11">
      <path d="M 977.206242 551.106 
L 977.206242 64.836 
" clip-path="url(#p1006d3b1f1)" style="fill: none; stroke: #b0b0b0; stroke-width: 0.8; stroke-linecap: square"/>
     </g>
     <g id="line2d_12">
      <g>
       <use xlink:href="#m6711e18358" x="977.206242" y="551.106" style="stroke: #000000; stroke-width: 0.8"/>
      </g>
     </g>
     <g id="text_6">
      <!-- 100 -->
      <g transform="translate(967.662492 565.704438) scale(0.1 -0.1)">
       <defs>
        <path id="DejaVuSans-31" d="M 794 531 
L 1825 531 
L 1825 4091 
L 703 3866 
L 703 4441 
L 1819 4666 
L 2450 4666 
L 2450 531 
L 3481 531 
L 3481 0 
L 794 0 
L 794 531 
z
" transform="scale(0.015625)"/>
       </defs>
       <use xlink:href="#DejaVuSans-31"/>
       <use xlink:href="#DejaVuSans-30" x="63.623047"/>
       <use xlink:href="#DejaVuSans-30" x="127.246094"/>
      </g>
     </g>
    </g>
    <g id="text_7">
     <!-- z [µm] -->
     <g transform="translate(586.559994 579.382562) scale(0.1 -0.1)">
      <defs>
       <path id="DejaVuSans-7a" d="M 353 3500 
L 3084 3500 
L 3084 2975 
L 922 459 
L 3084 459 
L 3084 0 
L 275 0 
L 275 525 
L 2438 3041 
L 353 3041 
L 353 3500 
z
" transform="scale(0.015625)"/>
       <path id="DejaVuSans-20" transform="scale(0.015625)"/>
       <path id="DejaVuSans-5b" d="M 550 4863 
L 1875 4863 
L 1875 4416 
L 1125 4416 
L 1125 -397 
L 1875 -397 
L 1875 -844 
L 550 -844 
L 550 4863 
z
" transform="scale(0.015625)"/>
       <path id="DejaVuSans-b5" d="M 544 -1331 
L 544 3500 
L 1119 3500 
L 1119 1325 
Q 1119 872 1334 640 
Q 1550 409 1972 409 
Q 2434 409 2667 671 
Q 2900 934 2900 1459 
L 2900 3500 
L 3475 3500 
L 3475 806 
Q 3475 619 3529 530 
Q 3584 441 3700 441 
Q 3728 441 3778 458 
Q 3828 475 3916 513 
L 3916 50 
Q 3788 -22 3673 -56 
Q 3559 -91 3450 -91 
Q 3234 -91 3106 31 
Q 2978 153 2931 403 
Q 2775 156 2548 32 
Q 2322 -91 2016 -91 
Q 1697 -91 1473 31 
Q 1250 153 1119 397 
L 1119 -1331 
L 544 -1331 
z
" transform="scale(0.015625)"/>
       <path id="DejaVuSans-6d" d="M 3328 2828 
Q 3544 3216 3844 3400 
Q 4144 3584 4550 3584 
Q 5097 3584 5394 3201 
Q 5691 2819 5691 2113 
L 5691 0 
L 5113 0 
L 5113 2094 
Q 5113 2597 4934 2840 
Q 4756 3084 4391 3084 
Q 3944 3084 3684 2787 
Q 3425 2491 3425 1978 
L 3425 0 
L 2847 0 
L 2847 2094 
Q 2847 2600 2669 2842 
Q 2491 3084 2119 3084 
Q 1678 3084 1418 2786 
Q 1159 2488 1159 1978 
L 1159 0 
L 581 0 
L 581 3500 
L 1159 3500 
L 1159 2956 
Q 1356 3278 1631 3431 
Q 1906 3584 2284 3584 
Q 2666 3584 2933 3390 
Q 3200 3197 3328 2828 
z
" transform="scale(0.015625)"/>
       <path id="DejaVuSans-5d" d="M 1947 4863 
L 1947 -844 
L 622 -844 
L 622 -397 
L 1369 -397 
L 1369 4416 
L 622 4416 
L 622 4863 
L 1947 4863 
z
" transform="scale(0.015625)"/>
      </defs>
      <use xlink:href="#DejaVuSans-7a"/>
      <use xlink:href="#DejaVuSans-20" x="52.490234"/>
      <use xlink:href="#DejaVuSans-5b" x="84.277344"/>
      <use xlink:href="#DejaVuSans-b5" x="123.291016"/>
      <use xlink:href="#DejaVuSans-6d" x="186.914062"/>
      <use xlink:href="#DejaVuSans-5d" x="284.326172"/>
     </g>
    </g>
   </g>
   <g id="matplotlib.axis_2">
    <g id="ytick_1">
     <g id="line2d_13">
      <path d="M 182.4768 529.002818 
L 1022.976 529.002818 
" clip-path="url(#p1006d3b1f1)" style="fill: none; stroke: #b0b0b0; stroke-width: 0.8; stroke-linecap: square"/>
     </g>
     <g id="line2d_14">
      <defs>
       <path id="me06199b12d" d="M 0 0 
L -3.5 0 
" style="stroke: #000000; stroke-width: 0.8"/>
      </defs>
      <g>
       <use xlink:href="#me06199b12d" x="182.4768" y="529.002818" style="stroke: #000000; stroke-width: 0.8"/>
      </g>
     </g>
     <g id="text_8">
      <!-- 0 -->
      <g transform="translate(169.1143 532.802037) scale(0.1 -0.1)">
       <use xlink:href="#DejaVuSans-30"/>
      </g>
     </g>
    </g>
    <g id="ytick_2">
     <g id="line2d_15">
      <path d="M 182.4768 470.719609 
L 1022.976 470.719609 
" clip-path="url(#p1006d3b1f1)" style="fill: none; stroke: #b0b0b0; stroke-width: 0.8; stroke-linecap: square"/>
     </g>
     <g id="line2d_16">
      <g>
       <use xlink:href="#me06199b12d" x="182.4768" y="470.719609" style="stroke: #000000; stroke-width: 0.8"/>
      </g>
     </g>
     <g id="text_9">
      <!-- 1 -->
      <g transform="translate(169.1143 474.518828) scale(0.1 -0.1)">
       <use xlink:href="#DejaVuSans-31"/>
      </g>
     </g>
    </g>
    <g id="ytick_3">
     <g id="line2d_17">
      <path d="M 182.4768 412.4364 
L 1022.976 412.4364 
" clip-path="url(#p1006d3b1f1)" style="fill: none; stroke: #b0b0b0; stroke-width: 0.8; stroke-linecap: square"/>
     </g>
     <g id="line2d_18">
      <g>
       <use xlink:href="#me06199b12d" x="182.4768" y="412.4364" style="stroke: #000000; stroke-width: 0.8"/>
      </g>
     </g>
     <g id="text_10">
      <!-- 2 -->
      <g transform="translate(169.1143 416.235619) scale(0.1 -0.1)">
       <use xlink:href="#DejaVuSans-32"/>
      </g>
     </g>
    </g>
    <g id="ytick_4">
     <g id="line2d_19">
      <path d="M 182.4768 354.153191 
L 1022.976 354.153191 
" clip-path="url(#p1006d3b1f1)" style="fill: none; stroke: #b0b0b0; stroke-width: 0.8; stroke-linecap: square"/>
     </g>
     <g id="line2d_20">
      <g>
       <use xlink:href="#me06199b12d" x="182.4768" y="354.153191" style="stroke: #000000; stroke-width: 0.8"/>
      </g>
     </g>
     <g id="text_11">
      <!-- 3 -->
      <g transform="translate(169.1143 357.95241) scale(0.1 -0.1)">
       <defs>
        <path id="DejaVuSans-33" d="M 2597 2516 
Q 3050 2419 3304 2112 
Q 3559 1806 3559 1356 
Q 3559 666 3084 287 
Q 2609 -91 1734 -91 
Q 1441 -91 1130 -33 
Q 819 25 488 141 
L 488 750 
Q 750 597 1062 519 
Q 1375 441 1716 441 
Q 2309 441 2620 675 
Q 2931 909 2931 1356 
Q 2931 1769 2642 2001 
Q 2353 2234 1838 2234 
L 1294 2234 
L 1294 2753 
L 1863 2753 
Q 2328 2753 2575 2939 
Q 2822 3125 2822 3475 
Q 2822 3834 2567 4026 
Q 2313 4219 1838 4219 
Q 1578 4219 1281 4162 
Q 984 4106 628 3988 
L 628 4550 
Q 988 4650 1302 4700 
Q 1616 4750 1894 4750 
Q 2613 4750 3031 4423 
Q 3450 4097 3450 3541 
Q 3450 3153 3228 2886 
Q 3006 2619 2597 2516 
z
" transform="scale(0.015625)"/>
       </defs>
       <use xlink:href="#DejaVuSans-33"/>
      </g>
     </g>
    </g>
    <g id="ytick_5">
     <g id="line2d_21">
      <path d="M 182.4768 295.869982 
L 1022.976 295.869982 
" clip-path="url(#p1006d3b1f1)" style="fill: none; stroke: #b0b0b0; stroke-width: 0.8; stroke-linecap: square"/>
     </g>
     <g id="line2d_22">
      <g>
       <use xlink:href="#me06199b12d" x="182.4768" y="295.869982" style="stroke: #000000; stroke-width: 0.8"/>
      </g>
     </g>
     <g id="text_12">
      <!-- 4 -->
      <g transform="translate(169.1143 299.669201) scale(0.1 -0.1)">
       <use xlink:href="#DejaVuSans-34"/>
      </g>
     </g>
    </g>
    <g id="ytick_6">
     <g id="line2d_23">
      <path d="M 182.4768 237.586773 
L 1022.976 237.586773 
" clip-path="url(#p1006d3b1f1)" style="fill: none; stroke: #b0b0b0; stroke-width: 0.8; stroke-linecap: square"/>
     </g>
     <g id="line2d_24">
      <g>
       <use xlink:href="#me06199b12d" x="182.4768" y="237.586773" style="stroke: #000000; stroke-width: 0.8"/>
      </g>
     </g>
     <g id="text_13">
      <!-- 5 -->
      <g transform="translate(169.1143 241.385992) scale(0.1 -0.1)">
       <defs>
        <path id="DejaVuSans-35" d="M 691 4666 
L 3169 4666 
L 3169 4134 
L 1269 4134 
L 1269 2991 
Q 1406 3038 1543 3061 
Q 1681 3084 1819 3084 
Q 2600 3084 3056 2656 
Q 3513 2228 3513 1497 
Q 3513 744 3044 326 
Q 2575 -91 1722 -91 
Q 1428 -91 1123 -41 
Q 819 9 494 109 
L 494 744 
Q 775 591 1075 516 
Q 1375 441 1709 441 
Q 2250 441 2565 725 
Q 2881 1009 2881 1497 
Q 2881 1984 2565 2268 
Q 2250 2553 1709 2553 
Q 1456 2553 1204 2497 
Q 953 2441 691 2322 
L 691 4666 
z
" transform="scale(0.015625)"/>
       </defs>
       <use xlink:href="#DejaVuSans-35"/>
      </g>
     </g>
    </g>
    <g id="ytick_7">
     <g id="line2d_25">
      <path d="M 182.4768 179.303564 
L 1022.976 179.303564 
" clip-path="url(#p1006d3b1f1)" style="fill: none; stroke: #b0b0b0; stroke-width: 0.8; stroke-linecap: square"/>
     </g>
     <g id="line2d_26">
      <g>
       <use xlink:href="#me06199b12d" x="182.4768" y="179.303564" style="stroke: #000000; stroke-width: 0.8"/>
      </g>
     </g>
     <g id="text_14">
      <!-- 6 -->
      <g transform="translate(169.1143 183.102783) scale(0.1 -0.1)">
       <use xlink:href="#DejaVuSans-36"/>
      </g>
     </g>
    </g>
    <g id="ytick_8">
     <g id="line2d_27">
      <path d="M 182.4768 121.020355 
L 1022.976 121.020355 
" clip-path="url(#p1006d3b1f1)" style="fill: none; stroke: #b0b0b0; stroke-width: 0.8; stroke-linecap: square"/>
     </g>
     <g id="line2d_28">
      <g>
       <use xlink:href="#me06199b12d" x="182.4768" y="121.020355" style="stroke: #000000; stroke-width: 0.8"/>
      </g>
     </g>
     <g id="text_15">
      <!-- 7 -->
      <g transform="translate(169.1143 124.819574) scale(0.1 -0.1)">
       <defs>
        <path id="DejaVuSans-37" d="M 525 4666 
L 3525 4666 
L 3525 4397 
L 1831 0 
L 1172 0 
L 2766 4134 
L 525 4134 
L 525 4666 
z
" transform="scale(0.015625)"/>
       </defs>
       <use xlink:href="#DejaVuSans-37"/>
      </g>
     </g>
    </g>
    <g id="text_16">
     <!-- intensity -->
     <g transform="translate(163.034613 329.647562) rotate(-90) scale(0.1 -0.1)">
      <defs>
       <path id="DejaVuSans-69" d="M 603 3500 
L 1178 3500 
L 1178 0 
L 603 0 
L 603 3500 
z
M 603 4863 
L 1178 4863 
L 1178 4134 
L 603 4134 
L 603 4863 
z
" transform="scale(0.015625)"/>
       <path id="DejaVuSans-6e" d="M 3513 2113 
L 3513 0 
L 2938 0 
L 2938 2094 
Q 2938 2591 2744 2837 
Q 2550 3084 2163 3084 
Q 1697 3084 1428 2787 
Q 1159 2491 1159 1978 
L 1159 0 
L 581 0 
L 581 3500 
L 1159 3500 
L 1159 2956 
Q 1366 3272 1645 3428 
Q 1925 3584 2291 3584 
Q 2894 3584 3203 3211 
Q 3513 2838 3513 2113 
z
" transform="scale(0.015625)"/>
       <path id="DejaVuSans-74" d="M 1172 4494 
L 1172 3500 
L 2356 3500 
L 2356 3053 
L 1172 3053 
L 1172 1153 
Q 1172 725 1289 603 
Q 1406 481 1766 481 
L 2356 481 
L 2356 0 
L 1766 0 
Q 1100 0 847 248 
Q 594 497 594 1153 
L 594 3053 
L 172 3053 
L 172 3500 
L 594 3500 
L 594 4494 
L 1172 4494 
z
" transform="scale(0.015625)"/>
       <path id="DejaVuSans-65" d="M 3597 1894 
L 3597 1613 
L 953 1613 
Q 991 1019 1311 708 
Q 1631 397 2203 397 
Q 2534 397 2845 478 
Q 3156 559 3463 722 
L 3463 178 
Q 3153 47 2828 -22 
Q 2503 -91 2169 -91 
Q 1331 -91 842 396 
Q 353 884 353 1716 
Q 353 2575 817 3079 
Q 1281 3584 2069 3584 
Q 2775 3584 3186 3129 
Q 3597 2675 3597 1894 
z
M 3022 2063 
Q 3016 2534 2758 2815 
Q 2500 3097 2075 3097 
Q 1594 3097 1305 2825 
Q 1016 2553 972 2059 
L 3022 2063 
z
" transform="scale(0.015625)"/>
       <path id="DejaVuSans-73" d="M 2834 3397 
L 2834 2853 
Q 2591 2978 2328 3040 
Q 2066 3103 1784 3103 
Q 1356 3103 1142 2972 
Q 928 2841 928 2578 
Q 928 2378 1081 2264 
Q 1234 2150 1697 2047 
L 1894 2003 
Q 2506 1872 2764 1633 
Q 3022 1394 3022 966 
Q 3022 478 2636 193 
Q 2250 -91 1575 -91 
Q 1294 -91 989 -36 
Q 684 19 347 128 
L 347 722 
Q 666 556 975 473 
Q 1284 391 1588 391 
Q 1994 391 2212 530 
Q 2431 669 2431 922 
Q 2431 1156 2273 1281 
Q 2116 1406 1581 1522 
L 1381 1569 
Q 847 1681 609 1914 
Q 372 2147 372 2553 
Q 372 3047 722 3315 
Q 1072 3584 1716 3584 
Q 2034 3584 2315 3537 
Q 2597 3491 2834 3397 
z
" transform="scale(0.015625)"/>
       <path id="DejaVuSans-79" d="M 2059 -325 
Q 1816 -950 1584 -1140 
Q 1353 -1331 966 -1331 
L 506 -1331 
L 506 -850 
L 844 -850 
Q 1081 -850 1212 -737 
Q 1344 -625 1503 -206 
L 1606 56 
L 191 3500 
L 800 3500 
L 1894 763 
L 2988 3500 
L 3597 3500 
L 2059 -325 
z
" transform="scale(0.015625)"/>
      </defs>
      <use xlink:href="#DejaVuSans-69"/>
      <use xlink:href="#DejaVuSans-6e" x="27.783203"/>
      <use xlink:href="#DejaVuSans-74" x="91.162109"/>
      <use xlink:href="#DejaVuSans-65" x="130.371094"/>
      <use xlink:href="#DejaVuSans-6e" x="191.894531"/>
      <use xlink:href="#DejaVuSans-73" x="255.273438"/>
      <use xlink:href="#DejaVuSans-69" x="307.373047"/>
      <use xlink:href="#DejaVuSans-74" x="335.15625"/>
      <use xlink:href="#DejaVuSans-79" x="374.365234"/>
     </g>
    </g>
    <g id="text_17">
     <!-- 1e181 -->
     <g transform="translate(182.4768 61.836) scale(0.1 -0.1)">
      <use xlink:href="#DejaVuSans-31"/>
      <use xlink:href="#DejaVuSans-65" x="63.623047"/>
      <use xlink:href="#DejaVuSans-31" x="125.146484"/>
      <use xlink:href="#DejaVuSans-38" x="188.769531"/>
      <use xlink:href="#DejaVuSans-31" x="252.392578"/>
     </g>
    </g>
   </g>
   <g id="line2d_29">
    <path d="M 220.681309 529.002818 
L 977.206242 529.002818 
L 977.206242 529.002818 
" clip-path="url(#p1006d3b1f1)" style="fill: none; stroke: #1f77b4; stroke-width: 1.5; stroke-linecap: square"/>
   </g>
   <g id="line2d_30">
    <path d="M 220.681309 529.002818 
L 977.206242 529.002818 
L 977.206242 529.002818 
" clip-path="url(#p1006d3b1f1)" style="fill: none; stroke: #ff7f0e; stroke-width: 1.5; stroke-linecap: square"/>
   </g>
   <g id="line2d_31">
    <path d="M 220.681309 529.002818 
L 977.206242 529.002818 
L 977.206242 529.002818 
" clip-path="url(#p1006d3b1f1)" style="fill: none; stroke: #2ca02c; stroke-width: 1.5; stroke-linecap: square"/>
   </g>
   <g id="line2d_32">
    <path d="M 220.681309 529.002818 
L 977.357547 529.002818 
L 977.357547 529.002818 
" clip-path="url(#p1006d3b1f1)" style="fill: none; stroke: #d62728; stroke-width: 1.5; stroke-linecap: square"/>
   </g>
   <g id="line2d_33">
    <path d="M 220.681309 529.002818 
L 977.206242 529.002818 
L 977.206242 529.002818 
" clip-path="url(#p1006d3b1f1)" style="fill: none; stroke: #9467bd; stroke-width: 1.5; stroke-linecap: square"/>
   </g>
   <g id="line2d_34">
    <path d="M 220.681309 529.002818 
L 977.206242 529.002818 
L 977.206242 529.002818 
" clip-path="url(#p1006d3b1f1)" style="fill: none; stroke: #8c564b; stroke-width: 1.5; stroke-linecap: square"/>
   </g>
   <g id="line2d_35">
    <path d="M 220.681309 529.002818 
L 977.584504 529.002818 
L 977.584504 529.002818 
" clip-path="url(#p1006d3b1f1)" style="fill: none; stroke: #e377c2; stroke-width: 1.5; stroke-linecap: square"/>
   </g>
   <g id="line2d_36">
    <path d="M 220.681309 529.002818 
L 977.67907 529.002818 
L 977.67907 529.002818 
" clip-path="url(#p1006d3b1f1)" style="fill: none; stroke: #7f7f7f; stroke-width: 1.5; stroke-linecap: square"/>
   </g>
   <g id="line2d_37">
    <path d="M 220.681309 529.002818 
L 977.811462 529.002818 
L 977.811462 529.002818 
" clip-path="url(#p1006d3b1f1)" style="fill: none; stroke: #bcbd22; stroke-width: 1.5; stroke-linecap: square"/>
   </g>
   <g id="line2d_38">
    <path d="M 220.681309 529.002818 
L 977.962767 529.002818 
L 977.962767 529.002818 
" clip-path="url(#p1006d3b1f1)" style="fill: none; stroke: #17becf; stroke-width: 1.5; stroke-linecap: square"/>
   </g>
   <g id="line2d_39">
    <path d="M 220.681309 529.002818 
L 978.151898 529.002818 
L 978.151898 529.002818 
" clip-path="url(#p1006d3b1f1)" style="fill: none; stroke: #1f77b4; stroke-width: 1.5; stroke-linecap: square"/>
   </g>
   <g id="line2d_40">
    <path d="M 220.681309 529.002818 
L 978.416681 529.002818 
L 978.416681 529.002818 
" clip-path="url(#p1006d3b1f1)" style="fill: none; stroke: #ff7f0e; stroke-width: 1.5; stroke-linecap: square"/>
   </g>
   <g id="line2d_41">
    <path d="M 220.681309 529.002818 
L 977.206242 529.002818 
L 977.206242 529.002818 
" clip-path="url(#p1006d3b1f1)" style="fill: none; stroke: #2ca02c; stroke-width: 1.5; stroke-linecap: square"/>
   </g>
   <g id="line2d_42">
    <path d="M 220.681309 529.002818 
L 979.097554 529.00279 
L 979.097554 529.00279 
" clip-path="url(#p1006d3b1f1)" style="fill: none; stroke: #d62728; stroke-width: 1.5; stroke-linecap: square"/>
   </g>
   <g id="line2d_43">
    <path d="M 220.681309 529.002818 
L 962.075743 528.933835 
L 965.101843 528.604652 
L 968.127942 526.70457 
L 971.154042 515.736671 
L 974.180142 452.424216 
L 977.206242 86.939182 
L 977.206242 86.939182 
" clip-path="url(#p1006d3b1f1)" style="fill: none; stroke: #9467bd; stroke-width: 1.5; stroke-linecap: square"/>
   </g>
   <g id="line2d_44">
    <path d="M 220.681309 529.002818 
L 980.988866 528.951622 
L 980.988866 528.951622 
" clip-path="url(#p1006d3b1f1)" style="fill: none; stroke: #8c564b; stroke-width: 1.5; stroke-linecap: square"/>
   </g>
   <g id="line2d_45">
    <path d="M 220.681309 529.002818 
L 981.934522 529.002818 
L 981.934522 529.002818 
" clip-path="url(#p1006d3b1f1)" style="fill: none; stroke: #e377c2; stroke-width: 1.5; stroke-linecap: square"/>
   </g>
   <g id="line2d_46">
    <path d="M 220.681309 529.002818 
L 983.116593 529.002818 
L 983.116593 529.002818 
" clip-path="url(#p1006d3b1f1)" style="fill: none; stroke: #7f7f7f; stroke-width: 1.5; stroke-linecap: square"/>
   </g>
   <g id="line2d_47">
    <path d="M 220.681309 529.002818 
L 226.733509 529.002818 
L 232.785708 529.002818 
L 238.837907 529.002818 
L 244.890107 529.002818 
L 250.942306 529.002818 
L 256.994506 529.002818 
L 263.046705 529.002818 
L 269.098905 529.002818 
L 275.151104 529.002818 
L 281.203304 529.002818 
L 287.255503 529.002818 
L 293.307703 529.002818 
L 299.359902 529.002818 
L 305.412102 529.002818 
L 311.464301 529.002818 
L 317.5165 529.002818 
L 323.5687 529.002818 
L 329.620899 529.002818 
L 335.673099 529.002818 
L 341.725298 529.002818 
L 347.777498 529.002818 
L 353.829697 529.002818 
L 359.881897 529.002818 
L 365.934096 529.002818 
L 371.986296 529.002818 
L 378.038495 529.002818 
L 384.090695 529.002818 
L 390.142894 529.002818 
L 396.195093 529.002818 
L 402.247293 529.002818 
L 408.299492 529.002818 
L 414.351692 529.002818 
L 420.403891 529.002818 
L 426.456091 529.002818 
L 432.50829 529.002818 
L 438.56049 529.002818 
L 444.612689 529.002818 
L 450.664889 529.002818 
L 456.717088 529.002818 
L 462.769287 529.002818 
L 468.821487 529.002818 
L 474.873686 529.002818 
L 480.925886 529.002818 
L 486.978085 529.002818 
L 493.030285 529.002818 
L 499.082484 529.002818 
L 505.134684 529.002818 
L 511.186883 529.002818 
L 517.239083 529.002818 
L 523.291282 529.002818 
L 529.343482 529.002818 
L 535.395681 529.002818 
L 541.44788 529.002818 
L 547.50008 529.002818 
L 553.552279 529.002818 
L 559.604479 529.002818 
L 565.656678 529.002818 
L 571.708878 529.002818 
L 577.761077 529.002818 
L 583.813277 529.002818 
L 589.865476 529.002818 
L 595.917676 529.002818 
L 601.969875 529.002818 
L 608.022075 529.002818 
L 614.074274 529.002818 
L 620.126473 529.002818 
L 626.178673 529.002818 
L 632.230872 529.002818 
L 638.283072 529.002818 
L 644.335271 529.002818 
L 650.387471 529.002818 
L 656.43967 529.002818 
L 662.49187 529.002818 
L 668.544069 529.002818 
L 674.596269 529.002818 
L 680.648468 529.002818 
L 686.700668 529.002818 
L 692.752867 529.002818 
L 698.805066 529.002818 
L 704.857266 529.002818 
L 710.909465 529.002818 
L 716.961665 529.002818 
L 723.013864 529.002818 
L 729.066064 529.002818 
L 735.118263 529.002818 
L 741.170463 529.002818 
L 747.222662 529.002818 
L 753.274862 529.002818 
L 759.327061 529.002818 
L 765.37926 529.002818 
L 771.43146 529.002818 
L 777.483659 529.002818 
L 783.535859 529.002818 
L 789.588058 529.002818 
L 795.640258 529.002818 
L 801.692457 529.002818 
L 807.744657 529.002818 
L 813.796856 529.002818 
L 819.849056 529.002818 
L 825.901255 529.002818 
L 831.953455 529.002818 
L 838.005654 529.002818 
L 844.057853 529.002818 
L 850.110053 529.002818 
L 856.162252 529.002818 
L 862.214452 529.002818 
L 868.266651 529.002818 
L 874.318851 529.002818 
L 880.37105 529.002818 
L 886.42325 529.002818 
L 892.475449 529.002818 
L 898.527649 529.002818 
L 904.579848 529.002818 
L 910.632048 529.002818 
L 916.684247 529.002818 
L 922.736446 529.002818 
L 928.788646 529.002818 
L 934.840845 529.002818 
L 940.893045 529.002818 
L 946.945244 529.002818 
L 952.997444 529.002818 
L 959.049643 529.002818 
L 965.101843 529.002818 
L 971.154042 529.002818 
L 977.206242 529.002818 
L 983.258441 529.002818 
" clip-path="url(#p1006d3b1f1)" style="fill: none; stroke: #bcbd22; stroke-width: 1.5; stroke-linecap: square"/>
   </g>
   <g id="line2d_48">
    <path d="M 220.681309 529.002818 
L 228.246558 529.002818 
L 235.811808 529.002818 
L 243.377057 529.002818 
L 250.942306 529.002818 
L 258.507556 529.002818 
L 266.072805 529.002818 
L 273.638054 529.002818 
L 281.203304 529.002818 
L 288.768553 529.002818 
L 296.333802 529.002818 
L 303.899052 529.002818 
L 311.464301 529.002818 
L 319.02955 529.002818 
L 326.5948 529.002818 
L 334.160049 529.002818 
L 341.725298 529.002818 
L 349.290548 529.002818 
L 356.855797 529.002818 
L 364.421046 529.002818 
L 371.986296 529.002818 
L 379.551545 529.002818 
L 387.116794 529.002818 
L 394.682044 529.002818 
L 402.247293 529.002818 
L 409.812542 529.002818 
L 417.377792 529.002818 
L 424.943041 529.002818 
L 432.50829 529.002818 
L 440.07354 529.002818 
L 447.638789 529.002818 
L 455.204038 529.002818 
L 462.769287 529.002818 
L 470.334537 529.002818 
L 477.899786 529.002818 
L 485.465035 529.002818 
L 493.030285 529.002818 
L 500.595534 529.002818 
L 508.160783 529.002818 
L 515.726033 529.002818 
L 523.291282 529.002818 
L 530.856531 529.002818 
L 538.421781 529.002818 
L 545.98703 529.002818 
L 553.552279 529.002818 
L 561.117529 529.002818 
L 568.682778 529.002818 
L 576.248027 529.002818 
L 583.813277 529.002818 
L 591.378526 529.002818 
L 598.943775 529.002818 
L 606.509025 529.002818 
L 614.074274 529.002818 
L 621.639523 529.002818 
L 629.204773 529.002818 
L 636.770022 529.002818 
L 644.335271 529.002818 
L 651.900521 529.002818 
L 659.46577 529.002818 
L 667.031019 529.002818 
L 674.596269 529.002818 
L 682.161518 529.002818 
L 689.726767 529.002818 
L 697.292017 529.002818 
L 704.857266 529.002818 
L 712.422515 529.002818 
L 719.987765 529.002818 
L 727.553014 529.002818 
L 735.118263 529.002818 
L 742.683513 529.002818 
L 750.248762 529.002818 
L 757.814011 529.002818 
L 765.37926 529.002818 
L 772.94451 529.002818 
L 780.509759 529.002818 
L 788.075008 529.002818 
L 795.640258 529.002818 
L 803.205507 529.002818 
L 810.770756 529.002818 
L 818.336006 529.002818 
L 825.901255 529.002818 
L 833.466504 529.002818 
L 841.031754 529.002818 
L 848.597003 529.002818 
L 856.162252 529.002818 
L 863.727502 529.002818 
L 871.292751 529.002818 
L 878.858 529.002818 
L 886.42325 529.002818 
L 893.988499 529.002818 
L 901.553748 529.002818 
L 909.118998 529.002818 
L 916.684247 529.002818 
L 924.249496 529.002818 
L 931.814746 529.002818 
L 939.379995 529.002818 
L 946.945244 529.002818 
L 954.510494 529.002818 
L 962.075743 529.002818 
L 969.640992 529.002818 
L 977.206242 529.002818 
L 984.771491 529.002818 
" clip-path="url(#p1006d3b1f1)" style="fill: none; stroke: #17becf; stroke-width: 1.5; stroke-linecap: square"/>
   </g>
   <g id="patch_3">
    <path d="M 182.4768 551.106 
L 182.4768 64.836 
" style="fill: none; stroke: #000000; stroke-width: 0.8; stroke-linejoin: miter; stroke-linecap: square"/>
   </g>
   <g id="patch_4">
    <path d="M 1022.976 551.106 
L 1022.976 64.836 
" style="fill: none; stroke: #000000; stroke-width: 0.8; stroke-linejoin: miter; stroke-linecap: square"/>
   </g>
   <g id="patch_5">
    <path d="M 182.4768 551.106 
L 1022.976 551.106 
" style="fill: none; stroke: #000000; stroke-width: 0.8; stroke-linejoin: miter; stroke-linecap: square"/>
   </g>
   <g id="patch_6">
    <path d="M 182.4768 64.836 
L 1022.976 64.836 
" style="fill: none; stroke: #000000; stroke-width: 0.8; stroke-linejoin: miter; stroke-linecap: square"/>
   </g>
   <g id="text_18">
    <!-- Field intensity distribution at x = 0  -->
    <g transform="translate(496.898588 45.398625) scale(0.12 -0.12)">
     <defs>
      <path id="DejaVuSans-46" d="M 628 4666 
L 3309 4666 
L 3309 4134 
L 1259 4134 
L 1259 2759 
L 3109 2759 
L 3109 2228 
L 1259 2228 
L 1259 0 
L 628 0 
L 628 4666 
z
" transform="scale(0.015625)"/>
      <path id="DejaVuSans-6c" d="M 603 4863 
L 1178 4863 
L 1178 0 
L 603 0 
L 603 4863 
z
" transform="scale(0.015625)"/>
      <path id="DejaVuSans-64" d="M 2906 2969 
L 2906 4863 
L 3481 4863 
L 3481 0 
L 2906 0 
L 2906 525 
Q 2725 213 2448 61 
Q 2172 -91 1784 -91 
Q 1150 -91 751 415 
Q 353 922 353 1747 
Q 353 2572 751 3078 
Q 1150 3584 1784 3584 
Q 2172 3584 2448 3432 
Q 2725 3281 2906 2969 
z
M 947 1747 
Q 947 1113 1208 752 
Q 1469 391 1925 391 
Q 2381 391 2643 752 
Q 2906 1113 2906 1747 
Q 2906 2381 2643 2742 
Q 2381 3103 1925 3103 
Q 1469 3103 1208 2742 
Q 947 2381 947 1747 
z
" transform="scale(0.015625)"/>
      <path id="DejaVuSans-72" d="M 2631 2963 
Q 2534 3019 2420 3045 
Q 2306 3072 2169 3072 
Q 1681 3072 1420 2755 
Q 1159 2438 1159 1844 
L 1159 0 
L 581 0 
L 581 3500 
L 1159 3500 
L 1159 2956 
Q 1341 3275 1631 3429 
Q 1922 3584 2338 3584 
Q 2397 3584 2469 3576 
Q 2541 3569 2628 3553 
L 2631 2963 
z
" transform="scale(0.015625)"/>
      <path id="DejaVuSans-62" d="M 3116 1747 
Q 3116 2381 2855 2742 
Q 2594 3103 2138 3103 
Q 1681 3103 1420 2742 
Q 1159 2381 1159 1747 
Q 1159 1113 1420 752 
Q 1681 391 2138 391 
Q 2594 391 2855 752 
Q 3116 1113 3116 1747 
z
M 1159 2969 
Q 1341 3281 1617 3432 
Q 1894 3584 2278 3584 
Q 2916 3584 3314 3078 
Q 3713 2572 3713 1747 
Q 3713 922 3314 415 
Q 2916 -91 2278 -91 
Q 1894 -91 1617 61 
Q 1341 213 1159 525 
L 1159 0 
L 581 0 
L 581 4863 
L 1159 4863 
L 1159 2969 
z
" transform="scale(0.015625)"/>
      <path id="DejaVuSans-75" d="M 544 1381 
L 544 3500 
L 1119 3500 
L 1119 1403 
Q 1119 906 1312 657 
Q 1506 409 1894 409 
Q 2359 409 2629 706 
Q 2900 1003 2900 1516 
L 2900 3500 
L 3475 3500 
L 3475 0 
L 2900 0 
L 2900 538 
Q 2691 219 2414 64 
Q 2138 -91 1772 -91 
Q 1169 -91 856 284 
Q 544 659 544 1381 
z
M 1991 3584 
L 1991 3584 
z
" transform="scale(0.015625)"/>
      <path id="DejaVuSans-6f" d="M 1959 3097 
Q 1497 3097 1228 2736 
Q 959 2375 959 1747 
Q 959 1119 1226 758 
Q 1494 397 1959 397 
Q 2419 397 2687 759 
Q 2956 1122 2956 1747 
Q 2956 2369 2687 2733 
Q 2419 3097 1959 3097 
z
M 1959 3584 
Q 2709 3584 3137 3096 
Q 3566 2609 3566 1747 
Q 3566 888 3137 398 
Q 2709 -91 1959 -91 
Q 1206 -91 779 398 
Q 353 888 353 1747 
Q 353 2609 779 3096 
Q 1206 3584 1959 3584 
z
" transform="scale(0.015625)"/>
      <path id="DejaVuSans-61" d="M 2194 1759 
Q 1497 1759 1228 1600 
Q 959 1441 959 1056 
Q 959 750 1161 570 
Q 1363 391 1709 391 
Q 2188 391 2477 730 
Q 2766 1069 2766 1631 
L 2766 1759 
L 2194 1759 
z
M 3341 1997 
L 3341 0 
L 2766 0 
L 2766 531 
Q 2569 213 2275 61 
Q 1981 -91 1556 -91 
Q 1019 -91 701 211 
Q 384 513 384 1019 
Q 384 1609 779 1909 
Q 1175 2209 1959 2209 
L 2766 2209 
L 2766 2266 
Q 2766 2663 2505 2880 
Q 2244 3097 1772 3097 
Q 1472 3097 1187 3025 
Q 903 2953 641 2809 
L 641 3341 
Q 956 3463 1253 3523 
Q 1550 3584 1831 3584 
Q 2591 3584 2966 3190 
Q 3341 2797 3341 1997 
z
" transform="scale(0.015625)"/>
      <path id="DejaVuSans-78" d="M 3513 3500 
L 2247 1797 
L 3578 0 
L 2900 0 
L 1881 1375 
L 863 0 
L 184 0 
L 1544 1831 
L 300 3500 
L 978 3500 
L 1906 2253 
L 2834 3500 
L 3513 3500 
z
" transform="scale(0.015625)"/>
      <path id="DejaVuSans-3d" d="M 678 2906 
L 4684 2906 
L 4684 2381 
L 678 2381 
L 678 2906 
z
M 678 1631 
L 4684 1631 
L 4684 1100 
L 678 1100 
L 678 1631 
z
" transform="scale(0.015625)"/>
     </defs>
     <use xlink:href="#DejaVuSans-46"/>
     <use xlink:href="#DejaVuSans-69" x="50.269531"/>
     <use xlink:href="#DejaVuSans-65" x="78.052734"/>
     <use xlink:href="#DejaVuSans-6c" x="139.576172"/>
     <use xlink:href="#DejaVuSans-64" x="167.359375"/>
     <use xlink:href="#DejaVuSans-20" x="230.835938"/>
     <use xlink:href="#DejaVuSans-69" x="262.623047"/>
     <use xlink:href="#DejaVuSans-6e" x="290.40625"/>
     <use xlink:href="#DejaVuSans-74" x="353.785156"/>
     <use xlink:href="#DejaVuSans-65" x="392.994141"/>
     <use xlink:href="#DejaVuSans-6e" x="454.517578"/>
     <use xlink:href="#DejaVuSans-73" x="517.896484"/>
     <use xlink:href="#DejaVuSans-69" x="569.996094"/>
     <use xlink:href="#DejaVuSans-74" x="597.779297"/>
     <use xlink:href="#DejaVuSans-79" x="636.988281"/>
     <use xlink:href="#DejaVuSans-20" x="696.167969"/>
     <use xlink:href="#DejaVuSans-64" x="727.955078"/>
     <use xlink:href="#DejaVuSans-69" x="791.431641"/>
     <use xlink:href="#DejaVuSans-73" x="819.214844"/>
     <use xlink:href="#DejaVuSans-74" x="871.314453"/>
     <use xlink:href="#DejaVuSans-72" x="910.523438"/>
     <use xlink:href="#DejaVuSans-69" x="951.636719"/>
     <use xlink:href="#DejaVuSans-62" x="979.419922"/>
     <use xlink:href="#DejaVuSans-75" x="1042.896484"/>
     <use xlink:href="#DejaVuSans-74" x="1106.275391"/>
     <use xlink:href="#DejaVuSans-69" x="1145.484375"/>
     <use xlink:href="#DejaVuSans-6f" x="1173.267578"/>
     <use xlink:href="#DejaVuSans-6e" x="1234.449219"/>
     <use xlink:href="#DejaVuSans-20" x="1297.828125"/>
     <use xlink:href="#DejaVuSans-61" x="1329.615234"/>
     <use xlink:href="#DejaVuSans-74" x="1390.894531"/>
     <use xlink:href="#DejaVuSans-20" x="1430.103516"/>
     <use xlink:href="#DejaVuSans-78" x="1461.890625"/>
     <use xlink:href="#DejaVuSans-20" x="1521.070312"/>
     <use xlink:href="#DejaVuSans-3d" x="1552.857422"/>
     <use xlink:href="#DejaVuSans-20" x="1636.646484"/>
     <use xlink:href="#DejaVuSans-30" x="1668.433594"/>
     <use xlink:href="#DejaVuSans-20" x="1732.056641"/>
    </g>
    <!--  Explicit scheme -->
    <g transform="translate(553.6539 58.836) scale(0.12 -0.12)">
     <defs>
      <path id="DejaVuSans-45" d="M 628 4666 
L 3578 4666 
L 3578 4134 
L 1259 4134 
L 1259 2753 
L 3481 2753 
L 3481 2222 
L 1259 2222 
L 1259 531 
L 3634 531 
L 3634 0 
L 628 0 
L 628 4666 
z
" transform="scale(0.015625)"/>
      <path id="DejaVuSans-70" d="M 1159 525 
L 1159 -1331 
L 581 -1331 
L 581 3500 
L 1159 3500 
L 1159 2969 
Q 1341 3281 1617 3432 
Q 1894 3584 2278 3584 
Q 2916 3584 3314 3078 
Q 3713 2572 3713 1747 
Q 3713 922 3314 415 
Q 2916 -91 2278 -91 
Q 1894 -91 1617 61 
Q 1341 213 1159 525 
z
M 3116 1747 
Q 3116 2381 2855 2742 
Q 2594 3103 2138 3103 
Q 1681 3103 1420 2742 
Q 1159 2381 1159 1747 
Q 1159 1113 1420 752 
Q 1681 391 2138 391 
Q 2594 391 2855 752 
Q 3116 1113 3116 1747 
z
" transform="scale(0.015625)"/>
      <path id="DejaVuSans-63" d="M 3122 3366 
L 3122 2828 
Q 2878 2963 2633 3030 
Q 2388 3097 2138 3097 
Q 1578 3097 1268 2742 
Q 959 2388 959 1747 
Q 959 1106 1268 751 
Q 1578 397 2138 397 
Q 2388 397 2633 464 
Q 2878 531 3122 666 
L 3122 134 
Q 2881 22 2623 -34 
Q 2366 -91 2075 -91 
Q 1284 -91 818 406 
Q 353 903 353 1747 
Q 353 2603 823 3093 
Q 1294 3584 2113 3584 
Q 2378 3584 2631 3529 
Q 2884 3475 3122 3366 
z
" transform="scale(0.015625)"/>
      <path id="DejaVuSans-68" d="M 3513 2113 
L 3513 0 
L 2938 0 
L 2938 2094 
Q 2938 2591 2744 2837 
Q 2550 3084 2163 3084 
Q 1697 3084 1428 2787 
Q 1159 2491 1159 1978 
L 1159 0 
L 581 0 
L 581 4863 
L 1159 4863 
L 1159 2956 
Q 1366 3272 1645 3428 
Q 1925 3584 2291 3584 
Q 2894 3584 3203 3211 
Q 3513 2838 3513 2113 
z
" transform="scale(0.015625)"/>
     </defs>
     <use xlink:href="#DejaVuSans-20"/>
     <use xlink:href="#DejaVuSans-45" x="31.787109"/>
     <use xlink:href="#DejaVuSans-78" x="94.970703"/>
     <use xlink:href="#DejaVuSans-70" x="154.150391"/>
     <use xlink:href="#DejaVuSans-6c" x="217.626953"/>
     <use xlink:href="#DejaVuSans-69" x="245.410156"/>
     <use xlink:href="#DejaVuSans-63" x="273.193359"/>
     <use xlink:href="#DejaVuSans-69" x="328.173828"/>
     <use xlink:href="#DejaVuSans-74" x="355.957031"/>
     <use xlink:href="#DejaVuSans-20" x="395.166016"/>
     <use xlink:href="#DejaVuSans-73" x="426.953125"/>
     <use xlink:href="#DejaVuSans-63" x="479.052734"/>
     <use xlink:href="#DejaVuSans-68" x="534.033203"/>
     <use xlink:href="#DejaVuSans-65" x="597.412109"/>
     <use xlink:href="#DejaVuSans-6d" x="658.935547"/>
     <use xlink:href="#DejaVuSans-65" x="756.347656"/>
    </g>
   </g>
   <g id="legend_1">
    <g id="patch_7">
     <path d="M 189.4768 366.3985 
L 289.168988 366.3985 
Q 291.168988 366.3985 291.168988 364.3985 
L 291.168988 71.836 
Q 291.168988 69.836 289.168988 69.836 
L 189.4768 69.836 
Q 187.4768 69.836 187.4768 71.836 
L 187.4768 364.3985 
Q 187.4768 366.3985 189.4768 366.3985 
z
" style="fill: #ffffff; opacity: 0.8; stroke: #cccccc; stroke-linejoin: miter"/>
    </g>
    <g id="line2d_49">
     <path d="M 191.4768 77.934437 
L 201.4768 77.934437 
L 211.4768 77.934437 
" style="fill: none; stroke: #1f77b4; stroke-width: 1.5; stroke-linecap: square"/>
    </g>
    <g id="text_19">
     <!-- dz=0.010000 -->
     <g transform="translate(219.4768 81.434437) scale(0.1 -0.1)">
      <defs>
       <path id="DejaVuSans-2e" d="M 684 794 
L 1344 794 
L 1344 0 
L 684 0 
L 684 794 
z
" transform="scale(0.015625)"/>
      </defs>
      <use xlink:href="#DejaVuSans-64"/>
      <use xlink:href="#DejaVuSans-7a" x="63.476562"/>
      <use xlink:href="#DejaVuSans-3d" x="115.966797"/>
      <use xlink:href="#DejaVuSans-30" x="199.755859"/>
      <use xlink:href="#DejaVuSans-2e" x="263.378906"/>
      <use xlink:href="#DejaVuSans-30" x="295.166016"/>
      <use xlink:href="#DejaVuSans-31" x="358.789062"/>
      <use xlink:href="#DejaVuSans-30" x="422.412109"/>
      <use xlink:href="#DejaVuSans-30" x="486.035156"/>
      <use xlink:href="#DejaVuSans-30" x="549.658203"/>
      <use xlink:href="#DejaVuSans-30" x="613.28125"/>
     </g>
    </g>
    <g id="line2d_50">
     <path d="M 191.4768 92.612562 
L 201.4768 92.612562 
L 211.4768 92.612562 
" style="fill: none; stroke: #ff7f0e; stroke-width: 1.5; stroke-linecap: square"/>
    </g>
    <g id="text_20">
     <!-- dz=0.012500 -->
     <g transform="translate(219.4768 96.112562) scale(0.1 -0.1)">
      <use xlink:href="#DejaVuSans-64"/>
      <use xlink:href="#DejaVuSans-7a" x="63.476562"/>
      <use xlink:href="#DejaVuSans-3d" x="115.966797"/>
      <use xlink:href="#DejaVuSans-30" x="199.755859"/>
      <use xlink:href="#DejaVuSans-2e" x="263.378906"/>
      <use xlink:href="#DejaVuSans-30" x="295.166016"/>
      <use xlink:href="#DejaVuSans-31" x="358.789062"/>
      <use xlink:href="#DejaVuSans-32" x="422.412109"/>
      <use xlink:href="#DejaVuSans-35" x="486.035156"/>
      <use xlink:href="#DejaVuSans-30" x="549.658203"/>
      <use xlink:href="#DejaVuSans-30" x="613.28125"/>
     </g>
    </g>
    <g id="line2d_51">
     <path d="M 191.4768 107.290687 
L 201.4768 107.290687 
L 211.4768 107.290687 
" style="fill: none; stroke: #2ca02c; stroke-width: 1.5; stroke-linecap: square"/>
    </g>
    <g id="text_21">
     <!-- dz=0.016000 -->
     <g transform="translate(219.4768 110.790687) scale(0.1 -0.1)">
      <use xlink:href="#DejaVuSans-64"/>
      <use xlink:href="#DejaVuSans-7a" x="63.476562"/>
      <use xlink:href="#DejaVuSans-3d" x="115.966797"/>
      <use xlink:href="#DejaVuSans-30" x="199.755859"/>
      <use xlink:href="#DejaVuSans-2e" x="263.378906"/>
      <use xlink:href="#DejaVuSans-30" x="295.166016"/>
      <use xlink:href="#DejaVuSans-31" x="358.789062"/>
      <use xlink:href="#DejaVuSans-36" x="422.412109"/>
      <use xlink:href="#DejaVuSans-30" x="486.035156"/>
      <use xlink:href="#DejaVuSans-30" x="549.658203"/>
      <use xlink:href="#DejaVuSans-30" x="613.28125"/>
     </g>
    </g>
    <g id="line2d_52">
     <path d="M 191.4768 121.968812 
L 201.4768 121.968812 
L 211.4768 121.968812 
" style="fill: none; stroke: #d62728; stroke-width: 1.5; stroke-linecap: square"/>
    </g>
    <g id="text_22">
     <!-- dz=0.020000 -->
     <g transform="translate(219.4768 125.468812) scale(0.1 -0.1)">
      <use xlink:href="#DejaVuSans-64"/>
      <use xlink:href="#DejaVuSans-7a" x="63.476562"/>
      <use xlink:href="#DejaVuSans-3d" x="115.966797"/>
      <use xlink:href="#DejaVuSans-30" x="199.755859"/>
      <use xlink:href="#DejaVuSans-2e" x="263.378906"/>
      <use xlink:href="#DejaVuSans-30" x="295.166016"/>
      <use xlink:href="#DejaVuSans-32" x="358.789062"/>
      <use xlink:href="#DejaVuSans-30" x="422.412109"/>
      <use xlink:href="#DejaVuSans-30" x="486.035156"/>
      <use xlink:href="#DejaVuSans-30" x="549.658203"/>
      <use xlink:href="#DejaVuSans-30" x="613.28125"/>
     </g>
    </g>
    <g id="line2d_53">
     <path d="M 191.4768 136.646937 
L 201.4768 136.646937 
L 211.4768 136.646937 
" style="fill: none; stroke: #9467bd; stroke-width: 1.5; stroke-linecap: square"/>
    </g>
    <g id="text_23">
     <!-- dz=0.025000 -->
     <g transform="translate(219.4768 140.146937) scale(0.1 -0.1)">
      <use xlink:href="#DejaVuSans-64"/>
      <use xlink:href="#DejaVuSans-7a" x="63.476562"/>
      <use xlink:href="#DejaVuSans-3d" x="115.966797"/>
      <use xlink:href="#DejaVuSans-30" x="199.755859"/>
      <use xlink:href="#DejaVuSans-2e" x="263.378906"/>
      <use xlink:href="#DejaVuSans-30" x="295.166016"/>
      <use xlink:href="#DejaVuSans-32" x="358.789062"/>
      <use xlink:href="#DejaVuSans-35" x="422.412109"/>
      <use xlink:href="#DejaVuSans-30" x="486.035156"/>
      <use xlink:href="#DejaVuSans-30" x="549.658203"/>
      <use xlink:href="#DejaVuSans-30" x="613.28125"/>
     </g>
    </g>
    <g id="line2d_54">
     <path d="M 191.4768 151.325062 
L 201.4768 151.325062 
L 211.4768 151.325062 
" style="fill: none; stroke: #8c564b; stroke-width: 1.5; stroke-linecap: square"/>
    </g>
    <g id="text_24">
     <!-- dz=0.040000 -->
     <g transform="translate(219.4768 154.825062) scale(0.1 -0.1)">
      <use xlink:href="#DejaVuSans-64"/>
      <use xlink:href="#DejaVuSans-7a" x="63.476562"/>
      <use xlink:href="#DejaVuSans-3d" x="115.966797"/>
      <use xlink:href="#DejaVuSans-30" x="199.755859"/>
      <use xlink:href="#DejaVuSans-2e" x="263.378906"/>
      <use xlink:href="#DejaVuSans-30" x="295.166016"/>
      <use xlink:href="#DejaVuSans-34" x="358.789062"/>
      <use xlink:href="#DejaVuSans-30" x="422.412109"/>
      <use xlink:href="#DejaVuSans-30" x="486.035156"/>
      <use xlink:href="#DejaVuSans-30" x="549.658203"/>
      <use xlink:href="#DejaVuSans-30" x="613.28125"/>
     </g>
    </g>
    <g id="line2d_55">
     <path d="M 191.4768 166.003187 
L 201.4768 166.003187 
L 211.4768 166.003187 
" style="fill: none; stroke: #e377c2; stroke-width: 1.5; stroke-linecap: square"/>
    </g>
    <g id="text_25">
     <!-- dz=0.050000 -->
     <g transform="translate(219.4768 169.503187) scale(0.1 -0.1)">
      <use xlink:href="#DejaVuSans-64"/>
      <use xlink:href="#DejaVuSans-7a" x="63.476562"/>
      <use xlink:href="#DejaVuSans-3d" x="115.966797"/>
      <use xlink:href="#DejaVuSans-30" x="199.755859"/>
      <use xlink:href="#DejaVuSans-2e" x="263.378906"/>
      <use xlink:href="#DejaVuSans-30" x="295.166016"/>
      <use xlink:href="#DejaVuSans-35" x="358.789062"/>
      <use xlink:href="#DejaVuSans-30" x="422.412109"/>
      <use xlink:href="#DejaVuSans-30" x="486.035156"/>
      <use xlink:href="#DejaVuSans-30" x="549.658203"/>
      <use xlink:href="#DejaVuSans-30" x="613.28125"/>
     </g>
    </g>
    <g id="line2d_56">
     <path d="M 191.4768 180.681312 
L 201.4768 180.681312 
L 211.4768 180.681312 
" style="fill: none; stroke: #7f7f7f; stroke-width: 1.5; stroke-linecap: square"/>
    </g>
    <g id="text_26">
     <!-- dz=0.062500 -->
     <g transform="translate(219.4768 184.181312) scale(0.1 -0.1)">
      <use xlink:href="#DejaVuSans-64"/>
      <use xlink:href="#DejaVuSans-7a" x="63.476562"/>
      <use xlink:href="#DejaVuSans-3d" x="115.966797"/>
      <use xlink:href="#DejaVuSans-30" x="199.755859"/>
      <use xlink:href="#DejaVuSans-2e" x="263.378906"/>
      <use xlink:href="#DejaVuSans-30" x="295.166016"/>
      <use xlink:href="#DejaVuSans-36" x="358.789062"/>
      <use xlink:href="#DejaVuSans-32" x="422.412109"/>
      <use xlink:href="#DejaVuSans-35" x="486.035156"/>
      <use xlink:href="#DejaVuSans-30" x="549.658203"/>
      <use xlink:href="#DejaVuSans-30" x="613.28125"/>
     </g>
    </g>
    <g id="line2d_57">
     <path d="M 191.4768 195.359437 
L 201.4768 195.359437 
L 211.4768 195.359437 
" style="fill: none; stroke: #bcbd22; stroke-width: 1.5; stroke-linecap: square"/>
    </g>
    <g id="text_27">
     <!-- dz=0.080000 -->
     <g transform="translate(219.4768 198.859437) scale(0.1 -0.1)">
      <use xlink:href="#DejaVuSans-64"/>
      <use xlink:href="#DejaVuSans-7a" x="63.476562"/>
      <use xlink:href="#DejaVuSans-3d" x="115.966797"/>
      <use xlink:href="#DejaVuSans-30" x="199.755859"/>
      <use xlink:href="#DejaVuSans-2e" x="263.378906"/>
      <use xlink:href="#DejaVuSans-30" x="295.166016"/>
      <use xlink:href="#DejaVuSans-38" x="358.789062"/>
      <use xlink:href="#DejaVuSans-30" x="422.412109"/>
      <use xlink:href="#DejaVuSans-30" x="486.035156"/>
      <use xlink:href="#DejaVuSans-30" x="549.658203"/>
      <use xlink:href="#DejaVuSans-30" x="613.28125"/>
     </g>
    </g>
    <g id="line2d_58">
     <path d="M 191.4768 210.037562 
L 201.4768 210.037562 
L 211.4768 210.037562 
" style="fill: none; stroke: #17becf; stroke-width: 1.5; stroke-linecap: square"/>
    </g>
    <g id="text_28">
     <!-- dz=0.100000 -->
     <g transform="translate(219.4768 213.537562) scale(0.1 -0.1)">
      <use xlink:href="#DejaVuSans-64"/>
      <use xlink:href="#DejaVuSans-7a" x="63.476562"/>
      <use xlink:href="#DejaVuSans-3d" x="115.966797"/>
      <use xlink:href="#DejaVuSans-30" x="199.755859"/>
      <use xlink:href="#DejaVuSans-2e" x="263.378906"/>
      <use xlink:href="#DejaVuSans-31" x="295.166016"/>
      <use xlink:href="#DejaVuSans-30" x="358.789062"/>
      <use xlink:href="#DejaVuSans-30" x="422.412109"/>
      <use xlink:href="#DejaVuSans-30" x="486.035156"/>
      <use xlink:href="#DejaVuSans-30" x="549.658203"/>
      <use xlink:href="#DejaVuSans-30" x="613.28125"/>
     </g>
    </g>
    <g id="line2d_59">
     <path d="M 191.4768 224.715687 
L 201.4768 224.715687 
L 211.4768 224.715687 
" style="fill: none; stroke: #1f77b4; stroke-width: 1.5; stroke-linecap: square"/>
    </g>
    <g id="text_29">
     <!-- dz=0.125000 -->
     <g transform="translate(219.4768 228.215687) scale(0.1 -0.1)">
      <use xlink:href="#DejaVuSans-64"/>
      <use xlink:href="#DejaVuSans-7a" x="63.476562"/>
      <use xlink:href="#DejaVuSans-3d" x="115.966797"/>
      <use xlink:href="#DejaVuSans-30" x="199.755859"/>
      <use xlink:href="#DejaVuSans-2e" x="263.378906"/>
      <use xlink:href="#DejaVuSans-31" x="295.166016"/>
      <use xlink:href="#DejaVuSans-32" x="358.789062"/>
      <use xlink:href="#DejaVuSans-35" x="422.412109"/>
      <use xlink:href="#DejaVuSans-30" x="486.035156"/>
      <use xlink:href="#DejaVuSans-30" x="549.658203"/>
      <use xlink:href="#DejaVuSans-30" x="613.28125"/>
     </g>
    </g>
    <g id="line2d_60">
     <path d="M 191.4768 239.393812 
L 201.4768 239.393812 
L 211.4768 239.393812 
" style="fill: none; stroke: #ff7f0e; stroke-width: 1.5; stroke-linecap: square"/>
    </g>
    <g id="text_30">
     <!-- dz=0.160000 -->
     <g transform="translate(219.4768 242.893812) scale(0.1 -0.1)">
      <use xlink:href="#DejaVuSans-64"/>
      <use xlink:href="#DejaVuSans-7a" x="63.476562"/>
      <use xlink:href="#DejaVuSans-3d" x="115.966797"/>
      <use xlink:href="#DejaVuSans-30" x="199.755859"/>
      <use xlink:href="#DejaVuSans-2e" x="263.378906"/>
      <use xlink:href="#DejaVuSans-31" x="295.166016"/>
      <use xlink:href="#DejaVuSans-36" x="358.789062"/>
      <use xlink:href="#DejaVuSans-30" x="422.412109"/>
      <use xlink:href="#DejaVuSans-30" x="486.035156"/>
      <use xlink:href="#DejaVuSans-30" x="549.658203"/>
      <use xlink:href="#DejaVuSans-30" x="613.28125"/>
     </g>
    </g>
    <g id="line2d_61">
     <path d="M 191.4768 254.071937 
L 201.4768 254.071937 
L 211.4768 254.071937 
" style="fill: none; stroke: #2ca02c; stroke-width: 1.5; stroke-linecap: square"/>
    </g>
    <g id="text_31">
     <!-- dz=0.200000 -->
     <g transform="translate(219.4768 257.571937) scale(0.1 -0.1)">
      <use xlink:href="#DejaVuSans-64"/>
      <use xlink:href="#DejaVuSans-7a" x="63.476562"/>
      <use xlink:href="#DejaVuSans-3d" x="115.966797"/>
      <use xlink:href="#DejaVuSans-30" x="199.755859"/>
      <use xlink:href="#DejaVuSans-2e" x="263.378906"/>
      <use xlink:href="#DejaVuSans-32" x="295.166016"/>
      <use xlink:href="#DejaVuSans-30" x="358.789062"/>
      <use xlink:href="#DejaVuSans-30" x="422.412109"/>
      <use xlink:href="#DejaVuSans-30" x="486.035156"/>
      <use xlink:href="#DejaVuSans-30" x="549.658203"/>
      <use xlink:href="#DejaVuSans-30" x="613.28125"/>
     </g>
    </g>
    <g id="line2d_62">
     <path d="M 191.4768 268.750062 
L 201.4768 268.750062 
L 211.4768 268.750062 
" style="fill: none; stroke: #d62728; stroke-width: 1.5; stroke-linecap: square"/>
    </g>
    <g id="text_32">
     <!-- dz=0.250000 -->
     <g transform="translate(219.4768 272.250062) scale(0.1 -0.1)">
      <use xlink:href="#DejaVuSans-64"/>
      <use xlink:href="#DejaVuSans-7a" x="63.476562"/>
      <use xlink:href="#DejaVuSans-3d" x="115.966797"/>
      <use xlink:href="#DejaVuSans-30" x="199.755859"/>
      <use xlink:href="#DejaVuSans-2e" x="263.378906"/>
      <use xlink:href="#DejaVuSans-32" x="295.166016"/>
      <use xlink:href="#DejaVuSans-35" x="358.789062"/>
      <use xlink:href="#DejaVuSans-30" x="422.412109"/>
      <use xlink:href="#DejaVuSans-30" x="486.035156"/>
      <use xlink:href="#DejaVuSans-30" x="549.658203"/>
      <use xlink:href="#DejaVuSans-30" x="613.28125"/>
     </g>
    </g>
    <g id="line2d_63">
     <path d="M 191.4768 283.428187 
L 201.4768 283.428187 
L 211.4768 283.428187 
" style="fill: none; stroke: #9467bd; stroke-width: 1.5; stroke-linecap: square"/>
    </g>
    <g id="text_33">
     <!-- dz=0.400000 -->
     <g transform="translate(219.4768 286.928187) scale(0.1 -0.1)">
      <use xlink:href="#DejaVuSans-64"/>
      <use xlink:href="#DejaVuSans-7a" x="63.476562"/>
      <use xlink:href="#DejaVuSans-3d" x="115.966797"/>
      <use xlink:href="#DejaVuSans-30" x="199.755859"/>
      <use xlink:href="#DejaVuSans-2e" x="263.378906"/>
      <use xlink:href="#DejaVuSans-34" x="295.166016"/>
      <use xlink:href="#DejaVuSans-30" x="358.789062"/>
      <use xlink:href="#DejaVuSans-30" x="422.412109"/>
      <use xlink:href="#DejaVuSans-30" x="486.035156"/>
      <use xlink:href="#DejaVuSans-30" x="549.658203"/>
      <use xlink:href="#DejaVuSans-30" x="613.28125"/>
     </g>
    </g>
    <g id="line2d_64">
     <path d="M 191.4768 298.106312 
L 201.4768 298.106312 
L 211.4768 298.106312 
" style="fill: none; stroke: #8c564b; stroke-width: 1.5; stroke-linecap: square"/>
    </g>
    <g id="text_34">
     <!-- dz=0.500000 -->
     <g transform="translate(219.4768 301.606312) scale(0.1 -0.1)">
      <use xlink:href="#DejaVuSans-64"/>
      <use xlink:href="#DejaVuSans-7a" x="63.476562"/>
      <use xlink:href="#DejaVuSans-3d" x="115.966797"/>
      <use xlink:href="#DejaVuSans-30" x="199.755859"/>
      <use xlink:href="#DejaVuSans-2e" x="263.378906"/>
      <use xlink:href="#DejaVuSans-35" x="295.166016"/>
      <use xlink:href="#DejaVuSans-30" x="358.789062"/>
      <use xlink:href="#DejaVuSans-30" x="422.412109"/>
      <use xlink:href="#DejaVuSans-30" x="486.035156"/>
      <use xlink:href="#DejaVuSans-30" x="549.658203"/>
      <use xlink:href="#DejaVuSans-30" x="613.28125"/>
     </g>
    </g>
    <g id="line2d_65">
     <path d="M 191.4768 312.784437 
L 201.4768 312.784437 
L 211.4768 312.784437 
" style="fill: none; stroke: #e377c2; stroke-width: 1.5; stroke-linecap: square"/>
    </g>
    <g id="text_35">
     <!-- dz=0.625000 -->
     <g transform="translate(219.4768 316.284437) scale(0.1 -0.1)">
      <use xlink:href="#DejaVuSans-64"/>
      <use xlink:href="#DejaVuSans-7a" x="63.476562"/>
      <use xlink:href="#DejaVuSans-3d" x="115.966797"/>
      <use xlink:href="#DejaVuSans-30" x="199.755859"/>
      <use xlink:href="#DejaVuSans-2e" x="263.378906"/>
      <use xlink:href="#DejaVuSans-36" x="295.166016"/>
      <use xlink:href="#DejaVuSans-32" x="358.789062"/>
      <use xlink:href="#DejaVuSans-35" x="422.412109"/>
      <use xlink:href="#DejaVuSans-30" x="486.035156"/>
      <use xlink:href="#DejaVuSans-30" x="549.658203"/>
      <use xlink:href="#DejaVuSans-30" x="613.28125"/>
     </g>
    </g>
    <g id="line2d_66">
     <path d="M 191.4768 327.462562 
L 201.4768 327.462562 
L 211.4768 327.462562 
" style="fill: none; stroke: #7f7f7f; stroke-width: 1.5; stroke-linecap: square"/>
    </g>
    <g id="text_36">
     <!-- dz=0.781250 -->
     <g transform="translate(219.4768 330.962562) scale(0.1 -0.1)">
      <use xlink:href="#DejaVuSans-64"/>
      <use xlink:href="#DejaVuSans-7a" x="63.476562"/>
      <use xlink:href="#DejaVuSans-3d" x="115.966797"/>
      <use xlink:href="#DejaVuSans-30" x="199.755859"/>
      <use xlink:href="#DejaVuSans-2e" x="263.378906"/>
      <use xlink:href="#DejaVuSans-37" x="295.166016"/>
      <use xlink:href="#DejaVuSans-38" x="358.789062"/>
      <use xlink:href="#DejaVuSans-31" x="422.412109"/>
      <use xlink:href="#DejaVuSans-32" x="486.035156"/>
      <use xlink:href="#DejaVuSans-35" x="549.658203"/>
      <use xlink:href="#DejaVuSans-30" x="613.28125"/>
     </g>
    </g>
    <g id="line2d_67">
     <path d="M 191.4768 342.140687 
L 201.4768 342.140687 
L 211.4768 342.140687 
" style="fill: none; stroke: #bcbd22; stroke-width: 1.5; stroke-linecap: square"/>
    </g>
    <g id="text_37">
     <!-- dz=0.800000 -->
     <g transform="translate(219.4768 345.640687) scale(0.1 -0.1)">
      <use xlink:href="#DejaVuSans-64"/>
      <use xlink:href="#DejaVuSans-7a" x="63.476562"/>
      <use xlink:href="#DejaVuSans-3d" x="115.966797"/>
      <use xlink:href="#DejaVuSans-30" x="199.755859"/>
      <use xlink:href="#DejaVuSans-2e" x="263.378906"/>
      <use xlink:href="#DejaVuSans-38" x="295.166016"/>
      <use xlink:href="#DejaVuSans-30" x="358.789062"/>
      <use xlink:href="#DejaVuSans-30" x="422.412109"/>
      <use xlink:href="#DejaVuSans-30" x="486.035156"/>
      <use xlink:href="#DejaVuSans-30" x="549.658203"/>
      <use xlink:href="#DejaVuSans-30" x="613.28125"/>
     </g>
    </g>
    <g id="line2d_68">
     <path d="M 191.4768 356.818812 
L 201.4768 356.818812 
L 211.4768 356.818812 
" style="fill: none; stroke: #17becf; stroke-width: 1.5; stroke-linecap: square"/>
    </g>
    <g id="text_38">
     <!-- dz=1.000000 -->
     <g transform="translate(219.4768 360.318812) scale(0.1 -0.1)">
      <use xlink:href="#DejaVuSans-64"/>
      <use xlink:href="#DejaVuSans-7a" x="63.476562"/>
      <use xlink:href="#DejaVuSans-3d" x="115.966797"/>
      <use xlink:href="#DejaVuSans-31" x="199.755859"/>
      <use xlink:href="#DejaVuSans-2e" x="263.378906"/>
      <use xlink:href="#DejaVuSans-30" x="295.166016"/>
      <use xlink:href="#DejaVuSans-30" x="358.789062"/>
      <use xlink:href="#DejaVuSans-30" x="422.412109"/>
      <use xlink:href="#DejaVuSans-30" x="486.035156"/>
      <use xlink:href="#DejaVuSans-30" x="549.658203"/>
      <use xlink:href="#DejaVuSans-30" x="613.28125"/>
     </g>
    </g>
   </g>
  </g>
 </g>
 <defs>
  <clipPath id="p1006d3b1f1">
   <rect x="182.4768" y="64.836" width="840.4992" height="486.27"/>
  </clipPath>
 </defs>
</svg>
