<?xml version="1.0" encoding="utf-8" standalone="no"?>
<!DOCTYPE svg PUBLIC "-//W3C//DTD SVG 1.1//EN"
  "http://www.w3.org/Graphics/SVG/1.1/DTD/svg11.dtd">
<svg xmlns:xlink="http://www.w3.org/1999/xlink" width="1105.92pt" height="648.36pt" viewBox="0 0 1105.92 648.36" xmlns="http://www.w3.org/2000/svg" version="1.1">
 <metadata>
  <rdf:RDF xmlns:dc="http://purl.org/dc/elements/1.1/" xmlns:cc="http://creativecommons.org/ns#" xmlns:rdf="http://www.w3.org/1999/02/22-rdf-syntax-ns#">
   <cc:Work>
    <dc:type rdf:resource="http://purl.org/dc/dcmitype/StillImage"/>
    <dc:date>2024-06-08T22:00:54.636024</dc:date>
    <dc:format>image/svg+xml</dc:format>
    <dc:creator>
     <cc:Agent>
      <dc:title>Matplotlib v3.8.4, https://matplotlib.org/</dc:title>
     </cc:Agent>
    </dc:creator>
   </cc:Work>
  </rdf:RDF>
 </metadata>
 <defs>
  <style type="text/css">*{stroke-linejoin: round; stroke-linecap: butt}</style>
 </defs>
 <g id="figure_1">
  <g id="patch_1">
   <path d="M 0 648.36 
L 1105.92 648.36 
L 1105.92 0 
L 0 0 
z
" style="fill: #ffffff"/>
  </g>
  <g id="axes_1">
   <g id="patch_2">
    <path d="M 182.4768 551.106 
L 1022.976 551.106 
L 1022.976 64.836 
L 182.4768 64.836 
z
" style="fill: #ffffff"/>
   </g>
   <g id="matplotlib.axis_1">
    <g id="xtick_1">
     <g id="line2d_1">
      <path d="M 297.090327 551.106 
L 297.090327 64.836 
" clip-path="url(#pb88ae5c0fb)" style="fill: none; stroke: #b0b0b0; stroke-width: 0.8; stroke-linecap: square"/>
     </g>
     <g id="line2d_2">
      <defs>
       <path id="mac17a98b2f" d="M 0 0 
L 0 3.5 
" style="stroke: #000000; stroke-width: 0.8"/>
      </defs>
      <g>
       <use xlink:href="#mac17a98b2f" x="297.090327" y="551.106" style="stroke: #000000; stroke-width: 0.8"/>
      </g>
     </g>
     <g id="text_1">
      <!-- −20 -->
      <g transform="translate(286.537984 565.704438) scale(0.1 -0.1)">
       <defs>
        <path id="DejaVuSans-2212" d="M 678 2272 
L 4684 2272 
L 4684 1741 
L 678 1741 
L 678 2272 
z
" transform="scale(0.015625)"/>
        <path id="DejaVuSans-32" d="M 1228 531 
L 3431 531 
L 3431 0 
L 469 0 
L 469 531 
Q 828 903 1448 1529 
Q 2069 2156 2228 2338 
Q 2531 2678 2651 2914 
Q 2772 3150 2772 3378 
Q 2772 3750 2511 3984 
Q 2250 4219 1831 4219 
Q 1534 4219 1204 4116 
Q 875 4013 500 3803 
L 500 4441 
Q 881 4594 1212 4672 
Q 1544 4750 1819 4750 
Q 2544 4750 2975 4387 
Q 3406 4025 3406 3419 
Q 3406 3131 3298 2873 
Q 3191 2616 2906 2266 
Q 2828 2175 2409 1742 
Q 1991 1309 1228 531 
z
" transform="scale(0.015625)"/>
        <path id="DejaVuSans-30" d="M 2034 4250 
Q 1547 4250 1301 3770 
Q 1056 3291 1056 2328 
Q 1056 1369 1301 889 
Q 1547 409 2034 409 
Q 2525 409 2770 889 
Q 3016 1369 3016 2328 
Q 3016 3291 2770 3770 
Q 2525 4250 2034 4250 
z
M 2034 4750 
Q 2819 4750 3233 4129 
Q 3647 3509 3647 2328 
Q 3647 1150 3233 529 
Q 2819 -91 2034 -91 
Q 1250 -91 836 529 
Q 422 1150 422 2328 
Q 422 3509 836 4129 
Q 1250 4750 2034 4750 
z
" transform="scale(0.015625)"/>
       </defs>
       <use xlink:href="#DejaVuSans-2212"/>
       <use xlink:href="#DejaVuSans-32" x="83.789062"/>
       <use xlink:href="#DejaVuSans-30" x="147.412109"/>
      </g>
     </g>
    </g>
    <g id="xtick_2">
     <g id="line2d_3">
      <path d="M 449.908364 551.106 
L 449.908364 64.836 
" clip-path="url(#pb88ae5c0fb)" style="fill: none; stroke: #b0b0b0; stroke-width: 0.8; stroke-linecap: square"/>
     </g>
     <g id="line2d_4">
      <g>
       <use xlink:href="#mac17a98b2f" x="449.908364" y="551.106" style="stroke: #000000; stroke-width: 0.8"/>
      </g>
     </g>
     <g id="text_2">
      <!-- −10 -->
      <g transform="translate(439.35602 565.704438) scale(0.1 -0.1)">
       <defs>
        <path id="DejaVuSans-31" d="M 794 531 
L 1825 531 
L 1825 4091 
L 703 3866 
L 703 4441 
L 1819 4666 
L 2450 4666 
L 2450 531 
L 3481 531 
L 3481 0 
L 794 0 
L 794 531 
z
" transform="scale(0.015625)"/>
       </defs>
       <use xlink:href="#DejaVuSans-2212"/>
       <use xlink:href="#DejaVuSans-31" x="83.789062"/>
       <use xlink:href="#DejaVuSans-30" x="147.412109"/>
      </g>
     </g>
    </g>
    <g id="xtick_3">
     <g id="line2d_5">
      <path d="M 602.7264 551.106 
L 602.7264 64.836 
" clip-path="url(#pb88ae5c0fb)" style="fill: none; stroke: #b0b0b0; stroke-width: 0.8; stroke-linecap: square"/>
     </g>
     <g id="line2d_6">
      <g>
       <use xlink:href="#mac17a98b2f" x="602.7264" y="551.106" style="stroke: #000000; stroke-width: 0.8"/>
      </g>
     </g>
     <g id="text_3">
      <!-- 0 -->
      <g transform="translate(599.54515 565.704438) scale(0.1 -0.1)">
       <use xlink:href="#DejaVuSans-30"/>
      </g>
     </g>
    </g>
    <g id="xtick_4">
     <g id="line2d_7">
      <path d="M 755.544436 551.106 
L 755.544436 64.836 
" clip-path="url(#pb88ae5c0fb)" style="fill: none; stroke: #b0b0b0; stroke-width: 0.8; stroke-linecap: square"/>
     </g>
     <g id="line2d_8">
      <g>
       <use xlink:href="#mac17a98b2f" x="755.544436" y="551.106" style="stroke: #000000; stroke-width: 0.8"/>
      </g>
     </g>
     <g id="text_4">
      <!-- 10 -->
      <g transform="translate(749.181936 565.704438) scale(0.1 -0.1)">
       <use xlink:href="#DejaVuSans-31"/>
       <use xlink:href="#DejaVuSans-30" x="63.623047"/>
      </g>
     </g>
    </g>
    <g id="xtick_5">
     <g id="line2d_9">
      <path d="M 908.362473 551.106 
L 908.362473 64.836 
" clip-path="url(#pb88ae5c0fb)" style="fill: none; stroke: #b0b0b0; stroke-width: 0.8; stroke-linecap: square"/>
     </g>
     <g id="line2d_10">
      <g>
       <use xlink:href="#mac17a98b2f" x="908.362473" y="551.106" style="stroke: #000000; stroke-width: 0.8"/>
      </g>
     </g>
     <g id="text_5">
      <!-- 20 -->
      <g transform="translate(901.999973 565.704438) scale(0.1 -0.1)">
       <use xlink:href="#DejaVuSans-32"/>
       <use xlink:href="#DejaVuSans-30" x="63.623047"/>
      </g>
     </g>
    </g>
    <g id="text_6">
     <!-- x [µm] -->
     <g transform="translate(586.224838 579.382562) scale(0.1 -0.1)">
      <defs>
       <path id="DejaVuSans-78" d="M 3513 3500 
L 2247 1797 
L 3578 0 
L 2900 0 
L 1881 1375 
L 863 0 
L 184 0 
L 1544 1831 
L 300 3500 
L 978 3500 
L 1906 2253 
L 2834 3500 
L 3513 3500 
z
" transform="scale(0.015625)"/>
       <path id="DejaVuSans-20" transform="scale(0.015625)"/>
       <path id="DejaVuSans-5b" d="M 550 4863 
L 1875 4863 
L 1875 4416 
L 1125 4416 
L 1125 -397 
L 1875 -397 
L 1875 -844 
L 550 -844 
L 550 4863 
z
" transform="scale(0.015625)"/>
       <path id="DejaVuSans-b5" d="M 544 -1331 
L 544 3500 
L 1119 3500 
L 1119 1325 
Q 1119 872 1334 640 
Q 1550 409 1972 409 
Q 2434 409 2667 671 
Q 2900 934 2900 1459 
L 2900 3500 
L 3475 3500 
L 3475 806 
Q 3475 619 3529 530 
Q 3584 441 3700 441 
Q 3728 441 3778 458 
Q 3828 475 3916 513 
L 3916 50 
Q 3788 -22 3673 -56 
Q 3559 -91 3450 -91 
Q 3234 -91 3106 31 
Q 2978 153 2931 403 
Q 2775 156 2548 32 
Q 2322 -91 2016 -91 
Q 1697 -91 1473 31 
Q 1250 153 1119 397 
L 1119 -1331 
L 544 -1331 
z
" transform="scale(0.015625)"/>
       <path id="DejaVuSans-6d" d="M 3328 2828 
Q 3544 3216 3844 3400 
Q 4144 3584 4550 3584 
Q 5097 3584 5394 3201 
Q 5691 2819 5691 2113 
L 5691 0 
L 5113 0 
L 5113 2094 
Q 5113 2597 4934 2840 
Q 4756 3084 4391 3084 
Q 3944 3084 3684 2787 
Q 3425 2491 3425 1978 
L 3425 0 
L 2847 0 
L 2847 2094 
Q 2847 2600 2669 2842 
Q 2491 3084 2119 3084 
Q 1678 3084 1418 2786 
Q 1159 2488 1159 1978 
L 1159 0 
L 581 0 
L 581 3500 
L 1159 3500 
L 1159 2956 
Q 1356 3278 1631 3431 
Q 1906 3584 2284 3584 
Q 2666 3584 2933 3390 
Q 3200 3197 3328 2828 
z
" transform="scale(0.015625)"/>
       <path id="DejaVuSans-5d" d="M 1947 4863 
L 1947 -844 
L 622 -844 
L 622 -397 
L 1369 -397 
L 1369 4416 
L 622 4416 
L 622 4863 
L 1947 4863 
z
" transform="scale(0.015625)"/>
      </defs>
      <use xlink:href="#DejaVuSans-78"/>
      <use xlink:href="#DejaVuSans-20" x="59.179688"/>
      <use xlink:href="#DejaVuSans-5b" x="90.966797"/>
      <use xlink:href="#DejaVuSans-b5" x="129.980469"/>
      <use xlink:href="#DejaVuSans-6d" x="193.603516"/>
      <use xlink:href="#DejaVuSans-5d" x="291.015625"/>
     </g>
    </g>
   </g>
   <g id="matplotlib.axis_2">
    <g id="ytick_1">
     <g id="line2d_11">
      <path d="M 182.4768 529.002818 
L 1022.976 529.002818 
" clip-path="url(#pb88ae5c0fb)" style="fill: none; stroke: #b0b0b0; stroke-width: 0.8; stroke-linecap: square"/>
     </g>
     <g id="line2d_12">
      <defs>
       <path id="m912196dd0b" d="M 0 0 
L -3.5 0 
" style="stroke: #000000; stroke-width: 0.8"/>
      </defs>
      <g>
       <use xlink:href="#m912196dd0b" x="182.4768" y="529.002818" style="stroke: #000000; stroke-width: 0.8"/>
      </g>
     </g>
     <g id="text_7">
      <!-- 0.00 -->
      <g transform="translate(153.211175 532.802037) scale(0.1 -0.1)">
       <defs>
        <path id="DejaVuSans-2e" d="M 684 794 
L 1344 794 
L 1344 0 
L 684 0 
L 684 794 
z
" transform="scale(0.015625)"/>
       </defs>
       <use xlink:href="#DejaVuSans-30"/>
       <use xlink:href="#DejaVuSans-2e" x="63.623047"/>
       <use xlink:href="#DejaVuSans-30" x="95.410156"/>
       <use xlink:href="#DejaVuSans-30" x="159.033203"/>
      </g>
     </g>
    </g>
    <g id="ytick_2">
     <g id="line2d_13">
      <path d="M 182.4768 461.64623 
L 1022.976 461.64623 
" clip-path="url(#pb88ae5c0fb)" style="fill: none; stroke: #b0b0b0; stroke-width: 0.8; stroke-linecap: square"/>
     </g>
     <g id="line2d_14">
      <g>
       <use xlink:href="#m912196dd0b" x="182.4768" y="461.64623" style="stroke: #000000; stroke-width: 0.8"/>
      </g>
     </g>
     <g id="text_8">
      <!-- 0.02 -->
      <g transform="translate(153.211175 465.445449) scale(0.1 -0.1)">
       <use xlink:href="#DejaVuSans-30"/>
       <use xlink:href="#DejaVuSans-2e" x="63.623047"/>
       <use xlink:href="#DejaVuSans-30" x="95.410156"/>
       <use xlink:href="#DejaVuSans-32" x="159.033203"/>
      </g>
     </g>
    </g>
    <g id="ytick_3">
     <g id="line2d_15">
      <path d="M 182.4768 394.289642 
L 1022.976 394.289642 
" clip-path="url(#pb88ae5c0fb)" style="fill: none; stroke: #b0b0b0; stroke-width: 0.8; stroke-linecap: square"/>
     </g>
     <g id="line2d_16">
      <g>
       <use xlink:href="#m912196dd0b" x="182.4768" y="394.289642" style="stroke: #000000; stroke-width: 0.8"/>
      </g>
     </g>
     <g id="text_9">
      <!-- 0.04 -->
      <g transform="translate(153.211175 398.088861) scale(0.1 -0.1)">
       <defs>
        <path id="DejaVuSans-34" d="M 2419 4116 
L 825 1625 
L 2419 1625 
L 2419 4116 
z
M 2253 4666 
L 3047 4666 
L 3047 1625 
L 3713 1625 
L 3713 1100 
L 3047 1100 
L 3047 0 
L 2419 0 
L 2419 1100 
L 313 1100 
L 313 1709 
L 2253 4666 
z
" transform="scale(0.015625)"/>
       </defs>
       <use xlink:href="#DejaVuSans-30"/>
       <use xlink:href="#DejaVuSans-2e" x="63.623047"/>
       <use xlink:href="#DejaVuSans-30" x="95.410156"/>
       <use xlink:href="#DejaVuSans-34" x="159.033203"/>
      </g>
     </g>
    </g>
    <g id="ytick_4">
     <g id="line2d_17">
      <path d="M 182.4768 326.933054 
L 1022.976 326.933054 
" clip-path="url(#pb88ae5c0fb)" style="fill: none; stroke: #b0b0b0; stroke-width: 0.8; stroke-linecap: square"/>
     </g>
     <g id="line2d_18">
      <g>
       <use xlink:href="#m912196dd0b" x="182.4768" y="326.933054" style="stroke: #000000; stroke-width: 0.8"/>
      </g>
     </g>
     <g id="text_10">
      <!-- 0.06 -->
      <g transform="translate(153.211175 330.732272) scale(0.1 -0.1)">
       <defs>
        <path id="DejaVuSans-36" d="M 2113 2584 
Q 1688 2584 1439 2293 
Q 1191 2003 1191 1497 
Q 1191 994 1439 701 
Q 1688 409 2113 409 
Q 2538 409 2786 701 
Q 3034 994 3034 1497 
Q 3034 2003 2786 2293 
Q 2538 2584 2113 2584 
z
M 3366 4563 
L 3366 3988 
Q 3128 4100 2886 4159 
Q 2644 4219 2406 4219 
Q 1781 4219 1451 3797 
Q 1122 3375 1075 2522 
Q 1259 2794 1537 2939 
Q 1816 3084 2150 3084 
Q 2853 3084 3261 2657 
Q 3669 2231 3669 1497 
Q 3669 778 3244 343 
Q 2819 -91 2113 -91 
Q 1303 -91 875 529 
Q 447 1150 447 2328 
Q 447 3434 972 4092 
Q 1497 4750 2381 4750 
Q 2619 4750 2861 4703 
Q 3103 4656 3366 4563 
z
" transform="scale(0.015625)"/>
       </defs>
       <use xlink:href="#DejaVuSans-30"/>
       <use xlink:href="#DejaVuSans-2e" x="63.623047"/>
       <use xlink:href="#DejaVuSans-30" x="95.410156"/>
       <use xlink:href="#DejaVuSans-36" x="159.033203"/>
      </g>
     </g>
    </g>
    <g id="ytick_5">
     <g id="line2d_19">
      <path d="M 182.4768 259.576465 
L 1022.976 259.576465 
" clip-path="url(#pb88ae5c0fb)" style="fill: none; stroke: #b0b0b0; stroke-width: 0.8; stroke-linecap: square"/>
     </g>
     <g id="line2d_20">
      <g>
       <use xlink:href="#m912196dd0b" x="182.4768" y="259.576465" style="stroke: #000000; stroke-width: 0.8"/>
      </g>
     </g>
     <g id="text_11">
      <!-- 0.08 -->
      <g transform="translate(153.211175 263.375684) scale(0.1 -0.1)">
       <defs>
        <path id="DejaVuSans-38" d="M 2034 2216 
Q 1584 2216 1326 1975 
Q 1069 1734 1069 1313 
Q 1069 891 1326 650 
Q 1584 409 2034 409 
Q 2484 409 2743 651 
Q 3003 894 3003 1313 
Q 3003 1734 2745 1975 
Q 2488 2216 2034 2216 
z
M 1403 2484 
Q 997 2584 770 2862 
Q 544 3141 544 3541 
Q 544 4100 942 4425 
Q 1341 4750 2034 4750 
Q 2731 4750 3128 4425 
Q 3525 4100 3525 3541 
Q 3525 3141 3298 2862 
Q 3072 2584 2669 2484 
Q 3125 2378 3379 2068 
Q 3634 1759 3634 1313 
Q 3634 634 3220 271 
Q 2806 -91 2034 -91 
Q 1263 -91 848 271 
Q 434 634 434 1313 
Q 434 1759 690 2068 
Q 947 2378 1403 2484 
z
M 1172 3481 
Q 1172 3119 1398 2916 
Q 1625 2713 2034 2713 
Q 2441 2713 2670 2916 
Q 2900 3119 2900 3481 
Q 2900 3844 2670 4047 
Q 2441 4250 2034 4250 
Q 1625 4250 1398 4047 
Q 1172 3844 1172 3481 
z
" transform="scale(0.015625)"/>
       </defs>
       <use xlink:href="#DejaVuSans-30"/>
       <use xlink:href="#DejaVuSans-2e" x="63.623047"/>
       <use xlink:href="#DejaVuSans-30" x="95.410156"/>
       <use xlink:href="#DejaVuSans-38" x="159.033203"/>
      </g>
     </g>
    </g>
    <g id="ytick_6">
     <g id="line2d_21">
      <path d="M 182.4768 192.219877 
L 1022.976 192.219877 
" clip-path="url(#pb88ae5c0fb)" style="fill: none; stroke: #b0b0b0; stroke-width: 0.8; stroke-linecap: square"/>
     </g>
     <g id="line2d_22">
      <g>
       <use xlink:href="#m912196dd0b" x="182.4768" y="192.219877" style="stroke: #000000; stroke-width: 0.8"/>
      </g>
     </g>
     <g id="text_12">
      <!-- 0.10 -->
      <g transform="translate(153.211175 196.019096) scale(0.1 -0.1)">
       <use xlink:href="#DejaVuSans-30"/>
       <use xlink:href="#DejaVuSans-2e" x="63.623047"/>
       <use xlink:href="#DejaVuSans-31" x="95.410156"/>
       <use xlink:href="#DejaVuSans-30" x="159.033203"/>
      </g>
     </g>
    </g>
    <g id="ytick_7">
     <g id="line2d_23">
      <path d="M 182.4768 124.863289 
L 1022.976 124.863289 
" clip-path="url(#pb88ae5c0fb)" style="fill: none; stroke: #b0b0b0; stroke-width: 0.8; stroke-linecap: square"/>
     </g>
     <g id="line2d_24">
      <g>
       <use xlink:href="#m912196dd0b" x="182.4768" y="124.863289" style="stroke: #000000; stroke-width: 0.8"/>
      </g>
     </g>
     <g id="text_13">
      <!-- 0.12 -->
      <g transform="translate(153.211175 128.662508) scale(0.1 -0.1)">
       <use xlink:href="#DejaVuSans-30"/>
       <use xlink:href="#DejaVuSans-2e" x="63.623047"/>
       <use xlink:href="#DejaVuSans-31" x="95.410156"/>
       <use xlink:href="#DejaVuSans-32" x="159.033203"/>
      </g>
     </g>
    </g>
    <g id="text_14">
     <!-- intensity -->
     <g transform="translate(147.131488 329.647562) rotate(-90) scale(0.1 -0.1)">
      <defs>
       <path id="DejaVuSans-69" d="M 603 3500 
L 1178 3500 
L 1178 0 
L 603 0 
L 603 3500 
z
M 603 4863 
L 1178 4863 
L 1178 4134 
L 603 4134 
L 603 4863 
z
" transform="scale(0.015625)"/>
       <path id="DejaVuSans-6e" d="M 3513 2113 
L 3513 0 
L 2938 0 
L 2938 2094 
Q 2938 2591 2744 2837 
Q 2550 3084 2163 3084 
Q 1697 3084 1428 2787 
Q 1159 2491 1159 1978 
L 1159 0 
L 581 0 
L 581 3500 
L 1159 3500 
L 1159 2956 
Q 1366 3272 1645 3428 
Q 1925 3584 2291 3584 
Q 2894 3584 3203 3211 
Q 3513 2838 3513 2113 
z
" transform="scale(0.015625)"/>
       <path id="DejaVuSans-74" d="M 1172 4494 
L 1172 3500 
L 2356 3500 
L 2356 3053 
L 1172 3053 
L 1172 1153 
Q 1172 725 1289 603 
Q 1406 481 1766 481 
L 2356 481 
L 2356 0 
L 1766 0 
Q 1100 0 847 248 
Q 594 497 594 1153 
L 594 3053 
L 172 3053 
L 172 3500 
L 594 3500 
L 594 4494 
L 1172 4494 
z
" transform="scale(0.015625)"/>
       <path id="DejaVuSans-65" d="M 3597 1894 
L 3597 1613 
L 953 1613 
Q 991 1019 1311 708 
Q 1631 397 2203 397 
Q 2534 397 2845 478 
Q 3156 559 3463 722 
L 3463 178 
Q 3153 47 2828 -22 
Q 2503 -91 2169 -91 
Q 1331 -91 842 396 
Q 353 884 353 1716 
Q 353 2575 817 3079 
Q 1281 3584 2069 3584 
Q 2775 3584 3186 3129 
Q 3597 2675 3597 1894 
z
M 3022 2063 
Q 3016 2534 2758 2815 
Q 2500 3097 2075 3097 
Q 1594 3097 1305 2825 
Q 1016 2553 972 2059 
L 3022 2063 
z
" transform="scale(0.015625)"/>
       <path id="DejaVuSans-73" d="M 2834 3397 
L 2834 2853 
Q 2591 2978 2328 3040 
Q 2066 3103 1784 3103 
Q 1356 3103 1142 2972 
Q 928 2841 928 2578 
Q 928 2378 1081 2264 
Q 1234 2150 1697 2047 
L 1894 2003 
Q 2506 1872 2764 1633 
Q 3022 1394 3022 966 
Q 3022 478 2636 193 
Q 2250 -91 1575 -91 
Q 1294 -91 989 -36 
Q 684 19 347 128 
L 347 722 
Q 666 556 975 473 
Q 1284 391 1588 391 
Q 1994 391 2212 530 
Q 2431 669 2431 922 
Q 2431 1156 2273 1281 
Q 2116 1406 1581 1522 
L 1381 1569 
Q 847 1681 609 1914 
Q 372 2147 372 2553 
Q 372 3047 722 3315 
Q 1072 3584 1716 3584 
Q 2034 3584 2315 3537 
Q 2597 3491 2834 3397 
z
" transform="scale(0.015625)"/>
       <path id="DejaVuSans-79" d="M 2059 -325 
Q 1816 -950 1584 -1140 
Q 1353 -1331 966 -1331 
L 506 -1331 
L 506 -850 
L 844 -850 
Q 1081 -850 1212 -737 
Q 1344 -625 1503 -206 
L 1606 56 
L 191 3500 
L 800 3500 
L 1894 763 
L 2988 3500 
L 3597 3500 
L 2059 -325 
z
" transform="scale(0.015625)"/>
      </defs>
      <use xlink:href="#DejaVuSans-69"/>
      <use xlink:href="#DejaVuSans-6e" x="27.783203"/>
      <use xlink:href="#DejaVuSans-74" x="91.162109"/>
      <use xlink:href="#DejaVuSans-65" x="130.371094"/>
      <use xlink:href="#DejaVuSans-6e" x="191.894531"/>
      <use xlink:href="#DejaVuSans-73" x="255.273438"/>
      <use xlink:href="#DejaVuSans-69" x="307.373047"/>
      <use xlink:href="#DejaVuSans-74" x="335.15625"/>
      <use xlink:href="#DejaVuSans-79" x="374.365234"/>
     </g>
    </g>
   </g>
   <g id="line2d_25">
    <path d="M 220.681309 529.002818 
L 459.077446 528.911321 
L 471.302889 528.713273 
L 480.471971 528.360482 
L 486.584692 527.944632 
L 492.697414 527.30362 
L 498.810135 526.343269 
L 501.866496 525.707323 
L 504.922857 524.945361 
L 507.979217 524.039093 
L 511.035578 522.969142 
L 514.091939 521.715347 
L 517.1483 520.257167 
L 520.20466 518.574171 
L 523.261021 516.646636 
L 526.317382 514.456229 
L 529.373743 511.986776 
L 532.430103 509.225088 
L 535.486464 506.161832 
L 538.542825 502.792411 
L 541.599185 499.117822 
L 544.655546 495.145453 
L 547.711907 490.889776 
L 550.768268 486.37289 
L 556.880989 476.683978 
L 562.993711 466.415883 
L 572.162793 450.95228 
L 575.219153 446.059576 
L 578.275514 441.422478 
L 581.331875 437.116095 
L 584.388236 433.212986 
L 587.444596 429.781137 
L 590.500957 426.882006 
L 593.557318 424.568687 
L 596.613679 422.884302 
L 599.670039 421.860659 
L 602.7264 421.517255 
L 605.782761 421.860659 
L 608.839121 422.884302 
L 611.895482 424.568687 
L 614.951843 426.882006 
L 618.008204 429.781137 
L 621.064564 433.212986 
L 624.120925 437.116095 
L 627.177286 441.422478 
L 630.233647 446.059576 
L 636.346368 456.024926 
L 648.571811 476.683978 
L 654.684532 486.37289 
L 657.740893 490.889776 
L 660.797254 495.145453 
L 663.853615 499.117822 
L 666.909975 502.792411 
L 669.966336 506.161832 
L 673.022697 509.225088 
L 676.079057 511.986776 
L 679.135418 514.456229 
L 682.191779 516.646636 
L 685.24814 518.574171 
L 688.3045 520.257167 
L 691.360861 521.715347 
L 694.417222 522.969142 
L 697.473583 524.039093 
L 700.529943 524.945361 
L 703.586304 525.707323 
L 709.699025 526.870187 
L 715.811747 527.6576 
L 721.924468 528.17573 
L 731.093551 528.622765 
L 743.318993 528.879606 
L 761.657158 528.984047 
L 835.009815 529.002817 
L 984.771491 529.002818 
L 984.771491 529.002818 
" clip-path="url(#pb88ae5c0fb)" style="fill: none; stroke: #1f77b4; stroke-width: 1.5; stroke-linecap: square"/>
   </g>
   <g id="line2d_26">
    <path d="M 220.681309 529.002818 
L 559.93735 528.897225 
L 569.106432 528.780276 
L 572.162793 522.564333 
L 575.219153 500.545772 
L 578.275514 397.245398 
L 581.331875 251.059776 
L 584.388236 86.939182 
L 587.444596 140.62619 
L 590.500957 257.805395 
L 593.557318 430.053732 
L 596.613679 495.628127 
L 599.670039 525.849864 
L 602.7264 527.285809 
L 605.782761 525.849864 
L 608.839121 495.628127 
L 611.895482 430.053732 
L 614.951843 257.805395 
L 618.008204 140.62619 
L 621.064564 86.939182 
L 624.120925 251.059776 
L 627.177286 397.245398 
L 630.233647 500.545772 
L 633.290007 522.564333 
L 636.346368 528.780276 
L 642.459089 528.882988 
L 688.3045 528.986656 
L 831.953455 529.002818 
L 984.771491 529.002818 
L 984.771491 529.002818 
" clip-path="url(#pb88ae5c0fb)" style="fill: none; stroke: #ff7f0e; stroke-width: 1.5; stroke-linecap: square"/>
   </g>
   <g id="line2d_27">
    <path d="M 220.681309 529.002818 
L 556.880989 528.986992 
L 559.93735 528.870931 
L 562.993711 528.18161 
L 566.050071 525.099704 
L 569.106432 514.60297 
L 572.162793 487.22249 
L 575.219153 432.774271 
L 581.331875 268.959491 
L 584.388236 224.998179 
L 587.444596 250.612193 
L 590.500957 314.212949 
L 593.557318 389.531122 
L 596.613679 448.006168 
L 599.670039 478.280184 
L 602.7264 486.444039 
L 605.782761 478.280184 
L 608.839121 448.006168 
L 611.895482 389.531122 
L 614.951843 314.212949 
L 618.008204 250.612193 
L 621.064564 224.998179 
L 624.120925 268.959491 
L 630.233647 432.774271 
L 633.290007 487.22249 
L 636.346368 514.60297 
L 639.402729 525.099704 
L 642.459089 528.18161 
L 645.51545 528.870931 
L 651.628172 529.001434 
L 914.475194 529.002818 
L 984.771491 529.002818 
L 984.771491 529.002818 
" clip-path="url(#pb88ae5c0fb)" style="fill: none; stroke: #2ca02c; stroke-width: 1.5; stroke-linecap: square"/>
   </g>
   <g id="line2d_28">
    <path d="M 220.681309 529.002818 
L 550.768268 528.978582 
L 553.824628 528.880072 
L 556.880989 528.47785 
L 559.93735 527.095372 
L 562.993711 523.085046 
L 566.050071 513.262212 
L 569.106432 492.997119 
L 572.162793 458.037423 
L 575.219153 408.414951 
L 578.275514 352.53359 
L 581.331875 307.317789 
L 584.388236 291.36251 
L 587.444596 313.610289 
L 590.500957 348.310414 
L 593.557318 385.401986 
L 596.613679 414.91176 
L 599.670039 432.170446 
L 602.7264 437.583669 
L 605.782761 432.170446 
L 608.839121 414.91176 
L 611.895482 385.401986 
L 614.951843 348.310414 
L 618.008204 313.610289 
L 621.064564 291.36251 
L 624.120925 307.317789 
L 627.177286 352.53359 
L 630.233647 408.414951 
L 633.290007 458.037423 
L 636.346368 492.997119 
L 639.402729 513.262212 
L 642.459089 523.085046 
L 645.51545 527.095372 
L 648.571811 528.47785 
L 651.628172 528.880072 
L 657.740893 528.998806 
L 758.600797 529.002818 
L 984.771491 529.002818 
L 984.771491 529.002818 
" clip-path="url(#pb88ae5c0fb)" style="fill: none; stroke: #d62728; stroke-width: 1.5; stroke-linecap: square"/>
   </g>
   <g id="line2d_29">
    <path d="M 220.681309 529.002818 
L 547.711907 528.928382 
L 550.768268 528.734467 
L 553.824628 528.142717 
L 556.880989 526.546332 
L 559.93735 522.73941 
L 562.993711 514.724897 
L 566.050071 499.87556 
L 569.106432 475.802992 
L 572.162793 442.018765 
L 578.275514 362.809568 
L 581.331875 335.499077 
L 584.388236 328.757864 
L 587.444596 345.457497 
L 590.500957 365.081705 
L 593.557318 383.966442 
L 596.613679 398.746826 
L 599.670039 407.71542 
L 602.7264 410.657752 
L 605.782761 407.71542 
L 608.839121 398.746826 
L 611.895482 383.966442 
L 614.951843 365.081705 
L 618.008204 345.457497 
L 621.064564 328.757864 
L 624.120925 335.499077 
L 627.177286 362.809568 
L 633.290007 442.018765 
L 636.346368 475.802992 
L 639.402729 499.87556 
L 642.459089 514.724897 
L 645.51545 522.73941 
L 648.571811 526.546332 
L 651.628172 528.142717 
L 654.684532 528.734467 
L 657.740893 528.928382 
L 666.909975 529.002056 
L 984.771491 529.002818 
L 984.771491 529.002818 
" clip-path="url(#pb88ae5c0fb)" style="fill: none; stroke: #9467bd; stroke-width: 1.5; stroke-linecap: square"/>
   </g>
   <g id="line2d_30">
    <path d="M 220.681309 529.002818 
L 541.599185 528.963509 
L 544.655546 528.874375 
L 547.711907 528.620077 
L 550.768268 527.961416 
L 553.824628 526.412736 
L 556.880989 523.109532 
L 559.93735 516.727839 
L 562.993711 505.589034 
L 566.050071 488.098203 
L 569.106432 463.557811 
L 572.162793 433.144549 
L 575.219153 400.541844 
L 578.275514 371.62767 
L 581.331875 352.952069 
L 584.388236 349.448914 
L 587.444596 362.469164 
L 590.500957 374.858293 
L 593.557318 385.565699 
L 596.613679 393.608595 
L 599.670039 398.479456 
L 602.7264 400.093629 
L 605.782761 398.479456 
L 608.839121 393.608595 
L 611.895482 385.565699 
L 614.951843 374.858293 
L 618.008204 362.469164 
L 621.064564 349.448914 
L 624.120925 352.952069 
L 627.177286 371.62767 
L 630.233647 400.541844 
L 633.290007 433.144549 
L 636.346368 463.557811 
L 639.402729 488.098203 
L 642.459089 505.589034 
L 645.51545 516.727839 
L 648.571811 523.109532 
L 651.628172 526.412736 
L 654.684532 527.961416 
L 657.740893 528.620077 
L 660.797254 528.874375 
L 666.909975 528.991863 
L 709.699025 529.002818 
L 984.771491 529.002818 
L 984.771491 529.002818 
" clip-path="url(#pb88ae5c0fb)" style="fill: none; stroke: #8c564b; stroke-width: 1.5; stroke-linecap: square"/>
   </g>
   <g id="line2d_31">
    <path d="M 220.681309 529.002818 
L 538.542825 528.942766 
L 541.599185 528.8322 
L 544.655546 528.553099 
L 547.711907 527.902377 
L 550.768268 526.5016 
L 553.824628 523.719692 
L 556.880989 518.629216 
L 559.93735 510.063714 
L 562.993711 496.849851 
L 566.050071 478.244838 
L 569.106432 454.504092 
L 575.219153 400.177486 
L 578.275514 377.385431 
L 581.331875 363.495473 
L 584.388236 361.751744 
L 587.444596 373.112605 
L 590.500957 382.367686 
L 593.557318 389.570087 
L 596.613679 394.673325 
L 599.670039 397.6879 
L 602.7264 398.680137 
L 605.782761 397.6879 
L 608.839121 394.673325 
L 611.895482 389.570087 
L 614.951843 382.367686 
L 618.008204 373.112605 
L 621.064564 361.751744 
L 624.120925 363.495473 
L 627.177286 377.385431 
L 630.233647 400.177486 
L 636.346368 454.504092 
L 639.402729 478.244838 
L 642.459089 496.849851 
L 645.51545 510.063714 
L 648.571811 518.629216 
L 651.628172 523.719692 
L 654.684532 526.5016 
L 657.740893 527.902377 
L 660.797254 528.553099 
L 663.853615 528.8322 
L 669.966336 528.983226 
L 697.473583 529.002818 
L 984.771491 529.002818 
L 984.771491 529.002818 
" clip-path="url(#pb88ae5c0fb)" style="fill: none; stroke: #e377c2; stroke-width: 1.5; stroke-linecap: square"/>
   </g>
   <g id="line2d_32">
    <path d="M 220.681309 529.002818 
L 535.486464 528.926408 
L 538.542825 528.805874 
L 541.599185 528.526382 
L 544.655546 527.920589 
L 547.711907 526.693746 
L 550.768268 524.37387 
L 553.824628 520.282208 
L 556.880989 513.561076 
L 559.93735 503.300795 
L 562.993711 488.789679 
L 566.050071 469.863727 
L 569.106432 447.264828 
L 572.162793 422.859006 
L 575.219153 399.562191 
L 578.275514 380.897913 
L 581.331875 370.253407 
L 584.388236 370.042492 
L 587.444596 381.043873 
L 590.500957 389.215321 
L 593.557318 395.102011 
L 596.613679 399.055504 
L 599.670039 401.320869 
L 602.7264 402.057046 
L 605.782761 401.320869 
L 608.839121 399.055504 
L 611.895482 395.102011 
L 614.951843 389.215321 
L 618.008204 381.043873 
L 621.064564 370.042492 
L 624.120925 370.253407 
L 627.177286 380.897913 
L 630.233647 399.562191 
L 633.290007 422.859006 
L 636.346368 447.264828 
L 639.402729 469.863727 
L 642.459089 488.789679 
L 645.51545 503.300795 
L 648.571811 513.561076 
L 651.628172 520.282208 
L 654.684532 524.37387 
L 657.740893 526.693746 
L 660.797254 527.920589 
L 663.853615 528.526382 
L 666.909975 528.805874 
L 673.022697 528.975007 
L 694.417222 529.002814 
L 984.771491 529.002818 
L 984.771491 529.002818 
" clip-path="url(#pb88ae5c0fb)" style="fill: none; stroke: #7f7f7f; stroke-width: 1.5; stroke-linecap: square"/>
   </g>
   <g id="line2d_33">
    <path d="M 220.681309 529.002818 
L 532.430103 528.91569 
L 535.486464 528.793815 
L 538.542825 528.528246 
L 541.599185 527.982515 
L 544.655546 526.925344 
L 547.711907 524.995923 
L 550.768268 521.681075 
L 553.824628 516.326122 
L 556.880989 508.20513 
L 559.93735 496.669282 
L 562.993711 481.369975 
L 566.050071 462.517569 
L 575.219153 398.670268 
L 578.275514 383.145969 
L 581.331875 375.102993 
L 584.388236 376.450831 
L 587.444596 387.796728 
L 590.500957 395.879247 
L 593.557318 401.477396 
L 596.613679 405.123349 
L 599.670039 407.171967 
L 602.7264 407.831693 
L 605.782761 407.171967 
L 608.839121 405.123349 
L 611.895482 401.477396 
L 614.951843 395.879247 
L 618.008204 387.796728 
L 621.064564 376.450831 
L 624.120925 375.102993 
L 627.177286 383.145969 
L 630.233647 398.670268 
L 633.290007 418.960777 
L 639.402729 462.517569 
L 642.459089 481.369975 
L 645.51545 496.669282 
L 648.571811 508.20513 
L 651.628172 516.326122 
L 654.684532 521.681075 
L 657.740893 524.995923 
L 660.797254 526.925344 
L 663.853615 527.982515 
L 666.909975 528.528246 
L 669.966336 528.793815 
L 676.079057 528.968448 
L 694.417222 529.002779 
L 984.771491 529.002818 
L 984.771491 529.002818 
" clip-path="url(#pb88ae5c0fb)" style="fill: none; stroke: #bcbd22; stroke-width: 1.5; stroke-linecap: square"/>
   </g>
   <g id="line2d_34">
    <path d="M 220.681309 529.002818 
L 529.373743 528.910284 
L 532.430103 528.792754 
L 535.486464 528.548494 
L 538.542825 528.066476 
L 541.599185 527.163597 
L 544.655546 525.559092 
L 547.711907 522.855705 
L 550.768268 518.541123 
L 553.824628 512.026366 
L 556.880989 502.735594 
L 559.93735 490.251297 
L 562.993711 474.499567 
L 566.050071 455.936469 
L 572.162793 415.506337 
L 575.219153 397.724237 
L 578.275514 384.828348 
L 581.331875 379.072816 
L 584.388236 381.994785 
L 587.444596 394.011689 
L 590.500957 402.457126 
L 593.557318 408.230454 
L 596.613679 411.95156 
L 599.670039 414.028616 
L 602.7264 414.695487 
L 605.782761 414.028616 
L 608.839121 411.95156 
L 611.895482 408.230454 
L 614.951843 402.457126 
L 618.008204 394.011689 
L 621.064564 381.994785 
L 624.120925 379.072816 
L 627.177286 384.828348 
L 630.233647 397.724237 
L 633.290007 415.506337 
L 639.402729 455.936469 
L 642.459089 474.499567 
L 645.51545 490.251297 
L 648.571811 502.735594 
L 651.628172 512.026366 
L 654.684532 518.541123 
L 657.740893 522.855705 
L 660.797254 525.559092 
L 663.853615 527.163597 
L 666.909975 528.066476 
L 669.966336 528.548494 
L 673.022697 528.792754 
L 679.135418 528.963992 
L 697.473583 529.002743 
L 984.771491 529.002818 
L 984.771491 529.002818 
" clip-path="url(#pb88ae5c0fb)" style="fill: none; stroke: #17becf; stroke-width: 1.5; stroke-linecap: square"/>
   </g>
   <g id="line2d_35">
    <path d="M 220.681309 529.002818 
L 526.317382 528.909222 
L 532.430103 528.579535 
L 535.486464 528.159166 
L 538.542825 527.392146 
L 541.599185 526.056953 
L 544.655546 523.840777 
L 547.711907 520.335914 
L 550.768268 515.05973 
L 553.824628 507.509234 
L 556.880989 497.256428 
L 559.93735 484.080145 
L 562.993711 468.115286 
L 566.050071 449.985232 
L 569.106432 430.873756 
L 572.162793 412.494773 
L 575.219153 396.934705 
L 578.275514 386.370702 
L 581.331875 382.7012 
L 584.388236 387.153496 
L 587.444596 399.947732 
L 590.500957 408.926548 
L 593.557318 415.058167 
L 596.613679 419.009212 
L 599.670039 421.215484 
L 602.7264 421.924171 
L 605.782761 421.215484 
L 608.839121 419.009212 
L 611.895482 415.058167 
L 614.951843 408.926548 
L 618.008204 399.947732 
L 621.064564 387.153496 
L 624.120925 382.7012 
L 627.177286 386.370702 
L 630.233647 396.934705 
L 633.290007 412.494773 
L 636.346368 430.873756 
L 639.402729 449.985232 
L 642.459089 468.115286 
L 645.51545 484.080145 
L 648.571811 497.256428 
L 651.628172 507.509234 
L 654.684532 515.05973 
L 657.740893 520.335914 
L 660.797254 523.840777 
L 663.853615 526.056953 
L 666.909975 527.392146 
L 669.966336 528.159166 
L 673.022697 528.579535 
L 679.135418 528.909222 
L 688.3045 528.995799 
L 770.82624 529.002818 
L 984.771491 529.002818 
L 984.771491 529.002818 
" clip-path="url(#pb88ae5c0fb)" style="fill: none; stroke: #1f77b4; stroke-width: 1.5; stroke-linecap: square"/>
   </g>
   <g id="line2d_36">
    <path d="M 220.681309 529.002818 
L 523.261021 528.911412 
L 529.373743 528.616086 
L 532.430103 528.25266 
L 535.486464 527.603304 
L 538.542825 526.491378 
L 541.599185 524.667494 
L 544.655546 521.803418 
L 547.711907 517.501216 
L 550.768268 511.325991 
L 553.824628 502.868536 
L 556.880989 491.838539 
L 559.93735 478.179933 
L 562.993711 462.189043 
L 572.162793 409.961828 
L 575.219153 396.443231 
L 578.275514 388.007524 
L 581.331875 386.255469 
L 584.388236 392.142755 
L 587.444596 405.698389 
L 590.500957 415.235881 
L 593.557318 421.768249 
L 596.613679 425.990463 
L 599.670039 428.354407 
L 602.7264 429.114925 
L 605.782761 428.354407 
L 608.839121 425.990463 
L 611.895482 421.768249 
L 614.951843 415.235881 
L 618.008204 405.698389 
L 621.064564 392.142755 
L 624.120925 386.255469 
L 627.177286 388.007524 
L 630.233647 396.443231 
L 633.290007 409.961828 
L 636.346368 426.650885 
L 642.459089 462.189043 
L 645.51545 478.179933 
L 648.571811 491.838539 
L 651.628172 502.868536 
L 654.684532 511.325991 
L 657.740893 517.501216 
L 660.797254 521.803418 
L 663.853615 524.667494 
L 666.909975 526.491378 
L 669.966336 527.603304 
L 673.022697 528.25266 
L 676.079057 528.616086 
L 682.191779 528.911412 
L 694.417222 528.999637 
L 871.686144 529.002818 
L 984.771491 529.002818 
L 984.771491 529.002818 
" clip-path="url(#pb88ae5c0fb)" style="fill: none; stroke: #ff7f0e; stroke-width: 1.5; stroke-linecap: square"/>
   </g>
   <g id="line2d_37">
    <path d="M 220.681309 529.002818 
L 520.20466 528.915856 
L 526.317382 528.654616 
L 529.373743 528.342395 
L 532.430103 527.794004 
L 535.486464 526.867445 
L 538.542825 525.362083 
L 541.599185 523.011512 
L 544.655546 519.486337 
L 547.711907 514.413163 
L 550.768268 507.41541 
L 553.824628 498.178687 
L 556.880989 486.537918 
L 559.93735 472.575952 
L 562.993711 456.715474 
L 569.106432 422.99888 
L 572.162793 407.934484 
L 575.219153 396.325424 
L 578.275514 389.852299 
L 581.331875 389.855422 
L 584.388236 397.048921 
L 587.444596 411.286251 
L 590.500957 421.335313 
L 593.557318 428.242106 
L 596.613679 432.721519 
L 599.670039 435.236393 
L 602.7264 436.046731 
L 605.782761 435.236393 
L 608.839121 432.721519 
L 611.895482 428.242106 
L 614.951843 421.335313 
L 618.008204 411.286251 
L 621.064564 397.048921 
L 624.120925 389.855422 
L 627.177286 389.852299 
L 630.233647 396.325424 
L 633.290007 407.934484 
L 636.346368 422.99888 
L 642.459089 456.715474 
L 645.51545 472.575952 
L 648.571811 486.537918 
L 651.628172 498.178687 
L 654.684532 507.41541 
L 657.740893 514.413163 
L 660.797254 519.486337 
L 663.853615 523.011512 
L 666.909975 525.362083 
L 669.966336 526.867445 
L 673.022697 527.794004 
L 676.079057 528.342395 
L 679.135418 528.654616 
L 685.24814 528.915856 
L 697.473583 528.999295 
L 865.573423 529.002818 
L 984.771491 529.002818 
L 984.771491 529.002818 
" clip-path="url(#pb88ae5c0fb)" style="fill: none; stroke: #2ca02c; stroke-width: 1.5; stroke-linecap: square"/>
   </g>
   <g id="line2d_38">
    <path d="M 220.681309 529.002818 
L 517.1483 528.921732 
L 523.261021 528.692844 
L 526.317382 528.425896 
L 529.373743 527.96365 
L 532.430103 527.19125 
L 535.486464 525.946192 
L 538.542825 524.011002 
L 541.599185 521.112333 
L 544.655546 516.93121 
L 547.711907 511.129152 
L 550.768268 503.393516 
L 553.824628 493.502145 
L 556.880989 481.402476 
L 559.93735 467.29422 
L 562.993711 451.699033 
L 566.050071 435.497044 
L 569.106432 419.910394 
L 572.162793 406.419415 
L 575.219153 396.607567 
L 578.275514 391.945702 
L 581.331875 393.541768 
L 584.388236 401.895517 
L 587.444596 416.705503 
L 590.500957 427.186162 
L 593.557318 434.410084 
L 596.613679 439.107937 
L 599.670039 441.751185 
L 602.7264 442.603923 
L 605.782761 441.751185 
L 608.839121 439.107937 
L 611.895482 434.410084 
L 614.951843 427.186162 
L 618.008204 416.705503 
L 621.064564 401.895517 
L 624.120925 393.541768 
L 627.177286 391.945702 
L 630.233647 396.607567 
L 633.290007 406.419415 
L 636.346368 419.910394 
L 639.402729 435.497044 
L 642.459089 451.699033 
L 645.51545 467.29422 
L 648.571811 481.402476 
L 651.628172 493.502145 
L 654.684532 503.393516 
L 657.740893 511.129152 
L 660.797254 516.93121 
L 663.853615 521.112333 
L 666.909975 524.011002 
L 669.966336 525.946192 
L 673.022697 527.19125 
L 676.079057 527.96365 
L 679.135418 528.425896 
L 682.191779 528.692844 
L 688.3045 528.921732 
L 700.529943 528.999086 
L 862.517062 529.002818 
L 984.771491 529.002818 
L 984.771491 529.002818 
" clip-path="url(#pb88ae5c0fb)" style="fill: none; stroke: #d62728; stroke-width: 1.5; stroke-linecap: square"/>
   </g>
   <g id="line2d_39">
    <path d="M 220.681309 529.002818 
L 514.091939 528.928402 
L 520.20466 528.729359 
L 523.261021 528.501984 
L 526.317382 528.112961 
L 529.373743 527.468946 
L 532.430103 526.437659 
L 535.486464 524.840833 
L 538.542825 522.451265 
L 541.599185 518.997518 
L 544.655546 514.180111 
L 547.711907 507.702484 
L 550.768268 499.318217 
L 553.824628 488.892765 
L 556.880989 476.473673 
L 559.93735 462.358429 
L 566.050071 431.749285 
L 569.106432 417.371084 
L 572.162793 405.403877 
L 575.219153 397.282908 
L 578.275514 394.286492 
L 581.331875 397.314153 
L 584.388236 406.677016 
L 587.444596 421.941261 
L 590.500957 432.762261 
L 593.557318 440.235082 
L 596.613679 445.103766 
L 599.670039 447.847163 
L 602.7264 448.732936 
L 605.782761 447.847163 
L 608.839121 445.103766 
L 611.895482 440.235082 
L 614.951843 432.762261 
L 618.008204 421.941261 
L 621.064564 406.677016 
L 624.120925 397.314153 
L 627.177286 394.286492 
L 630.233647 397.282908 
L 633.290007 405.403877 
L 636.346368 417.371084 
L 639.402729 431.749285 
L 645.51545 462.358429 
L 648.571811 476.473673 
L 651.628172 488.892765 
L 654.684532 499.318217 
L 657.740893 507.702484 
L 660.797254 514.180111 
L 663.853615 518.997518 
L 666.909975 522.451265 
L 669.966336 524.840833 
L 673.022697 526.437659 
L 676.079057 527.468946 
L 679.135418 528.112961 
L 682.191779 528.501984 
L 688.3045 528.857977 
L 697.473583 528.984895 
L 737.206272 529.002818 
L 984.771491 529.002818 
L 984.771491 529.002818 
" clip-path="url(#pb88ae5c0fb)" style="fill: none; stroke: #9467bd; stroke-width: 1.5; stroke-linecap: square"/>
   </g>
   <g id="line2d_40">
    <path d="M 220.681309 529.002818 
L 511.035578 528.935393 
L 517.1483 528.763345 
L 520.20466 528.570277 
L 523.261021 528.243323 
L 526.317382 527.706342 
L 529.373743 526.851254 
L 532.430103 525.531487 
L 535.486464 523.558005 
L 538.542825 520.700532 
L 541.599185 516.697034 
L 544.655546 511.27442 
L 547.711907 504.182449 
L 550.768268 495.240899 
L 553.824628 484.396977 
L 556.880989 471.786339 
L 559.93735 457.787328 
L 566.050071 428.523462 
L 569.106432 415.357662 
L 572.162793 404.860326 
L 575.219153 398.324387 
L 578.275514 396.85077 
L 581.331875 401.152376 
L 584.388236 411.376126 
L 587.444596 426.978187 
L 590.500957 438.048592 
L 593.557318 445.701642 
L 596.613679 450.692927 
L 599.670039 453.507781 
L 602.7264 454.417056 
L 605.782761 453.507781 
L 608.839121 450.692927 
L 611.895482 445.701642 
L 614.951843 438.048592 
L 618.008204 426.978187 
L 621.064564 411.376126 
L 624.120925 401.152376 
L 627.177286 396.85077 
L 630.233647 398.324387 
L 633.290007 404.860326 
L 636.346368 415.357662 
L 639.402729 428.523462 
L 648.571811 471.786339 
L 651.628172 484.396977 
L 654.684532 495.240899 
L 657.740893 504.182449 
L 660.797254 511.27442 
L 663.853615 516.697034 
L 666.909975 520.700532 
L 669.966336 523.558005 
L 673.022697 525.531487 
L 676.079057 526.851254 
L 679.135418 527.706342 
L 682.191779 528.243323 
L 685.24814 528.570277 
L 691.360861 528.873935 
L 700.529943 528.985874 
L 743.318993 529.002818 
L 984.771491 529.002818 
L 984.771491 529.002818 
" clip-path="url(#pb88ae5c0fb)" style="fill: none; stroke: #8c564b; stroke-width: 1.5; stroke-linecap: square"/>
   </g>
   <g id="line2d_41">
    <path d="M 220.681309 529.002818 
L 507.979217 528.942366 
L 514.091939 528.79439 
L 520.20466 528.356426 
L 523.261021 527.908744 
L 526.317382 527.199273 
L 529.373743 526.107239 
L 532.430103 524.475269 
L 535.486464 522.108499 
L 538.542825 518.779557 
L 541.599185 514.241964 
L 544.655546 508.254037 
L 547.711907 500.614229 
L 550.768268 491.206807 
L 553.824628 480.054072 
L 556.880989 467.368233 
L 566.050071 425.799918 
L 569.106432 413.839056 
L 572.162793 404.751439 
L 575.219153 399.693734 
L 578.275514 399.603762 
L 581.331875 405.028173 
L 584.388236 415.972541 
L 587.444596 431.804021 
L 590.500957 443.039184 
L 593.557318 450.808591 
L 596.613679 455.877678 
L 599.670039 458.737371 
L 602.7264 459.661313 
L 605.782761 458.737371 
L 608.839121 455.877678 
L 611.895482 450.808591 
L 614.951843 443.039184 
L 618.008204 431.804021 
L 621.064564 415.972541 
L 624.120925 405.028173 
L 627.177286 399.603762 
L 630.233647 399.693734 
L 633.290007 404.751439 
L 636.346368 413.839056 
L 639.402729 425.799918 
L 642.459089 439.425206 
L 648.571811 467.368233 
L 651.628172 480.054072 
L 654.684532 491.206807 
L 657.740893 500.614229 
L 660.797254 508.254037 
L 663.853615 514.241964 
L 666.909975 518.779557 
L 669.966336 522.108499 
L 673.022697 524.475269 
L 676.079057 526.107239 
L 679.135418 527.199273 
L 682.191779 527.908744 
L 685.24814 528.356426 
L 691.360861 528.79439 
L 700.529943 528.971533 
L 728.03719 529.002793 
L 984.771491 529.002818 
L 984.771491 529.002818 
" clip-path="url(#pb88ae5c0fb)" style="fill: none; stroke: #e377c2; stroke-width: 1.5; stroke-linecap: square"/>
   </g>
   <g id="line2d_42">
    <path d="M 220.681309 529.002818 
L 507.979217 528.903115 
L 514.091939 528.684184 
L 517.1483 528.454054 
L 520.20466 528.080904 
L 523.261021 527.492009 
L 526.317382 526.587692 
L 529.373743 525.236906 
L 532.430103 523.2751 
L 535.486464 520.506239 
L 538.542825 516.711056 
L 541.599185 511.663507 
L 544.655546 505.156752 
L 547.711907 497.038686 
L 550.768268 487.25512 
L 553.824628 475.896289 
L 556.880989 463.239882 
L 562.993711 436.244103 
L 566.050071 423.553214 
L 569.106432 412.778596 
L 572.162793 405.034403 
L 575.219153 401.347648 
L 578.275514 402.506904 
L 581.331875 408.911661 
L 584.388236 420.447203 
L 587.444596 436.410689 
L 590.500957 447.735003 
L 593.557318 455.564037 
L 596.613679 460.671323 
L 599.670039 463.552404 
L 602.7264 464.483243 
L 605.782761 463.552404 
L 608.839121 460.671323 
L 611.895482 455.564037 
L 614.951843 447.735003 
L 618.008204 436.410689 
L 621.064564 420.447203 
L 624.120925 408.911661 
L 627.177286 402.506904 
L 630.233647 401.347648 
L 633.290007 405.034403 
L 636.346368 412.778596 
L 639.402729 423.553214 
L 642.459089 436.244103 
L 648.571811 463.239882 
L 651.628172 475.896289 
L 654.684532 487.25512 
L 657.740893 497.038686 
L 660.797254 505.156752 
L 663.853615 511.663507 
L 666.909975 516.711056 
L 669.966336 520.506239 
L 673.022697 523.2751 
L 676.079057 525.236906 
L 679.135418 526.587692 
L 682.191779 527.492009 
L 685.24814 528.080904 
L 688.3045 528.454054 
L 694.417222 528.822348 
L 703.586304 528.97458 
L 734.149911 529.002807 
L 984.771491 529.002818 
L 984.771491 529.002818 
" clip-path="url(#pb88ae5c0fb)" style="fill: none; stroke: #7f7f7f; stroke-width: 1.5; stroke-linecap: square"/>
   </g>
   <g id="line2d_43">
    <path d="M 220.681309 529.002818 
L 504.922857 528.915934 
L 511.035578 528.730729 
L 514.091939 528.537965 
L 517.1483 528.227032 
L 520.20466 527.738113 
L 523.261021 526.98885 
L 526.317382 525.870105 
L 529.373743 524.243184 
L 532.430103 521.939928 
L 535.486464 518.767381 
L 538.542825 514.518763 
L 541.599185 508.992179 
L 544.655546 502.017703 
L 547.711907 493.492142 
L 550.768268 483.41899 
L 553.824628 471.949002 
L 556.880989 459.414825 
L 562.993711 433.495816 
L 566.050071 421.753436 
L 569.106432 412.13627 
L 572.162793 405.664206 
L 575.219153 403.241832 
L 578.275514 405.521954 
L 581.331875 412.774707 
L 584.388236 424.784174 
L 587.444596 440.794301 
L 590.500957 452.142118 
L 593.557318 459.98193 
L 596.613679 465.09354 
L 599.670039 467.976044 
L 602.7264 468.90718 
L 605.782761 467.976044 
L 608.839121 465.09354 
L 611.895482 459.98193 
L 614.951843 452.142118 
L 618.008204 440.794301 
L 621.064564 424.784174 
L 624.120925 412.774707 
L 627.177286 405.521954 
L 630.233647 403.241832 
L 633.290007 405.664206 
L 636.346368 412.13627 
L 639.402729 421.753436 
L 642.459089 433.495816 
L 651.628172 471.949002 
L 654.684532 483.41899 
L 657.740893 493.492142 
L 660.797254 502.017703 
L 663.853615 508.992179 
L 666.909975 514.518763 
L 669.966336 518.767381 
L 673.022697 521.939928 
L 676.079057 524.243184 
L 679.135418 525.870105 
L 682.191779 526.98885 
L 685.24814 527.738113 
L 688.3045 528.227032 
L 691.360861 528.537965 
L 697.473583 528.847249 
L 706.642665 528.977563 
L 740.262633 529.002813 
L 984.771491 529.002818 
L 984.771491 529.002818 
" clip-path="url(#pb88ae5c0fb)" style="fill: none; stroke: #bcbd22; stroke-width: 1.5; stroke-linecap: square"/>
   </g>
   <g id="line2d_44">
    <path d="M 220.681309 529.002818 
L 501.866496 528.927484 
L 507.979217 528.771134 
L 514.091939 528.350827 
L 517.1483 527.944881 
L 520.20466 527.32388 
L 523.261021 526.396943 
L 526.317382 525.047356 
L 529.373743 523.13147 
L 532.430103 520.480906 
L 535.486464 516.90954 
L 538.542825 512.226653 
L 541.599185 506.257156 
L 544.655546 498.868967 
L 547.711907 490.006254 
L 550.768268 479.725694 
L 553.824628 468.231088 
L 562.993711 431.159632 
L 566.050071 420.367684 
L 569.106432 411.870691 
L 572.162793 406.595998 
L 575.219153 405.333507 
L 578.275514 408.613279 
L 581.331875 416.592535 
L 584.388236 428.97124 
L 587.444596 444.954657 
L 590.500957 456.270201 
L 593.557318 464.079699 
L 596.613679 469.167365 
L 599.670039 472.034726 
L 602.7264 472.960697 
L 605.782761 472.034726 
L 608.839121 469.167365 
L 611.895482 464.079699 
L 614.951843 456.270201 
L 618.008204 444.954657 
L 621.064564 428.97124 
L 624.120925 416.592535 
L 627.177286 408.613279 
L 630.233647 405.333507 
L 633.290007 406.595998 
L 636.346368 411.870691 
L 639.402729 420.367684 
L 642.459089 431.159632 
L 645.51545 443.296523 
L 651.628172 468.231088 
L 654.684532 479.725694 
L 657.740893 490.006254 
L 660.797254 498.868967 
L 663.853615 506.257156 
L 666.909975 512.226653 
L 669.966336 516.90954 
L 673.022697 520.480906 
L 676.079057 523.13147 
L 679.135418 525.047356 
L 682.191779 526.396943 
L 685.24814 527.32388 
L 688.3045 527.944881 
L 691.360861 528.350827 
L 697.473583 528.771134 
L 706.642665 528.961269 
L 728.03719 529.002473 
L 984.771491 529.002818 
L 984.771491 529.002818 
" clip-path="url(#pb88ae5c0fb)" style="fill: none; stroke: #17becf; stroke-width: 1.5; stroke-linecap: square"/>
   </g>
   <g id="line2d_45">
    <path d="M 220.681309 529.002818 
L 498.810135 528.937782 
L 504.922857 528.806034 
L 511.035578 528.455516 
L 514.091939 528.118472 
L 517.1483 527.603686 
L 520.20466 526.835489 
L 523.261021 525.715805 
L 526.317382 524.122348 
L 529.373743 521.909169 
L 532.430103 518.910782 
L 535.486464 514.951114 
L 538.542825 509.858298 
L 541.599185 503.485776 
L 544.655546 495.739277 
L 547.711907 486.608003 
L 550.768268 476.196902 
L 553.824628 464.755467 
L 559.93735 440.604776 
L 562.993711 429.211528 
L 566.050071 419.361462 
L 569.106432 411.940641 
L 572.162793 407.786693 
L 575.219153 407.582883 
L 578.275514 411.748978 
L 581.331875 420.344323 
L 584.388236 432.999879 
L 587.444596 448.894594 
L 590.500957 460.131332 
L 593.557318 467.876622 
L 596.613679 472.917242 
L 599.670039 475.756007 
L 602.7264 476.672396 
L 605.782761 475.756007 
L 608.839121 472.917242 
L 611.895482 467.876622 
L 614.951843 460.131332 
L 618.008204 448.894594 
L 621.064564 432.999879 
L 624.120925 420.344323 
L 627.177286 411.748978 
L 630.233647 407.582883 
L 633.290007 407.786693 
L 636.346368 411.940641 
L 639.402729 419.361462 
L 642.459089 429.211528 
L 645.51545 440.604776 
L 651.628172 464.755467 
L 654.684532 476.196902 
L 657.740893 486.608003 
L 660.797254 495.739277 
L 663.853615 503.485776 
L 666.909975 509.858298 
L 669.966336 514.951114 
L 673.022697 518.910782 
L 676.079057 521.909169 
L 679.135418 524.122348 
L 682.191779 525.715805 
L 685.24814 526.835489 
L 688.3045 527.603686 
L 691.360861 528.118472 
L 694.417222 528.455516 
L 700.529943 528.806034 
L 709.699025 528.966594 
L 734.149911 529.002662 
L 984.771491 529.002818 
L 984.771491 529.002818 
" clip-path="url(#pb88ae5c0fb)" style="fill: none; stroke: #1f77b4; stroke-width: 1.5; stroke-linecap: square"/>
   </g>
   <g id="line2d_46">
    <path d="M 587.444596 551.106 
L 587.444596 64.836 
" clip-path="url(#pb88ae5c0fb)" style="fill: none; stroke-dasharray: 5.55,2.4; stroke-dashoffset: 0; stroke: #ff0000; stroke-width: 1.5"/>
   </g>
   <g id="line2d_47">
    <path d="M 618.008204 551.106 
L 618.008204 64.836 
" clip-path="url(#pb88ae5c0fb)" style="fill: none; stroke-dasharray: 5.55,2.4; stroke-dashoffset: 0; stroke: #ff0000; stroke-width: 1.5"/>
   </g>
   <g id="patch_3">
    <path d="M 182.4768 551.106 
L 182.4768 64.836 
" style="fill: none; stroke: #000000; stroke-width: 0.8; stroke-linejoin: miter; stroke-linecap: square"/>
   </g>
   <g id="patch_4">
    <path d="M 1022.976 551.106 
L 1022.976 64.836 
" style="fill: none; stroke: #000000; stroke-width: 0.8; stroke-linejoin: miter; stroke-linecap: square"/>
   </g>
   <g id="patch_5">
    <path d="M 182.4768 551.106 
L 1022.976 551.106 
" style="fill: none; stroke: #000000; stroke-width: 0.8; stroke-linejoin: miter; stroke-linecap: square"/>
   </g>
   <g id="patch_6">
    <path d="M 182.4768 64.836 
L 1022.976 64.836 
" style="fill: none; stroke: #000000; stroke-width: 0.8; stroke-linejoin: miter; stroke-linecap: square"/>
   </g>
   <g id="text_15">
    <!-- Field intensity distribution in the x direction at different z values  -->
    <g transform="translate(408.274837 45.398625) scale(0.12 -0.12)">
     <defs>
      <path id="DejaVuSans-46" d="M 628 4666 
L 3309 4666 
L 3309 4134 
L 1259 4134 
L 1259 2759 
L 3109 2759 
L 3109 2228 
L 1259 2228 
L 1259 0 
L 628 0 
L 628 4666 
z
" transform="scale(0.015625)"/>
      <path id="DejaVuSans-6c" d="M 603 4863 
L 1178 4863 
L 1178 0 
L 603 0 
L 603 4863 
z
" transform="scale(0.015625)"/>
      <path id="DejaVuSans-64" d="M 2906 2969 
L 2906 4863 
L 3481 4863 
L 3481 0 
L 2906 0 
L 2906 525 
Q 2725 213 2448 61 
Q 2172 -91 1784 -91 
Q 1150 -91 751 415 
Q 353 922 353 1747 
Q 353 2572 751 3078 
Q 1150 3584 1784 3584 
Q 2172 3584 2448 3432 
Q 2725 3281 2906 2969 
z
M 947 1747 
Q 947 1113 1208 752 
Q 1469 391 1925 391 
Q 2381 391 2643 752 
Q 2906 1113 2906 1747 
Q 2906 2381 2643 2742 
Q 2381 3103 1925 3103 
Q 1469 3103 1208 2742 
Q 947 2381 947 1747 
z
" transform="scale(0.015625)"/>
      <path id="DejaVuSans-72" d="M 2631 2963 
Q 2534 3019 2420 3045 
Q 2306 3072 2169 3072 
Q 1681 3072 1420 2755 
Q 1159 2438 1159 1844 
L 1159 0 
L 581 0 
L 581 3500 
L 1159 3500 
L 1159 2956 
Q 1341 3275 1631 3429 
Q 1922 3584 2338 3584 
Q 2397 3584 2469 3576 
Q 2541 3569 2628 3553 
L 2631 2963 
z
" transform="scale(0.015625)"/>
      <path id="DejaVuSans-62" d="M 3116 1747 
Q 3116 2381 2855 2742 
Q 2594 3103 2138 3103 
Q 1681 3103 1420 2742 
Q 1159 2381 1159 1747 
Q 1159 1113 1420 752 
Q 1681 391 2138 391 
Q 2594 391 2855 752 
Q 3116 1113 3116 1747 
z
M 1159 2969 
Q 1341 3281 1617 3432 
Q 1894 3584 2278 3584 
Q 2916 3584 3314 3078 
Q 3713 2572 3713 1747 
Q 3713 922 3314 415 
Q 2916 -91 2278 -91 
Q 1894 -91 1617 61 
Q 1341 213 1159 525 
L 1159 0 
L 581 0 
L 581 4863 
L 1159 4863 
L 1159 2969 
z
" transform="scale(0.015625)"/>
      <path id="DejaVuSans-75" d="M 544 1381 
L 544 3500 
L 1119 3500 
L 1119 1403 
Q 1119 906 1312 657 
Q 1506 409 1894 409 
Q 2359 409 2629 706 
Q 2900 1003 2900 1516 
L 2900 3500 
L 3475 3500 
L 3475 0 
L 2900 0 
L 2900 538 
Q 2691 219 2414 64 
Q 2138 -91 1772 -91 
Q 1169 -91 856 284 
Q 544 659 544 1381 
z
M 1991 3584 
L 1991 3584 
z
" transform="scale(0.015625)"/>
      <path id="DejaVuSans-6f" d="M 1959 3097 
Q 1497 3097 1228 2736 
Q 959 2375 959 1747 
Q 959 1119 1226 758 
Q 1494 397 1959 397 
Q 2419 397 2687 759 
Q 2956 1122 2956 1747 
Q 2956 2369 2687 2733 
Q 2419 3097 1959 3097 
z
M 1959 3584 
Q 2709 3584 3137 3096 
Q 3566 2609 3566 1747 
Q 3566 888 3137 398 
Q 2709 -91 1959 -91 
Q 1206 -91 779 398 
Q 353 888 353 1747 
Q 353 2609 779 3096 
Q 1206 3584 1959 3584 
z
" transform="scale(0.015625)"/>
      <path id="DejaVuSans-68" d="M 3513 2113 
L 3513 0 
L 2938 0 
L 2938 2094 
Q 2938 2591 2744 2837 
Q 2550 3084 2163 3084 
Q 1697 3084 1428 2787 
Q 1159 2491 1159 1978 
L 1159 0 
L 581 0 
L 581 4863 
L 1159 4863 
L 1159 2956 
Q 1366 3272 1645 3428 
Q 1925 3584 2291 3584 
Q 2894 3584 3203 3211 
Q 3513 2838 3513 2113 
z
" transform="scale(0.015625)"/>
      <path id="DejaVuSans-63" d="M 3122 3366 
L 3122 2828 
Q 2878 2963 2633 3030 
Q 2388 3097 2138 3097 
Q 1578 3097 1268 2742 
Q 959 2388 959 1747 
Q 959 1106 1268 751 
Q 1578 397 2138 397 
Q 2388 397 2633 464 
Q 2878 531 3122 666 
L 3122 134 
Q 2881 22 2623 -34 
Q 2366 -91 2075 -91 
Q 1284 -91 818 406 
Q 353 903 353 1747 
Q 353 2603 823 3093 
Q 1294 3584 2113 3584 
Q 2378 3584 2631 3529 
Q 2884 3475 3122 3366 
z
" transform="scale(0.015625)"/>
      <path id="DejaVuSans-61" d="M 2194 1759 
Q 1497 1759 1228 1600 
Q 959 1441 959 1056 
Q 959 750 1161 570 
Q 1363 391 1709 391 
Q 2188 391 2477 730 
Q 2766 1069 2766 1631 
L 2766 1759 
L 2194 1759 
z
M 3341 1997 
L 3341 0 
L 2766 0 
L 2766 531 
Q 2569 213 2275 61 
Q 1981 -91 1556 -91 
Q 1019 -91 701 211 
Q 384 513 384 1019 
Q 384 1609 779 1909 
Q 1175 2209 1959 2209 
L 2766 2209 
L 2766 2266 
Q 2766 2663 2505 2880 
Q 2244 3097 1772 3097 
Q 1472 3097 1187 3025 
Q 903 2953 641 2809 
L 641 3341 
Q 956 3463 1253 3523 
Q 1550 3584 1831 3584 
Q 2591 3584 2966 3190 
Q 3341 2797 3341 1997 
z
" transform="scale(0.015625)"/>
      <path id="DejaVuSans-66" d="M 2375 4863 
L 2375 4384 
L 1825 4384 
Q 1516 4384 1395 4259 
Q 1275 4134 1275 3809 
L 1275 3500 
L 2222 3500 
L 2222 3053 
L 1275 3053 
L 1275 0 
L 697 0 
L 697 3053 
L 147 3053 
L 147 3500 
L 697 3500 
L 697 3744 
Q 697 4328 969 4595 
Q 1241 4863 1831 4863 
L 2375 4863 
z
" transform="scale(0.015625)"/>
      <path id="DejaVuSans-7a" d="M 353 3500 
L 3084 3500 
L 3084 2975 
L 922 459 
L 3084 459 
L 3084 0 
L 275 0 
L 275 525 
L 2438 3041 
L 353 3041 
L 353 3500 
z
" transform="scale(0.015625)"/>
      <path id="DejaVuSans-76" d="M 191 3500 
L 800 3500 
L 1894 563 
L 2988 3500 
L 3597 3500 
L 2284 0 
L 1503 0 
L 191 3500 
z
" transform="scale(0.015625)"/>
     </defs>
     <use xlink:href="#DejaVuSans-46"/>
     <use xlink:href="#DejaVuSans-69" x="50.269531"/>
     <use xlink:href="#DejaVuSans-65" x="78.052734"/>
     <use xlink:href="#DejaVuSans-6c" x="139.576172"/>
     <use xlink:href="#DejaVuSans-64" x="167.359375"/>
     <use xlink:href="#DejaVuSans-20" x="230.835938"/>
     <use xlink:href="#DejaVuSans-69" x="262.623047"/>
     <use xlink:href="#DejaVuSans-6e" x="290.40625"/>
     <use xlink:href="#DejaVuSans-74" x="353.785156"/>
     <use xlink:href="#DejaVuSans-65" x="392.994141"/>
     <use xlink:href="#DejaVuSans-6e" x="454.517578"/>
     <use xlink:href="#DejaVuSans-73" x="517.896484"/>
     <use xlink:href="#DejaVuSans-69" x="569.996094"/>
     <use xlink:href="#DejaVuSans-74" x="597.779297"/>
     <use xlink:href="#DejaVuSans-79" x="636.988281"/>
     <use xlink:href="#DejaVuSans-20" x="696.167969"/>
     <use xlink:href="#DejaVuSans-64" x="727.955078"/>
     <use xlink:href="#DejaVuSans-69" x="791.431641"/>
     <use xlink:href="#DejaVuSans-73" x="819.214844"/>
     <use xlink:href="#DejaVuSans-74" x="871.314453"/>
     <use xlink:href="#DejaVuSans-72" x="910.523438"/>
     <use xlink:href="#DejaVuSans-69" x="951.636719"/>
     <use xlink:href="#DejaVuSans-62" x="979.419922"/>
     <use xlink:href="#DejaVuSans-75" x="1042.896484"/>
     <use xlink:href="#DejaVuSans-74" x="1106.275391"/>
     <use xlink:href="#DejaVuSans-69" x="1145.484375"/>
     <use xlink:href="#DejaVuSans-6f" x="1173.267578"/>
     <use xlink:href="#DejaVuSans-6e" x="1234.449219"/>
     <use xlink:href="#DejaVuSans-20" x="1297.828125"/>
     <use xlink:href="#DejaVuSans-69" x="1329.615234"/>
     <use xlink:href="#DejaVuSans-6e" x="1357.398438"/>
     <use xlink:href="#DejaVuSans-20" x="1420.777344"/>
     <use xlink:href="#DejaVuSans-74" x="1452.564453"/>
     <use xlink:href="#DejaVuSans-68" x="1491.773438"/>
     <use xlink:href="#DejaVuSans-65" x="1555.152344"/>
     <use xlink:href="#DejaVuSans-20" x="1616.675781"/>
     <use xlink:href="#DejaVuSans-78" x="1648.462891"/>
     <use xlink:href="#DejaVuSans-20" x="1707.642578"/>
     <use xlink:href="#DejaVuSans-64" x="1739.429688"/>
     <use xlink:href="#DejaVuSans-69" x="1802.90625"/>
     <use xlink:href="#DejaVuSans-72" x="1830.689453"/>
     <use xlink:href="#DejaVuSans-65" x="1869.552734"/>
     <use xlink:href="#DejaVuSans-63" x="1931.076172"/>
     <use xlink:href="#DejaVuSans-74" x="1986.056641"/>
     <use xlink:href="#DejaVuSans-69" x="2025.265625"/>
     <use xlink:href="#DejaVuSans-6f" x="2053.048828"/>
     <use xlink:href="#DejaVuSans-6e" x="2114.230469"/>
     <use xlink:href="#DejaVuSans-20" x="2177.609375"/>
     <use xlink:href="#DejaVuSans-61" x="2209.396484"/>
     <use xlink:href="#DejaVuSans-74" x="2270.675781"/>
     <use xlink:href="#DejaVuSans-20" x="2309.884766"/>
     <use xlink:href="#DejaVuSans-64" x="2341.671875"/>
     <use xlink:href="#DejaVuSans-69" x="2405.148438"/>
     <use xlink:href="#DejaVuSans-66" x="2432.931641"/>
     <use xlink:href="#DejaVuSans-66" x="2468.136719"/>
     <use xlink:href="#DejaVuSans-65" x="2503.341797"/>
     <use xlink:href="#DejaVuSans-72" x="2564.865234"/>
     <use xlink:href="#DejaVuSans-65" x="2603.728516"/>
     <use xlink:href="#DejaVuSans-6e" x="2665.251953"/>
     <use xlink:href="#DejaVuSans-74" x="2728.630859"/>
     <use xlink:href="#DejaVuSans-20" x="2767.839844"/>
     <use xlink:href="#DejaVuSans-7a" x="2799.626953"/>
     <use xlink:href="#DejaVuSans-20" x="2852.117188"/>
     <use xlink:href="#DejaVuSans-76" x="2883.904297"/>
     <use xlink:href="#DejaVuSans-61" x="2943.083984"/>
     <use xlink:href="#DejaVuSans-6c" x="3004.363281"/>
     <use xlink:href="#DejaVuSans-75" x="3032.146484"/>
     <use xlink:href="#DejaVuSans-65" x="3095.525391"/>
     <use xlink:href="#DejaVuSans-73" x="3157.048828"/>
     <use xlink:href="#DejaVuSans-20" x="3209.148438"/>
    </g>
    <!--  Explicit scheme -->
    <g transform="translate(553.6539 58.836) scale(0.12 -0.12)">
     <defs>
      <path id="DejaVuSans-45" d="M 628 4666 
L 3578 4666 
L 3578 4134 
L 1259 4134 
L 1259 2753 
L 3481 2753 
L 3481 2222 
L 1259 2222 
L 1259 531 
L 3634 531 
L 3634 0 
L 628 0 
L 628 4666 
z
" transform="scale(0.015625)"/>
      <path id="DejaVuSans-70" d="M 1159 525 
L 1159 -1331 
L 581 -1331 
L 581 3500 
L 1159 3500 
L 1159 2969 
Q 1341 3281 1617 3432 
Q 1894 3584 2278 3584 
Q 2916 3584 3314 3078 
Q 3713 2572 3713 1747 
Q 3713 922 3314 415 
Q 2916 -91 2278 -91 
Q 1894 -91 1617 61 
Q 1341 213 1159 525 
z
M 3116 1747 
Q 3116 2381 2855 2742 
Q 2594 3103 2138 3103 
Q 1681 3103 1420 2742 
Q 1159 2381 1159 1747 
Q 1159 1113 1420 752 
Q 1681 391 2138 391 
Q 2594 391 2855 752 
Q 3116 1113 3116 1747 
z
" transform="scale(0.015625)"/>
     </defs>
     <use xlink:href="#DejaVuSans-20"/>
     <use xlink:href="#DejaVuSans-45" x="31.787109"/>
     <use xlink:href="#DejaVuSans-78" x="94.970703"/>
     <use xlink:href="#DejaVuSans-70" x="154.150391"/>
     <use xlink:href="#DejaVuSans-6c" x="217.626953"/>
     <use xlink:href="#DejaVuSans-69" x="245.410156"/>
     <use xlink:href="#DejaVuSans-63" x="273.193359"/>
     <use xlink:href="#DejaVuSans-69" x="328.173828"/>
     <use xlink:href="#DejaVuSans-74" x="355.957031"/>
     <use xlink:href="#DejaVuSans-20" x="395.166016"/>
     <use xlink:href="#DejaVuSans-73" x="426.953125"/>
     <use xlink:href="#DejaVuSans-63" x="479.052734"/>
     <use xlink:href="#DejaVuSans-68" x="534.033203"/>
     <use xlink:href="#DejaVuSans-65" x="597.412109"/>
     <use xlink:href="#DejaVuSans-6d" x="658.935547"/>
     <use xlink:href="#DejaVuSans-65" x="756.347656"/>
    </g>
   </g>
   <g id="legend_1">
    <g id="patch_7">
     <path d="M 944.904125 381.076625 
L 1015.976 381.076625 
Q 1017.976 381.076625 1017.976 379.076625 
L 1017.976 71.836 
Q 1017.976 69.836 1015.976 69.836 
L 944.904125 69.836 
Q 942.904125 69.836 942.904125 71.836 
L 942.904125 379.076625 
Q 942.904125 381.076625 944.904125 381.076625 
z
" style="fill: #ffffff; opacity: 0.8; stroke: #cccccc; stroke-linejoin: miter"/>
    </g>
    <g id="line2d_48">
     <path d="M 946.904125 77.934437 
L 956.904125 77.934437 
L 966.904125 77.934437 
" style="fill: none; stroke: #1f77b4; stroke-width: 1.5; stroke-linecap: square"/>
    </g>
    <g id="text_16">
     <!-- z = 0 -->
     <g transform="translate(974.904125 81.434437) scale(0.1 -0.1)">
      <defs>
       <path id="DejaVuSans-3d" d="M 678 2906 
L 4684 2906 
L 4684 2381 
L 678 2381 
L 678 2906 
z
M 678 1631 
L 4684 1631 
L 4684 1100 
L 678 1100 
L 678 1631 
z
" transform="scale(0.015625)"/>
      </defs>
      <use xlink:href="#DejaVuSans-7a"/>
      <use xlink:href="#DejaVuSans-20" x="52.490234"/>
      <use xlink:href="#DejaVuSans-3d" x="84.277344"/>
      <use xlink:href="#DejaVuSans-20" x="168.066406"/>
      <use xlink:href="#DejaVuSans-30" x="199.853516"/>
     </g>
    </g>
    <g id="line2d_49">
     <path d="M 946.904125 92.612562 
L 956.904125 92.612562 
L 966.904125 92.612562 
" style="fill: none; stroke: #ff7f0e; stroke-width: 1.5; stroke-linecap: square"/>
    </g>
    <g id="text_17">
     <!-- z = 5 -->
     <g transform="translate(974.904125 96.112562) scale(0.1 -0.1)">
      <defs>
       <path id="DejaVuSans-35" d="M 691 4666 
L 3169 4666 
L 3169 4134 
L 1269 4134 
L 1269 2991 
Q 1406 3038 1543 3061 
Q 1681 3084 1819 3084 
Q 2600 3084 3056 2656 
Q 3513 2228 3513 1497 
Q 3513 744 3044 326 
Q 2575 -91 1722 -91 
Q 1428 -91 1123 -41 
Q 819 9 494 109 
L 494 744 
Q 775 591 1075 516 
Q 1375 441 1709 441 
Q 2250 441 2565 725 
Q 2881 1009 2881 1497 
Q 2881 1984 2565 2268 
Q 2250 2553 1709 2553 
Q 1456 2553 1204 2497 
Q 953 2441 691 2322 
L 691 4666 
z
" transform="scale(0.015625)"/>
      </defs>
      <use xlink:href="#DejaVuSans-7a"/>
      <use xlink:href="#DejaVuSans-20" x="52.490234"/>
      <use xlink:href="#DejaVuSans-3d" x="84.277344"/>
      <use xlink:href="#DejaVuSans-20" x="168.066406"/>
      <use xlink:href="#DejaVuSans-35" x="199.853516"/>
     </g>
    </g>
    <g id="line2d_50">
     <path d="M 946.904125 107.290687 
L 956.904125 107.290687 
L 966.904125 107.290687 
" style="fill: none; stroke: #2ca02c; stroke-width: 1.5; stroke-linecap: square"/>
    </g>
    <g id="text_18">
     <!-- z = 10 -->
     <g transform="translate(974.904125 110.790687) scale(0.1 -0.1)">
      <use xlink:href="#DejaVuSans-7a"/>
      <use xlink:href="#DejaVuSans-20" x="52.490234"/>
      <use xlink:href="#DejaVuSans-3d" x="84.277344"/>
      <use xlink:href="#DejaVuSans-20" x="168.066406"/>
      <use xlink:href="#DejaVuSans-31" x="199.853516"/>
      <use xlink:href="#DejaVuSans-30" x="263.476562"/>
     </g>
    </g>
    <g id="line2d_51">
     <path d="M 946.904125 121.968812 
L 956.904125 121.968812 
L 966.904125 121.968812 
" style="fill: none; stroke: #d62728; stroke-width: 1.5; stroke-linecap: square"/>
    </g>
    <g id="text_19">
     <!-- z = 15 -->
     <g transform="translate(974.904125 125.468812) scale(0.1 -0.1)">
      <use xlink:href="#DejaVuSans-7a"/>
      <use xlink:href="#DejaVuSans-20" x="52.490234"/>
      <use xlink:href="#DejaVuSans-3d" x="84.277344"/>
      <use xlink:href="#DejaVuSans-20" x="168.066406"/>
      <use xlink:href="#DejaVuSans-31" x="199.853516"/>
      <use xlink:href="#DejaVuSans-35" x="263.476562"/>
     </g>
    </g>
    <g id="line2d_52">
     <path d="M 946.904125 136.646937 
L 956.904125 136.646937 
L 966.904125 136.646937 
" style="fill: none; stroke: #9467bd; stroke-width: 1.5; stroke-linecap: square"/>
    </g>
    <g id="text_20">
     <!-- z = 20 -->
     <g transform="translate(974.904125 140.146937) scale(0.1 -0.1)">
      <use xlink:href="#DejaVuSans-7a"/>
      <use xlink:href="#DejaVuSans-20" x="52.490234"/>
      <use xlink:href="#DejaVuSans-3d" x="84.277344"/>
      <use xlink:href="#DejaVuSans-20" x="168.066406"/>
      <use xlink:href="#DejaVuSans-32" x="199.853516"/>
      <use xlink:href="#DejaVuSans-30" x="263.476562"/>
     </g>
    </g>
    <g id="line2d_53">
     <path d="M 946.904125 151.325062 
L 956.904125 151.325062 
L 966.904125 151.325062 
" style="fill: none; stroke: #8c564b; stroke-width: 1.5; stroke-linecap: square"/>
    </g>
    <g id="text_21">
     <!-- z = 25 -->
     <g transform="translate(974.904125 154.825062) scale(0.1 -0.1)">
      <use xlink:href="#DejaVuSans-7a"/>
      <use xlink:href="#DejaVuSans-20" x="52.490234"/>
      <use xlink:href="#DejaVuSans-3d" x="84.277344"/>
      <use xlink:href="#DejaVuSans-20" x="168.066406"/>
      <use xlink:href="#DejaVuSans-32" x="199.853516"/>
      <use xlink:href="#DejaVuSans-35" x="263.476562"/>
     </g>
    </g>
    <g id="line2d_54">
     <path d="M 946.904125 166.003187 
L 956.904125 166.003187 
L 966.904125 166.003187 
" style="fill: none; stroke: #e377c2; stroke-width: 1.5; stroke-linecap: square"/>
    </g>
    <g id="text_22">
     <!-- z = 30 -->
     <g transform="translate(974.904125 169.503187) scale(0.1 -0.1)">
      <defs>
       <path id="DejaVuSans-33" d="M 2597 2516 
Q 3050 2419 3304 2112 
Q 3559 1806 3559 1356 
Q 3559 666 3084 287 
Q 2609 -91 1734 -91 
Q 1441 -91 1130 -33 
Q 819 25 488 141 
L 488 750 
Q 750 597 1062 519 
Q 1375 441 1716 441 
Q 2309 441 2620 675 
Q 2931 909 2931 1356 
Q 2931 1769 2642 2001 
Q 2353 2234 1838 2234 
L 1294 2234 
L 1294 2753 
L 1863 2753 
Q 2328 2753 2575 2939 
Q 2822 3125 2822 3475 
Q 2822 3834 2567 4026 
Q 2313 4219 1838 4219 
Q 1578 4219 1281 4162 
Q 984 4106 628 3988 
L 628 4550 
Q 988 4650 1302 4700 
Q 1616 4750 1894 4750 
Q 2613 4750 3031 4423 
Q 3450 4097 3450 3541 
Q 3450 3153 3228 2886 
Q 3006 2619 2597 2516 
z
" transform="scale(0.015625)"/>
      </defs>
      <use xlink:href="#DejaVuSans-7a"/>
      <use xlink:href="#DejaVuSans-20" x="52.490234"/>
      <use xlink:href="#DejaVuSans-3d" x="84.277344"/>
      <use xlink:href="#DejaVuSans-20" x="168.066406"/>
      <use xlink:href="#DejaVuSans-33" x="199.853516"/>
      <use xlink:href="#DejaVuSans-30" x="263.476562"/>
     </g>
    </g>
    <g id="line2d_55">
     <path d="M 946.904125 180.681312 
L 956.904125 180.681312 
L 966.904125 180.681312 
" style="fill: none; stroke: #7f7f7f; stroke-width: 1.5; stroke-linecap: square"/>
    </g>
    <g id="text_23">
     <!-- z = 35 -->
     <g transform="translate(974.904125 184.181312) scale(0.1 -0.1)">
      <use xlink:href="#DejaVuSans-7a"/>
      <use xlink:href="#DejaVuSans-20" x="52.490234"/>
      <use xlink:href="#DejaVuSans-3d" x="84.277344"/>
      <use xlink:href="#DejaVuSans-20" x="168.066406"/>
      <use xlink:href="#DejaVuSans-33" x="199.853516"/>
      <use xlink:href="#DejaVuSans-35" x="263.476562"/>
     </g>
    </g>
    <g id="line2d_56">
     <path d="M 946.904125 195.359437 
L 956.904125 195.359437 
L 966.904125 195.359437 
" style="fill: none; stroke: #bcbd22; stroke-width: 1.5; stroke-linecap: square"/>
    </g>
    <g id="text_24">
     <!-- z = 40 -->
     <g transform="translate(974.904125 198.859437) scale(0.1 -0.1)">
      <use xlink:href="#DejaVuSans-7a"/>
      <use xlink:href="#DejaVuSans-20" x="52.490234"/>
      <use xlink:href="#DejaVuSans-3d" x="84.277344"/>
      <use xlink:href="#DejaVuSans-20" x="168.066406"/>
      <use xlink:href="#DejaVuSans-34" x="199.853516"/>
      <use xlink:href="#DejaVuSans-30" x="263.476562"/>
     </g>
    </g>
    <g id="line2d_57">
     <path d="M 946.904125 210.037562 
L 956.904125 210.037562 
L 966.904125 210.037562 
" style="fill: none; stroke: #17becf; stroke-width: 1.5; stroke-linecap: square"/>
    </g>
    <g id="text_25">
     <!-- z = 45 -->
     <g transform="translate(974.904125 213.537562) scale(0.1 -0.1)">
      <use xlink:href="#DejaVuSans-7a"/>
      <use xlink:href="#DejaVuSans-20" x="52.490234"/>
      <use xlink:href="#DejaVuSans-3d" x="84.277344"/>
      <use xlink:href="#DejaVuSans-20" x="168.066406"/>
      <use xlink:href="#DejaVuSans-34" x="199.853516"/>
      <use xlink:href="#DejaVuSans-35" x="263.476562"/>
     </g>
    </g>
    <g id="line2d_58">
     <path d="M 946.904125 224.715687 
L 956.904125 224.715687 
L 966.904125 224.715687 
" style="fill: none; stroke: #1f77b4; stroke-width: 1.5; stroke-linecap: square"/>
    </g>
    <g id="text_26">
     <!-- z = 50 -->
     <g transform="translate(974.904125 228.215687) scale(0.1 -0.1)">
      <use xlink:href="#DejaVuSans-7a"/>
      <use xlink:href="#DejaVuSans-20" x="52.490234"/>
      <use xlink:href="#DejaVuSans-3d" x="84.277344"/>
      <use xlink:href="#DejaVuSans-20" x="168.066406"/>
      <use xlink:href="#DejaVuSans-35" x="199.853516"/>
      <use xlink:href="#DejaVuSans-30" x="263.476562"/>
     </g>
    </g>
    <g id="line2d_59">
     <path d="M 946.904125 239.393812 
L 956.904125 239.393812 
L 966.904125 239.393812 
" style="fill: none; stroke: #ff7f0e; stroke-width: 1.5; stroke-linecap: square"/>
    </g>
    <g id="text_27">
     <!-- z = 55 -->
     <g transform="translate(974.904125 242.893812) scale(0.1 -0.1)">
      <use xlink:href="#DejaVuSans-7a"/>
      <use xlink:href="#DejaVuSans-20" x="52.490234"/>
      <use xlink:href="#DejaVuSans-3d" x="84.277344"/>
      <use xlink:href="#DejaVuSans-20" x="168.066406"/>
      <use xlink:href="#DejaVuSans-35" x="199.853516"/>
      <use xlink:href="#DejaVuSans-35" x="263.476562"/>
     </g>
    </g>
    <g id="line2d_60">
     <path d="M 946.904125 254.071937 
L 956.904125 254.071937 
L 966.904125 254.071937 
" style="fill: none; stroke: #2ca02c; stroke-width: 1.5; stroke-linecap: square"/>
    </g>
    <g id="text_28">
     <!-- z = 60 -->
     <g transform="translate(974.904125 257.571937) scale(0.1 -0.1)">
      <use xlink:href="#DejaVuSans-7a"/>
      <use xlink:href="#DejaVuSans-20" x="52.490234"/>
      <use xlink:href="#DejaVuSans-3d" x="84.277344"/>
      <use xlink:href="#DejaVuSans-20" x="168.066406"/>
      <use xlink:href="#DejaVuSans-36" x="199.853516"/>
      <use xlink:href="#DejaVuSans-30" x="263.476562"/>
     </g>
    </g>
    <g id="line2d_61">
     <path d="M 946.904125 268.750062 
L 956.904125 268.750062 
L 966.904125 268.750062 
" style="fill: none; stroke: #d62728; stroke-width: 1.5; stroke-linecap: square"/>
    </g>
    <g id="text_29">
     <!-- z = 65 -->
     <g transform="translate(974.904125 272.250062) scale(0.1 -0.1)">
      <use xlink:href="#DejaVuSans-7a"/>
      <use xlink:href="#DejaVuSans-20" x="52.490234"/>
      <use xlink:href="#DejaVuSans-3d" x="84.277344"/>
      <use xlink:href="#DejaVuSans-20" x="168.066406"/>
      <use xlink:href="#DejaVuSans-36" x="199.853516"/>
      <use xlink:href="#DejaVuSans-35" x="263.476562"/>
     </g>
    </g>
    <g id="line2d_62">
     <path d="M 946.904125 283.428187 
L 956.904125 283.428187 
L 966.904125 283.428187 
" style="fill: none; stroke: #9467bd; stroke-width: 1.5; stroke-linecap: square"/>
    </g>
    <g id="text_30">
     <!-- z = 70 -->
     <g transform="translate(974.904125 286.928187) scale(0.1 -0.1)">
      <defs>
       <path id="DejaVuSans-37" d="M 525 4666 
L 3525 4666 
L 3525 4397 
L 1831 0 
L 1172 0 
L 2766 4134 
L 525 4134 
L 525 4666 
z
" transform="scale(0.015625)"/>
      </defs>
      <use xlink:href="#DejaVuSans-7a"/>
      <use xlink:href="#DejaVuSans-20" x="52.490234"/>
      <use xlink:href="#DejaVuSans-3d" x="84.277344"/>
      <use xlink:href="#DejaVuSans-20" x="168.066406"/>
      <use xlink:href="#DejaVuSans-37" x="199.853516"/>
      <use xlink:href="#DejaVuSans-30" x="263.476562"/>
     </g>
    </g>
    <g id="line2d_63">
     <path d="M 946.904125 298.106312 
L 956.904125 298.106312 
L 966.904125 298.106312 
" style="fill: none; stroke: #8c564b; stroke-width: 1.5; stroke-linecap: square"/>
    </g>
    <g id="text_31">
     <!-- z = 75 -->
     <g transform="translate(974.904125 301.606312) scale(0.1 -0.1)">
      <use xlink:href="#DejaVuSans-7a"/>
      <use xlink:href="#DejaVuSans-20" x="52.490234"/>
      <use xlink:href="#DejaVuSans-3d" x="84.277344"/>
      <use xlink:href="#DejaVuSans-20" x="168.066406"/>
      <use xlink:href="#DejaVuSans-37" x="199.853516"/>
      <use xlink:href="#DejaVuSans-35" x="263.476562"/>
     </g>
    </g>
    <g id="line2d_64">
     <path d="M 946.904125 312.784437 
L 956.904125 312.784437 
L 966.904125 312.784437 
" style="fill: none; stroke: #e377c2; stroke-width: 1.5; stroke-linecap: square"/>
    </g>
    <g id="text_32">
     <!-- z = 80 -->
     <g transform="translate(974.904125 316.284437) scale(0.1 -0.1)">
      <use xlink:href="#DejaVuSans-7a"/>
      <use xlink:href="#DejaVuSans-20" x="52.490234"/>
      <use xlink:href="#DejaVuSans-3d" x="84.277344"/>
      <use xlink:href="#DejaVuSans-20" x="168.066406"/>
      <use xlink:href="#DejaVuSans-38" x="199.853516"/>
      <use xlink:href="#DejaVuSans-30" x="263.476562"/>
     </g>
    </g>
    <g id="line2d_65">
     <path d="M 946.904125 327.462562 
L 956.904125 327.462562 
L 966.904125 327.462562 
" style="fill: none; stroke: #7f7f7f; stroke-width: 1.5; stroke-linecap: square"/>
    </g>
    <g id="text_33">
     <!-- z = 85 -->
     <g transform="translate(974.904125 330.962562) scale(0.1 -0.1)">
      <use xlink:href="#DejaVuSans-7a"/>
      <use xlink:href="#DejaVuSans-20" x="52.490234"/>
      <use xlink:href="#DejaVuSans-3d" x="84.277344"/>
      <use xlink:href="#DejaVuSans-20" x="168.066406"/>
      <use xlink:href="#DejaVuSans-38" x="199.853516"/>
      <use xlink:href="#DejaVuSans-35" x="263.476562"/>
     </g>
    </g>
    <g id="line2d_66">
     <path d="M 946.904125 342.140687 
L 956.904125 342.140687 
L 966.904125 342.140687 
" style="fill: none; stroke: #bcbd22; stroke-width: 1.5; stroke-linecap: square"/>
    </g>
    <g id="text_34">
     <!-- z = 90 -->
     <g transform="translate(974.904125 345.640687) scale(0.1 -0.1)">
      <defs>
       <path id="DejaVuSans-39" d="M 703 97 
L 703 672 
Q 941 559 1184 500 
Q 1428 441 1663 441 
Q 2288 441 2617 861 
Q 2947 1281 2994 2138 
Q 2813 1869 2534 1725 
Q 2256 1581 1919 1581 
Q 1219 1581 811 2004 
Q 403 2428 403 3163 
Q 403 3881 828 4315 
Q 1253 4750 1959 4750 
Q 2769 4750 3195 4129 
Q 3622 3509 3622 2328 
Q 3622 1225 3098 567 
Q 2575 -91 1691 -91 
Q 1453 -91 1209 -44 
Q 966 3 703 97 
z
M 1959 2075 
Q 2384 2075 2632 2365 
Q 2881 2656 2881 3163 
Q 2881 3666 2632 3958 
Q 2384 4250 1959 4250 
Q 1534 4250 1286 3958 
Q 1038 3666 1038 3163 
Q 1038 2656 1286 2365 
Q 1534 2075 1959 2075 
z
" transform="scale(0.015625)"/>
      </defs>
      <use xlink:href="#DejaVuSans-7a"/>
      <use xlink:href="#DejaVuSans-20" x="52.490234"/>
      <use xlink:href="#DejaVuSans-3d" x="84.277344"/>
      <use xlink:href="#DejaVuSans-20" x="168.066406"/>
      <use xlink:href="#DejaVuSans-39" x="199.853516"/>
      <use xlink:href="#DejaVuSans-30" x="263.476562"/>
     </g>
    </g>
    <g id="line2d_67">
     <path d="M 946.904125 356.818812 
L 956.904125 356.818812 
L 966.904125 356.818812 
" style="fill: none; stroke: #17becf; stroke-width: 1.5; stroke-linecap: square"/>
    </g>
    <g id="text_35">
     <!-- z = 95 -->
     <g transform="translate(974.904125 360.318812) scale(0.1 -0.1)">
      <use xlink:href="#DejaVuSans-7a"/>
      <use xlink:href="#DejaVuSans-20" x="52.490234"/>
      <use xlink:href="#DejaVuSans-3d" x="84.277344"/>
      <use xlink:href="#DejaVuSans-20" x="168.066406"/>
      <use xlink:href="#DejaVuSans-39" x="199.853516"/>
      <use xlink:href="#DejaVuSans-35" x="263.476562"/>
     </g>
    </g>
    <g id="line2d_68">
     <path d="M 946.904125 371.496937 
L 956.904125 371.496937 
L 966.904125 371.496937 
" style="fill: none; stroke: #1f77b4; stroke-width: 1.5; stroke-linecap: square"/>
    </g>
    <g id="text_36">
     <!-- z = 100 -->
     <g transform="translate(974.904125 374.996937) scale(0.1 -0.1)">
      <use xlink:href="#DejaVuSans-7a"/>
      <use xlink:href="#DejaVuSans-20" x="52.490234"/>
      <use xlink:href="#DejaVuSans-3d" x="84.277344"/>
      <use xlink:href="#DejaVuSans-20" x="168.066406"/>
      <use xlink:href="#DejaVuSans-31" x="199.853516"/>
      <use xlink:href="#DejaVuSans-30" x="263.476562"/>
      <use xlink:href="#DejaVuSans-30" x="327.099609"/>
     </g>
    </g>
   </g>
  </g>
 </g>
 <defs>
  <clipPath id="pb88ae5c0fb">
   <rect x="182.4768" y="64.836" width="840.4992" height="486.27"/>
  </clipPath>
 </defs>
</svg>
