<?xml version="1.0" encoding="utf-8" standalone="no"?>
<!DOCTYPE svg PUBLIC "-//W3C//DTD SVG 1.1//EN"
  "http://www.w3.org/Graphics/SVG/1.1/DTD/svg11.dtd">
<svg xmlns:xlink="http://www.w3.org/1999/xlink" width="1105.92pt" height="648.36pt" viewBox="0 0 1105.92 648.36" xmlns="http://www.w3.org/2000/svg" version="1.1">
 <metadata>
  <rdf:RDF xmlns:dc="http://purl.org/dc/elements/1.1/" xmlns:cc="http://creativecommons.org/ns#" xmlns:rdf="http://www.w3.org/1999/02/22-rdf-syntax-ns#">
   <cc:Work>
    <dc:type rdf:resource="http://purl.org/dc/dcmitype/StillImage"/>
    <dc:date>2024-06-08T22:03:40.698288</dc:date>
    <dc:format>image/svg+xml</dc:format>
    <dc:creator>
     <cc:Agent>
      <dc:title>Matplotlib v3.8.4, https://matplotlib.org/</dc:title>
     </cc:Agent>
    </dc:creator>
   </cc:Work>
  </rdf:RDF>
 </metadata>
 <defs>
  <style type="text/css">*{stroke-linejoin: round; stroke-linecap: butt}</style>
 </defs>
 <g id="figure_1">
  <g id="patch_1">
   <path d="M 0 648.36 
L 1105.92 648.36 
L 1105.92 0 
L 0 0 
z
" style="fill: #ffffff"/>
  </g>
  <g id="axes_1">
   <g id="patch_2">
    <path d="M 182.4768 551.106 
L 1022.976 551.106 
L 1022.976 64.836 
L 182.4768 64.836 
z
" style="fill: #ffffff"/>
   </g>
   <g id="matplotlib.axis_1">
    <g id="xtick_1">
     <g id="line2d_1">
      <path d="M 297.090327 551.106 
L 297.090327 64.836 
" clip-path="url(#pda9d8e38b7)" style="fill: none; stroke: #b0b0b0; stroke-width: 0.8; stroke-linecap: square"/>
     </g>
     <g id="line2d_2">
      <defs>
       <path id="mbfc7641556" d="M 0 0 
L 0 3.5 
" style="stroke: #000000; stroke-width: 0.8"/>
      </defs>
      <g>
       <use xlink:href="#mbfc7641556" x="297.090327" y="551.106" style="stroke: #000000; stroke-width: 0.8"/>
      </g>
     </g>
     <g id="text_1">
      <!-- −20 -->
      <g transform="translate(286.537984 565.704438) scale(0.1 -0.1)">
       <defs>
        <path id="DejaVuSans-2212" d="M 678 2272 
L 4684 2272 
L 4684 1741 
L 678 1741 
L 678 2272 
z
" transform="scale(0.015625)"/>
        <path id="DejaVuSans-32" d="M 1228 531 
L 3431 531 
L 3431 0 
L 469 0 
L 469 531 
Q 828 903 1448 1529 
Q 2069 2156 2228 2338 
Q 2531 2678 2651 2914 
Q 2772 3150 2772 3378 
Q 2772 3750 2511 3984 
Q 2250 4219 1831 4219 
Q 1534 4219 1204 4116 
Q 875 4013 500 3803 
L 500 4441 
Q 881 4594 1212 4672 
Q 1544 4750 1819 4750 
Q 2544 4750 2975 4387 
Q 3406 4025 3406 3419 
Q 3406 3131 3298 2873 
Q 3191 2616 2906 2266 
Q 2828 2175 2409 1742 
Q 1991 1309 1228 531 
z
" transform="scale(0.015625)"/>
        <path id="DejaVuSans-30" d="M 2034 4250 
Q 1547 4250 1301 3770 
Q 1056 3291 1056 2328 
Q 1056 1369 1301 889 
Q 1547 409 2034 409 
Q 2525 409 2770 889 
Q 3016 1369 3016 2328 
Q 3016 3291 2770 3770 
Q 2525 4250 2034 4250 
z
M 2034 4750 
Q 2819 4750 3233 4129 
Q 3647 3509 3647 2328 
Q 3647 1150 3233 529 
Q 2819 -91 2034 -91 
Q 1250 -91 836 529 
Q 422 1150 422 2328 
Q 422 3509 836 4129 
Q 1250 4750 2034 4750 
z
" transform="scale(0.015625)"/>
       </defs>
       <use xlink:href="#DejaVuSans-2212"/>
       <use xlink:href="#DejaVuSans-32" x="83.789062"/>
       <use xlink:href="#DejaVuSans-30" x="147.412109"/>
      </g>
     </g>
    </g>
    <g id="xtick_2">
     <g id="line2d_3">
      <path d="M 449.908364 551.106 
L 449.908364 64.836 
" clip-path="url(#pda9d8e38b7)" style="fill: none; stroke: #b0b0b0; stroke-width: 0.8; stroke-linecap: square"/>
     </g>
     <g id="line2d_4">
      <g>
       <use xlink:href="#mbfc7641556" x="449.908364" y="551.106" style="stroke: #000000; stroke-width: 0.8"/>
      </g>
     </g>
     <g id="text_2">
      <!-- −10 -->
      <g transform="translate(439.35602 565.704438) scale(0.1 -0.1)">
       <defs>
        <path id="DejaVuSans-31" d="M 794 531 
L 1825 531 
L 1825 4091 
L 703 3866 
L 703 4441 
L 1819 4666 
L 2450 4666 
L 2450 531 
L 3481 531 
L 3481 0 
L 794 0 
L 794 531 
z
" transform="scale(0.015625)"/>
       </defs>
       <use xlink:href="#DejaVuSans-2212"/>
       <use xlink:href="#DejaVuSans-31" x="83.789062"/>
       <use xlink:href="#DejaVuSans-30" x="147.412109"/>
      </g>
     </g>
    </g>
    <g id="xtick_3">
     <g id="line2d_5">
      <path d="M 602.7264 551.106 
L 602.7264 64.836 
" clip-path="url(#pda9d8e38b7)" style="fill: none; stroke: #b0b0b0; stroke-width: 0.8; stroke-linecap: square"/>
     </g>
     <g id="line2d_6">
      <g>
       <use xlink:href="#mbfc7641556" x="602.7264" y="551.106" style="stroke: #000000; stroke-width: 0.8"/>
      </g>
     </g>
     <g id="text_3">
      <!-- 0 -->
      <g transform="translate(599.54515 565.704438) scale(0.1 -0.1)">
       <use xlink:href="#DejaVuSans-30"/>
      </g>
     </g>
    </g>
    <g id="xtick_4">
     <g id="line2d_7">
      <path d="M 755.544436 551.106 
L 755.544436 64.836 
" clip-path="url(#pda9d8e38b7)" style="fill: none; stroke: #b0b0b0; stroke-width: 0.8; stroke-linecap: square"/>
     </g>
     <g id="line2d_8">
      <g>
       <use xlink:href="#mbfc7641556" x="755.544436" y="551.106" style="stroke: #000000; stroke-width: 0.8"/>
      </g>
     </g>
     <g id="text_4">
      <!-- 10 -->
      <g transform="translate(749.181936 565.704438) scale(0.1 -0.1)">
       <use xlink:href="#DejaVuSans-31"/>
       <use xlink:href="#DejaVuSans-30" x="63.623047"/>
      </g>
     </g>
    </g>
    <g id="xtick_5">
     <g id="line2d_9">
      <path d="M 908.362473 551.106 
L 908.362473 64.836 
" clip-path="url(#pda9d8e38b7)" style="fill: none; stroke: #b0b0b0; stroke-width: 0.8; stroke-linecap: square"/>
     </g>
     <g id="line2d_10">
      <g>
       <use xlink:href="#mbfc7641556" x="908.362473" y="551.106" style="stroke: #000000; stroke-width: 0.8"/>
      </g>
     </g>
     <g id="text_5">
      <!-- 20 -->
      <g transform="translate(901.999973 565.704438) scale(0.1 -0.1)">
       <use xlink:href="#DejaVuSans-32"/>
       <use xlink:href="#DejaVuSans-30" x="63.623047"/>
      </g>
     </g>
    </g>
    <g id="text_6">
     <!-- x [µm] -->
     <g transform="translate(586.224838 579.382562) scale(0.1 -0.1)">
      <defs>
       <path id="DejaVuSans-78" d="M 3513 3500 
L 2247 1797 
L 3578 0 
L 2900 0 
L 1881 1375 
L 863 0 
L 184 0 
L 1544 1831 
L 300 3500 
L 978 3500 
L 1906 2253 
L 2834 3500 
L 3513 3500 
z
" transform="scale(0.015625)"/>
       <path id="DejaVuSans-20" transform="scale(0.015625)"/>
       <path id="DejaVuSans-5b" d="M 550 4863 
L 1875 4863 
L 1875 4416 
L 1125 4416 
L 1125 -397 
L 1875 -397 
L 1875 -844 
L 550 -844 
L 550 4863 
z
" transform="scale(0.015625)"/>
       <path id="DejaVuSans-b5" d="M 544 -1331 
L 544 3500 
L 1119 3500 
L 1119 1325 
Q 1119 872 1334 640 
Q 1550 409 1972 409 
Q 2434 409 2667 671 
Q 2900 934 2900 1459 
L 2900 3500 
L 3475 3500 
L 3475 806 
Q 3475 619 3529 530 
Q 3584 441 3700 441 
Q 3728 441 3778 458 
Q 3828 475 3916 513 
L 3916 50 
Q 3788 -22 3673 -56 
Q 3559 -91 3450 -91 
Q 3234 -91 3106 31 
Q 2978 153 2931 403 
Q 2775 156 2548 32 
Q 2322 -91 2016 -91 
Q 1697 -91 1473 31 
Q 1250 153 1119 397 
L 1119 -1331 
L 544 -1331 
z
" transform="scale(0.015625)"/>
       <path id="DejaVuSans-6d" d="M 3328 2828 
Q 3544 3216 3844 3400 
Q 4144 3584 4550 3584 
Q 5097 3584 5394 3201 
Q 5691 2819 5691 2113 
L 5691 0 
L 5113 0 
L 5113 2094 
Q 5113 2597 4934 2840 
Q 4756 3084 4391 3084 
Q 3944 3084 3684 2787 
Q 3425 2491 3425 1978 
L 3425 0 
L 2847 0 
L 2847 2094 
Q 2847 2600 2669 2842 
Q 2491 3084 2119 3084 
Q 1678 3084 1418 2786 
Q 1159 2488 1159 1978 
L 1159 0 
L 581 0 
L 581 3500 
L 1159 3500 
L 1159 2956 
Q 1356 3278 1631 3431 
Q 1906 3584 2284 3584 
Q 2666 3584 2933 3390 
Q 3200 3197 3328 2828 
z
" transform="scale(0.015625)"/>
       <path id="DejaVuSans-5d" d="M 1947 4863 
L 1947 -844 
L 622 -844 
L 622 -397 
L 1369 -397 
L 1369 4416 
L 622 4416 
L 622 4863 
L 1947 4863 
z
" transform="scale(0.015625)"/>
      </defs>
      <use xlink:href="#DejaVuSans-78"/>
      <use xlink:href="#DejaVuSans-20" x="59.179688"/>
      <use xlink:href="#DejaVuSans-5b" x="90.966797"/>
      <use xlink:href="#DejaVuSans-b5" x="129.980469"/>
      <use xlink:href="#DejaVuSans-6d" x="193.603516"/>
      <use xlink:href="#DejaVuSans-5d" x="291.015625"/>
     </g>
    </g>
   </g>
   <g id="matplotlib.axis_2">
    <g id="ytick_1">
     <g id="line2d_11">
      <path d="M 182.4768 529.002818 
L 1022.976 529.002818 
" clip-path="url(#pda9d8e38b7)" style="fill: none; stroke: #b0b0b0; stroke-width: 0.8; stroke-linecap: square"/>
     </g>
     <g id="line2d_12">
      <defs>
       <path id="m597a3d8037" d="M 0 0 
L -3.5 0 
" style="stroke: #000000; stroke-width: 0.8"/>
      </defs>
      <g>
       <use xlink:href="#m597a3d8037" x="182.4768" y="529.002818" style="stroke: #000000; stroke-width: 0.8"/>
      </g>
     </g>
     <g id="text_7">
      <!-- 0.00 -->
      <g transform="translate(153.211175 532.802037) scale(0.1 -0.1)">
       <defs>
        <path id="DejaVuSans-2e" d="M 684 794 
L 1344 794 
L 1344 0 
L 684 0 
L 684 794 
z
" transform="scale(0.015625)"/>
       </defs>
       <use xlink:href="#DejaVuSans-30"/>
       <use xlink:href="#DejaVuSans-2e" x="63.623047"/>
       <use xlink:href="#DejaVuSans-30" x="95.410156"/>
       <use xlink:href="#DejaVuSans-30" x="159.033203"/>
      </g>
     </g>
    </g>
    <g id="ytick_2">
     <g id="line2d_13">
      <path d="M 182.4768 472.422158 
L 1022.976 472.422158 
" clip-path="url(#pda9d8e38b7)" style="fill: none; stroke: #b0b0b0; stroke-width: 0.8; stroke-linecap: square"/>
     </g>
     <g id="line2d_14">
      <g>
       <use xlink:href="#m597a3d8037" x="182.4768" y="472.422158" style="stroke: #000000; stroke-width: 0.8"/>
      </g>
     </g>
     <g id="text_8">
      <!-- 0.01 -->
      <g transform="translate(153.211175 476.221377) scale(0.1 -0.1)">
       <use xlink:href="#DejaVuSans-30"/>
       <use xlink:href="#DejaVuSans-2e" x="63.623047"/>
       <use xlink:href="#DejaVuSans-30" x="95.410156"/>
       <use xlink:href="#DejaVuSans-31" x="159.033203"/>
      </g>
     </g>
    </g>
    <g id="ytick_3">
     <g id="line2d_15">
      <path d="M 182.4768 415.841499 
L 1022.976 415.841499 
" clip-path="url(#pda9d8e38b7)" style="fill: none; stroke: #b0b0b0; stroke-width: 0.8; stroke-linecap: square"/>
     </g>
     <g id="line2d_16">
      <g>
       <use xlink:href="#m597a3d8037" x="182.4768" y="415.841499" style="stroke: #000000; stroke-width: 0.8"/>
      </g>
     </g>
     <g id="text_9">
      <!-- 0.02 -->
      <g transform="translate(153.211175 419.640717) scale(0.1 -0.1)">
       <use xlink:href="#DejaVuSans-30"/>
       <use xlink:href="#DejaVuSans-2e" x="63.623047"/>
       <use xlink:href="#DejaVuSans-30" x="95.410156"/>
       <use xlink:href="#DejaVuSans-32" x="159.033203"/>
      </g>
     </g>
    </g>
    <g id="ytick_4">
     <g id="line2d_17">
      <path d="M 182.4768 359.260839 
L 1022.976 359.260839 
" clip-path="url(#pda9d8e38b7)" style="fill: none; stroke: #b0b0b0; stroke-width: 0.8; stroke-linecap: square"/>
     </g>
     <g id="line2d_18">
      <g>
       <use xlink:href="#m597a3d8037" x="182.4768" y="359.260839" style="stroke: #000000; stroke-width: 0.8"/>
      </g>
     </g>
     <g id="text_10">
      <!-- 0.03 -->
      <g transform="translate(153.211175 363.060058) scale(0.1 -0.1)">
       <defs>
        <path id="DejaVuSans-33" d="M 2597 2516 
Q 3050 2419 3304 2112 
Q 3559 1806 3559 1356 
Q 3559 666 3084 287 
Q 2609 -91 1734 -91 
Q 1441 -91 1130 -33 
Q 819 25 488 141 
L 488 750 
Q 750 597 1062 519 
Q 1375 441 1716 441 
Q 2309 441 2620 675 
Q 2931 909 2931 1356 
Q 2931 1769 2642 2001 
Q 2353 2234 1838 2234 
L 1294 2234 
L 1294 2753 
L 1863 2753 
Q 2328 2753 2575 2939 
Q 2822 3125 2822 3475 
Q 2822 3834 2567 4026 
Q 2313 4219 1838 4219 
Q 1578 4219 1281 4162 
Q 984 4106 628 3988 
L 628 4550 
Q 988 4650 1302 4700 
Q 1616 4750 1894 4750 
Q 2613 4750 3031 4423 
Q 3450 4097 3450 3541 
Q 3450 3153 3228 2886 
Q 3006 2619 2597 2516 
z
" transform="scale(0.015625)"/>
       </defs>
       <use xlink:href="#DejaVuSans-30"/>
       <use xlink:href="#DejaVuSans-2e" x="63.623047"/>
       <use xlink:href="#DejaVuSans-30" x="95.410156"/>
       <use xlink:href="#DejaVuSans-33" x="159.033203"/>
      </g>
     </g>
    </g>
    <g id="ytick_5">
     <g id="line2d_19">
      <path d="M 182.4768 302.680179 
L 1022.976 302.680179 
" clip-path="url(#pda9d8e38b7)" style="fill: none; stroke: #b0b0b0; stroke-width: 0.8; stroke-linecap: square"/>
     </g>
     <g id="line2d_20">
      <g>
       <use xlink:href="#m597a3d8037" x="182.4768" y="302.680179" style="stroke: #000000; stroke-width: 0.8"/>
      </g>
     </g>
     <g id="text_11">
      <!-- 0.04 -->
      <g transform="translate(153.211175 306.479398) scale(0.1 -0.1)">
       <defs>
        <path id="DejaVuSans-34" d="M 2419 4116 
L 825 1625 
L 2419 1625 
L 2419 4116 
z
M 2253 4666 
L 3047 4666 
L 3047 1625 
L 3713 1625 
L 3713 1100 
L 3047 1100 
L 3047 0 
L 2419 0 
L 2419 1100 
L 313 1100 
L 313 1709 
L 2253 4666 
z
" transform="scale(0.015625)"/>
       </defs>
       <use xlink:href="#DejaVuSans-30"/>
       <use xlink:href="#DejaVuSans-2e" x="63.623047"/>
       <use xlink:href="#DejaVuSans-30" x="95.410156"/>
       <use xlink:href="#DejaVuSans-34" x="159.033203"/>
      </g>
     </g>
    </g>
    <g id="ytick_6">
     <g id="line2d_21">
      <path d="M 182.4768 246.099519 
L 1022.976 246.099519 
" clip-path="url(#pda9d8e38b7)" style="fill: none; stroke: #b0b0b0; stroke-width: 0.8; stroke-linecap: square"/>
     </g>
     <g id="line2d_22">
      <g>
       <use xlink:href="#m597a3d8037" x="182.4768" y="246.099519" style="stroke: #000000; stroke-width: 0.8"/>
      </g>
     </g>
     <g id="text_12">
      <!-- 0.05 -->
      <g transform="translate(153.211175 249.898738) scale(0.1 -0.1)">
       <defs>
        <path id="DejaVuSans-35" d="M 691 4666 
L 3169 4666 
L 3169 4134 
L 1269 4134 
L 1269 2991 
Q 1406 3038 1543 3061 
Q 1681 3084 1819 3084 
Q 2600 3084 3056 2656 
Q 3513 2228 3513 1497 
Q 3513 744 3044 326 
Q 2575 -91 1722 -91 
Q 1428 -91 1123 -41 
Q 819 9 494 109 
L 494 744 
Q 775 591 1075 516 
Q 1375 441 1709 441 
Q 2250 441 2565 725 
Q 2881 1009 2881 1497 
Q 2881 1984 2565 2268 
Q 2250 2553 1709 2553 
Q 1456 2553 1204 2497 
Q 953 2441 691 2322 
L 691 4666 
z
" transform="scale(0.015625)"/>
       </defs>
       <use xlink:href="#DejaVuSans-30"/>
       <use xlink:href="#DejaVuSans-2e" x="63.623047"/>
       <use xlink:href="#DejaVuSans-30" x="95.410156"/>
       <use xlink:href="#DejaVuSans-35" x="159.033203"/>
      </g>
     </g>
    </g>
    <g id="ytick_7">
     <g id="line2d_23">
      <path d="M 182.4768 189.51886 
L 1022.976 189.51886 
" clip-path="url(#pda9d8e38b7)" style="fill: none; stroke: #b0b0b0; stroke-width: 0.8; stroke-linecap: square"/>
     </g>
     <g id="line2d_24">
      <g>
       <use xlink:href="#m597a3d8037" x="182.4768" y="189.51886" style="stroke: #000000; stroke-width: 0.8"/>
      </g>
     </g>
     <g id="text_13">
      <!-- 0.06 -->
      <g transform="translate(153.211175 193.318078) scale(0.1 -0.1)">
       <defs>
        <path id="DejaVuSans-36" d="M 2113 2584 
Q 1688 2584 1439 2293 
Q 1191 2003 1191 1497 
Q 1191 994 1439 701 
Q 1688 409 2113 409 
Q 2538 409 2786 701 
Q 3034 994 3034 1497 
Q 3034 2003 2786 2293 
Q 2538 2584 2113 2584 
z
M 3366 4563 
L 3366 3988 
Q 3128 4100 2886 4159 
Q 2644 4219 2406 4219 
Q 1781 4219 1451 3797 
Q 1122 3375 1075 2522 
Q 1259 2794 1537 2939 
Q 1816 3084 2150 3084 
Q 2853 3084 3261 2657 
Q 3669 2231 3669 1497 
Q 3669 778 3244 343 
Q 2819 -91 2113 -91 
Q 1303 -91 875 529 
Q 447 1150 447 2328 
Q 447 3434 972 4092 
Q 1497 4750 2381 4750 
Q 2619 4750 2861 4703 
Q 3103 4656 3366 4563 
z
" transform="scale(0.015625)"/>
       </defs>
       <use xlink:href="#DejaVuSans-30"/>
       <use xlink:href="#DejaVuSans-2e" x="63.623047"/>
       <use xlink:href="#DejaVuSans-30" x="95.410156"/>
       <use xlink:href="#DejaVuSans-36" x="159.033203"/>
      </g>
     </g>
    </g>
    <g id="ytick_8">
     <g id="line2d_25">
      <path d="M 182.4768 132.9382 
L 1022.976 132.9382 
" clip-path="url(#pda9d8e38b7)" style="fill: none; stroke: #b0b0b0; stroke-width: 0.8; stroke-linecap: square"/>
     </g>
     <g id="line2d_26">
      <g>
       <use xlink:href="#m597a3d8037" x="182.4768" y="132.9382" style="stroke: #000000; stroke-width: 0.8"/>
      </g>
     </g>
     <g id="text_14">
      <!-- 0.07 -->
      <g transform="translate(153.211175 136.737419) scale(0.1 -0.1)">
       <defs>
        <path id="DejaVuSans-37" d="M 525 4666 
L 3525 4666 
L 3525 4397 
L 1831 0 
L 1172 0 
L 2766 4134 
L 525 4134 
L 525 4666 
z
" transform="scale(0.015625)"/>
       </defs>
       <use xlink:href="#DejaVuSans-30"/>
       <use xlink:href="#DejaVuSans-2e" x="63.623047"/>
       <use xlink:href="#DejaVuSans-30" x="95.410156"/>
       <use xlink:href="#DejaVuSans-37" x="159.033203"/>
      </g>
     </g>
    </g>
    <g id="ytick_9">
     <g id="line2d_27">
      <path d="M 182.4768 76.35754 
L 1022.976 76.35754 
" clip-path="url(#pda9d8e38b7)" style="fill: none; stroke: #b0b0b0; stroke-width: 0.8; stroke-linecap: square"/>
     </g>
     <g id="line2d_28">
      <g>
       <use xlink:href="#m597a3d8037" x="182.4768" y="76.35754" style="stroke: #000000; stroke-width: 0.8"/>
      </g>
     </g>
     <g id="text_15">
      <!-- 0.08 -->
      <g transform="translate(153.211175 80.156759) scale(0.1 -0.1)">
       <defs>
        <path id="DejaVuSans-38" d="M 2034 2216 
Q 1584 2216 1326 1975 
Q 1069 1734 1069 1313 
Q 1069 891 1326 650 
Q 1584 409 2034 409 
Q 2484 409 2743 651 
Q 3003 894 3003 1313 
Q 3003 1734 2745 1975 
Q 2488 2216 2034 2216 
z
M 1403 2484 
Q 997 2584 770 2862 
Q 544 3141 544 3541 
Q 544 4100 942 4425 
Q 1341 4750 2034 4750 
Q 2731 4750 3128 4425 
Q 3525 4100 3525 3541 
Q 3525 3141 3298 2862 
Q 3072 2584 2669 2484 
Q 3125 2378 3379 2068 
Q 3634 1759 3634 1313 
Q 3634 634 3220 271 
Q 2806 -91 2034 -91 
Q 1263 -91 848 271 
Q 434 634 434 1313 
Q 434 1759 690 2068 
Q 947 2378 1403 2484 
z
M 1172 3481 
Q 1172 3119 1398 2916 
Q 1625 2713 2034 2713 
Q 2441 2713 2670 2916 
Q 2900 3119 2900 3481 
Q 2900 3844 2670 4047 
Q 2441 4250 2034 4250 
Q 1625 4250 1398 4047 
Q 1172 3844 1172 3481 
z
" transform="scale(0.015625)"/>
       </defs>
       <use xlink:href="#DejaVuSans-30"/>
       <use xlink:href="#DejaVuSans-2e" x="63.623047"/>
       <use xlink:href="#DejaVuSans-30" x="95.410156"/>
       <use xlink:href="#DejaVuSans-38" x="159.033203"/>
      </g>
     </g>
    </g>
    <g id="text_16">
     <!-- intensity -->
     <g transform="translate(147.131488 329.647562) rotate(-90) scale(0.1 -0.1)">
      <defs>
       <path id="DejaVuSans-69" d="M 603 3500 
L 1178 3500 
L 1178 0 
L 603 0 
L 603 3500 
z
M 603 4863 
L 1178 4863 
L 1178 4134 
L 603 4134 
L 603 4863 
z
" transform="scale(0.015625)"/>
       <path id="DejaVuSans-6e" d="M 3513 2113 
L 3513 0 
L 2938 0 
L 2938 2094 
Q 2938 2591 2744 2837 
Q 2550 3084 2163 3084 
Q 1697 3084 1428 2787 
Q 1159 2491 1159 1978 
L 1159 0 
L 581 0 
L 581 3500 
L 1159 3500 
L 1159 2956 
Q 1366 3272 1645 3428 
Q 1925 3584 2291 3584 
Q 2894 3584 3203 3211 
Q 3513 2838 3513 2113 
z
" transform="scale(0.015625)"/>
       <path id="DejaVuSans-74" d="M 1172 4494 
L 1172 3500 
L 2356 3500 
L 2356 3053 
L 1172 3053 
L 1172 1153 
Q 1172 725 1289 603 
Q 1406 481 1766 481 
L 2356 481 
L 2356 0 
L 1766 0 
Q 1100 0 847 248 
Q 594 497 594 1153 
L 594 3053 
L 172 3053 
L 172 3500 
L 594 3500 
L 594 4494 
L 1172 4494 
z
" transform="scale(0.015625)"/>
       <path id="DejaVuSans-65" d="M 3597 1894 
L 3597 1613 
L 953 1613 
Q 991 1019 1311 708 
Q 1631 397 2203 397 
Q 2534 397 2845 478 
Q 3156 559 3463 722 
L 3463 178 
Q 3153 47 2828 -22 
Q 2503 -91 2169 -91 
Q 1331 -91 842 396 
Q 353 884 353 1716 
Q 353 2575 817 3079 
Q 1281 3584 2069 3584 
Q 2775 3584 3186 3129 
Q 3597 2675 3597 1894 
z
M 3022 2063 
Q 3016 2534 2758 2815 
Q 2500 3097 2075 3097 
Q 1594 3097 1305 2825 
Q 1016 2553 972 2059 
L 3022 2063 
z
" transform="scale(0.015625)"/>
       <path id="DejaVuSans-73" d="M 2834 3397 
L 2834 2853 
Q 2591 2978 2328 3040 
Q 2066 3103 1784 3103 
Q 1356 3103 1142 2972 
Q 928 2841 928 2578 
Q 928 2378 1081 2264 
Q 1234 2150 1697 2047 
L 1894 2003 
Q 2506 1872 2764 1633 
Q 3022 1394 3022 966 
Q 3022 478 2636 193 
Q 2250 -91 1575 -91 
Q 1294 -91 989 -36 
Q 684 19 347 128 
L 347 722 
Q 666 556 975 473 
Q 1284 391 1588 391 
Q 1994 391 2212 530 
Q 2431 669 2431 922 
Q 2431 1156 2273 1281 
Q 2116 1406 1581 1522 
L 1381 1569 
Q 847 1681 609 1914 
Q 372 2147 372 2553 
Q 372 3047 722 3315 
Q 1072 3584 1716 3584 
Q 2034 3584 2315 3537 
Q 2597 3491 2834 3397 
z
" transform="scale(0.015625)"/>
       <path id="DejaVuSans-79" d="M 2059 -325 
Q 1816 -950 1584 -1140 
Q 1353 -1331 966 -1331 
L 506 -1331 
L 506 -850 
L 844 -850 
Q 1081 -850 1212 -737 
Q 1344 -625 1503 -206 
L 1606 56 
L 191 3500 
L 800 3500 
L 1894 763 
L 2988 3500 
L 3597 3500 
L 2059 -325 
z
" transform="scale(0.015625)"/>
      </defs>
      <use xlink:href="#DejaVuSans-69"/>
      <use xlink:href="#DejaVuSans-6e" x="27.783203"/>
      <use xlink:href="#DejaVuSans-74" x="91.162109"/>
      <use xlink:href="#DejaVuSans-65" x="130.371094"/>
      <use xlink:href="#DejaVuSans-6e" x="191.894531"/>
      <use xlink:href="#DejaVuSans-73" x="255.273438"/>
      <use xlink:href="#DejaVuSans-69" x="307.373047"/>
      <use xlink:href="#DejaVuSans-74" x="335.15625"/>
      <use xlink:href="#DejaVuSans-79" x="374.365234"/>
     </g>
    </g>
   </g>
   <g id="line2d_29">
    <path d="M 220.681309 529.002818 
L 452.964724 528.919662 
L 465.190167 528.725844 
L 474.359249 528.364316 
L 480.471971 527.923672 
L 486.584692 527.22503 
L 492.697414 526.148108 
L 495.753775 525.419926 
L 498.810135 524.534687 
L 501.866496 523.466276 
L 504.922857 522.186154 
L 507.979217 520.663594 
L 511.035578 518.86604 
L 514.091939 516.759624 
L 517.1483 514.309832 
L 520.20466 511.482343 
L 523.261021 508.244019 
L 526.317382 504.564062 
L 529.373743 500.415299 
L 532.430103 495.775571 
L 535.486464 490.629199 
L 538.542825 484.968458 
L 541.599185 478.795026 
L 544.655546 472.121314 
L 547.711907 464.971633 
L 550.768268 457.383114 
L 553.824628 449.406309 
L 559.93735 432.558075 
L 572.162793 397.875305 
L 575.219153 389.655399 
L 578.275514 381.864919 
L 581.331875 374.630052 
L 584.388236 368.072698 
L 587.444596 362.307078 
L 590.500957 357.43644 
L 593.557318 353.549988 
L 596.613679 350.720164 
L 599.670039 349.000409 
L 602.7264 348.423479 
L 605.782761 349.000409 
L 608.839121 350.720164 
L 611.895482 353.549988 
L 614.951843 357.43644 
L 618.008204 362.307078 
L 621.064564 368.072698 
L 624.120925 374.630052 
L 627.177286 381.864919 
L 630.233647 389.655399 
L 636.346368 406.39752 
L 648.571811 441.105417 
L 651.628172 449.406309 
L 654.684532 457.383114 
L 657.740893 464.971633 
L 660.797254 472.121314 
L 663.853615 478.795026 
L 666.909975 484.968458 
L 669.966336 490.629199 
L 673.022697 495.775571 
L 676.079057 500.415299 
L 679.135418 504.564062 
L 682.191779 508.244019 
L 685.24814 511.482343 
L 688.3045 514.309832 
L 691.360861 516.759624 
L 694.417222 518.86604 
L 697.473583 520.663594 
L 700.529943 522.186154 
L 703.586304 523.466276 
L 706.642665 524.534687 
L 709.699025 525.419926 
L 712.755386 526.148108 
L 718.868108 527.22503 
L 724.980829 527.923672 
L 731.093551 528.364316 
L 740.262633 528.725844 
L 752.488076 528.919662 
L 776.938961 528.997305 
L 984.771491 529.002818 
L 984.771491 529.002818 
" clip-path="url(#pda9d8e38b7)" style="fill: none; stroke: #1f77b4; stroke-width: 1.5; stroke-linecap: square"/>
   </g>
   <g id="line2d_30">
    <path d="M 220.681309 529.002818 
L 452.964724 528.91764 
L 465.190167 528.720183 
L 474.359249 528.353035 
L 480.471971 527.906521 
L 486.584692 527.199821 
L 489.641053 526.712639 
L 492.697414 526.112322 
L 495.753775 525.377848 
L 498.810135 524.485666 
L 501.866496 523.409738 
L 504.922857 522.121695 
L 507.979217 520.591064 
L 511.035578 518.785507 
L 514.091939 516.671042 
L 517.1483 514.212363 
L 520.20466 511.373771 
L 523.261021 508.121529 
L 526.317382 504.428142 
L 529.373743 500.277237 
L 532.430103 495.664633 
L 535.486464 490.58913 
L 538.542825 485.03026 
L 541.599185 478.922841 
L 544.655546 472.155033 
L 547.711907 464.621462 
L 550.768268 456.33739 
L 556.880989 438.855135 
L 559.93735 430.926173 
L 562.993711 424.392969 
L 566.050071 419.479483 
L 569.106432 415.873699 
L 572.162793 412.79026 
L 575.219153 409.159383 
L 578.275514 403.779625 
L 581.331875 395.296993 
L 584.388236 381.961776 
L 587.444596 361.214089 
L 590.500957 345.659141 
L 593.557318 334.4596 
L 596.613679 326.707797 
L 599.670039 321.999082 
L 602.7264 320.39558 
L 605.782761 321.999082 
L 608.839121 326.707797 
L 611.895482 334.4596 
L 614.951843 345.659141 
L 618.008204 361.214089 
L 621.064564 381.961776 
L 624.120925 395.296993 
L 627.177286 403.779625 
L 630.233647 409.159383 
L 633.290007 412.79026 
L 636.346368 415.873699 
L 639.402729 419.479483 
L 642.459089 424.392969 
L 645.51545 430.926173 
L 648.571811 438.855135 
L 654.684532 456.33739 
L 657.740893 464.621462 
L 660.797254 472.155033 
L 663.853615 478.922841 
L 666.909975 485.03026 
L 669.966336 490.58913 
L 673.022697 495.664633 
L 676.079057 500.277237 
L 679.135418 504.428142 
L 682.191779 508.121529 
L 685.24814 511.373771 
L 688.3045 514.212363 
L 691.360861 516.671042 
L 694.417222 518.785507 
L 697.473583 520.591064 
L 700.529943 522.121695 
L 703.586304 523.409738 
L 706.642665 524.485666 
L 709.699025 525.377848 
L 712.755386 526.112322 
L 718.868108 527.199821 
L 724.980829 527.906521 
L 731.093551 528.353035 
L 740.262633 528.720183 
L 752.488076 528.91764 
L 776.938961 528.997126 
L 978.658769 529.002818 
L 984.771491 529.002818 
L 984.771491 529.002818 
" clip-path="url(#pda9d8e38b7)" style="fill: none; stroke: #ff7f0e; stroke-width: 1.5; stroke-linecap: square"/>
   </g>
   <g id="line2d_31">
    <path d="M 220.681309 529.002818 
L 452.964724 528.912113 
L 465.190167 528.705023 
L 474.359249 528.322856 
L 480.471971 527.860467 
L 486.584692 527.134473 
L 489.641053 526.637289 
L 492.697414 526.025937 
L 495.753775 525.276524 
L 498.810135 524.360673 
L 501.866496 523.247736 
L 504.922857 521.909711 
L 507.979217 520.327376 
L 511.035578 518.493562 
L 514.091939 516.408145 
L 517.1483 514.061623 
L 520.20466 511.410748 
L 523.261021 508.358081 
L 526.317382 504.751965 
L 529.373743 500.418551 
L 532.430103 495.222757 
L 535.486464 489.137012 
L 538.542825 482.286934 
L 547.711907 460.36575 
L 550.768268 453.896951 
L 553.824628 448.400775 
L 556.880989 444.102626 
L 559.93735 441.149325 
L 562.993711 439.57092 
L 566.050071 439.192463 
L 569.106432 439.511982 
L 572.162793 439.584733 
L 575.219153 437.953207 
L 578.275514 432.636517 
L 581.331875 421.155975 
L 584.388236 400.544534 
L 590.500957 333.692869 
L 593.557318 302.519462 
L 596.613679 276.986982 
L 599.670039 260.176989 
L 602.7264 254.305061 
L 605.782761 260.176989 
L 608.839121 276.986982 
L 611.895482 302.519462 
L 614.951843 333.692869 
L 621.064564 400.544534 
L 624.120925 421.155975 
L 627.177286 432.636517 
L 630.233647 437.953207 
L 633.290007 439.584733 
L 636.346368 439.511982 
L 639.402729 439.192463 
L 642.459089 439.57092 
L 645.51545 441.149325 
L 648.571811 444.102626 
L 651.628172 448.400775 
L 654.684532 453.896951 
L 657.740893 460.36575 
L 660.797254 467.507062 
L 666.909975 482.286934 
L 669.966336 489.137012 
L 673.022697 495.222757 
L 676.079057 500.418551 
L 679.135418 504.751965 
L 682.191779 508.358081 
L 685.24814 511.410748 
L 688.3045 514.061623 
L 691.360861 516.408145 
L 694.417222 518.493562 
L 697.473583 520.327376 
L 700.529943 521.909711 
L 703.586304 523.247736 
L 706.642665 524.360673 
L 709.699025 525.276524 
L 712.755386 526.025937 
L 715.811747 526.637289 
L 721.924468 527.536897 
L 728.03719 528.1186 
L 734.149911 528.483227 
L 743.318993 528.779472 
L 758.600797 528.954633 
L 792.220765 529.001874 
L 984.771491 529.002818 
L 984.771491 529.002818 
" clip-path="url(#pda9d8e38b7)" style="fill: none; stroke: #2ca02c; stroke-width: 1.5; stroke-linecap: square"/>
   </g>
   <g id="line2d_32">
    <path d="M 220.681309 529.002818 
L 452.964724 528.902471 
L 465.190167 528.678293 
L 474.359249 528.284287 
L 480.471971 527.796602 
L 486.584692 526.987299 
L 492.697414 525.75477 
L 498.810135 524.09421 
L 501.866496 523.100091 
L 504.922857 521.959583 
L 507.979217 520.603805 
L 511.035578 518.929763 
L 514.091939 516.81254 
L 517.1483 514.126612 
L 520.20466 510.770058 
L 523.261021 506.684811 
L 526.317382 501.869154 
L 529.373743 496.383428 
L 532.430103 490.353326 
L 541.599185 471.33427 
L 544.655546 465.82739 
L 547.711907 461.426339 
L 550.768268 458.51435 
L 553.824628 457.348183 
L 556.880989 457.974406 
L 559.93735 460.160982 
L 566.050071 466.683042 
L 569.106432 468.949918 
L 572.162793 468.684678 
L 575.219153 464.151362 
L 578.275514 453.342168 
L 581.331875 433.921087 
L 584.388236 403.101803 
L 593.557318 267.392531 
L 596.613679 232.341177 
L 599.670039 209.504619 
L 602.7264 201.576115 
L 605.782761 209.504619 
L 608.839121 232.341177 
L 611.895482 267.392531 
L 614.951843 310.653961 
L 621.064564 403.101803 
L 624.120925 433.921087 
L 627.177286 453.342168 
L 630.233647 464.151362 
L 633.290007 468.684678 
L 636.346368 468.949918 
L 639.402729 466.683042 
L 645.51545 460.160982 
L 648.571811 457.974406 
L 651.628172 457.348183 
L 654.684532 458.51435 
L 657.740893 461.426339 
L 660.797254 465.82739 
L 663.853615 471.33427 
L 666.909975 477.519195 
L 673.022697 490.353326 
L 676.079057 496.383428 
L 679.135418 501.869154 
L 682.191779 506.684811 
L 685.24814 510.770058 
L 688.3045 514.126612 
L 691.360861 516.81254 
L 694.417222 518.929763 
L 697.473583 520.603805 
L 700.529943 521.959583 
L 703.586304 523.100091 
L 709.699025 524.976203 
L 715.811747 526.426393 
L 721.924468 527.440406 
L 728.03719 528.072075 
L 734.149911 528.448704 
L 743.318993 528.757587 
L 755.544436 528.929316 
L 783.051683 528.999368 
L 984.771491 529.002818 
L 984.771491 529.002818 
" clip-path="url(#pda9d8e38b7)" style="fill: none; stroke: #d62728; stroke-width: 1.5; stroke-linecap: square"/>
   </g>
   <g id="line2d_33">
    <path d="M 220.681309 529.002818 
L 452.964724 528.891988 
L 465.190167 528.650029 
L 471.302889 528.350081 
L 477.41561 527.869332 
L 483.528332 527.221183 
L 489.641053 526.413021 
L 492.697414 525.913012 
L 495.753775 525.297843 
L 498.810135 524.506002 
L 501.866496 523.45941 
L 504.922857 522.067481 
L 507.979217 520.232937 
L 511.035578 517.859739 
L 514.091939 514.864058 
L 517.1483 511.189145 
L 520.20466 506.823842 
L 523.261021 501.822471 
L 526.317382 496.321813 
L 532.430103 484.819486 
L 535.486464 479.50911 
L 538.542825 475.022403 
L 541.599185 471.739642 
L 544.655546 469.962654 
L 547.711907 469.86317 
L 550.768268 471.441548 
L 553.824628 474.500505 
L 556.880989 478.634926 
L 559.93735 483.235187 
L 562.993711 487.498411 
L 566.050071 490.440105 
L 569.106432 490.897821 
L 572.162793 487.518373 
L 575.219153 478.720483 
L 578.275514 462.624623 
L 581.331875 436.940973 
L 584.388236 398.804014 
L 590.500957 289.042924 
L 593.557318 237.985572 
L 596.613679 196.833635 
L 599.670039 170.130844 
L 602.7264 160.880136 
L 605.782761 170.130844 
L 608.839121 196.833635 
L 611.895482 237.985572 
L 614.951843 289.042924 
L 621.064564 398.804014 
L 624.120925 436.940973 
L 627.177286 462.624623 
L 630.233647 478.720483 
L 633.290007 487.518373 
L 636.346368 490.897821 
L 639.402729 490.440105 
L 642.459089 487.498411 
L 645.51545 483.235187 
L 648.571811 478.634926 
L 651.628172 474.500505 
L 654.684532 471.441548 
L 657.740893 469.86317 
L 660.797254 469.962654 
L 663.853615 471.739642 
L 666.909975 475.022403 
L 669.966336 479.50911 
L 673.022697 484.819486 
L 682.191779 501.822471 
L 685.24814 506.823842 
L 688.3045 511.189145 
L 691.360861 514.864058 
L 694.417222 517.859739 
L 697.473583 520.232937 
L 700.529943 522.067481 
L 703.586304 523.45941 
L 706.642665 524.506002 
L 709.699025 525.297843 
L 712.755386 525.913012 
L 718.868108 526.840795 
L 724.980829 527.564055 
L 731.093551 528.13263 
L 737.206272 528.521277 
L 746.375354 528.80977 
L 761.657158 528.955821 
L 798.333487 529.002172 
L 984.771491 529.002818 
L 984.771491 529.002818 
" clip-path="url(#pda9d8e38b7)" style="fill: none; stroke: #9467bd; stroke-width: 1.5; stroke-linecap: square"/>
   </g>
   <g id="line2d_34">
    <path d="M 220.681309 529.002818 
L 449.908364 528.909604 
L 459.077446 528.72201 
L 471.302889 528.218833 
L 480.471971 527.702952 
L 486.584692 527.169918 
L 489.641053 526.750235 
L 492.697414 526.150866 
L 495.753775 525.293706 
L 498.810135 524.088163 
L 501.866496 522.438386 
L 504.922857 520.254671 
L 507.979217 517.46847 
L 511.035578 514.049315 
L 514.091939 510.020967 
L 517.1483 505.473634 
L 526.317382 490.661039 
L 529.373743 486.254925 
L 532.430103 482.634315 
L 535.486464 480.083177 
L 538.542825 478.821949 
L 541.599185 478.979713 
L 544.655546 480.573101 
L 547.711907 483.493048 
L 550.768268 487.499062 
L 553.824628 492.219253 
L 556.880989 497.153325 
L 559.93735 501.674989 
L 562.993711 505.029929 
L 566.050071 506.325237 
L 569.106432 504.506136 
L 572.162793 498.315493 
L 575.219153 486.23092 
L 578.275514 466.372962 
L 581.331875 436.375672 
L 584.388236 393.207587 
L 590.500957 271.405051 
L 593.557318 214.956453 
L 596.613679 169.572186 
L 599.670039 140.17687 
L 602.7264 130.003123 
L 605.782761 140.17687 
L 608.839121 169.572186 
L 611.895482 214.956453 
L 614.951843 271.405051 
L 621.064564 393.207587 
L 624.120925 436.375672 
L 627.177286 466.372962 
L 630.233647 486.23092 
L 633.290007 498.315493 
L 636.346368 504.506136 
L 639.402729 506.325237 
L 642.459089 505.029929 
L 645.51545 501.674989 
L 648.571811 497.153325 
L 651.628172 492.219253 
L 654.684532 487.499062 
L 657.740893 483.493048 
L 660.797254 480.573101 
L 663.853615 478.979713 
L 666.909975 478.821949 
L 669.966336 480.083177 
L 673.022697 482.634315 
L 676.079057 486.254925 
L 679.135418 490.661039 
L 691.360861 510.020967 
L 694.417222 514.049315 
L 697.473583 517.46847 
L 700.529943 520.254671 
L 703.586304 522.438386 
L 706.642665 524.088163 
L 709.699025 525.293706 
L 712.755386 526.150866 
L 715.811747 526.750235 
L 718.868108 527.169918 
L 724.980829 527.702952 
L 737.206272 528.365385 
L 749.431715 528.803728 
L 761.657158 528.957941 
L 801.389847 529.002295 
L 984.771491 529.002818 
L 984.771491 529.002818 
" clip-path="url(#pda9d8e38b7)" style="fill: none; stroke: #8c564b; stroke-width: 1.5; stroke-linecap: square"/>
   </g>
   <g id="line2d_35">
    <path d="M 220.681309 529.002818 
L 443.795642 528.91416 
L 462.133807 528.573893 
L 477.41561 528.195777 
L 480.471971 527.996296 
L 483.528332 527.665181 
L 486.584692 527.136559 
L 489.641053 526.334023 
L 492.697414 525.176686 
L 495.753775 523.587947 
L 498.810135 521.506268 
L 501.866496 518.896748 
L 504.922857 515.761901 
L 507.979217 512.149928 
L 511.035578 508.158942 
L 520.20466 495.584831 
L 523.261021 491.913133 
L 526.317382 488.888733 
L 529.373743 486.721762 
L 532.430103 485.581414 
L 535.486464 485.579979 
L 538.542825 486.760284 
L 541.599185 489.086942 
L 544.655546 492.441153 
L 547.711907 496.618263 
L 556.880989 510.728313 
L 559.93735 514.380511 
L 562.993711 516.460664 
L 566.050071 516.149236 
L 569.106432 512.454466 
L 572.162793 504.16043 
L 575.219153 489.753872 
L 578.275514 467.323032 
L 581.331875 434.419301 
L 584.388236 387.869028 
L 590.500957 258.003188 
L 593.557318 198.03138 
L 596.613679 149.90753 
L 599.670039 118.779884 
L 602.7264 108.014028 
L 605.782761 118.779884 
L 608.839121 149.90753 
L 611.895482 198.03138 
L 614.951843 258.003188 
L 621.064564 387.869028 
L 624.120925 434.419301 
L 627.177286 467.323032 
L 630.233647 489.753872 
L 633.290007 504.16043 
L 636.346368 512.454466 
L 639.402729 516.149236 
L 642.459089 516.460664 
L 645.51545 514.380511 
L 648.571811 510.728313 
L 651.628172 506.187096 
L 657.740893 496.618263 
L 660.797254 492.441153 
L 663.853615 489.086942 
L 666.909975 486.760284 
L 669.966336 485.579979 
L 673.022697 485.581414 
L 676.079057 486.721762 
L 679.135418 488.888733 
L 682.191779 491.913133 
L 685.24814 495.584831 
L 691.360861 503.93609 
L 694.417222 508.158942 
L 697.473583 512.149928 
L 700.529943 515.761901 
L 703.586304 518.896748 
L 706.642665 521.506268 
L 709.699025 523.587947 
L 712.755386 525.176686 
L 715.811747 526.334023 
L 718.868108 527.136559 
L 721.924468 527.665181 
L 724.980829 527.996296 
L 731.093551 528.31578 
L 752.488076 528.76626 
L 767.769879 528.966943 
L 798.333487 529.000927 
L 984.771491 529.002818 
L 984.771491 529.002818 
" clip-path="url(#pda9d8e38b7)" style="fill: none; stroke: #e377c2; stroke-width: 1.5; stroke-linecap: square"/>
   </g>
   <g id="line2d_36">
    <path d="M 220.681309 529.002818 
L 437.682921 528.907951 
L 462.133807 528.753839 
L 468.246528 528.716698 
L 474.359249 528.434678 
L 477.41561 528.092602 
L 480.471971 527.540621 
L 483.528332 526.716602 
L 486.584692 525.560769 
L 489.641053 524.02254 
L 492.697414 522.067831 
L 495.753775 519.685992 
L 498.810135 516.895499 
L 501.866496 513.747596 
L 507.979217 506.751315 
L 514.091939 499.725746 
L 517.1483 496.610989 
L 520.20466 493.989634 
L 523.261021 492.019504 
L 526.317382 490.834652 
L 529.373743 490.535562 
L 532.430103 491.180938 
L 535.486464 492.781325 
L 538.542825 495.294477 
L 541.599185 498.622165 
L 544.655546 502.607837 
L 553.824628 516.017769 
L 556.880989 519.797811 
L 559.93735 522.443128 
L 562.993711 523.324788 
L 566.050071 521.673532 
L 569.106432 516.538343 
L 572.162793 506.729002 
L 575.219153 490.737393 
L 578.275514 466.630496 
L 581.331875 431.90547 
L 584.388236 383.293721 
L 590.500957 248.702236 
L 593.557318 186.80367 
L 596.613679 137.23085 
L 599.670039 105.208125 
L 602.7264 94.140004 
L 605.782761 105.208125 
L 608.839121 137.23085 
L 611.895482 186.80367 
L 614.951843 248.702236 
L 621.064564 383.293721 
L 624.120925 431.90547 
L 627.177286 466.630496 
L 630.233647 490.737393 
L 633.290007 506.729002 
L 636.346368 516.538343 
L 639.402729 521.673532 
L 642.459089 523.324788 
L 645.51545 522.443128 
L 648.571811 519.797811 
L 651.628172 516.017769 
L 657.740893 507.034368 
L 660.797254 502.607837 
L 663.853615 498.622165 
L 666.909975 495.294477 
L 669.966336 492.781325 
L 673.022697 491.180938 
L 676.079057 490.535562 
L 679.135418 490.834652 
L 682.191779 492.019504 
L 685.24814 493.989634 
L 688.3045 496.610989 
L 691.360861 499.725746 
L 697.473583 506.751315 
L 703.586304 513.747596 
L 706.642665 516.895499 
L 709.699025 519.685992 
L 712.755386 522.067831 
L 715.811747 524.02254 
L 718.868108 525.560769 
L 721.924468 526.716602 
L 724.980829 527.540621 
L 728.03719 528.092602 
L 731.093551 528.434678 
L 737.206272 528.716698 
L 749.431715 528.752278 
L 770.82624 528.935124 
L 795.277126 529.002209 
L 984.771491 529.002818 
L 984.771491 529.002818 
" clip-path="url(#pda9d8e38b7)" style="fill: none; stroke: #7f7f7f; stroke-width: 1.5; stroke-linecap: square"/>
   </g>
   <g id="line2d_37">
    <path d="M 220.681309 529.002818 
L 431.570199 528.903267 
L 449.908364 528.896107 
L 462.133807 528.892672 
L 465.190167 528.768287 
L 468.246528 528.529314 
L 471.302889 528.132741 
L 474.359249 527.532929 
L 477.41561 526.685064 
L 480.471971 525.549297 
L 483.528332 524.095217 
L 486.584692 522.306252 
L 489.641053 520.183551 
L 492.697414 517.74892 
L 495.753775 515.046449 
L 501.866496 509.124511 
L 507.979217 503.177784 
L 511.035578 500.4917 
L 514.091939 498.164344 
L 517.1483 496.3152 
L 520.20466 495.050947 
L 523.261021 494.459201 
L 526.317382 494.602962 
L 529.373743 495.515916 
L 532.430103 497.198638 
L 535.486464 499.615564 
L 538.542825 502.692519 
L 541.599185 506.314438 
L 547.711907 514.512159 
L 550.768268 518.625086 
L 553.824628 522.344525 
L 556.880989 525.282545 
L 559.93735 526.96404 
L 562.993711 526.803616 
L 566.050071 524.073362 
L 569.106432 517.858468 
L 572.162793 506.996671 
L 575.219153 489.996086 
L 578.275514 464.924142 
L 581.331875 429.25769 
L 584.388236 379.68082 
L 590.500957 243.192195 
L 593.557318 180.721607 
L 596.613679 130.796967 
L 599.670039 98.591922 
L 602.7264 87.468475 
L 605.782761 98.591922 
L 608.839121 130.796967 
L 611.895482 180.721607 
L 614.951843 243.192195 
L 621.064564 379.68082 
L 624.120925 429.25769 
L 627.177286 464.924142 
L 630.233647 489.996086 
L 633.290007 506.996671 
L 636.346368 517.858468 
L 639.402729 524.073362 
L 642.459089 526.803616 
L 645.51545 526.96404 
L 648.571811 525.282545 
L 651.628172 522.344525 
L 654.684532 518.625086 
L 663.853615 506.314438 
L 666.909975 502.692519 
L 669.966336 499.615564 
L 673.022697 497.198638 
L 676.079057 495.515916 
L 679.135418 494.602962 
L 682.191779 494.459201 
L 685.24814 495.050947 
L 688.3045 496.3152 
L 691.360861 498.164344 
L 694.417222 500.4917 
L 697.473583 503.177784 
L 703.586304 509.124511 
L 709.699025 515.046449 
L 712.755386 517.74892 
L 715.811747 520.183551 
L 718.868108 522.306252 
L 721.924468 524.095217 
L 724.980829 525.549297 
L 728.03719 526.685064 
L 731.093551 527.532929 
L 734.149911 528.132741 
L 737.206272 528.529314 
L 740.262633 528.768287 
L 746.375354 528.940283 
L 984.771491 529.002818 
L 984.771491 529.002818 
" clip-path="url(#pda9d8e38b7)" style="fill: none; stroke: #bcbd22; stroke-width: 1.5; stroke-linecap: square"/>
   </g>
   <g id="line2d_38">
    <path d="M 220.681309 529.002818 
L 452.964724 528.962981 
L 459.077446 528.684887 
L 462.133807 528.385098 
L 465.190167 527.935037 
L 468.246528 527.301777 
L 471.302889 526.454764 
L 474.359249 525.368523 
L 477.41561 524.025417 
L 480.471971 522.418237 
L 483.528332 520.552398 
L 486.584692 518.447522 
L 489.641053 516.138242 
L 495.753775 511.118665 
L 501.866496 506.044945 
L 504.922857 503.702098 
L 507.979217 501.611458 
L 511.035578 499.863545 
L 514.091939 498.542536 
L 517.1483 497.722199 
L 520.20466 497.462095 
L 523.261021 497.80419 
L 526.317382 498.7699 
L 529.373743 500.357578 
L 532.430103 502.540344 
L 535.486464 505.264126 
L 538.542825 508.445673 
L 541.599185 511.970229 
L 547.711907 519.412293 
L 550.768268 522.908501 
L 553.824628 525.890101 
L 556.880989 528.003649 
L 559.93735 528.811606 
L 562.993711 527.767841 
L 566.050071 524.183966 
L 569.106432 517.183417 
L 572.162793 505.639138 
L 575.219153 488.089295 
L 578.275514 462.623528 
L 581.331875 426.729556 
L 584.388236 377.086336 
L 590.500957 241.034016 
L 593.557318 179.101374 
L 596.613679 129.721853 
L 599.670039 97.91645 
L 602.7264 86.939182 
L 605.782761 97.91645 
L 608.839121 129.721853 
L 611.895482 179.101374 
L 614.951843 241.034016 
L 621.064564 377.086336 
L 624.120925 426.729556 
L 627.177286 462.623528 
L 630.233647 488.089295 
L 633.290007 505.639138 
L 636.346368 517.183417 
L 639.402729 524.183966 
L 642.459089 527.767841 
L 645.51545 528.811606 
L 648.571811 528.003649 
L 651.628172 525.890101 
L 654.684532 522.908501 
L 657.740893 519.412293 
L 663.853615 511.970229 
L 666.909975 508.445673 
L 669.966336 505.264126 
L 673.022697 502.540344 
L 676.079057 500.357578 
L 679.135418 498.7699 
L 682.191779 497.80419 
L 685.24814 497.462095 
L 688.3045 497.722199 
L 691.360861 498.542536 
L 694.417222 499.863545 
L 697.473583 501.611458 
L 700.529943 503.702098 
L 703.586304 506.044945 
L 718.868108 518.447522 
L 721.924468 520.552398 
L 724.980829 522.418237 
L 728.03719 524.025417 
L 731.093551 525.368523 
L 734.149911 526.454764 
L 737.206272 527.301777 
L 740.262633 527.935037 
L 743.318993 528.385098 
L 746.375354 528.684887 
L 752.488076 528.962981 
L 761.657158 528.978643 
L 779.995322 528.905441 
L 838.066176 529.002255 
L 984.771491 529.002818 
L 984.771491 529.002818 
" clip-path="url(#pda9d8e38b7)" style="fill: none; stroke: #17becf; stroke-width: 1.5; stroke-linecap: square"/>
   </g>
   <g id="line2d_39">
    <path d="M 220.681309 529.002818 
L 443.795642 528.93605 
L 449.908364 528.70002 
L 456.021085 528.111248 
L 459.077446 527.626 
L 462.133807 526.982505 
L 465.190167 526.160321 
L 468.246528 525.143299 
L 471.302889 523.921265 
L 474.359249 522.491578 
L 477.41561 520.860414 
L 480.471971 519.043679 
L 486.584692 514.968073 
L 498.810135 506.371536 
L 501.866496 504.486069 
L 504.922857 502.84147 
L 507.979217 501.503426 
L 511.035578 500.532215 
L 514.091939 499.980125 
L 517.1483 499.889032 
L 520.20466 500.288191 
L 523.261021 501.192272 
L 526.317382 502.599608 
L 529.373743 504.490613 
L 532.430103 506.826268 
L 535.486464 509.546532 
L 538.542825 512.568465 
L 547.711907 522.213789 
L 550.768268 525.047956 
L 553.824628 527.298578 
L 556.880989 528.643589 
L 559.93735 528.68024 
L 562.993711 526.900068 
L 566.050071 522.654662 
L 569.106432 515.109096 
L 572.162793 503.178807 
L 575.219153 485.444238 
L 578.275514 460.035569 
L 581.331875 424.477166 
L 584.388236 375.477668 
L 590.500957 241.701194 
L 593.557318 181.170361 
L 596.613679 133.030587 
L 599.670039 102.074138 
L 602.7264 91.398395 
L 605.782761 102.074138 
L 608.839121 133.030587 
L 611.895482 181.170361 
L 614.951843 241.701194 
L 621.064564 375.477668 
L 624.120925 424.477166 
L 627.177286 460.035569 
L 630.233647 485.444238 
L 633.290007 503.178807 
L 636.346368 515.109096 
L 639.402729 522.654662 
L 642.459089 526.900068 
L 645.51545 528.68024 
L 648.571811 528.643589 
L 651.628172 527.298578 
L 654.684532 525.047956 
L 657.740893 522.213789 
L 663.853615 515.783811 
L 666.909975 512.568465 
L 669.966336 509.546532 
L 673.022697 506.826268 
L 676.079057 504.490613 
L 679.135418 502.599608 
L 682.191779 501.192272 
L 685.24814 500.288191 
L 688.3045 499.889032 
L 691.360861 499.980125 
L 694.417222 500.532215 
L 697.473583 501.503426 
L 700.529943 502.84147 
L 703.586304 504.486069 
L 706.642665 506.371536 
L 712.755386 510.59136 
L 721.924468 517.067481 
L 724.980829 519.043679 
L 728.03719 520.860414 
L 731.093551 522.491578 
L 734.149911 523.921265 
L 737.206272 525.143299 
L 740.262633 526.160321 
L 743.318993 526.982505 
L 746.375354 527.626 
L 749.431715 528.111248 
L 755.544436 528.70002 
L 761.657158 528.93605 
L 770.82624 528.97334 
L 795.277126 528.929501 
L 847.235258 529.002014 
L 984.771491 529.002818 
L 984.771491 529.002818 
" clip-path="url(#pda9d8e38b7)" style="fill: none; stroke: #1f77b4; stroke-width: 1.5; stroke-linecap: square"/>
   </g>
   <g id="line2d_40">
    <path d="M 220.681309 529.002818 
L 431.570199 528.912666 
L 437.682921 528.785496 
L 443.795642 528.453339 
L 449.908364 527.787956 
L 452.964724 527.287246 
L 456.021085 526.652846 
L 459.077446 525.871069 
L 462.133807 524.931585 
L 465.190167 523.828471 
L 468.246528 522.56117 
L 471.302889 521.135274 
L 474.359249 519.563099 
L 480.471971 516.06428 
L 492.697414 508.606109 
L 495.753775 506.905269 
L 498.810135 505.370816 
L 501.866496 504.053532 
L 504.922857 503.00161 
L 507.979217 502.258892 
L 511.035578 501.863159 
L 514.091939 501.844515 
L 517.1483 502.223897 
L 520.20466 503.011716 
L 523.261021 504.206615 
L 526.317382 505.794316 
L 529.373743 507.746494 
L 532.430103 510.019574 
L 535.486464 512.553319 
L 547.711907 523.385584 
L 550.768268 525.563977 
L 553.824628 527.12448 
L 556.880989 527.774129 
L 559.93735 527.143098 
L 562.993711 524.759631 
L 566.050071 520.015814 
L 569.106432 512.12098 
L 572.162793 500.038498 
L 575.219153 482.400164 
L 578.275514 457.390403 
L 581.331875 422.589748 
L 584.388236 374.763295 
L 590.500957 244.620525 
L 593.557318 186.116033 
L 596.613679 139.71392 
L 599.670039 109.926738 
L 602.7264 99.66297 
L 605.782761 109.926738 
L 608.839121 139.71392 
L 611.895482 186.116033 
L 614.951843 244.620525 
L 621.064564 374.763295 
L 624.120925 422.589748 
L 627.177286 457.390403 
L 630.233647 482.400164 
L 633.290007 500.038498 
L 636.346368 512.12098 
L 639.402729 520.015814 
L 642.459089 524.759631 
L 645.51545 527.143098 
L 648.571811 527.774129 
L 651.628172 527.12448 
L 654.684532 525.563977 
L 657.740893 523.385584 
L 660.797254 520.823648 
L 669.966336 512.553319 
L 673.022697 510.019574 
L 676.079057 507.746494 
L 679.135418 505.794316 
L 682.191779 504.206615 
L 685.24814 503.011716 
L 688.3045 502.223897 
L 691.360861 501.844515 
L 694.417222 501.863159 
L 697.473583 502.258892 
L 700.529943 503.00161 
L 703.586304 504.053532 
L 706.642665 505.370816 
L 709.699025 506.905269 
L 715.811747 510.421738 
L 728.03719 517.863981 
L 734.149911 521.135274 
L 737.206272 522.56117 
L 740.262633 523.828471 
L 743.318993 524.931585 
L 746.375354 525.871069 
L 749.431715 526.652846 
L 752.488076 527.287246 
L 755.544436 527.787956 
L 761.657158 528.453339 
L 767.769879 528.785496 
L 776.938961 528.932417 
L 917.531555 529.002805 
L 984.771491 529.002818 
L 984.771491 529.002818 
" clip-path="url(#pda9d8e38b7)" style="fill: none; stroke: #ff7f0e; stroke-width: 1.5; stroke-linecap: square"/>
   </g>
   <g id="line2d_41">
    <path d="M 220.681309 529.002818 
L 413.232035 528.893069 
L 425.457478 528.786916 
L 431.570199 528.583379 
L 437.682921 528.175129 
L 443.795642 527.463874 
L 449.908364 526.350753 
L 452.964724 525.617139 
L 456.021085 524.755684 
L 459.077446 523.762889 
L 462.133807 522.639073 
L 468.246528 520.021669 
L 474.359249 516.998123 
L 489.641053 508.957732 
L 492.697414 507.538034 
L 495.753775 506.270389 
L 498.810135 505.192777 
L 501.866496 504.340924 
L 504.922857 503.7471 
L 507.979217 503.438947 
L 511.035578 503.438369 
L 514.091939 503.760497 
L 517.1483 504.412723 
L 520.20466 505.393821 
L 523.261021 506.693113 
L 526.317382 508.289645 
L 529.373743 510.151319 
L 532.430103 512.233882 
L 538.542825 516.815765 
L 544.655546 521.376639 
L 547.711907 523.353131 
L 550.768268 524.911994 
L 553.824628 525.84212 
L 556.880989 525.877598 
L 559.93735 524.679696 
L 562.993711 521.812106 
L 566.050071 516.707079 
L 569.106432 508.619258 
L 572.162793 496.562896 
L 575.219153 479.226637 
L 578.275514 454.857993 
L 581.331875 421.106847 
L 584.388236 374.813518 
L 590.500957 249.208426 
L 593.557318 193.130849 
L 596.613679 148.780626 
L 599.670039 120.362718 
L 602.7264 110.579527 
L 605.782761 120.362718 
L 608.839121 148.780626 
L 611.895482 193.130849 
L 614.951843 249.208426 
L 621.064564 374.813518 
L 624.120925 421.106847 
L 627.177286 454.857993 
L 630.233647 479.226637 
L 633.290007 496.562896 
L 636.346368 508.619258 
L 639.402729 516.707079 
L 642.459089 521.812106 
L 645.51545 524.679696 
L 648.571811 525.877598 
L 651.628172 525.84212 
L 654.684532 524.911994 
L 657.740893 523.353131 
L 660.797254 521.376639 
L 666.909975 516.815765 
L 673.022697 512.233882 
L 676.079057 510.151319 
L 679.135418 508.289645 
L 682.191779 506.693113 
L 685.24814 505.393821 
L 688.3045 504.412723 
L 691.360861 503.760497 
L 694.417222 503.438369 
L 697.473583 503.438947 
L 700.529943 503.7471 
L 703.586304 504.340924 
L 706.642665 505.192777 
L 709.699025 506.270389 
L 712.755386 507.538034 
L 718.868108 510.490452 
L 737.206272 520.021669 
L 743.318993 522.639073 
L 746.375354 523.762889 
L 749.431715 524.755684 
L 752.488076 525.617139 
L 755.544436 526.350753 
L 761.657158 527.463874 
L 767.769879 528.175129 
L 773.882601 528.583379 
L 783.051683 528.838902 
L 798.333487 528.896809 
L 984.771491 529.002818 
L 984.771491 529.002818 
" clip-path="url(#pda9d8e38b7)" style="fill: none; stroke: #2ca02c; stroke-width: 1.5; stroke-linecap: square"/>
   </g>
   <g id="line2d_42">
    <path d="M 220.681309 529.002817 
L 388.781149 528.89179 
L 413.232035 528.765976 
L 422.401117 528.512446 
L 428.513839 528.156591 
L 434.62656 527.568865 
L 440.739281 526.674581 
L 446.852003 525.408196 
L 452.964724 523.727369 
L 459.077446 521.626989 
L 465.190167 519.150552 
L 471.302889 516.396454 
L 483.528332 510.711731 
L 489.641053 508.208199 
L 492.697414 507.144095 
L 495.753775 506.243618 
L 498.810135 505.533477 
L 501.866496 505.037621 
L 504.922857 504.776423 
L 507.979217 504.765889 
L 511.035578 505.016922 
L 514.091939 505.534635 
L 517.1483 506.317718 
L 520.20466 507.357835 
L 523.261021 508.639041 
L 526.317382 510.137165 
L 529.373743 511.819113 
L 535.486464 515.551944 
L 541.599185 519.352441 
L 544.655546 521.062235 
L 547.711907 522.489716 
L 550.768268 523.483411 
L 553.824628 523.853429 
L 556.880989 523.358732 
L 559.93735 521.689526 
L 562.993711 518.443016 
L 566.050071 513.090148 
L 569.106432 504.930157 
L 572.162793 493.028591 
L 575.219153 476.132956 
L 578.275514 452.558076 
L 581.331875 420.030402 
L 584.388236 375.476713 
L 590.500957 254.901221 
L 593.557318 201.449622 
L 596.613679 159.300777 
L 599.670039 132.344454 
L 602.7264 123.073011 
L 605.782761 132.344454 
L 608.839121 159.300777 
L 611.895482 201.449622 
L 614.951843 254.901221 
L 621.064564 375.476713 
L 624.120925 420.030402 
L 627.177286 452.558076 
L 630.233647 476.132956 
L 633.290007 493.028591 
L 636.346368 504.930157 
L 639.402729 513.090148 
L 642.459089 518.443016 
L 645.51545 521.689526 
L 648.571811 523.358732 
L 651.628172 523.853429 
L 654.684532 523.483411 
L 657.740893 522.489716 
L 660.797254 521.062235 
L 663.853615 519.352441 
L 676.079057 511.819113 
L 679.135418 510.137165 
L 682.191779 508.639041 
L 685.24814 507.357835 
L 688.3045 506.317718 
L 691.360861 505.534635 
L 694.417222 505.016922 
L 697.473583 504.765889 
L 700.529943 504.776423 
L 703.586304 505.037621 
L 706.642665 505.533477 
L 709.699025 506.243618 
L 712.755386 507.144095 
L 715.811747 508.208199 
L 721.924468 510.711731 
L 731.093551 514.961042 
L 740.262633 519.150552 
L 746.375354 521.626989 
L 752.488076 523.727369 
L 758.600797 525.408196 
L 764.713519 526.674581 
L 770.82624 527.568865 
L 776.938961 528.156591 
L 783.051683 528.512446 
L 792.220765 528.765976 
L 807.502569 528.869759 
L 905.306112 529.002235 
L 984.771491 529.002817 
L 984.771491 529.002817 
" clip-path="url(#pda9d8e38b7)" style="fill: none; stroke: #d62728; stroke-width: 1.5; stroke-linecap: square"/>
   </g>
   <g id="line2d_43">
    <path d="M 220.681309 529.002814 
L 373.499345 528.896044 
L 404.062953 528.699792 
L 413.232035 528.448761 
L 419.344756 528.13207 
L 425.457478 527.634987 
L 431.570199 526.900978 
L 437.682921 525.877549 
L 443.795642 524.525337 
L 449.908364 522.827782 
L 456.021085 520.799896 
L 462.133807 518.494557 
L 474.359249 513.462336 
L 480.471971 511.028391 
L 486.584692 508.88319 
L 489.641053 507.976244 
L 492.697414 507.209029 
L 495.753775 506.60165 
L 498.810135 506.171988 
L 501.866496 505.935109 
L 504.922857 505.902701 
L 507.979217 506.082532 
L 511.035578 506.477957 
L 514.091939 507.087458 
L 517.1483 507.904211 
L 520.20466 508.915669 
L 523.261021 510.103144 
L 529.373743 512.897713 
L 541.599185 518.950756 
L 544.655546 520.183634 
L 547.711907 521.114519 
L 550.768268 521.607979 
L 553.824628 521.493175 
L 556.880989 520.551515 
L 559.93735 518.499545 
L 562.993711 514.965308 
L 566.050071 509.455834 
L 569.106432 501.312582 
L 572.162793 489.650499 
L 575.219153 473.274857 
L 578.275514 450.567904 
L 581.331875 419.334572 
L 584.388236 376.592571 
L 590.500957 261.178766 
L 593.557318 210.378059 
L 596.613679 170.43826 
L 599.670039 144.943346 
L 602.7264 136.18272 
L 605.782761 144.943346 
L 608.839121 170.43826 
L 611.895482 210.378059 
L 614.951843 261.178766 
L 621.064564 376.592571 
L 624.120925 419.334572 
L 627.177286 450.567904 
L 630.233647 473.274857 
L 633.290007 489.650499 
L 636.346368 501.312582 
L 639.402729 509.455834 
L 642.459089 514.965308 
L 645.51545 518.499545 
L 648.571811 520.551515 
L 651.628172 521.493175 
L 654.684532 521.607979 
L 657.740893 521.114519 
L 660.797254 520.183634 
L 663.853615 518.950756 
L 669.966336 515.994188 
L 676.079057 512.897713 
L 682.191779 510.103144 
L 685.24814 508.915669 
L 688.3045 507.904211 
L 691.360861 507.087458 
L 694.417222 506.477957 
L 697.473583 506.082532 
L 700.529943 505.902701 
L 703.586304 505.935109 
L 706.642665 506.171988 
L 709.699025 506.60165 
L 712.755386 507.209029 
L 715.811747 507.976244 
L 718.868108 508.88319 
L 724.980829 511.028391 
L 731.093551 513.462336 
L 743.318993 518.494557 
L 749.431715 520.799896 
L 755.544436 522.827782 
L 761.657158 524.525337 
L 767.769879 525.877549 
L 773.882601 526.900978 
L 779.995322 527.634987 
L 786.108044 528.13207 
L 795.277126 528.556371 
L 807.502569 528.779525 
L 835.009815 528.906212 
L 896.13703 528.99965 
L 984.771491 529.002814 
L 984.771491 529.002814 
" clip-path="url(#pda9d8e38b7)" style="fill: none; stroke: #9467bd; stroke-width: 1.5; stroke-linecap: square"/>
   </g>
   <g id="line2d_44">
    <path d="M 220.681309 529.002802 
L 361.273903 528.893607 
L 391.83751 528.69274 
L 404.062953 528.395592 
L 413.232035 527.915686 
L 419.344756 527.399499 
L 425.457478 526.676258 
L 431.570199 525.707213 
L 437.682921 524.464186 
L 443.795642 522.936217 
L 449.908364 521.135586 
L 456.021085 519.102278 
L 465.190167 515.776348 
L 474.359249 512.441118 
L 480.471971 510.432976 
L 486.584692 508.763755 
L 489.641053 508.099275 
L 492.697414 507.568969 
L 495.753775 507.186249 
L 498.810135 506.96228 
L 501.866496 506.905562 
L 504.922857 507.021535 
L 507.979217 507.312213 
L 511.035578 507.775848 
L 514.091939 508.406617 
L 517.1483 509.194328 
L 520.20466 510.12413 
L 526.317382 512.325345 
L 538.542825 517.168389 
L 541.599185 518.189851 
L 544.655546 518.997099 
L 547.711907 519.493064 
L 550.768268 519.556422 
L 553.824628 519.033068 
L 556.880989 517.72418 
L 559.93735 515.369617 
L 562.993711 511.624933 
L 566.050071 506.029659 
L 569.106432 497.963715 
L 572.162793 486.587625 
L 575.219153 470.760713 
L 578.275514 448.929317 
L 581.331875 418.974249 
L 584.388236 378.002816 
L 590.500957 267.58145 
L 593.557318 219.312478 
L 596.613679 181.472619 
L 599.670039 157.363004 
L 602.7264 149.085941 
L 605.782761 157.363004 
L 608.839121 181.472619 
L 611.895482 219.312478 
L 614.951843 267.58145 
L 621.064564 378.002816 
L 624.120925 418.974249 
L 627.177286 448.929317 
L 630.233647 470.760713 
L 633.290007 486.587625 
L 636.346368 497.963715 
L 639.402729 506.029659 
L 642.459089 511.624933 
L 645.51545 515.369617 
L 648.571811 517.72418 
L 651.628172 519.033068 
L 654.684532 519.556422 
L 657.740893 519.493064 
L 660.797254 518.997099 
L 663.853615 518.189851 
L 666.909975 517.168389 
L 673.022697 514.784316 
L 679.135418 512.325345 
L 685.24814 510.12413 
L 688.3045 509.194328 
L 691.360861 508.406617 
L 694.417222 507.775848 
L 697.473583 507.312213 
L 700.529943 507.021535 
L 703.586304 506.905562 
L 706.642665 506.96228 
L 709.699025 507.186249 
L 712.755386 507.568969 
L 715.811747 508.099275 
L 718.868108 508.763755 
L 724.980829 510.432976 
L 731.093551 512.441118 
L 740.262633 515.776348 
L 749.431715 519.102278 
L 755.544436 521.135586 
L 761.657158 522.936217 
L 767.769879 524.464186 
L 773.882601 525.707213 
L 779.995322 526.676258 
L 786.108044 527.399499 
L 792.220765 527.915686 
L 801.389847 528.395592 
L 810.558929 528.642591 
L 825.840733 528.809726 
L 871.686144 528.969401 
L 957.264244 529.00261 
L 984.771491 529.002802 
L 984.771491 529.002802 
" clip-path="url(#pda9d8e38b7)" style="fill: none; stroke: #8c564b; stroke-width: 1.5; stroke-linecap: square"/>
   </g>
   <g id="line2d_45">
    <path d="M 220.681309 529.002766 
L 349.04846 528.892413 
L 379.612067 528.690801 
L 391.83751 528.450534 
L 401.006592 528.092382 
L 410.175674 527.475468 
L 416.288396 526.865673 
L 422.401117 526.060073 
L 428.513839 525.033425 
L 434.62656 523.771283 
L 440.739281 522.274513 
L 446.852003 520.563095 
L 456.021085 517.690517 
L 471.302889 512.722712 
L 477.41561 510.966244 
L 483.528332 509.509171 
L 489.641053 508.456194 
L 492.697414 508.10918 
L 495.753775 507.893473 
L 498.810135 507.815227 
L 501.866496 507.878168 
L 504.922857 508.083322 
L 507.979217 508.428761 
L 511.035578 508.909379 
L 514.091939 509.516678 
L 520.20466 511.059155 
L 526.317382 512.912363 
L 535.486464 515.782596 
L 538.542825 516.605165 
L 541.599185 517.271754 
L 544.655546 517.712 
L 547.711907 517.839019 
L 550.768268 517.54358 
L 553.824628 516.685879 
L 556.880989 515.083985 
L 559.93735 512.49773 
L 562.993711 508.60635 
L 566.050071 502.977548 
L 569.106432 495.024872 
L 572.162793 483.949104 
L 575.219153 468.657866 
L 578.275514 447.655498 
L 581.331875 418.892459 
L 584.388236 379.559557 
L 590.500957 273.721057 
L 593.557318 227.75146 
L 596.613679 191.811223 
L 599.670039 168.951712 
L 602.7264 161.110513 
L 605.782761 168.951712 
L 608.839121 191.811223 
L 611.895482 227.75146 
L 614.951843 273.721057 
L 621.064564 379.559557 
L 624.120925 418.892459 
L 627.177286 447.655498 
L 630.233647 468.657866 
L 633.290007 483.949104 
L 636.346368 495.024872 
L 639.402729 502.977548 
L 642.459089 508.60635 
L 645.51545 512.49773 
L 648.571811 515.083985 
L 651.628172 516.685879 
L 654.684532 517.54358 
L 657.740893 517.839019 
L 660.797254 517.712 
L 663.853615 517.271754 
L 666.909975 516.605165 
L 673.022697 514.861979 
L 685.24814 511.059155 
L 691.360861 509.516678 
L 694.417222 508.909379 
L 697.473583 508.428761 
L 700.529943 508.083322 
L 703.586304 507.878168 
L 706.642665 507.815227 
L 709.699025 507.893473 
L 712.755386 508.10918 
L 715.811747 508.456194 
L 718.868108 508.926226 
L 724.980829 510.19343 
L 731.093551 511.814031 
L 737.206272 513.678032 
L 758.600797 520.563095 
L 764.713519 522.274513 
L 770.82624 523.771283 
L 776.938961 525.033425 
L 783.051683 526.060073 
L 789.164404 526.865673 
L 795.277126 527.475468 
L 804.446208 528.092382 
L 813.61529 528.450534 
L 825.840733 528.690801 
L 850.291619 528.86735 
L 905.306112 528.991259 
L 984.771491 529.002766 
L 984.771491 529.002766 
" clip-path="url(#pda9d8e38b7)" style="fill: none; stroke: #e377c2; stroke-width: 1.5; stroke-linecap: square"/>
   </g>
   <g id="line2d_46">
    <path d="M 587.444596 551.106 
L 587.444596 64.836 
" clip-path="url(#pda9d8e38b7)" style="fill: none; stroke-dasharray: 5.55,2.4; stroke-dashoffset: 0; stroke: #ff0000; stroke-width: 1.5"/>
   </g>
   <g id="line2d_47">
    <path d="M 618.008204 551.106 
L 618.008204 64.836 
" clip-path="url(#pda9d8e38b7)" style="fill: none; stroke-dasharray: 5.55,2.4; stroke-dashoffset: 0; stroke: #ff0000; stroke-width: 1.5"/>
   </g>
   <g id="patch_3">
    <path d="M 182.4768 551.106 
L 182.4768 64.836 
" style="fill: none; stroke: #000000; stroke-width: 0.8; stroke-linejoin: miter; stroke-linecap: square"/>
   </g>
   <g id="patch_4">
    <path d="M 1022.976 551.106 
L 1022.976 64.836 
" style="fill: none; stroke: #000000; stroke-width: 0.8; stroke-linejoin: miter; stroke-linecap: square"/>
   </g>
   <g id="patch_5">
    <path d="M 182.4768 551.106 
L 1022.976 551.106 
" style="fill: none; stroke: #000000; stroke-width: 0.8; stroke-linejoin: miter; stroke-linecap: square"/>
   </g>
   <g id="patch_6">
    <path d="M 182.4768 64.836 
L 1022.976 64.836 
" style="fill: none; stroke: #000000; stroke-width: 0.8; stroke-linejoin: miter; stroke-linecap: square"/>
   </g>
   <g id="text_17">
    <!-- Field intensity distribution in the x direction at different z values  -->
    <g transform="translate(408.274837 45.398625) scale(0.12 -0.12)">
     <defs>
      <path id="DejaVuSans-46" d="M 628 4666 
L 3309 4666 
L 3309 4134 
L 1259 4134 
L 1259 2759 
L 3109 2759 
L 3109 2228 
L 1259 2228 
L 1259 0 
L 628 0 
L 628 4666 
z
" transform="scale(0.015625)"/>
      <path id="DejaVuSans-6c" d="M 603 4863 
L 1178 4863 
L 1178 0 
L 603 0 
L 603 4863 
z
" transform="scale(0.015625)"/>
      <path id="DejaVuSans-64" d="M 2906 2969 
L 2906 4863 
L 3481 4863 
L 3481 0 
L 2906 0 
L 2906 525 
Q 2725 213 2448 61 
Q 2172 -91 1784 -91 
Q 1150 -91 751 415 
Q 353 922 353 1747 
Q 353 2572 751 3078 
Q 1150 3584 1784 3584 
Q 2172 3584 2448 3432 
Q 2725 3281 2906 2969 
z
M 947 1747 
Q 947 1113 1208 752 
Q 1469 391 1925 391 
Q 2381 391 2643 752 
Q 2906 1113 2906 1747 
Q 2906 2381 2643 2742 
Q 2381 3103 1925 3103 
Q 1469 3103 1208 2742 
Q 947 2381 947 1747 
z
" transform="scale(0.015625)"/>
      <path id="DejaVuSans-72" d="M 2631 2963 
Q 2534 3019 2420 3045 
Q 2306 3072 2169 3072 
Q 1681 3072 1420 2755 
Q 1159 2438 1159 1844 
L 1159 0 
L 581 0 
L 581 3500 
L 1159 3500 
L 1159 2956 
Q 1341 3275 1631 3429 
Q 1922 3584 2338 3584 
Q 2397 3584 2469 3576 
Q 2541 3569 2628 3553 
L 2631 2963 
z
" transform="scale(0.015625)"/>
      <path id="DejaVuSans-62" d="M 3116 1747 
Q 3116 2381 2855 2742 
Q 2594 3103 2138 3103 
Q 1681 3103 1420 2742 
Q 1159 2381 1159 1747 
Q 1159 1113 1420 752 
Q 1681 391 2138 391 
Q 2594 391 2855 752 
Q 3116 1113 3116 1747 
z
M 1159 2969 
Q 1341 3281 1617 3432 
Q 1894 3584 2278 3584 
Q 2916 3584 3314 3078 
Q 3713 2572 3713 1747 
Q 3713 922 3314 415 
Q 2916 -91 2278 -91 
Q 1894 -91 1617 61 
Q 1341 213 1159 525 
L 1159 0 
L 581 0 
L 581 4863 
L 1159 4863 
L 1159 2969 
z
" transform="scale(0.015625)"/>
      <path id="DejaVuSans-75" d="M 544 1381 
L 544 3500 
L 1119 3500 
L 1119 1403 
Q 1119 906 1312 657 
Q 1506 409 1894 409 
Q 2359 409 2629 706 
Q 2900 1003 2900 1516 
L 2900 3500 
L 3475 3500 
L 3475 0 
L 2900 0 
L 2900 538 
Q 2691 219 2414 64 
Q 2138 -91 1772 -91 
Q 1169 -91 856 284 
Q 544 659 544 1381 
z
M 1991 3584 
L 1991 3584 
z
" transform="scale(0.015625)"/>
      <path id="DejaVuSans-6f" d="M 1959 3097 
Q 1497 3097 1228 2736 
Q 959 2375 959 1747 
Q 959 1119 1226 758 
Q 1494 397 1959 397 
Q 2419 397 2687 759 
Q 2956 1122 2956 1747 
Q 2956 2369 2687 2733 
Q 2419 3097 1959 3097 
z
M 1959 3584 
Q 2709 3584 3137 3096 
Q 3566 2609 3566 1747 
Q 3566 888 3137 398 
Q 2709 -91 1959 -91 
Q 1206 -91 779 398 
Q 353 888 353 1747 
Q 353 2609 779 3096 
Q 1206 3584 1959 3584 
z
" transform="scale(0.015625)"/>
      <path id="DejaVuSans-68" d="M 3513 2113 
L 3513 0 
L 2938 0 
L 2938 2094 
Q 2938 2591 2744 2837 
Q 2550 3084 2163 3084 
Q 1697 3084 1428 2787 
Q 1159 2491 1159 1978 
L 1159 0 
L 581 0 
L 581 4863 
L 1159 4863 
L 1159 2956 
Q 1366 3272 1645 3428 
Q 1925 3584 2291 3584 
Q 2894 3584 3203 3211 
Q 3513 2838 3513 2113 
z
" transform="scale(0.015625)"/>
      <path id="DejaVuSans-63" d="M 3122 3366 
L 3122 2828 
Q 2878 2963 2633 3030 
Q 2388 3097 2138 3097 
Q 1578 3097 1268 2742 
Q 959 2388 959 1747 
Q 959 1106 1268 751 
Q 1578 397 2138 397 
Q 2388 397 2633 464 
Q 2878 531 3122 666 
L 3122 134 
Q 2881 22 2623 -34 
Q 2366 -91 2075 -91 
Q 1284 -91 818 406 
Q 353 903 353 1747 
Q 353 2603 823 3093 
Q 1294 3584 2113 3584 
Q 2378 3584 2631 3529 
Q 2884 3475 3122 3366 
z
" transform="scale(0.015625)"/>
      <path id="DejaVuSans-61" d="M 2194 1759 
Q 1497 1759 1228 1600 
Q 959 1441 959 1056 
Q 959 750 1161 570 
Q 1363 391 1709 391 
Q 2188 391 2477 730 
Q 2766 1069 2766 1631 
L 2766 1759 
L 2194 1759 
z
M 3341 1997 
L 3341 0 
L 2766 0 
L 2766 531 
Q 2569 213 2275 61 
Q 1981 -91 1556 -91 
Q 1019 -91 701 211 
Q 384 513 384 1019 
Q 384 1609 779 1909 
Q 1175 2209 1959 2209 
L 2766 2209 
L 2766 2266 
Q 2766 2663 2505 2880 
Q 2244 3097 1772 3097 
Q 1472 3097 1187 3025 
Q 903 2953 641 2809 
L 641 3341 
Q 956 3463 1253 3523 
Q 1550 3584 1831 3584 
Q 2591 3584 2966 3190 
Q 3341 2797 3341 1997 
z
" transform="scale(0.015625)"/>
      <path id="DejaVuSans-66" d="M 2375 4863 
L 2375 4384 
L 1825 4384 
Q 1516 4384 1395 4259 
Q 1275 4134 1275 3809 
L 1275 3500 
L 2222 3500 
L 2222 3053 
L 1275 3053 
L 1275 0 
L 697 0 
L 697 3053 
L 147 3053 
L 147 3500 
L 697 3500 
L 697 3744 
Q 697 4328 969 4595 
Q 1241 4863 1831 4863 
L 2375 4863 
z
" transform="scale(0.015625)"/>
      <path id="DejaVuSans-7a" d="M 353 3500 
L 3084 3500 
L 3084 2975 
L 922 459 
L 3084 459 
L 3084 0 
L 275 0 
L 275 525 
L 2438 3041 
L 353 3041 
L 353 3500 
z
" transform="scale(0.015625)"/>
      <path id="DejaVuSans-76" d="M 191 3500 
L 800 3500 
L 1894 563 
L 2988 3500 
L 3597 3500 
L 2284 0 
L 1503 0 
L 191 3500 
z
" transform="scale(0.015625)"/>
     </defs>
     <use xlink:href="#DejaVuSans-46"/>
     <use xlink:href="#DejaVuSans-69" x="50.269531"/>
     <use xlink:href="#DejaVuSans-65" x="78.052734"/>
     <use xlink:href="#DejaVuSans-6c" x="139.576172"/>
     <use xlink:href="#DejaVuSans-64" x="167.359375"/>
     <use xlink:href="#DejaVuSans-20" x="230.835938"/>
     <use xlink:href="#DejaVuSans-69" x="262.623047"/>
     <use xlink:href="#DejaVuSans-6e" x="290.40625"/>
     <use xlink:href="#DejaVuSans-74" x="353.785156"/>
     <use xlink:href="#DejaVuSans-65" x="392.994141"/>
     <use xlink:href="#DejaVuSans-6e" x="454.517578"/>
     <use xlink:href="#DejaVuSans-73" x="517.896484"/>
     <use xlink:href="#DejaVuSans-69" x="569.996094"/>
     <use xlink:href="#DejaVuSans-74" x="597.779297"/>
     <use xlink:href="#DejaVuSans-79" x="636.988281"/>
     <use xlink:href="#DejaVuSans-20" x="696.167969"/>
     <use xlink:href="#DejaVuSans-64" x="727.955078"/>
     <use xlink:href="#DejaVuSans-69" x="791.431641"/>
     <use xlink:href="#DejaVuSans-73" x="819.214844"/>
     <use xlink:href="#DejaVuSans-74" x="871.314453"/>
     <use xlink:href="#DejaVuSans-72" x="910.523438"/>
     <use xlink:href="#DejaVuSans-69" x="951.636719"/>
     <use xlink:href="#DejaVuSans-62" x="979.419922"/>
     <use xlink:href="#DejaVuSans-75" x="1042.896484"/>
     <use xlink:href="#DejaVuSans-74" x="1106.275391"/>
     <use xlink:href="#DejaVuSans-69" x="1145.484375"/>
     <use xlink:href="#DejaVuSans-6f" x="1173.267578"/>
     <use xlink:href="#DejaVuSans-6e" x="1234.449219"/>
     <use xlink:href="#DejaVuSans-20" x="1297.828125"/>
     <use xlink:href="#DejaVuSans-69" x="1329.615234"/>
     <use xlink:href="#DejaVuSans-6e" x="1357.398438"/>
     <use xlink:href="#DejaVuSans-20" x="1420.777344"/>
     <use xlink:href="#DejaVuSans-74" x="1452.564453"/>
     <use xlink:href="#DejaVuSans-68" x="1491.773438"/>
     <use xlink:href="#DejaVuSans-65" x="1555.152344"/>
     <use xlink:href="#DejaVuSans-20" x="1616.675781"/>
     <use xlink:href="#DejaVuSans-78" x="1648.462891"/>
     <use xlink:href="#DejaVuSans-20" x="1707.642578"/>
     <use xlink:href="#DejaVuSans-64" x="1739.429688"/>
     <use xlink:href="#DejaVuSans-69" x="1802.90625"/>
     <use xlink:href="#DejaVuSans-72" x="1830.689453"/>
     <use xlink:href="#DejaVuSans-65" x="1869.552734"/>
     <use xlink:href="#DejaVuSans-63" x="1931.076172"/>
     <use xlink:href="#DejaVuSans-74" x="1986.056641"/>
     <use xlink:href="#DejaVuSans-69" x="2025.265625"/>
     <use xlink:href="#DejaVuSans-6f" x="2053.048828"/>
     <use xlink:href="#DejaVuSans-6e" x="2114.230469"/>
     <use xlink:href="#DejaVuSans-20" x="2177.609375"/>
     <use xlink:href="#DejaVuSans-61" x="2209.396484"/>
     <use xlink:href="#DejaVuSans-74" x="2270.675781"/>
     <use xlink:href="#DejaVuSans-20" x="2309.884766"/>
     <use xlink:href="#DejaVuSans-64" x="2341.671875"/>
     <use xlink:href="#DejaVuSans-69" x="2405.148438"/>
     <use xlink:href="#DejaVuSans-66" x="2432.931641"/>
     <use xlink:href="#DejaVuSans-66" x="2468.136719"/>
     <use xlink:href="#DejaVuSans-65" x="2503.341797"/>
     <use xlink:href="#DejaVuSans-72" x="2564.865234"/>
     <use xlink:href="#DejaVuSans-65" x="2603.728516"/>
     <use xlink:href="#DejaVuSans-6e" x="2665.251953"/>
     <use xlink:href="#DejaVuSans-74" x="2728.630859"/>
     <use xlink:href="#DejaVuSans-20" x="2767.839844"/>
     <use xlink:href="#DejaVuSans-7a" x="2799.626953"/>
     <use xlink:href="#DejaVuSans-20" x="2852.117188"/>
     <use xlink:href="#DejaVuSans-76" x="2883.904297"/>
     <use xlink:href="#DejaVuSans-61" x="2943.083984"/>
     <use xlink:href="#DejaVuSans-6c" x="3004.363281"/>
     <use xlink:href="#DejaVuSans-75" x="3032.146484"/>
     <use xlink:href="#DejaVuSans-65" x="3095.525391"/>
     <use xlink:href="#DejaVuSans-73" x="3157.048828"/>
     <use xlink:href="#DejaVuSans-20" x="3209.148438"/>
    </g>
    <!--  Implicit scheme -->
    <g transform="translate(553.382025 58.836) scale(0.12 -0.12)">
     <defs>
      <path id="DejaVuSans-49" d="M 628 4666 
L 1259 4666 
L 1259 0 
L 628 0 
L 628 4666 
z
" transform="scale(0.015625)"/>
      <path id="DejaVuSans-70" d="M 1159 525 
L 1159 -1331 
L 581 -1331 
L 581 3500 
L 1159 3500 
L 1159 2969 
Q 1341 3281 1617 3432 
Q 1894 3584 2278 3584 
Q 2916 3584 3314 3078 
Q 3713 2572 3713 1747 
Q 3713 922 3314 415 
Q 2916 -91 2278 -91 
Q 1894 -91 1617 61 
Q 1341 213 1159 525 
z
M 3116 1747 
Q 3116 2381 2855 2742 
Q 2594 3103 2138 3103 
Q 1681 3103 1420 2742 
Q 1159 2381 1159 1747 
Q 1159 1113 1420 752 
Q 1681 391 2138 391 
Q 2594 391 2855 752 
Q 3116 1113 3116 1747 
z
" transform="scale(0.015625)"/>
     </defs>
     <use xlink:href="#DejaVuSans-20"/>
     <use xlink:href="#DejaVuSans-49" x="31.787109"/>
     <use xlink:href="#DejaVuSans-6d" x="61.279297"/>
     <use xlink:href="#DejaVuSans-70" x="158.691406"/>
     <use xlink:href="#DejaVuSans-6c" x="222.167969"/>
     <use xlink:href="#DejaVuSans-69" x="249.951172"/>
     <use xlink:href="#DejaVuSans-63" x="277.734375"/>
     <use xlink:href="#DejaVuSans-69" x="332.714844"/>
     <use xlink:href="#DejaVuSans-74" x="360.498047"/>
     <use xlink:href="#DejaVuSans-20" x="399.707031"/>
     <use xlink:href="#DejaVuSans-73" x="431.494141"/>
     <use xlink:href="#DejaVuSans-63" x="483.59375"/>
     <use xlink:href="#DejaVuSans-68" x="538.574219"/>
     <use xlink:href="#DejaVuSans-65" x="601.953125"/>
     <use xlink:href="#DejaVuSans-6d" x="663.476562"/>
     <use xlink:href="#DejaVuSans-65" x="760.888672"/>
    </g>
   </g>
   <g id="legend_1">
    <g id="patch_7">
     <path d="M 951.266625 322.364125 
L 1015.976 322.364125 
Q 1017.976 322.364125 1017.976 320.364125 
L 1017.976 71.836 
Q 1017.976 69.836 1015.976 69.836 
L 951.266625 69.836 
Q 949.266625 69.836 949.266625 71.836 
L 949.266625 320.364125 
Q 949.266625 322.364125 951.266625 322.364125 
z
" style="fill: #ffffff; opacity: 0.8; stroke: #cccccc; stroke-linejoin: miter"/>
    </g>
    <g id="line2d_48">
     <path d="M 953.266625 77.934437 
L 963.266625 77.934437 
L 973.266625 77.934437 
" style="fill: none; stroke: #1f77b4; stroke-width: 1.5; stroke-linecap: square"/>
    </g>
    <g id="text_18">
     <!-- z = 0 -->
     <g transform="translate(981.266625 81.434437) scale(0.1 -0.1)">
      <defs>
       <path id="DejaVuSans-3d" d="M 678 2906 
L 4684 2906 
L 4684 2381 
L 678 2381 
L 678 2906 
z
M 678 1631 
L 4684 1631 
L 4684 1100 
L 678 1100 
L 678 1631 
z
" transform="scale(0.015625)"/>
      </defs>
      <use xlink:href="#DejaVuSans-7a"/>
      <use xlink:href="#DejaVuSans-20" x="52.490234"/>
      <use xlink:href="#DejaVuSans-3d" x="84.277344"/>
      <use xlink:href="#DejaVuSans-20" x="168.066406"/>
      <use xlink:href="#DejaVuSans-30" x="199.853516"/>
     </g>
    </g>
    <g id="line2d_49">
     <path d="M 953.266625 92.612562 
L 963.266625 92.612562 
L 973.266625 92.612562 
" style="fill: none; stroke: #ff7f0e; stroke-width: 1.5; stroke-linecap: square"/>
    </g>
    <g id="text_19">
     <!-- z = 6 -->
     <g transform="translate(981.266625 96.112562) scale(0.1 -0.1)">
      <use xlink:href="#DejaVuSans-7a"/>
      <use xlink:href="#DejaVuSans-20" x="52.490234"/>
      <use xlink:href="#DejaVuSans-3d" x="84.277344"/>
      <use xlink:href="#DejaVuSans-20" x="168.066406"/>
      <use xlink:href="#DejaVuSans-36" x="199.853516"/>
     </g>
    </g>
    <g id="line2d_50">
     <path d="M 953.266625 107.290687 
L 963.266625 107.290687 
L 973.266625 107.290687 
" style="fill: none; stroke: #2ca02c; stroke-width: 1.5; stroke-linecap: square"/>
    </g>
    <g id="text_20">
     <!-- z = 12 -->
     <g transform="translate(981.266625 110.790687) scale(0.1 -0.1)">
      <use xlink:href="#DejaVuSans-7a"/>
      <use xlink:href="#DejaVuSans-20" x="52.490234"/>
      <use xlink:href="#DejaVuSans-3d" x="84.277344"/>
      <use xlink:href="#DejaVuSans-20" x="168.066406"/>
      <use xlink:href="#DejaVuSans-31" x="199.853516"/>
      <use xlink:href="#DejaVuSans-32" x="263.476562"/>
     </g>
    </g>
    <g id="line2d_51">
     <path d="M 953.266625 121.968812 
L 963.266625 121.968812 
L 973.266625 121.968812 
" style="fill: none; stroke: #d62728; stroke-width: 1.5; stroke-linecap: square"/>
    </g>
    <g id="text_21">
     <!-- z = 18 -->
     <g transform="translate(981.266625 125.468812) scale(0.1 -0.1)">
      <use xlink:href="#DejaVuSans-7a"/>
      <use xlink:href="#DejaVuSans-20" x="52.490234"/>
      <use xlink:href="#DejaVuSans-3d" x="84.277344"/>
      <use xlink:href="#DejaVuSans-20" x="168.066406"/>
      <use xlink:href="#DejaVuSans-31" x="199.853516"/>
      <use xlink:href="#DejaVuSans-38" x="263.476562"/>
     </g>
    </g>
    <g id="line2d_52">
     <path d="M 953.266625 136.646937 
L 963.266625 136.646937 
L 973.266625 136.646937 
" style="fill: none; stroke: #9467bd; stroke-width: 1.5; stroke-linecap: square"/>
    </g>
    <g id="text_22">
     <!-- z = 24 -->
     <g transform="translate(981.266625 140.146937) scale(0.1 -0.1)">
      <use xlink:href="#DejaVuSans-7a"/>
      <use xlink:href="#DejaVuSans-20" x="52.490234"/>
      <use xlink:href="#DejaVuSans-3d" x="84.277344"/>
      <use xlink:href="#DejaVuSans-20" x="168.066406"/>
      <use xlink:href="#DejaVuSans-32" x="199.853516"/>
      <use xlink:href="#DejaVuSans-34" x="263.476562"/>
     </g>
    </g>
    <g id="line2d_53">
     <path d="M 953.266625 151.325062 
L 963.266625 151.325062 
L 973.266625 151.325062 
" style="fill: none; stroke: #8c564b; stroke-width: 1.5; stroke-linecap: square"/>
    </g>
    <g id="text_23">
     <!-- z = 30 -->
     <g transform="translate(981.266625 154.825062) scale(0.1 -0.1)">
      <use xlink:href="#DejaVuSans-7a"/>
      <use xlink:href="#DejaVuSans-20" x="52.490234"/>
      <use xlink:href="#DejaVuSans-3d" x="84.277344"/>
      <use xlink:href="#DejaVuSans-20" x="168.066406"/>
      <use xlink:href="#DejaVuSans-33" x="199.853516"/>
      <use xlink:href="#DejaVuSans-30" x="263.476562"/>
     </g>
    </g>
    <g id="line2d_54">
     <path d="M 953.266625 166.003187 
L 963.266625 166.003187 
L 973.266625 166.003187 
" style="fill: none; stroke: #e377c2; stroke-width: 1.5; stroke-linecap: square"/>
    </g>
    <g id="text_24">
     <!-- z = 36 -->
     <g transform="translate(981.266625 169.503187) scale(0.1 -0.1)">
      <use xlink:href="#DejaVuSans-7a"/>
      <use xlink:href="#DejaVuSans-20" x="52.490234"/>
      <use xlink:href="#DejaVuSans-3d" x="84.277344"/>
      <use xlink:href="#DejaVuSans-20" x="168.066406"/>
      <use xlink:href="#DejaVuSans-33" x="199.853516"/>
      <use xlink:href="#DejaVuSans-36" x="263.476562"/>
     </g>
    </g>
    <g id="line2d_55">
     <path d="M 953.266625 180.681312 
L 963.266625 180.681312 
L 973.266625 180.681312 
" style="fill: none; stroke: #7f7f7f; stroke-width: 1.5; stroke-linecap: square"/>
    </g>
    <g id="text_25">
     <!-- z = 42 -->
     <g transform="translate(981.266625 184.181312) scale(0.1 -0.1)">
      <use xlink:href="#DejaVuSans-7a"/>
      <use xlink:href="#DejaVuSans-20" x="52.490234"/>
      <use xlink:href="#DejaVuSans-3d" x="84.277344"/>
      <use xlink:href="#DejaVuSans-20" x="168.066406"/>
      <use xlink:href="#DejaVuSans-34" x="199.853516"/>
      <use xlink:href="#DejaVuSans-32" x="263.476562"/>
     </g>
    </g>
    <g id="line2d_56">
     <path d="M 953.266625 195.359437 
L 963.266625 195.359437 
L 973.266625 195.359437 
" style="fill: none; stroke: #bcbd22; stroke-width: 1.5; stroke-linecap: square"/>
    </g>
    <g id="text_26">
     <!-- z = 48 -->
     <g transform="translate(981.266625 198.859437) scale(0.1 -0.1)">
      <use xlink:href="#DejaVuSans-7a"/>
      <use xlink:href="#DejaVuSans-20" x="52.490234"/>
      <use xlink:href="#DejaVuSans-3d" x="84.277344"/>
      <use xlink:href="#DejaVuSans-20" x="168.066406"/>
      <use xlink:href="#DejaVuSans-34" x="199.853516"/>
      <use xlink:href="#DejaVuSans-38" x="263.476562"/>
     </g>
    </g>
    <g id="line2d_57">
     <path d="M 953.266625 210.037562 
L 963.266625 210.037562 
L 973.266625 210.037562 
" style="fill: none; stroke: #17becf; stroke-width: 1.5; stroke-linecap: square"/>
    </g>
    <g id="text_27">
     <!-- z = 54 -->
     <g transform="translate(981.266625 213.537562) scale(0.1 -0.1)">
      <use xlink:href="#DejaVuSans-7a"/>
      <use xlink:href="#DejaVuSans-20" x="52.490234"/>
      <use xlink:href="#DejaVuSans-3d" x="84.277344"/>
      <use xlink:href="#DejaVuSans-20" x="168.066406"/>
      <use xlink:href="#DejaVuSans-35" x="199.853516"/>
      <use xlink:href="#DejaVuSans-34" x="263.476562"/>
     </g>
    </g>
    <g id="line2d_58">
     <path d="M 953.266625 224.715687 
L 963.266625 224.715687 
L 973.266625 224.715687 
" style="fill: none; stroke: #1f77b4; stroke-width: 1.5; stroke-linecap: square"/>
    </g>
    <g id="text_28">
     <!-- z = 60 -->
     <g transform="translate(981.266625 228.215687) scale(0.1 -0.1)">
      <use xlink:href="#DejaVuSans-7a"/>
      <use xlink:href="#DejaVuSans-20" x="52.490234"/>
      <use xlink:href="#DejaVuSans-3d" x="84.277344"/>
      <use xlink:href="#DejaVuSans-20" x="168.066406"/>
      <use xlink:href="#DejaVuSans-36" x="199.853516"/>
      <use xlink:href="#DejaVuSans-30" x="263.476562"/>
     </g>
    </g>
    <g id="line2d_59">
     <path d="M 953.266625 239.393812 
L 963.266625 239.393812 
L 973.266625 239.393812 
" style="fill: none; stroke: #ff7f0e; stroke-width: 1.5; stroke-linecap: square"/>
    </g>
    <g id="text_29">
     <!-- z = 66 -->
     <g transform="translate(981.266625 242.893812) scale(0.1 -0.1)">
      <use xlink:href="#DejaVuSans-7a"/>
      <use xlink:href="#DejaVuSans-20" x="52.490234"/>
      <use xlink:href="#DejaVuSans-3d" x="84.277344"/>
      <use xlink:href="#DejaVuSans-20" x="168.066406"/>
      <use xlink:href="#DejaVuSans-36" x="199.853516"/>
      <use xlink:href="#DejaVuSans-36" x="263.476562"/>
     </g>
    </g>
    <g id="line2d_60">
     <path d="M 953.266625 254.071937 
L 963.266625 254.071937 
L 973.266625 254.071937 
" style="fill: none; stroke: #2ca02c; stroke-width: 1.5; stroke-linecap: square"/>
    </g>
    <g id="text_30">
     <!-- z = 72 -->
     <g transform="translate(981.266625 257.571937) scale(0.1 -0.1)">
      <use xlink:href="#DejaVuSans-7a"/>
      <use xlink:href="#DejaVuSans-20" x="52.490234"/>
      <use xlink:href="#DejaVuSans-3d" x="84.277344"/>
      <use xlink:href="#DejaVuSans-20" x="168.066406"/>
      <use xlink:href="#DejaVuSans-37" x="199.853516"/>
      <use xlink:href="#DejaVuSans-32" x="263.476562"/>
     </g>
    </g>
    <g id="line2d_61">
     <path d="M 953.266625 268.750062 
L 963.266625 268.750062 
L 973.266625 268.750062 
" style="fill: none; stroke: #d62728; stroke-width: 1.5; stroke-linecap: square"/>
    </g>
    <g id="text_31">
     <!-- z = 78 -->
     <g transform="translate(981.266625 272.250062) scale(0.1 -0.1)">
      <use xlink:href="#DejaVuSans-7a"/>
      <use xlink:href="#DejaVuSans-20" x="52.490234"/>
      <use xlink:href="#DejaVuSans-3d" x="84.277344"/>
      <use xlink:href="#DejaVuSans-20" x="168.066406"/>
      <use xlink:href="#DejaVuSans-37" x="199.853516"/>
      <use xlink:href="#DejaVuSans-38" x="263.476562"/>
     </g>
    </g>
    <g id="line2d_62">
     <path d="M 953.266625 283.428187 
L 963.266625 283.428187 
L 973.266625 283.428187 
" style="fill: none; stroke: #9467bd; stroke-width: 1.5; stroke-linecap: square"/>
    </g>
    <g id="text_32">
     <!-- z = 84 -->
     <g transform="translate(981.266625 286.928187) scale(0.1 -0.1)">
      <use xlink:href="#DejaVuSans-7a"/>
      <use xlink:href="#DejaVuSans-20" x="52.490234"/>
      <use xlink:href="#DejaVuSans-3d" x="84.277344"/>
      <use xlink:href="#DejaVuSans-20" x="168.066406"/>
      <use xlink:href="#DejaVuSans-38" x="199.853516"/>
      <use xlink:href="#DejaVuSans-34" x="263.476562"/>
     </g>
    </g>
    <g id="line2d_63">
     <path d="M 953.266625 298.106312 
L 963.266625 298.106312 
L 973.266625 298.106312 
" style="fill: none; stroke: #8c564b; stroke-width: 1.5; stroke-linecap: square"/>
    </g>
    <g id="text_33">
     <!-- z = 90 -->
     <g transform="translate(981.266625 301.606312) scale(0.1 -0.1)">
      <defs>
       <path id="DejaVuSans-39" d="M 703 97 
L 703 672 
Q 941 559 1184 500 
Q 1428 441 1663 441 
Q 2288 441 2617 861 
Q 2947 1281 2994 2138 
Q 2813 1869 2534 1725 
Q 2256 1581 1919 1581 
Q 1219 1581 811 2004 
Q 403 2428 403 3163 
Q 403 3881 828 4315 
Q 1253 4750 1959 4750 
Q 2769 4750 3195 4129 
Q 3622 3509 3622 2328 
Q 3622 1225 3098 567 
Q 2575 -91 1691 -91 
Q 1453 -91 1209 -44 
Q 966 3 703 97 
z
M 1959 2075 
Q 2384 2075 2632 2365 
Q 2881 2656 2881 3163 
Q 2881 3666 2632 3958 
Q 2384 4250 1959 4250 
Q 1534 4250 1286 3958 
Q 1038 3666 1038 3163 
Q 1038 2656 1286 2365 
Q 1534 2075 1959 2075 
z
" transform="scale(0.015625)"/>
      </defs>
      <use xlink:href="#DejaVuSans-7a"/>
      <use xlink:href="#DejaVuSans-20" x="52.490234"/>
      <use xlink:href="#DejaVuSans-3d" x="84.277344"/>
      <use xlink:href="#DejaVuSans-20" x="168.066406"/>
      <use xlink:href="#DejaVuSans-39" x="199.853516"/>
      <use xlink:href="#DejaVuSans-30" x="263.476562"/>
     </g>
    </g>
    <g id="line2d_64">
     <path d="M 953.266625 312.784437 
L 963.266625 312.784437 
L 973.266625 312.784437 
" style="fill: none; stroke: #e377c2; stroke-width: 1.5; stroke-linecap: square"/>
    </g>
    <g id="text_34">
     <!-- z = 96 -->
     <g transform="translate(981.266625 316.284437) scale(0.1 -0.1)">
      <use xlink:href="#DejaVuSans-7a"/>
      <use xlink:href="#DejaVuSans-20" x="52.490234"/>
      <use xlink:href="#DejaVuSans-3d" x="84.277344"/>
      <use xlink:href="#DejaVuSans-20" x="168.066406"/>
      <use xlink:href="#DejaVuSans-39" x="199.853516"/>
      <use xlink:href="#DejaVuSans-36" x="263.476562"/>
     </g>
    </g>
   </g>
  </g>
 </g>
 <defs>
  <clipPath id="pda9d8e38b7">
   <rect x="182.4768" y="64.836" width="840.4992" height="486.27"/>
  </clipPath>
 </defs>
</svg>
