<?xml version="1.0" encoding="utf-8" standalone="no"?>
<!DOCTYPE svg PUBLIC "-//W3C//DTD SVG 1.1//EN"
  "http://www.w3.org/Graphics/SVG/1.1/DTD/svg11.dtd">
<svg xmlns:xlink="http://www.w3.org/1999/xlink" width="1105.92pt" height="648.36pt" viewBox="0 0 1105.92 648.36" xmlns="http://www.w3.org/2000/svg" version="1.1">
 <metadata>
  <rdf:RDF xmlns:dc="http://purl.org/dc/elements/1.1/" xmlns:cc="http://creativecommons.org/ns#" xmlns:rdf="http://www.w3.org/1999/02/22-rdf-syntax-ns#">
   <cc:Work>
    <dc:type rdf:resource="http://purl.org/dc/dcmitype/StillImage"/>
    <dc:date>2024-06-09T12:43:56.449166</dc:date>
    <dc:format>image/svg+xml</dc:format>
    <dc:creator>
     <cc:Agent>
      <dc:title>Matplotlib v3.8.4, https://matplotlib.org/</dc:title>
     </cc:Agent>
    </dc:creator>
   </cc:Work>
  </rdf:RDF>
 </metadata>
 <defs>
  <style type="text/css">*{stroke-linejoin: round; stroke-linecap: butt}</style>
 </defs>
 <g id="figure_1">
  <g id="patch_1">
   <path d="M 0 648.36 
L 1105.92 648.36 
L 1105.92 0 
L 0 0 
z
" style="fill: #ffffff"/>
  </g>
  <g id="axes_1">
   <g id="patch_2">
    <path d="M 182.4768 551.106 
L 1022.976 551.106 
L 1022.976 64.836 
L 182.4768 64.836 
z
" style="fill: #ffffff"/>
   </g>
   <g id="matplotlib.axis_1">
    <g id="xtick_1">
     <g id="line2d_1">
      <path d="M 258.503773 551.106 
L 258.503773 64.836 
" clip-path="url(#pdc884a074a)" style="fill: none; stroke: #b0b0b0; stroke-width: 0.8; stroke-linecap: square"/>
     </g>
     <g id="line2d_2">
      <defs>
       <path id="m08b8a4c431" d="M 0 0 
L 0 3.5 
" style="stroke: #000000; stroke-width: 0.8"/>
      </defs>
      <g>
       <use xlink:href="#m08b8a4c431" x="258.503773" y="551.106" style="stroke: #000000; stroke-width: 0.8"/>
      </g>
     </g>
     <g id="text_1">
      <!-- 250 -->
      <g transform="translate(248.960023 565.704438) scale(0.1 -0.1)">
       <defs>
        <path id="DejaVuSans-32" d="M 1228 531 
L 3431 531 
L 3431 0 
L 469 0 
L 469 531 
Q 828 903 1448 1529 
Q 2069 2156 2228 2338 
Q 2531 2678 2651 2914 
Q 2772 3150 2772 3378 
Q 2772 3750 2511 3984 
Q 2250 4219 1831 4219 
Q 1534 4219 1204 4116 
Q 875 4013 500 3803 
L 500 4441 
Q 881 4594 1212 4672 
Q 1544 4750 1819 4750 
Q 2544 4750 2975 4387 
Q 3406 4025 3406 3419 
Q 3406 3131 3298 2873 
Q 3191 2616 2906 2266 
Q 2828 2175 2409 1742 
Q 1991 1309 1228 531 
z
" transform="scale(0.015625)"/>
        <path id="DejaVuSans-35" d="M 691 4666 
L 3169 4666 
L 3169 4134 
L 1269 4134 
L 1269 2991 
Q 1406 3038 1543 3061 
Q 1681 3084 1819 3084 
Q 2600 3084 3056 2656 
Q 3513 2228 3513 1497 
Q 3513 744 3044 326 
Q 2575 -91 1722 -91 
Q 1428 -91 1123 -41 
Q 819 9 494 109 
L 494 744 
Q 775 591 1075 516 
Q 1375 441 1709 441 
Q 2250 441 2565 725 
Q 2881 1009 2881 1497 
Q 2881 1984 2565 2268 
Q 2250 2553 1709 2553 
Q 1456 2553 1204 2497 
Q 953 2441 691 2322 
L 691 4666 
z
" transform="scale(0.015625)"/>
        <path id="DejaVuSans-30" d="M 2034 4250 
Q 1547 4250 1301 3770 
Q 1056 3291 1056 2328 
Q 1056 1369 1301 889 
Q 1547 409 2034 409 
Q 2525 409 2770 889 
Q 3016 1369 3016 2328 
Q 3016 3291 2770 3770 
Q 2525 4250 2034 4250 
z
M 2034 4750 
Q 2819 4750 3233 4129 
Q 3647 3509 3647 2328 
Q 3647 1150 3233 529 
Q 2819 -91 2034 -91 
Q 1250 -91 836 529 
Q 422 1150 422 2328 
Q 422 3509 836 4129 
Q 1250 4750 2034 4750 
z
" transform="scale(0.015625)"/>
       </defs>
       <use xlink:href="#DejaVuSans-32"/>
       <use xlink:href="#DejaVuSans-35" x="63.623047"/>
       <use xlink:href="#DejaVuSans-30" x="127.246094"/>
      </g>
     </g>
    </g>
    <g id="xtick_2">
     <g id="line2d_3">
      <path d="M 354.015046 551.106 
L 354.015046 64.836 
" clip-path="url(#pdc884a074a)" style="fill: none; stroke: #b0b0b0; stroke-width: 0.8; stroke-linecap: square"/>
     </g>
     <g id="line2d_4">
      <g>
       <use xlink:href="#m08b8a4c431" x="354.015046" y="551.106" style="stroke: #000000; stroke-width: 0.8"/>
      </g>
     </g>
     <g id="text_2">
      <!-- 500 -->
      <g transform="translate(344.471296 565.704438) scale(0.1 -0.1)">
       <use xlink:href="#DejaVuSans-35"/>
       <use xlink:href="#DejaVuSans-30" x="63.623047"/>
       <use xlink:href="#DejaVuSans-30" x="127.246094"/>
      </g>
     </g>
    </g>
    <g id="xtick_3">
     <g id="line2d_5">
      <path d="M 449.526319 551.106 
L 449.526319 64.836 
" clip-path="url(#pdc884a074a)" style="fill: none; stroke: #b0b0b0; stroke-width: 0.8; stroke-linecap: square"/>
     </g>
     <g id="line2d_6">
      <g>
       <use xlink:href="#m08b8a4c431" x="449.526319" y="551.106" style="stroke: #000000; stroke-width: 0.8"/>
      </g>
     </g>
     <g id="text_3">
      <!-- 750 -->
      <g transform="translate(439.982569 565.704438) scale(0.1 -0.1)">
       <defs>
        <path id="DejaVuSans-37" d="M 525 4666 
L 3525 4666 
L 3525 4397 
L 1831 0 
L 1172 0 
L 2766 4134 
L 525 4134 
L 525 4666 
z
" transform="scale(0.015625)"/>
       </defs>
       <use xlink:href="#DejaVuSans-37"/>
       <use xlink:href="#DejaVuSans-35" x="63.623047"/>
       <use xlink:href="#DejaVuSans-30" x="127.246094"/>
      </g>
     </g>
    </g>
    <g id="xtick_4">
     <g id="line2d_7">
      <path d="M 545.037591 551.106 
L 545.037591 64.836 
" clip-path="url(#pdc884a074a)" style="fill: none; stroke: #b0b0b0; stroke-width: 0.8; stroke-linecap: square"/>
     </g>
     <g id="line2d_8">
      <g>
       <use xlink:href="#m08b8a4c431" x="545.037591" y="551.106" style="stroke: #000000; stroke-width: 0.8"/>
      </g>
     </g>
     <g id="text_4">
      <!-- 1000 -->
      <g transform="translate(532.312591 565.704438) scale(0.1 -0.1)">
       <defs>
        <path id="DejaVuSans-31" d="M 794 531 
L 1825 531 
L 1825 4091 
L 703 3866 
L 703 4441 
L 1819 4666 
L 2450 4666 
L 2450 531 
L 3481 531 
L 3481 0 
L 794 0 
L 794 531 
z
" transform="scale(0.015625)"/>
       </defs>
       <use xlink:href="#DejaVuSans-31"/>
       <use xlink:href="#DejaVuSans-30" x="63.623047"/>
       <use xlink:href="#DejaVuSans-30" x="127.246094"/>
       <use xlink:href="#DejaVuSans-30" x="190.869141"/>
      </g>
     </g>
    </g>
    <g id="xtick_5">
     <g id="line2d_9">
      <path d="M 640.548864 551.106 
L 640.548864 64.836 
" clip-path="url(#pdc884a074a)" style="fill: none; stroke: #b0b0b0; stroke-width: 0.8; stroke-linecap: square"/>
     </g>
     <g id="line2d_10">
      <g>
       <use xlink:href="#m08b8a4c431" x="640.548864" y="551.106" style="stroke: #000000; stroke-width: 0.8"/>
      </g>
     </g>
     <g id="text_5">
      <!-- 1250 -->
      <g transform="translate(627.823864 565.704438) scale(0.1 -0.1)">
       <use xlink:href="#DejaVuSans-31"/>
       <use xlink:href="#DejaVuSans-32" x="63.623047"/>
       <use xlink:href="#DejaVuSans-35" x="127.246094"/>
       <use xlink:href="#DejaVuSans-30" x="190.869141"/>
      </g>
     </g>
    </g>
    <g id="xtick_6">
     <g id="line2d_11">
      <path d="M 736.060137 551.106 
L 736.060137 64.836 
" clip-path="url(#pdc884a074a)" style="fill: none; stroke: #b0b0b0; stroke-width: 0.8; stroke-linecap: square"/>
     </g>
     <g id="line2d_12">
      <g>
       <use xlink:href="#m08b8a4c431" x="736.060137" y="551.106" style="stroke: #000000; stroke-width: 0.8"/>
      </g>
     </g>
     <g id="text_6">
      <!-- 1500 -->
      <g transform="translate(723.335137 565.704438) scale(0.1 -0.1)">
       <use xlink:href="#DejaVuSans-31"/>
       <use xlink:href="#DejaVuSans-35" x="63.623047"/>
       <use xlink:href="#DejaVuSans-30" x="127.246094"/>
       <use xlink:href="#DejaVuSans-30" x="190.869141"/>
      </g>
     </g>
    </g>
    <g id="xtick_7">
     <g id="line2d_13">
      <path d="M 831.571409 551.106 
L 831.571409 64.836 
" clip-path="url(#pdc884a074a)" style="fill: none; stroke: #b0b0b0; stroke-width: 0.8; stroke-linecap: square"/>
     </g>
     <g id="line2d_14">
      <g>
       <use xlink:href="#m08b8a4c431" x="831.571409" y="551.106" style="stroke: #000000; stroke-width: 0.8"/>
      </g>
     </g>
     <g id="text_7">
      <!-- 1750 -->
      <g transform="translate(818.846409 565.704438) scale(0.1 -0.1)">
       <use xlink:href="#DejaVuSans-31"/>
       <use xlink:href="#DejaVuSans-37" x="63.623047"/>
       <use xlink:href="#DejaVuSans-35" x="127.246094"/>
       <use xlink:href="#DejaVuSans-30" x="190.869141"/>
      </g>
     </g>
    </g>
    <g id="xtick_8">
     <g id="line2d_15">
      <path d="M 927.082682 551.106 
L 927.082682 64.836 
" clip-path="url(#pdc884a074a)" style="fill: none; stroke: #b0b0b0; stroke-width: 0.8; stroke-linecap: square"/>
     </g>
     <g id="line2d_16">
      <g>
       <use xlink:href="#m08b8a4c431" x="927.082682" y="551.106" style="stroke: #000000; stroke-width: 0.8"/>
      </g>
     </g>
     <g id="text_8">
      <!-- 2000 -->
      <g transform="translate(914.357682 565.704438) scale(0.1 -0.1)">
       <use xlink:href="#DejaVuSans-32"/>
       <use xlink:href="#DejaVuSans-30" x="63.623047"/>
       <use xlink:href="#DejaVuSans-30" x="127.246094"/>
       <use xlink:href="#DejaVuSans-30" x="190.869141"/>
      </g>
     </g>
    </g>
    <g id="xtick_9">
     <g id="line2d_17">
      <path d="M 1022.593955 551.106 
L 1022.593955 64.836 
" clip-path="url(#pdc884a074a)" style="fill: none; stroke: #b0b0b0; stroke-width: 0.8; stroke-linecap: square"/>
     </g>
     <g id="line2d_18">
      <g>
       <use xlink:href="#m08b8a4c431" x="1022.593955" y="551.106" style="stroke: #000000; stroke-width: 0.8"/>
      </g>
     </g>
     <g id="text_9">
      <!-- 2250 -->
      <g transform="translate(1009.868955 565.704438) scale(0.1 -0.1)">
       <use xlink:href="#DejaVuSans-32"/>
       <use xlink:href="#DejaVuSans-32" x="63.623047"/>
       <use xlink:href="#DejaVuSans-35" x="127.246094"/>
       <use xlink:href="#DejaVuSans-30" x="190.869141"/>
      </g>
     </g>
    </g>
    <g id="text_10">
     <!-- Nx -->
     <g transform="translate(596.0264 579.382562) scale(0.1 -0.1)">
      <defs>
       <path id="DejaVuSans-4e" d="M 628 4666 
L 1478 4666 
L 3547 763 
L 3547 4666 
L 4159 4666 
L 4159 0 
L 3309 0 
L 1241 3903 
L 1241 0 
L 628 0 
L 628 4666 
z
" transform="scale(0.015625)"/>
       <path id="DejaVuSans-78" d="M 3513 3500 
L 2247 1797 
L 3578 0 
L 2900 0 
L 1881 1375 
L 863 0 
L 184 0 
L 1544 1831 
L 300 3500 
L 978 3500 
L 1906 2253 
L 2834 3500 
L 3513 3500 
z
" transform="scale(0.015625)"/>
      </defs>
      <use xlink:href="#DejaVuSans-4e"/>
      <use xlink:href="#DejaVuSans-78" x="74.804688"/>
     </g>
    </g>
   </g>
   <g id="matplotlib.axis_2">
    <g id="ytick_1">
     <g id="line2d_19">
      <path d="M 182.4768 495.017781 
L 1022.976 495.017781 
" clip-path="url(#pdc884a074a)" style="fill: none; stroke: #b0b0b0; stroke-width: 0.8; stroke-linecap: square"/>
     </g>
     <g id="line2d_20">
      <defs>
       <path id="mc78b5c60b2" d="M 0 0 
L -3.5 0 
" style="stroke: #000000; stroke-width: 0.8"/>
      </defs>
      <g>
       <use xlink:href="#mc78b5c60b2" x="182.4768" y="495.017781" style="stroke: #000000; stroke-width: 0.8"/>
      </g>
     </g>
     <g id="text_11">
      <!-- 0.02 -->
      <g transform="translate(153.211175 498.817) scale(0.1 -0.1)">
       <defs>
        <path id="DejaVuSans-2e" d="M 684 794 
L 1344 794 
L 1344 0 
L 684 0 
L 684 794 
z
" transform="scale(0.015625)"/>
       </defs>
       <use xlink:href="#DejaVuSans-30"/>
       <use xlink:href="#DejaVuSans-2e" x="63.623047"/>
       <use xlink:href="#DejaVuSans-30" x="95.410156"/>
       <use xlink:href="#DejaVuSans-32" x="159.033203"/>
      </g>
     </g>
    </g>
    <g id="ytick_2">
     <g id="line2d_21">
      <path d="M 182.4768 414.201785 
L 1022.976 414.201785 
" clip-path="url(#pdc884a074a)" style="fill: none; stroke: #b0b0b0; stroke-width: 0.8; stroke-linecap: square"/>
     </g>
     <g id="line2d_22">
      <g>
       <use xlink:href="#mc78b5c60b2" x="182.4768" y="414.201785" style="stroke: #000000; stroke-width: 0.8"/>
      </g>
     </g>
     <g id="text_12">
      <!-- 0.04 -->
      <g transform="translate(153.211175 418.001004) scale(0.1 -0.1)">
       <defs>
        <path id="DejaVuSans-34" d="M 2419 4116 
L 825 1625 
L 2419 1625 
L 2419 4116 
z
M 2253 4666 
L 3047 4666 
L 3047 1625 
L 3713 1625 
L 3713 1100 
L 3047 1100 
L 3047 0 
L 2419 0 
L 2419 1100 
L 313 1100 
L 313 1709 
L 2253 4666 
z
" transform="scale(0.015625)"/>
       </defs>
       <use xlink:href="#DejaVuSans-30"/>
       <use xlink:href="#DejaVuSans-2e" x="63.623047"/>
       <use xlink:href="#DejaVuSans-30" x="95.410156"/>
       <use xlink:href="#DejaVuSans-34" x="159.033203"/>
      </g>
     </g>
    </g>
    <g id="ytick_3">
     <g id="line2d_23">
      <path d="M 182.4768 333.385789 
L 1022.976 333.385789 
" clip-path="url(#pdc884a074a)" style="fill: none; stroke: #b0b0b0; stroke-width: 0.8; stroke-linecap: square"/>
     </g>
     <g id="line2d_24">
      <g>
       <use xlink:href="#mc78b5c60b2" x="182.4768" y="333.385789" style="stroke: #000000; stroke-width: 0.8"/>
      </g>
     </g>
     <g id="text_13">
      <!-- 0.06 -->
      <g transform="translate(153.211175 337.185007) scale(0.1 -0.1)">
       <defs>
        <path id="DejaVuSans-36" d="M 2113 2584 
Q 1688 2584 1439 2293 
Q 1191 2003 1191 1497 
Q 1191 994 1439 701 
Q 1688 409 2113 409 
Q 2538 409 2786 701 
Q 3034 994 3034 1497 
Q 3034 2003 2786 2293 
Q 2538 2584 2113 2584 
z
M 3366 4563 
L 3366 3988 
Q 3128 4100 2886 4159 
Q 2644 4219 2406 4219 
Q 1781 4219 1451 3797 
Q 1122 3375 1075 2522 
Q 1259 2794 1537 2939 
Q 1816 3084 2150 3084 
Q 2853 3084 3261 2657 
Q 3669 2231 3669 1497 
Q 3669 778 3244 343 
Q 2819 -91 2113 -91 
Q 1303 -91 875 529 
Q 447 1150 447 2328 
Q 447 3434 972 4092 
Q 1497 4750 2381 4750 
Q 2619 4750 2861 4703 
Q 3103 4656 3366 4563 
z
" transform="scale(0.015625)"/>
       </defs>
       <use xlink:href="#DejaVuSans-30"/>
       <use xlink:href="#DejaVuSans-2e" x="63.623047"/>
       <use xlink:href="#DejaVuSans-30" x="95.410156"/>
       <use xlink:href="#DejaVuSans-36" x="159.033203"/>
      </g>
     </g>
    </g>
    <g id="ytick_4">
     <g id="line2d_25">
      <path d="M 182.4768 252.569792 
L 1022.976 252.569792 
" clip-path="url(#pdc884a074a)" style="fill: none; stroke: #b0b0b0; stroke-width: 0.8; stroke-linecap: square"/>
     </g>
     <g id="line2d_26">
      <g>
       <use xlink:href="#mc78b5c60b2" x="182.4768" y="252.569792" style="stroke: #000000; stroke-width: 0.8"/>
      </g>
     </g>
     <g id="text_14">
      <!-- 0.08 -->
      <g transform="translate(153.211175 256.369011) scale(0.1 -0.1)">
       <defs>
        <path id="DejaVuSans-38" d="M 2034 2216 
Q 1584 2216 1326 1975 
Q 1069 1734 1069 1313 
Q 1069 891 1326 650 
Q 1584 409 2034 409 
Q 2484 409 2743 651 
Q 3003 894 3003 1313 
Q 3003 1734 2745 1975 
Q 2488 2216 2034 2216 
z
M 1403 2484 
Q 997 2584 770 2862 
Q 544 3141 544 3541 
Q 544 4100 942 4425 
Q 1341 4750 2034 4750 
Q 2731 4750 3128 4425 
Q 3525 4100 3525 3541 
Q 3525 3141 3298 2862 
Q 3072 2584 2669 2484 
Q 3125 2378 3379 2068 
Q 3634 1759 3634 1313 
Q 3634 634 3220 271 
Q 2806 -91 2034 -91 
Q 1263 -91 848 271 
Q 434 634 434 1313 
Q 434 1759 690 2068 
Q 947 2378 1403 2484 
z
M 1172 3481 
Q 1172 3119 1398 2916 
Q 1625 2713 2034 2713 
Q 2441 2713 2670 2916 
Q 2900 3119 2900 3481 
Q 2900 3844 2670 4047 
Q 2441 4250 2034 4250 
Q 1625 4250 1398 4047 
Q 1172 3844 1172 3481 
z
" transform="scale(0.015625)"/>
       </defs>
       <use xlink:href="#DejaVuSans-30"/>
       <use xlink:href="#DejaVuSans-2e" x="63.623047"/>
       <use xlink:href="#DejaVuSans-30" x="95.410156"/>
       <use xlink:href="#DejaVuSans-38" x="159.033203"/>
      </g>
     </g>
    </g>
    <g id="ytick_5">
     <g id="line2d_27">
      <path d="M 182.4768 171.753796 
L 1022.976 171.753796 
" clip-path="url(#pdc884a074a)" style="fill: none; stroke: #b0b0b0; stroke-width: 0.8; stroke-linecap: square"/>
     </g>
     <g id="line2d_28">
      <g>
       <use xlink:href="#mc78b5c60b2" x="182.4768" y="171.753796" style="stroke: #000000; stroke-width: 0.8"/>
      </g>
     </g>
     <g id="text_15">
      <!-- 0.10 -->
      <g transform="translate(153.211175 175.553015) scale(0.1 -0.1)">
       <use xlink:href="#DejaVuSans-30"/>
       <use xlink:href="#DejaVuSans-2e" x="63.623047"/>
       <use xlink:href="#DejaVuSans-31" x="95.410156"/>
       <use xlink:href="#DejaVuSans-30" x="159.033203"/>
      </g>
     </g>
    </g>
    <g id="ytick_6">
     <g id="line2d_29">
      <path d="M 182.4768 90.9378 
L 1022.976 90.9378 
" clip-path="url(#pdc884a074a)" style="fill: none; stroke: #b0b0b0; stroke-width: 0.8; stroke-linecap: square"/>
     </g>
     <g id="line2d_30">
      <g>
       <use xlink:href="#mc78b5c60b2" x="182.4768" y="90.9378" style="stroke: #000000; stroke-width: 0.8"/>
      </g>
     </g>
     <g id="text_16">
      <!-- 0.12 -->
      <g transform="translate(153.211175 94.737019) scale(0.1 -0.1)">
       <use xlink:href="#DejaVuSans-30"/>
       <use xlink:href="#DejaVuSans-2e" x="63.623047"/>
       <use xlink:href="#DejaVuSans-31" x="95.410156"/>
       <use xlink:href="#DejaVuSans-32" x="159.033203"/>
      </g>
     </g>
    </g>
    <g id="text_17">
     <!-- operation time [s] -->
     <g transform="translate(147.131488 352.9585) rotate(-90) scale(0.1 -0.1)">
      <defs>
       <path id="DejaVuSans-6f" d="M 1959 3097 
Q 1497 3097 1228 2736 
Q 959 2375 959 1747 
Q 959 1119 1226 758 
Q 1494 397 1959 397 
Q 2419 397 2687 759 
Q 2956 1122 2956 1747 
Q 2956 2369 2687 2733 
Q 2419 3097 1959 3097 
z
M 1959 3584 
Q 2709 3584 3137 3096 
Q 3566 2609 3566 1747 
Q 3566 888 3137 398 
Q 2709 -91 1959 -91 
Q 1206 -91 779 398 
Q 353 888 353 1747 
Q 353 2609 779 3096 
Q 1206 3584 1959 3584 
z
" transform="scale(0.015625)"/>
       <path id="DejaVuSans-70" d="M 1159 525 
L 1159 -1331 
L 581 -1331 
L 581 3500 
L 1159 3500 
L 1159 2969 
Q 1341 3281 1617 3432 
Q 1894 3584 2278 3584 
Q 2916 3584 3314 3078 
Q 3713 2572 3713 1747 
Q 3713 922 3314 415 
Q 2916 -91 2278 -91 
Q 1894 -91 1617 61 
Q 1341 213 1159 525 
z
M 3116 1747 
Q 3116 2381 2855 2742 
Q 2594 3103 2138 3103 
Q 1681 3103 1420 2742 
Q 1159 2381 1159 1747 
Q 1159 1113 1420 752 
Q 1681 391 2138 391 
Q 2594 391 2855 752 
Q 3116 1113 3116 1747 
z
" transform="scale(0.015625)"/>
       <path id="DejaVuSans-65" d="M 3597 1894 
L 3597 1613 
L 953 1613 
Q 991 1019 1311 708 
Q 1631 397 2203 397 
Q 2534 397 2845 478 
Q 3156 559 3463 722 
L 3463 178 
Q 3153 47 2828 -22 
Q 2503 -91 2169 -91 
Q 1331 -91 842 396 
Q 353 884 353 1716 
Q 353 2575 817 3079 
Q 1281 3584 2069 3584 
Q 2775 3584 3186 3129 
Q 3597 2675 3597 1894 
z
M 3022 2063 
Q 3016 2534 2758 2815 
Q 2500 3097 2075 3097 
Q 1594 3097 1305 2825 
Q 1016 2553 972 2059 
L 3022 2063 
z
" transform="scale(0.015625)"/>
       <path id="DejaVuSans-72" d="M 2631 2963 
Q 2534 3019 2420 3045 
Q 2306 3072 2169 3072 
Q 1681 3072 1420 2755 
Q 1159 2438 1159 1844 
L 1159 0 
L 581 0 
L 581 3500 
L 1159 3500 
L 1159 2956 
Q 1341 3275 1631 3429 
Q 1922 3584 2338 3584 
Q 2397 3584 2469 3576 
Q 2541 3569 2628 3553 
L 2631 2963 
z
" transform="scale(0.015625)"/>
       <path id="DejaVuSans-61" d="M 2194 1759 
Q 1497 1759 1228 1600 
Q 959 1441 959 1056 
Q 959 750 1161 570 
Q 1363 391 1709 391 
Q 2188 391 2477 730 
Q 2766 1069 2766 1631 
L 2766 1759 
L 2194 1759 
z
M 3341 1997 
L 3341 0 
L 2766 0 
L 2766 531 
Q 2569 213 2275 61 
Q 1981 -91 1556 -91 
Q 1019 -91 701 211 
Q 384 513 384 1019 
Q 384 1609 779 1909 
Q 1175 2209 1959 2209 
L 2766 2209 
L 2766 2266 
Q 2766 2663 2505 2880 
Q 2244 3097 1772 3097 
Q 1472 3097 1187 3025 
Q 903 2953 641 2809 
L 641 3341 
Q 956 3463 1253 3523 
Q 1550 3584 1831 3584 
Q 2591 3584 2966 3190 
Q 3341 2797 3341 1997 
z
" transform="scale(0.015625)"/>
       <path id="DejaVuSans-74" d="M 1172 4494 
L 1172 3500 
L 2356 3500 
L 2356 3053 
L 1172 3053 
L 1172 1153 
Q 1172 725 1289 603 
Q 1406 481 1766 481 
L 2356 481 
L 2356 0 
L 1766 0 
Q 1100 0 847 248 
Q 594 497 594 1153 
L 594 3053 
L 172 3053 
L 172 3500 
L 594 3500 
L 594 4494 
L 1172 4494 
z
" transform="scale(0.015625)"/>
       <path id="DejaVuSans-69" d="M 603 3500 
L 1178 3500 
L 1178 0 
L 603 0 
L 603 3500 
z
M 603 4863 
L 1178 4863 
L 1178 4134 
L 603 4134 
L 603 4863 
z
" transform="scale(0.015625)"/>
       <path id="DejaVuSans-6e" d="M 3513 2113 
L 3513 0 
L 2938 0 
L 2938 2094 
Q 2938 2591 2744 2837 
Q 2550 3084 2163 3084 
Q 1697 3084 1428 2787 
Q 1159 2491 1159 1978 
L 1159 0 
L 581 0 
L 581 3500 
L 1159 3500 
L 1159 2956 
Q 1366 3272 1645 3428 
Q 1925 3584 2291 3584 
Q 2894 3584 3203 3211 
Q 3513 2838 3513 2113 
z
" transform="scale(0.015625)"/>
       <path id="DejaVuSans-20" transform="scale(0.015625)"/>
       <path id="DejaVuSans-6d" d="M 3328 2828 
Q 3544 3216 3844 3400 
Q 4144 3584 4550 3584 
Q 5097 3584 5394 3201 
Q 5691 2819 5691 2113 
L 5691 0 
L 5113 0 
L 5113 2094 
Q 5113 2597 4934 2840 
Q 4756 3084 4391 3084 
Q 3944 3084 3684 2787 
Q 3425 2491 3425 1978 
L 3425 0 
L 2847 0 
L 2847 2094 
Q 2847 2600 2669 2842 
Q 2491 3084 2119 3084 
Q 1678 3084 1418 2786 
Q 1159 2488 1159 1978 
L 1159 0 
L 581 0 
L 581 3500 
L 1159 3500 
L 1159 2956 
Q 1356 3278 1631 3431 
Q 1906 3584 2284 3584 
Q 2666 3584 2933 3390 
Q 3200 3197 3328 2828 
z
" transform="scale(0.015625)"/>
       <path id="DejaVuSans-5b" d="M 550 4863 
L 1875 4863 
L 1875 4416 
L 1125 4416 
L 1125 -397 
L 1875 -397 
L 1875 -844 
L 550 -844 
L 550 4863 
z
" transform="scale(0.015625)"/>
       <path id="DejaVuSans-73" d="M 2834 3397 
L 2834 2853 
Q 2591 2978 2328 3040 
Q 2066 3103 1784 3103 
Q 1356 3103 1142 2972 
Q 928 2841 928 2578 
Q 928 2378 1081 2264 
Q 1234 2150 1697 2047 
L 1894 2003 
Q 2506 1872 2764 1633 
Q 3022 1394 3022 966 
Q 3022 478 2636 193 
Q 2250 -91 1575 -91 
Q 1294 -91 989 -36 
Q 684 19 347 128 
L 347 722 
Q 666 556 975 473 
Q 1284 391 1588 391 
Q 1994 391 2212 530 
Q 2431 669 2431 922 
Q 2431 1156 2273 1281 
Q 2116 1406 1581 1522 
L 1381 1569 
Q 847 1681 609 1914 
Q 372 2147 372 2553 
Q 372 3047 722 3315 
Q 1072 3584 1716 3584 
Q 2034 3584 2315 3537 
Q 2597 3491 2834 3397 
z
" transform="scale(0.015625)"/>
       <path id="DejaVuSans-5d" d="M 1947 4863 
L 1947 -844 
L 622 -844 
L 622 -397 
L 1369 -397 
L 1369 4416 
L 622 4416 
L 622 4863 
L 1947 4863 
z
" transform="scale(0.015625)"/>
      </defs>
      <use xlink:href="#DejaVuSans-6f"/>
      <use xlink:href="#DejaVuSans-70" x="61.181641"/>
      <use xlink:href="#DejaVuSans-65" x="124.658203"/>
      <use xlink:href="#DejaVuSans-72" x="186.181641"/>
      <use xlink:href="#DejaVuSans-61" x="227.294922"/>
      <use xlink:href="#DejaVuSans-74" x="288.574219"/>
      <use xlink:href="#DejaVuSans-69" x="327.783203"/>
      <use xlink:href="#DejaVuSans-6f" x="355.566406"/>
      <use xlink:href="#DejaVuSans-6e" x="416.748047"/>
      <use xlink:href="#DejaVuSans-20" x="480.126953"/>
      <use xlink:href="#DejaVuSans-74" x="511.914062"/>
      <use xlink:href="#DejaVuSans-69" x="551.123047"/>
      <use xlink:href="#DejaVuSans-6d" x="578.90625"/>
      <use xlink:href="#DejaVuSans-65" x="676.318359"/>
      <use xlink:href="#DejaVuSans-20" x="737.841797"/>
      <use xlink:href="#DejaVuSans-5b" x="769.628906"/>
      <use xlink:href="#DejaVuSans-73" x="808.642578"/>
      <use xlink:href="#DejaVuSans-5d" x="860.742188"/>
     </g>
    </g>
   </g>
   <g id="line2d_31">
    <path d="M 220.681309 527.074088 
L 228.322211 529.002818 
L 235.963113 524.118371 
L 243.604015 521.159765 
L 251.244916 516.481486 
L 258.885818 517.084575 
L 266.52672 512.932314 
L 274.167622 508.321473 
L 281.808524 460.218824 
L 289.449425 409.245237 
L 297.090327 450.58866 
L 304.731229 470.582136 
L 312.372131 462.259308 
L 320.013033 451.527013 
L 327.653935 464.318098 
L 335.294836 468.558992 
L 342.935738 466.484788 
L 350.57664 462.051214 
L 358.217542 460.320944 
L 365.858444 441.567366 
L 373.499345 432.10098 
L 381.140247 449.374773 
L 388.781149 417.585406 
L 396.422051 437.367897 
L 404.062953 435.438204 
L 411.703855 436.095244 
L 419.344756 450.270737 
L 426.985658 419.212591 
L 434.62656 405.503385 
L 442.267462 427.327324 
L 449.908364 413.287671 
L 457.549265 423.426511 
L 465.190167 428.210764 
L 472.831069 415.075744 
L 480.471971 418.771353 
L 488.112873 407.026523 
L 495.753775 399.557269 
L 503.394676 409.111324 
L 511.035578 402.779848 
L 518.67648 399.604476 
L 526.317382 408.343493 
L 533.958284 404.838637 
L 541.599185 386.555199 
L 549.240087 388.111093 
L 556.880989 387.713208 
L 564.521891 372.934625 
L 572.162793 368.649414 
L 579.803695 357.565477 
L 587.444596 316.959057 
L 595.085498 344.162632 
L 602.7264 341.523874 
L 610.367302 332.221267 
L 618.008204 356.001876 
L 625.649105 334.570041 
L 633.290007 328.289625 
L 640.930909 323.679747 
L 648.571811 305.673769 
L 656.212713 315.200848 
L 663.853615 319.632496 
L 671.494516 331.399485 
L 679.135418 315.842474 
L 686.77632 303.220948 
L 694.417222 296.127421 
L 702.058124 297.48678 
L 709.699025 294.067668 
L 717.339927 296.742071 
L 724.980829 273.308287 
L 732.621731 278.030882 
L 740.262633 272.641613 
L 747.903535 271.795746 
L 755.544436 248.230939 
L 763.185338 286.565658 
L 770.82624 270.524056 
L 778.467142 269.979734 
L 786.108044 254.226188 
L 793.748945 255.348551 
L 801.389847 236.69324 
L 809.030749 243.706805 
L 816.671651 236.724069 
L 824.312553 211.318201 
L 831.953455 86.939182 
L 839.594356 171.968057 
L 847.235258 222.919485 
L 854.87616 198.206303 
L 862.517062 237.485156 
L 870.157964 222.140093 
L 877.798865 228.577544 
L 885.439767 210.576382 
L 893.080669 196.614764 
L 900.721571 137.914695 
L 908.362473 156.745346 
L 916.003375 157.866745 
L 923.644276 169.416969 
L 931.285178 131.852971 
L 938.92608 149.489004 
L 946.566982 139.004303 
L 954.207884 166.377436 
L 961.848785 102.008712 
L 969.489687 87.050936 
L 977.130589 140.134373 
L 984.771491 107.932669 
" clip-path="url(#pdc884a074a)" style="fill: none; stroke: #1f77b4; stroke-width: 1.5; stroke-linecap: square"/>
    <defs>
     <path id="mb1a4df2c76" d="M 0 3 
C 0.795609 3 1.55874 2.683901 2.12132 2.12132 
C 2.683901 1.55874 3 0.795609 3 0 
C 3 -0.795609 2.683901 -1.55874 2.12132 -2.12132 
C 1.55874 -2.683901 0.795609 -3 0 -3 
C -0.795609 -3 -1.55874 -2.683901 -2.12132 -2.12132 
C -2.683901 -1.55874 -3 -0.795609 -3 0 
C -3 0.795609 -2.683901 1.55874 -2.12132 2.12132 
C -1.55874 2.683901 -0.795609 3 0 3 
z
" style="stroke: #1f77b4"/>
    </defs>
    <g clip-path="url(#pdc884a074a)">
     <use xlink:href="#mb1a4df2c76" x="220.681309" y="527.074088" style="fill: #1f77b4; stroke: #1f77b4"/>
     <use xlink:href="#mb1a4df2c76" x="228.322211" y="529.002818" style="fill: #1f77b4; stroke: #1f77b4"/>
     <use xlink:href="#mb1a4df2c76" x="235.963113" y="524.118371" style="fill: #1f77b4; stroke: #1f77b4"/>
     <use xlink:href="#mb1a4df2c76" x="243.604015" y="521.159765" style="fill: #1f77b4; stroke: #1f77b4"/>
     <use xlink:href="#mb1a4df2c76" x="251.244916" y="516.481486" style="fill: #1f77b4; stroke: #1f77b4"/>
     <use xlink:href="#mb1a4df2c76" x="258.885818" y="517.084575" style="fill: #1f77b4; stroke: #1f77b4"/>
     <use xlink:href="#mb1a4df2c76" x="266.52672" y="512.932314" style="fill: #1f77b4; stroke: #1f77b4"/>
     <use xlink:href="#mb1a4df2c76" x="274.167622" y="508.321473" style="fill: #1f77b4; stroke: #1f77b4"/>
     <use xlink:href="#mb1a4df2c76" x="281.808524" y="460.218824" style="fill: #1f77b4; stroke: #1f77b4"/>
     <use xlink:href="#mb1a4df2c76" x="289.449425" y="409.245237" style="fill: #1f77b4; stroke: #1f77b4"/>
     <use xlink:href="#mb1a4df2c76" x="297.090327" y="450.58866" style="fill: #1f77b4; stroke: #1f77b4"/>
     <use xlink:href="#mb1a4df2c76" x="304.731229" y="470.582136" style="fill: #1f77b4; stroke: #1f77b4"/>
     <use xlink:href="#mb1a4df2c76" x="312.372131" y="462.259308" style="fill: #1f77b4; stroke: #1f77b4"/>
     <use xlink:href="#mb1a4df2c76" x="320.013033" y="451.527013" style="fill: #1f77b4; stroke: #1f77b4"/>
     <use xlink:href="#mb1a4df2c76" x="327.653935" y="464.318098" style="fill: #1f77b4; stroke: #1f77b4"/>
     <use xlink:href="#mb1a4df2c76" x="335.294836" y="468.558992" style="fill: #1f77b4; stroke: #1f77b4"/>
     <use xlink:href="#mb1a4df2c76" x="342.935738" y="466.484788" style="fill: #1f77b4; stroke: #1f77b4"/>
     <use xlink:href="#mb1a4df2c76" x="350.57664" y="462.051214" style="fill: #1f77b4; stroke: #1f77b4"/>
     <use xlink:href="#mb1a4df2c76" x="358.217542" y="460.320944" style="fill: #1f77b4; stroke: #1f77b4"/>
     <use xlink:href="#mb1a4df2c76" x="365.858444" y="441.567366" style="fill: #1f77b4; stroke: #1f77b4"/>
     <use xlink:href="#mb1a4df2c76" x="373.499345" y="432.10098" style="fill: #1f77b4; stroke: #1f77b4"/>
     <use xlink:href="#mb1a4df2c76" x="381.140247" y="449.374773" style="fill: #1f77b4; stroke: #1f77b4"/>
     <use xlink:href="#mb1a4df2c76" x="388.781149" y="417.585406" style="fill: #1f77b4; stroke: #1f77b4"/>
     <use xlink:href="#mb1a4df2c76" x="396.422051" y="437.367897" style="fill: #1f77b4; stroke: #1f77b4"/>
     <use xlink:href="#mb1a4df2c76" x="404.062953" y="435.438204" style="fill: #1f77b4; stroke: #1f77b4"/>
     <use xlink:href="#mb1a4df2c76" x="411.703855" y="436.095244" style="fill: #1f77b4; stroke: #1f77b4"/>
     <use xlink:href="#mb1a4df2c76" x="419.344756" y="450.270737" style="fill: #1f77b4; stroke: #1f77b4"/>
     <use xlink:href="#mb1a4df2c76" x="426.985658" y="419.212591" style="fill: #1f77b4; stroke: #1f77b4"/>
     <use xlink:href="#mb1a4df2c76" x="434.62656" y="405.503385" style="fill: #1f77b4; stroke: #1f77b4"/>
     <use xlink:href="#mb1a4df2c76" x="442.267462" y="427.327324" style="fill: #1f77b4; stroke: #1f77b4"/>
     <use xlink:href="#mb1a4df2c76" x="449.908364" y="413.287671" style="fill: #1f77b4; stroke: #1f77b4"/>
     <use xlink:href="#mb1a4df2c76" x="457.549265" y="423.426511" style="fill: #1f77b4; stroke: #1f77b4"/>
     <use xlink:href="#mb1a4df2c76" x="465.190167" y="428.210764" style="fill: #1f77b4; stroke: #1f77b4"/>
     <use xlink:href="#mb1a4df2c76" x="472.831069" y="415.075744" style="fill: #1f77b4; stroke: #1f77b4"/>
     <use xlink:href="#mb1a4df2c76" x="480.471971" y="418.771353" style="fill: #1f77b4; stroke: #1f77b4"/>
     <use xlink:href="#mb1a4df2c76" x="488.112873" y="407.026523" style="fill: #1f77b4; stroke: #1f77b4"/>
     <use xlink:href="#mb1a4df2c76" x="495.753775" y="399.557269" style="fill: #1f77b4; stroke: #1f77b4"/>
     <use xlink:href="#mb1a4df2c76" x="503.394676" y="409.111324" style="fill: #1f77b4; stroke: #1f77b4"/>
     <use xlink:href="#mb1a4df2c76" x="511.035578" y="402.779848" style="fill: #1f77b4; stroke: #1f77b4"/>
     <use xlink:href="#mb1a4df2c76" x="518.67648" y="399.604476" style="fill: #1f77b4; stroke: #1f77b4"/>
     <use xlink:href="#mb1a4df2c76" x="526.317382" y="408.343493" style="fill: #1f77b4; stroke: #1f77b4"/>
     <use xlink:href="#mb1a4df2c76" x="533.958284" y="404.838637" style="fill: #1f77b4; stroke: #1f77b4"/>
     <use xlink:href="#mb1a4df2c76" x="541.599185" y="386.555199" style="fill: #1f77b4; stroke: #1f77b4"/>
     <use xlink:href="#mb1a4df2c76" x="549.240087" y="388.111093" style="fill: #1f77b4; stroke: #1f77b4"/>
     <use xlink:href="#mb1a4df2c76" x="556.880989" y="387.713208" style="fill: #1f77b4; stroke: #1f77b4"/>
     <use xlink:href="#mb1a4df2c76" x="564.521891" y="372.934625" style="fill: #1f77b4; stroke: #1f77b4"/>
     <use xlink:href="#mb1a4df2c76" x="572.162793" y="368.649414" style="fill: #1f77b4; stroke: #1f77b4"/>
     <use xlink:href="#mb1a4df2c76" x="579.803695" y="357.565477" style="fill: #1f77b4; stroke: #1f77b4"/>
     <use xlink:href="#mb1a4df2c76" x="587.444596" y="316.959057" style="fill: #1f77b4; stroke: #1f77b4"/>
     <use xlink:href="#mb1a4df2c76" x="595.085498" y="344.162632" style="fill: #1f77b4; stroke: #1f77b4"/>
     <use xlink:href="#mb1a4df2c76" x="602.7264" y="341.523874" style="fill: #1f77b4; stroke: #1f77b4"/>
     <use xlink:href="#mb1a4df2c76" x="610.367302" y="332.221267" style="fill: #1f77b4; stroke: #1f77b4"/>
     <use xlink:href="#mb1a4df2c76" x="618.008204" y="356.001876" style="fill: #1f77b4; stroke: #1f77b4"/>
     <use xlink:href="#mb1a4df2c76" x="625.649105" y="334.570041" style="fill: #1f77b4; stroke: #1f77b4"/>
     <use xlink:href="#mb1a4df2c76" x="633.290007" y="328.289625" style="fill: #1f77b4; stroke: #1f77b4"/>
     <use xlink:href="#mb1a4df2c76" x="640.930909" y="323.679747" style="fill: #1f77b4; stroke: #1f77b4"/>
     <use xlink:href="#mb1a4df2c76" x="648.571811" y="305.673769" style="fill: #1f77b4; stroke: #1f77b4"/>
     <use xlink:href="#mb1a4df2c76" x="656.212713" y="315.200848" style="fill: #1f77b4; stroke: #1f77b4"/>
     <use xlink:href="#mb1a4df2c76" x="663.853615" y="319.632496" style="fill: #1f77b4; stroke: #1f77b4"/>
     <use xlink:href="#mb1a4df2c76" x="671.494516" y="331.399485" style="fill: #1f77b4; stroke: #1f77b4"/>
     <use xlink:href="#mb1a4df2c76" x="679.135418" y="315.842474" style="fill: #1f77b4; stroke: #1f77b4"/>
     <use xlink:href="#mb1a4df2c76" x="686.77632" y="303.220948" style="fill: #1f77b4; stroke: #1f77b4"/>
     <use xlink:href="#mb1a4df2c76" x="694.417222" y="296.127421" style="fill: #1f77b4; stroke: #1f77b4"/>
     <use xlink:href="#mb1a4df2c76" x="702.058124" y="297.48678" style="fill: #1f77b4; stroke: #1f77b4"/>
     <use xlink:href="#mb1a4df2c76" x="709.699025" y="294.067668" style="fill: #1f77b4; stroke: #1f77b4"/>
     <use xlink:href="#mb1a4df2c76" x="717.339927" y="296.742071" style="fill: #1f77b4; stroke: #1f77b4"/>
     <use xlink:href="#mb1a4df2c76" x="724.980829" y="273.308287" style="fill: #1f77b4; stroke: #1f77b4"/>
     <use xlink:href="#mb1a4df2c76" x="732.621731" y="278.030882" style="fill: #1f77b4; stroke: #1f77b4"/>
     <use xlink:href="#mb1a4df2c76" x="740.262633" y="272.641613" style="fill: #1f77b4; stroke: #1f77b4"/>
     <use xlink:href="#mb1a4df2c76" x="747.903535" y="271.795746" style="fill: #1f77b4; stroke: #1f77b4"/>
     <use xlink:href="#mb1a4df2c76" x="755.544436" y="248.230939" style="fill: #1f77b4; stroke: #1f77b4"/>
     <use xlink:href="#mb1a4df2c76" x="763.185338" y="286.565658" style="fill: #1f77b4; stroke: #1f77b4"/>
     <use xlink:href="#mb1a4df2c76" x="770.82624" y="270.524056" style="fill: #1f77b4; stroke: #1f77b4"/>
     <use xlink:href="#mb1a4df2c76" x="778.467142" y="269.979734" style="fill: #1f77b4; stroke: #1f77b4"/>
     <use xlink:href="#mb1a4df2c76" x="786.108044" y="254.226188" style="fill: #1f77b4; stroke: #1f77b4"/>
     <use xlink:href="#mb1a4df2c76" x="793.748945" y="255.348551" style="fill: #1f77b4; stroke: #1f77b4"/>
     <use xlink:href="#mb1a4df2c76" x="801.389847" y="236.69324" style="fill: #1f77b4; stroke: #1f77b4"/>
     <use xlink:href="#mb1a4df2c76" x="809.030749" y="243.706805" style="fill: #1f77b4; stroke: #1f77b4"/>
     <use xlink:href="#mb1a4df2c76" x="816.671651" y="236.724069" style="fill: #1f77b4; stroke: #1f77b4"/>
     <use xlink:href="#mb1a4df2c76" x="824.312553" y="211.318201" style="fill: #1f77b4; stroke: #1f77b4"/>
     <use xlink:href="#mb1a4df2c76" x="831.953455" y="86.939182" style="fill: #1f77b4; stroke: #1f77b4"/>
     <use xlink:href="#mb1a4df2c76" x="839.594356" y="171.968057" style="fill: #1f77b4; stroke: #1f77b4"/>
     <use xlink:href="#mb1a4df2c76" x="847.235258" y="222.919485" style="fill: #1f77b4; stroke: #1f77b4"/>
     <use xlink:href="#mb1a4df2c76" x="854.87616" y="198.206303" style="fill: #1f77b4; stroke: #1f77b4"/>
     <use xlink:href="#mb1a4df2c76" x="862.517062" y="237.485156" style="fill: #1f77b4; stroke: #1f77b4"/>
     <use xlink:href="#mb1a4df2c76" x="870.157964" y="222.140093" style="fill: #1f77b4; stroke: #1f77b4"/>
     <use xlink:href="#mb1a4df2c76" x="877.798865" y="228.577544" style="fill: #1f77b4; stroke: #1f77b4"/>
     <use xlink:href="#mb1a4df2c76" x="885.439767" y="210.576382" style="fill: #1f77b4; stroke: #1f77b4"/>
     <use xlink:href="#mb1a4df2c76" x="893.080669" y="196.614764" style="fill: #1f77b4; stroke: #1f77b4"/>
     <use xlink:href="#mb1a4df2c76" x="900.721571" y="137.914695" style="fill: #1f77b4; stroke: #1f77b4"/>
     <use xlink:href="#mb1a4df2c76" x="908.362473" y="156.745346" style="fill: #1f77b4; stroke: #1f77b4"/>
     <use xlink:href="#mb1a4df2c76" x="916.003375" y="157.866745" style="fill: #1f77b4; stroke: #1f77b4"/>
     <use xlink:href="#mb1a4df2c76" x="923.644276" y="169.416969" style="fill: #1f77b4; stroke: #1f77b4"/>
     <use xlink:href="#mb1a4df2c76" x="931.285178" y="131.852971" style="fill: #1f77b4; stroke: #1f77b4"/>
     <use xlink:href="#mb1a4df2c76" x="938.92608" y="149.489004" style="fill: #1f77b4; stroke: #1f77b4"/>
     <use xlink:href="#mb1a4df2c76" x="946.566982" y="139.004303" style="fill: #1f77b4; stroke: #1f77b4"/>
     <use xlink:href="#mb1a4df2c76" x="954.207884" y="166.377436" style="fill: #1f77b4; stroke: #1f77b4"/>
     <use xlink:href="#mb1a4df2c76" x="961.848785" y="102.008712" style="fill: #1f77b4; stroke: #1f77b4"/>
     <use xlink:href="#mb1a4df2c76" x="969.489687" y="87.050936" style="fill: #1f77b4; stroke: #1f77b4"/>
     <use xlink:href="#mb1a4df2c76" x="977.130589" y="140.134373" style="fill: #1f77b4; stroke: #1f77b4"/>
     <use xlink:href="#mb1a4df2c76" x="984.771491" y="107.932669" style="fill: #1f77b4; stroke: #1f77b4"/>
    </g>
   </g>
   <g id="patch_3">
    <path d="M 182.4768 551.106 
L 182.4768 64.836 
" style="fill: none; stroke: #000000; stroke-width: 0.8; stroke-linejoin: miter; stroke-linecap: square"/>
   </g>
   <g id="patch_4">
    <path d="M 1022.976 551.106 
L 1022.976 64.836 
" style="fill: none; stroke: #000000; stroke-width: 0.8; stroke-linejoin: miter; stroke-linecap: square"/>
   </g>
   <g id="patch_5">
    <path d="M 182.4768 551.106 
L 1022.976 551.106 
" style="fill: none; stroke: #000000; stroke-width: 0.8; stroke-linejoin: miter; stroke-linecap: square"/>
   </g>
   <g id="patch_6">
    <path d="M 182.4768 64.836 
L 1022.976 64.836 
" style="fill: none; stroke: #000000; stroke-width: 0.8; stroke-linejoin: miter; stroke-linecap: square"/>
   </g>
   <g id="text_18">
    <!-- Operation time for different Nx  -->
    <g transform="translate(507.916088 45.398625) scale(0.12 -0.12)">
     <defs>
      <path id="DejaVuSans-4f" d="M 2522 4238 
Q 1834 4238 1429 3725 
Q 1025 3213 1025 2328 
Q 1025 1447 1429 934 
Q 1834 422 2522 422 
Q 3209 422 3611 934 
Q 4013 1447 4013 2328 
Q 4013 3213 3611 3725 
Q 3209 4238 2522 4238 
z
M 2522 4750 
Q 3503 4750 4090 4092 
Q 4678 3434 4678 2328 
Q 4678 1225 4090 567 
Q 3503 -91 2522 -91 
Q 1538 -91 948 565 
Q 359 1222 359 2328 
Q 359 3434 948 4092 
Q 1538 4750 2522 4750 
z
" transform="scale(0.015625)"/>
      <path id="DejaVuSans-66" d="M 2375 4863 
L 2375 4384 
L 1825 4384 
Q 1516 4384 1395 4259 
Q 1275 4134 1275 3809 
L 1275 3500 
L 2222 3500 
L 2222 3053 
L 1275 3053 
L 1275 0 
L 697 0 
L 697 3053 
L 147 3053 
L 147 3500 
L 697 3500 
L 697 3744 
Q 697 4328 969 4595 
Q 1241 4863 1831 4863 
L 2375 4863 
z
" transform="scale(0.015625)"/>
      <path id="DejaVuSans-64" d="M 2906 2969 
L 2906 4863 
L 3481 4863 
L 3481 0 
L 2906 0 
L 2906 525 
Q 2725 213 2448 61 
Q 2172 -91 1784 -91 
Q 1150 -91 751 415 
Q 353 922 353 1747 
Q 353 2572 751 3078 
Q 1150 3584 1784 3584 
Q 2172 3584 2448 3432 
Q 2725 3281 2906 2969 
z
M 947 1747 
Q 947 1113 1208 752 
Q 1469 391 1925 391 
Q 2381 391 2643 752 
Q 2906 1113 2906 1747 
Q 2906 2381 2643 2742 
Q 2381 3103 1925 3103 
Q 1469 3103 1208 2742 
Q 947 2381 947 1747 
z
" transform="scale(0.015625)"/>
     </defs>
     <use xlink:href="#DejaVuSans-4f"/>
     <use xlink:href="#DejaVuSans-70" x="78.710938"/>
     <use xlink:href="#DejaVuSans-65" x="142.1875"/>
     <use xlink:href="#DejaVuSans-72" x="203.710938"/>
     <use xlink:href="#DejaVuSans-61" x="244.824219"/>
     <use xlink:href="#DejaVuSans-74" x="306.103516"/>
     <use xlink:href="#DejaVuSans-69" x="345.3125"/>
     <use xlink:href="#DejaVuSans-6f" x="373.095703"/>
     <use xlink:href="#DejaVuSans-6e" x="434.277344"/>
     <use xlink:href="#DejaVuSans-20" x="497.65625"/>
     <use xlink:href="#DejaVuSans-74" x="529.443359"/>
     <use xlink:href="#DejaVuSans-69" x="568.652344"/>
     <use xlink:href="#DejaVuSans-6d" x="596.435547"/>
     <use xlink:href="#DejaVuSans-65" x="693.847656"/>
     <use xlink:href="#DejaVuSans-20" x="755.371094"/>
     <use xlink:href="#DejaVuSans-66" x="787.158203"/>
     <use xlink:href="#DejaVuSans-6f" x="822.363281"/>
     <use xlink:href="#DejaVuSans-72" x="883.544922"/>
     <use xlink:href="#DejaVuSans-20" x="924.658203"/>
     <use xlink:href="#DejaVuSans-64" x="956.445312"/>
     <use xlink:href="#DejaVuSans-69" x="1019.921875"/>
     <use xlink:href="#DejaVuSans-66" x="1047.705078"/>
     <use xlink:href="#DejaVuSans-66" x="1082.910156"/>
     <use xlink:href="#DejaVuSans-65" x="1118.115234"/>
     <use xlink:href="#DejaVuSans-72" x="1179.638672"/>
     <use xlink:href="#DejaVuSans-65" x="1218.501953"/>
     <use xlink:href="#DejaVuSans-6e" x="1280.025391"/>
     <use xlink:href="#DejaVuSans-74" x="1343.404297"/>
     <use xlink:href="#DejaVuSans-20" x="1382.613281"/>
     <use xlink:href="#DejaVuSans-4e" x="1414.400391"/>
     <use xlink:href="#DejaVuSans-78" x="1489.205078"/>
     <use xlink:href="#DejaVuSans-20" x="1548.384766"/>
    </g>
    <!--  Implicit scheme -->
    <g transform="translate(553.382025 58.836) scale(0.12 -0.12)">
     <defs>
      <path id="DejaVuSans-49" d="M 628 4666 
L 1259 4666 
L 1259 0 
L 628 0 
L 628 4666 
z
" transform="scale(0.015625)"/>
      <path id="DejaVuSans-6c" d="M 603 4863 
L 1178 4863 
L 1178 0 
L 603 0 
L 603 4863 
z
" transform="scale(0.015625)"/>
      <path id="DejaVuSans-63" d="M 3122 3366 
L 3122 2828 
Q 2878 2963 2633 3030 
Q 2388 3097 2138 3097 
Q 1578 3097 1268 2742 
Q 959 2388 959 1747 
Q 959 1106 1268 751 
Q 1578 397 2138 397 
Q 2388 397 2633 464 
Q 2878 531 3122 666 
L 3122 134 
Q 2881 22 2623 -34 
Q 2366 -91 2075 -91 
Q 1284 -91 818 406 
Q 353 903 353 1747 
Q 353 2603 823 3093 
Q 1294 3584 2113 3584 
Q 2378 3584 2631 3529 
Q 2884 3475 3122 3366 
z
" transform="scale(0.015625)"/>
      <path id="DejaVuSans-68" d="M 3513 2113 
L 3513 0 
L 2938 0 
L 2938 2094 
Q 2938 2591 2744 2837 
Q 2550 3084 2163 3084 
Q 1697 3084 1428 2787 
Q 1159 2491 1159 1978 
L 1159 0 
L 581 0 
L 581 4863 
L 1159 4863 
L 1159 2956 
Q 1366 3272 1645 3428 
Q 1925 3584 2291 3584 
Q 2894 3584 3203 3211 
Q 3513 2838 3513 2113 
z
" transform="scale(0.015625)"/>
     </defs>
     <use xlink:href="#DejaVuSans-20"/>
     <use xlink:href="#DejaVuSans-49" x="31.787109"/>
     <use xlink:href="#DejaVuSans-6d" x="61.279297"/>
     <use xlink:href="#DejaVuSans-70" x="158.691406"/>
     <use xlink:href="#DejaVuSans-6c" x="222.167969"/>
     <use xlink:href="#DejaVuSans-69" x="249.951172"/>
     <use xlink:href="#DejaVuSans-63" x="277.734375"/>
     <use xlink:href="#DejaVuSans-69" x="332.714844"/>
     <use xlink:href="#DejaVuSans-74" x="360.498047"/>
     <use xlink:href="#DejaVuSans-20" x="399.707031"/>
     <use xlink:href="#DejaVuSans-73" x="431.494141"/>
     <use xlink:href="#DejaVuSans-63" x="483.59375"/>
     <use xlink:href="#DejaVuSans-68" x="538.574219"/>
     <use xlink:href="#DejaVuSans-65" x="601.953125"/>
     <use xlink:href="#DejaVuSans-6d" x="663.476562"/>
     <use xlink:href="#DejaVuSans-65" x="760.888672"/>
    </g>
   </g>
  </g>
 </g>
 <defs>
  <clipPath id="pdc884a074a">
   <rect x="182.4768" y="64.836" width="840.4992" height="486.27"/>
  </clipPath>
 </defs>
</svg>
