<?xml version="1.0" encoding="utf-8" standalone="no"?>
<!DOCTYPE svg PUBLIC "-//W3C//DTD SVG 1.1//EN"
  "http://www.w3.org/Graphics/SVG/1.1/DTD/svg11.dtd">
<svg xmlns:xlink="http://www.w3.org/1999/xlink" width="1105.92pt" height="648.36pt" viewBox="0 0 1105.92 648.36" xmlns="http://www.w3.org/2000/svg" version="1.1">
 <metadata>
  <rdf:RDF xmlns:dc="http://purl.org/dc/elements/1.1/" xmlns:cc="http://creativecommons.org/ns#" xmlns:rdf="http://www.w3.org/1999/02/22-rdf-syntax-ns#">
   <cc:Work>
    <dc:type rdf:resource="http://purl.org/dc/dcmitype/StillImage"/>
    <dc:date>2024-06-09T12:44:10.431993</dc:date>
    <dc:format>image/svg+xml</dc:format>
    <dc:creator>
     <cc:Agent>
      <dc:title>Matplotlib v3.8.4, https://matplotlib.org/</dc:title>
     </cc:Agent>
    </dc:creator>
   </cc:Work>
  </rdf:RDF>
 </metadata>
 <defs>
  <style type="text/css">*{stroke-linejoin: round; stroke-linecap: butt}</style>
 </defs>
 <g id="figure_1">
  <g id="patch_1">
   <path d="M 0 648.36 
L 1105.92 648.36 
L 1105.92 0 
L 0 0 
z
" style="fill: #ffffff"/>
  </g>
  <g id="axes_1">
   <g id="patch_2">
    <path d="M 182.4768 551.106 
L 1022.976 551.106 
L 1022.976 64.836 
L 182.4768 64.836 
z
" style="fill: #ffffff"/>
   </g>
   <g id="matplotlib.axis_1">
    <g id="xtick_1">
     <g id="line2d_1">
      <path d="M 297.090327 551.106 
L 297.090327 64.836 
" clip-path="url(#p9e869ffedb)" style="fill: none; stroke: #b0b0b0; stroke-width: 0.8; stroke-linecap: square"/>
     </g>
     <g id="line2d_2">
      <defs>
       <path id="m24eadb02da" d="M 0 0 
L 0 3.5 
" style="stroke: #000000; stroke-width: 0.8"/>
      </defs>
      <g>
       <use xlink:href="#m24eadb02da" x="297.090327" y="551.106" style="stroke: #000000; stroke-width: 0.8"/>
      </g>
     </g>
     <g id="text_1">
      <!-- −20 -->
      <g transform="translate(286.537984 565.704438) scale(0.1 -0.1)">
       <defs>
        <path id="DejaVuSans-2212" d="M 678 2272 
L 4684 2272 
L 4684 1741 
L 678 1741 
L 678 2272 
z
" transform="scale(0.015625)"/>
        <path id="DejaVuSans-32" d="M 1228 531 
L 3431 531 
L 3431 0 
L 469 0 
L 469 531 
Q 828 903 1448 1529 
Q 2069 2156 2228 2338 
Q 2531 2678 2651 2914 
Q 2772 3150 2772 3378 
Q 2772 3750 2511 3984 
Q 2250 4219 1831 4219 
Q 1534 4219 1204 4116 
Q 875 4013 500 3803 
L 500 4441 
Q 881 4594 1212 4672 
Q 1544 4750 1819 4750 
Q 2544 4750 2975 4387 
Q 3406 4025 3406 3419 
Q 3406 3131 3298 2873 
Q 3191 2616 2906 2266 
Q 2828 2175 2409 1742 
Q 1991 1309 1228 531 
z
" transform="scale(0.015625)"/>
        <path id="DejaVuSans-30" d="M 2034 4250 
Q 1547 4250 1301 3770 
Q 1056 3291 1056 2328 
Q 1056 1369 1301 889 
Q 1547 409 2034 409 
Q 2525 409 2770 889 
Q 3016 1369 3016 2328 
Q 3016 3291 2770 3770 
Q 2525 4250 2034 4250 
z
M 2034 4750 
Q 2819 4750 3233 4129 
Q 3647 3509 3647 2328 
Q 3647 1150 3233 529 
Q 2819 -91 2034 -91 
Q 1250 -91 836 529 
Q 422 1150 422 2328 
Q 422 3509 836 4129 
Q 1250 4750 2034 4750 
z
" transform="scale(0.015625)"/>
       </defs>
       <use xlink:href="#DejaVuSans-2212"/>
       <use xlink:href="#DejaVuSans-32" x="83.789062"/>
       <use xlink:href="#DejaVuSans-30" x="147.412109"/>
      </g>
     </g>
    </g>
    <g id="xtick_2">
     <g id="line2d_3">
      <path d="M 449.908364 551.106 
L 449.908364 64.836 
" clip-path="url(#p9e869ffedb)" style="fill: none; stroke: #b0b0b0; stroke-width: 0.8; stroke-linecap: square"/>
     </g>
     <g id="line2d_4">
      <g>
       <use xlink:href="#m24eadb02da" x="449.908364" y="551.106" style="stroke: #000000; stroke-width: 0.8"/>
      </g>
     </g>
     <g id="text_2">
      <!-- −10 -->
      <g transform="translate(439.35602 565.704438) scale(0.1 -0.1)">
       <defs>
        <path id="DejaVuSans-31" d="M 794 531 
L 1825 531 
L 1825 4091 
L 703 3866 
L 703 4441 
L 1819 4666 
L 2450 4666 
L 2450 531 
L 3481 531 
L 3481 0 
L 794 0 
L 794 531 
z
" transform="scale(0.015625)"/>
       </defs>
       <use xlink:href="#DejaVuSans-2212"/>
       <use xlink:href="#DejaVuSans-31" x="83.789062"/>
       <use xlink:href="#DejaVuSans-30" x="147.412109"/>
      </g>
     </g>
    </g>
    <g id="xtick_3">
     <g id="line2d_5">
      <path d="M 602.7264 551.106 
L 602.7264 64.836 
" clip-path="url(#p9e869ffedb)" style="fill: none; stroke: #b0b0b0; stroke-width: 0.8; stroke-linecap: square"/>
     </g>
     <g id="line2d_6">
      <g>
       <use xlink:href="#m24eadb02da" x="602.7264" y="551.106" style="stroke: #000000; stroke-width: 0.8"/>
      </g>
     </g>
     <g id="text_3">
      <!-- 0 -->
      <g transform="translate(599.54515 565.704438) scale(0.1 -0.1)">
       <use xlink:href="#DejaVuSans-30"/>
      </g>
     </g>
    </g>
    <g id="xtick_4">
     <g id="line2d_7">
      <path d="M 755.544436 551.106 
L 755.544436 64.836 
" clip-path="url(#p9e869ffedb)" style="fill: none; stroke: #b0b0b0; stroke-width: 0.8; stroke-linecap: square"/>
     </g>
     <g id="line2d_8">
      <g>
       <use xlink:href="#m24eadb02da" x="755.544436" y="551.106" style="stroke: #000000; stroke-width: 0.8"/>
      </g>
     </g>
     <g id="text_4">
      <!-- 10 -->
      <g transform="translate(749.181936 565.704438) scale(0.1 -0.1)">
       <use xlink:href="#DejaVuSans-31"/>
       <use xlink:href="#DejaVuSans-30" x="63.623047"/>
      </g>
     </g>
    </g>
    <g id="xtick_5">
     <g id="line2d_9">
      <path d="M 908.362473 551.106 
L 908.362473 64.836 
" clip-path="url(#p9e869ffedb)" style="fill: none; stroke: #b0b0b0; stroke-width: 0.8; stroke-linecap: square"/>
     </g>
     <g id="line2d_10">
      <g>
       <use xlink:href="#m24eadb02da" x="908.362473" y="551.106" style="stroke: #000000; stroke-width: 0.8"/>
      </g>
     </g>
     <g id="text_5">
      <!-- 20 -->
      <g transform="translate(901.999973 565.704438) scale(0.1 -0.1)">
       <use xlink:href="#DejaVuSans-32"/>
       <use xlink:href="#DejaVuSans-30" x="63.623047"/>
      </g>
     </g>
    </g>
    <g id="text_6">
     <!-- x [µm] -->
     <g transform="translate(586.224838 579.382562) scale(0.1 -0.1)">
      <defs>
       <path id="DejaVuSans-78" d="M 3513 3500 
L 2247 1797 
L 3578 0 
L 2900 0 
L 1881 1375 
L 863 0 
L 184 0 
L 1544 1831 
L 300 3500 
L 978 3500 
L 1906 2253 
L 2834 3500 
L 3513 3500 
z
" transform="scale(0.015625)"/>
       <path id="DejaVuSans-20" transform="scale(0.015625)"/>
       <path id="DejaVuSans-5b" d="M 550 4863 
L 1875 4863 
L 1875 4416 
L 1125 4416 
L 1125 -397 
L 1875 -397 
L 1875 -844 
L 550 -844 
L 550 4863 
z
" transform="scale(0.015625)"/>
       <path id="DejaVuSans-b5" d="M 544 -1331 
L 544 3500 
L 1119 3500 
L 1119 1325 
Q 1119 872 1334 640 
Q 1550 409 1972 409 
Q 2434 409 2667 671 
Q 2900 934 2900 1459 
L 2900 3500 
L 3475 3500 
L 3475 806 
Q 3475 619 3529 530 
Q 3584 441 3700 441 
Q 3728 441 3778 458 
Q 3828 475 3916 513 
L 3916 50 
Q 3788 -22 3673 -56 
Q 3559 -91 3450 -91 
Q 3234 -91 3106 31 
Q 2978 153 2931 403 
Q 2775 156 2548 32 
Q 2322 -91 2016 -91 
Q 1697 -91 1473 31 
Q 1250 153 1119 397 
L 1119 -1331 
L 544 -1331 
z
" transform="scale(0.015625)"/>
       <path id="DejaVuSans-6d" d="M 3328 2828 
Q 3544 3216 3844 3400 
Q 4144 3584 4550 3584 
Q 5097 3584 5394 3201 
Q 5691 2819 5691 2113 
L 5691 0 
L 5113 0 
L 5113 2094 
Q 5113 2597 4934 2840 
Q 4756 3084 4391 3084 
Q 3944 3084 3684 2787 
Q 3425 2491 3425 1978 
L 3425 0 
L 2847 0 
L 2847 2094 
Q 2847 2600 2669 2842 
Q 2491 3084 2119 3084 
Q 1678 3084 1418 2786 
Q 1159 2488 1159 1978 
L 1159 0 
L 581 0 
L 581 3500 
L 1159 3500 
L 1159 2956 
Q 1356 3278 1631 3431 
Q 1906 3584 2284 3584 
Q 2666 3584 2933 3390 
Q 3200 3197 3328 2828 
z
" transform="scale(0.015625)"/>
       <path id="DejaVuSans-5d" d="M 1947 4863 
L 1947 -844 
L 622 -844 
L 622 -397 
L 1369 -397 
L 1369 4416 
L 622 4416 
L 622 4863 
L 1947 4863 
z
" transform="scale(0.015625)"/>
      </defs>
      <use xlink:href="#DejaVuSans-78"/>
      <use xlink:href="#DejaVuSans-20" x="59.179688"/>
      <use xlink:href="#DejaVuSans-5b" x="90.966797"/>
      <use xlink:href="#DejaVuSans-b5" x="129.980469"/>
      <use xlink:href="#DejaVuSans-6d" x="193.603516"/>
      <use xlink:href="#DejaVuSans-5d" x="291.015625"/>
     </g>
    </g>
   </g>
   <g id="matplotlib.axis_2">
    <g id="ytick_1">
     <g id="line2d_11">
      <path d="M 182.4768 529.002819 
L 1022.976 529.002819 
" clip-path="url(#p9e869ffedb)" style="fill: none; stroke: #b0b0b0; stroke-width: 0.8; stroke-linecap: square"/>
     </g>
     <g id="line2d_12">
      <defs>
       <path id="mac84d293ca" d="M 0 0 
L -3.5 0 
" style="stroke: #000000; stroke-width: 0.8"/>
      </defs>
      <g>
       <use xlink:href="#mac84d293ca" x="182.4768" y="529.002819" style="stroke: #000000; stroke-width: 0.8"/>
      </g>
     </g>
     <g id="text_7">
      <!-- 0.00 -->
      <g transform="translate(153.211175 532.802037) scale(0.1 -0.1)">
       <defs>
        <path id="DejaVuSans-2e" d="M 684 794 
L 1344 794 
L 1344 0 
L 684 0 
L 684 794 
z
" transform="scale(0.015625)"/>
       </defs>
       <use xlink:href="#DejaVuSans-30"/>
       <use xlink:href="#DejaVuSans-2e" x="63.623047"/>
       <use xlink:href="#DejaVuSans-30" x="95.410156"/>
       <use xlink:href="#DejaVuSans-30" x="159.033203"/>
      </g>
     </g>
    </g>
    <g id="ytick_2">
     <g id="line2d_13">
      <path d="M 182.4768 438.984786 
L 1022.976 438.984786 
" clip-path="url(#p9e869ffedb)" style="fill: none; stroke: #b0b0b0; stroke-width: 0.8; stroke-linecap: square"/>
     </g>
     <g id="line2d_14">
      <g>
       <use xlink:href="#mac84d293ca" x="182.4768" y="438.984786" style="stroke: #000000; stroke-width: 0.8"/>
      </g>
     </g>
     <g id="text_8">
      <!-- 0.02 -->
      <g transform="translate(153.211175 442.784005) scale(0.1 -0.1)">
       <use xlink:href="#DejaVuSans-30"/>
       <use xlink:href="#DejaVuSans-2e" x="63.623047"/>
       <use xlink:href="#DejaVuSans-30" x="95.410156"/>
       <use xlink:href="#DejaVuSans-32" x="159.033203"/>
      </g>
     </g>
    </g>
    <g id="ytick_3">
     <g id="line2d_15">
      <path d="M 182.4768 348.966753 
L 1022.976 348.966753 
" clip-path="url(#p9e869ffedb)" style="fill: none; stroke: #b0b0b0; stroke-width: 0.8; stroke-linecap: square"/>
     </g>
     <g id="line2d_16">
      <g>
       <use xlink:href="#mac84d293ca" x="182.4768" y="348.966753" style="stroke: #000000; stroke-width: 0.8"/>
      </g>
     </g>
     <g id="text_9">
      <!-- 0.04 -->
      <g transform="translate(153.211175 352.765972) scale(0.1 -0.1)">
       <defs>
        <path id="DejaVuSans-34" d="M 2419 4116 
L 825 1625 
L 2419 1625 
L 2419 4116 
z
M 2253 4666 
L 3047 4666 
L 3047 1625 
L 3713 1625 
L 3713 1100 
L 3047 1100 
L 3047 0 
L 2419 0 
L 2419 1100 
L 313 1100 
L 313 1709 
L 2253 4666 
z
" transform="scale(0.015625)"/>
       </defs>
       <use xlink:href="#DejaVuSans-30"/>
       <use xlink:href="#DejaVuSans-2e" x="63.623047"/>
       <use xlink:href="#DejaVuSans-30" x="95.410156"/>
       <use xlink:href="#DejaVuSans-34" x="159.033203"/>
      </g>
     </g>
    </g>
    <g id="ytick_4">
     <g id="line2d_17">
      <path d="M 182.4768 258.948721 
L 1022.976 258.948721 
" clip-path="url(#p9e869ffedb)" style="fill: none; stroke: #b0b0b0; stroke-width: 0.8; stroke-linecap: square"/>
     </g>
     <g id="line2d_18">
      <g>
       <use xlink:href="#mac84d293ca" x="182.4768" y="258.948721" style="stroke: #000000; stroke-width: 0.8"/>
      </g>
     </g>
     <g id="text_10">
      <!-- 0.06 -->
      <g transform="translate(153.211175 262.74794) scale(0.1 -0.1)">
       <defs>
        <path id="DejaVuSans-36" d="M 2113 2584 
Q 1688 2584 1439 2293 
Q 1191 2003 1191 1497 
Q 1191 994 1439 701 
Q 1688 409 2113 409 
Q 2538 409 2786 701 
Q 3034 994 3034 1497 
Q 3034 2003 2786 2293 
Q 2538 2584 2113 2584 
z
M 3366 4563 
L 3366 3988 
Q 3128 4100 2886 4159 
Q 2644 4219 2406 4219 
Q 1781 4219 1451 3797 
Q 1122 3375 1075 2522 
Q 1259 2794 1537 2939 
Q 1816 3084 2150 3084 
Q 2853 3084 3261 2657 
Q 3669 2231 3669 1497 
Q 3669 778 3244 343 
Q 2819 -91 2113 -91 
Q 1303 -91 875 529 
Q 447 1150 447 2328 
Q 447 3434 972 4092 
Q 1497 4750 2381 4750 
Q 2619 4750 2861 4703 
Q 3103 4656 3366 4563 
z
" transform="scale(0.015625)"/>
       </defs>
       <use xlink:href="#DejaVuSans-30"/>
       <use xlink:href="#DejaVuSans-2e" x="63.623047"/>
       <use xlink:href="#DejaVuSans-30" x="95.410156"/>
       <use xlink:href="#DejaVuSans-36" x="159.033203"/>
      </g>
     </g>
    </g>
    <g id="ytick_5">
     <g id="line2d_19">
      <path d="M 182.4768 168.930688 
L 1022.976 168.930688 
" clip-path="url(#p9e869ffedb)" style="fill: none; stroke: #b0b0b0; stroke-width: 0.8; stroke-linecap: square"/>
     </g>
     <g id="line2d_20">
      <g>
       <use xlink:href="#mac84d293ca" x="182.4768" y="168.930688" style="stroke: #000000; stroke-width: 0.8"/>
      </g>
     </g>
     <g id="text_11">
      <!-- 0.08 -->
      <g transform="translate(153.211175 172.729907) scale(0.1 -0.1)">
       <defs>
        <path id="DejaVuSans-38" d="M 2034 2216 
Q 1584 2216 1326 1975 
Q 1069 1734 1069 1313 
Q 1069 891 1326 650 
Q 1584 409 2034 409 
Q 2484 409 2743 651 
Q 3003 894 3003 1313 
Q 3003 1734 2745 1975 
Q 2488 2216 2034 2216 
z
M 1403 2484 
Q 997 2584 770 2862 
Q 544 3141 544 3541 
Q 544 4100 942 4425 
Q 1341 4750 2034 4750 
Q 2731 4750 3128 4425 
Q 3525 4100 3525 3541 
Q 3525 3141 3298 2862 
Q 3072 2584 2669 2484 
Q 3125 2378 3379 2068 
Q 3634 1759 3634 1313 
Q 3634 634 3220 271 
Q 2806 -91 2034 -91 
Q 1263 -91 848 271 
Q 434 634 434 1313 
Q 434 1759 690 2068 
Q 947 2378 1403 2484 
z
M 1172 3481 
Q 1172 3119 1398 2916 
Q 1625 2713 2034 2713 
Q 2441 2713 2670 2916 
Q 2900 3119 2900 3481 
Q 2900 3844 2670 4047 
Q 2441 4250 2034 4250 
Q 1625 4250 1398 4047 
Q 1172 3844 1172 3481 
z
" transform="scale(0.015625)"/>
       </defs>
       <use xlink:href="#DejaVuSans-30"/>
       <use xlink:href="#DejaVuSans-2e" x="63.623047"/>
       <use xlink:href="#DejaVuSans-30" x="95.410156"/>
       <use xlink:href="#DejaVuSans-38" x="159.033203"/>
      </g>
     </g>
    </g>
    <g id="ytick_6">
     <g id="line2d_21">
      <path d="M 182.4768 78.912656 
L 1022.976 78.912656 
" clip-path="url(#p9e869ffedb)" style="fill: none; stroke: #b0b0b0; stroke-width: 0.8; stroke-linecap: square"/>
     </g>
     <g id="line2d_22">
      <g>
       <use xlink:href="#mac84d293ca" x="182.4768" y="78.912656" style="stroke: #000000; stroke-width: 0.8"/>
      </g>
     </g>
     <g id="text_12">
      <!-- 0.10 -->
      <g transform="translate(153.211175 82.711875) scale(0.1 -0.1)">
       <use xlink:href="#DejaVuSans-30"/>
       <use xlink:href="#DejaVuSans-2e" x="63.623047"/>
       <use xlink:href="#DejaVuSans-31" x="95.410156"/>
       <use xlink:href="#DejaVuSans-30" x="159.033203"/>
      </g>
     </g>
    </g>
    <g id="text_13">
     <!-- intensity -->
     <g transform="translate(147.131488 329.647562) rotate(-90) scale(0.1 -0.1)">
      <defs>
       <path id="DejaVuSans-69" d="M 603 3500 
L 1178 3500 
L 1178 0 
L 603 0 
L 603 3500 
z
M 603 4863 
L 1178 4863 
L 1178 4134 
L 603 4134 
L 603 4863 
z
" transform="scale(0.015625)"/>
       <path id="DejaVuSans-6e" d="M 3513 2113 
L 3513 0 
L 2938 0 
L 2938 2094 
Q 2938 2591 2744 2837 
Q 2550 3084 2163 3084 
Q 1697 3084 1428 2787 
Q 1159 2491 1159 1978 
L 1159 0 
L 581 0 
L 581 3500 
L 1159 3500 
L 1159 2956 
Q 1366 3272 1645 3428 
Q 1925 3584 2291 3584 
Q 2894 3584 3203 3211 
Q 3513 2838 3513 2113 
z
" transform="scale(0.015625)"/>
       <path id="DejaVuSans-74" d="M 1172 4494 
L 1172 3500 
L 2356 3500 
L 2356 3053 
L 1172 3053 
L 1172 1153 
Q 1172 725 1289 603 
Q 1406 481 1766 481 
L 2356 481 
L 2356 0 
L 1766 0 
Q 1100 0 847 248 
Q 594 497 594 1153 
L 594 3053 
L 172 3053 
L 172 3500 
L 594 3500 
L 594 4494 
L 1172 4494 
z
" transform="scale(0.015625)"/>
       <path id="DejaVuSans-65" d="M 3597 1894 
L 3597 1613 
L 953 1613 
Q 991 1019 1311 708 
Q 1631 397 2203 397 
Q 2534 397 2845 478 
Q 3156 559 3463 722 
L 3463 178 
Q 3153 47 2828 -22 
Q 2503 -91 2169 -91 
Q 1331 -91 842 396 
Q 353 884 353 1716 
Q 353 2575 817 3079 
Q 1281 3584 2069 3584 
Q 2775 3584 3186 3129 
Q 3597 2675 3597 1894 
z
M 3022 2063 
Q 3016 2534 2758 2815 
Q 2500 3097 2075 3097 
Q 1594 3097 1305 2825 
Q 1016 2553 972 2059 
L 3022 2063 
z
" transform="scale(0.015625)"/>
       <path id="DejaVuSans-73" d="M 2834 3397 
L 2834 2853 
Q 2591 2978 2328 3040 
Q 2066 3103 1784 3103 
Q 1356 3103 1142 2972 
Q 928 2841 928 2578 
Q 928 2378 1081 2264 
Q 1234 2150 1697 2047 
L 1894 2003 
Q 2506 1872 2764 1633 
Q 3022 1394 3022 966 
Q 3022 478 2636 193 
Q 2250 -91 1575 -91 
Q 1294 -91 989 -36 
Q 684 19 347 128 
L 347 722 
Q 666 556 975 473 
Q 1284 391 1588 391 
Q 1994 391 2212 530 
Q 2431 669 2431 922 
Q 2431 1156 2273 1281 
Q 2116 1406 1581 1522 
L 1381 1569 
Q 847 1681 609 1914 
Q 372 2147 372 2553 
Q 372 3047 722 3315 
Q 1072 3584 1716 3584 
Q 2034 3584 2315 3537 
Q 2597 3491 2834 3397 
z
" transform="scale(0.015625)"/>
       <path id="DejaVuSans-79" d="M 2059 -325 
Q 1816 -950 1584 -1140 
Q 1353 -1331 966 -1331 
L 506 -1331 
L 506 -850 
L 844 -850 
Q 1081 -850 1212 -737 
Q 1344 -625 1503 -206 
L 1606 56 
L 191 3500 
L 800 3500 
L 1894 763 
L 2988 3500 
L 3597 3500 
L 2059 -325 
z
" transform="scale(0.015625)"/>
      </defs>
      <use xlink:href="#DejaVuSans-69"/>
      <use xlink:href="#DejaVuSans-6e" x="27.783203"/>
      <use xlink:href="#DejaVuSans-74" x="91.162109"/>
      <use xlink:href="#DejaVuSans-65" x="130.371094"/>
      <use xlink:href="#DejaVuSans-6e" x="191.894531"/>
      <use xlink:href="#DejaVuSans-73" x="255.273438"/>
      <use xlink:href="#DejaVuSans-69" x="307.373047"/>
      <use xlink:href="#DejaVuSans-74" x="335.15625"/>
      <use xlink:href="#DejaVuSans-79" x="374.365234"/>
     </g>
    </g>
   </g>
   <g id="line2d_23">
    <path d="M 220.681309 529.002699 
L 337.841804 528.90875 
L 368.405411 528.710489 
L 383.687215 528.422078 
L 393.875084 528.001489 
L 404.062953 527.235939 
L 409.156887 526.669652 
L 414.250822 525.951527 
L 419.344756 525.061869 
L 424.438691 523.985255 
L 429.532625 522.712576 
L 434.62656 521.242996 
L 439.720495 519.58563 
L 444.814429 517.760782 
L 455.002298 513.748838 
L 465.190167 509.598328 
L 470.284102 507.633278 
L 475.378036 505.838217 
L 480.471971 504.285438 
L 485.565905 503.041986 
L 490.65984 502.165067 
L 495.753775 501.697472 
L 500.847709 501.663268 
L 505.941644 502.063945 
L 511.035578 502.875172 
L 516.129513 504.044164 
L 521.223447 505.48745 
L 531.411316 508.693558 
L 536.505251 510.104598 
L 541.599185 511.063105 
L 546.69312 511.219425 
L 551.787055 510.073648 
L 556.880989 506.866486 
L 561.974924 500.382431 
L 567.068858 488.600861 
L 572.162793 468.08537 
L 577.256727 432.924552 
L 582.350662 372.906556 
L 587.444596 270.387705 
L 592.538531 176.25144 
L 597.632465 110.497784 
L 602.7264 86.939182 
L 607.820335 110.497784 
L 612.914269 176.25144 
L 618.008204 270.387705 
L 623.102138 372.906556 
L 628.196073 432.924552 
L 633.290007 468.08537 
L 638.383942 488.600861 
L 643.477876 500.382431 
L 648.571811 506.866486 
L 653.665745 510.073648 
L 658.75968 511.219425 
L 663.853615 511.063105 
L 668.947549 510.104598 
L 674.041484 508.693558 
L 684.229353 505.48745 
L 689.323287 504.044164 
L 694.417222 502.875172 
L 699.511156 502.063945 
L 704.605091 501.663268 
L 709.699025 501.697472 
L 714.79296 502.165067 
L 719.886895 503.041986 
L 724.980829 504.285438 
L 730.074764 505.838217 
L 735.168698 507.633278 
L 745.356567 511.660207 
L 755.544436 515.800572 
L 760.638371 517.760782 
L 765.732305 519.58563 
L 770.82624 521.242996 
L 775.920175 522.712576 
L 781.014109 523.985255 
L 786.108044 525.061869 
L 791.201978 525.951527 
L 796.295913 526.669652 
L 801.389847 527.235939 
L 811.577716 528.001489 
L 821.765585 528.422078 
L 837.047389 528.710489 
L 867.610996 528.90875 
L 918.550342 528.996615 
L 984.771491 529.002699 
L 984.771491 529.002699 
" clip-path="url(#p9e869ffedb)" style="fill: none; stroke: #1f77b4; stroke-width: 1.5; stroke-linecap: square"/>
   </g>
   <g id="line2d_24">
    <path d="M 220.681309 529.002773 
L 358.217542 528.889366 
L 384.414919 528.694679 
L 397.513608 528.412297 
L 408.429182 527.969009 
L 417.161642 527.417592 
L 425.894101 526.652084 
L 434.62656 525.65598 
L 443.359019 524.443107 
L 456.457708 522.343152 
L 471.739512 519.905523 
L 478.288856 519.04412 
L 484.838201 518.384698 
L 491.387545 517.981893 
L 497.936889 517.875027 
L 504.486234 518.081607 
L 511.035578 518.591573 
L 517.584923 519.362427 
L 526.317382 520.652945 
L 535.049841 521.951179 
L 539.416071 522.456556 
L 543.7823 522.753417 
L 548.14853 522.721989 
L 550.331645 522.533727 
L 552.514759 522.196289 
L 554.697874 521.677427 
L 556.880989 520.937924 
L 559.064104 519.929781 
L 561.247219 518.593938 
L 563.430334 516.857406 
L 565.613448 514.629666 
L 567.796563 511.798155 
L 569.979678 508.222613 
L 572.162793 503.72801 
L 574.345908 498.095709 
L 576.529022 491.052429 
L 578.712137 482.256465 
L 580.895252 471.280506 
L 583.078367 457.590214 
L 585.261482 440.517522 
L 589.627711 398.352035 
L 591.810826 378.822891 
L 593.993941 361.508392 
L 596.177056 347.17651 
L 598.36017 336.46166 
L 600.543285 329.837453 
L 602.7264 327.596412 
L 604.909515 329.837453 
L 607.09263 336.46166 
L 609.275744 347.17651 
L 611.458859 361.508392 
L 613.641974 378.822891 
L 615.825089 398.352035 
L 620.191318 440.517522 
L 622.374433 457.590214 
L 624.557548 471.280506 
L 626.740663 482.256465 
L 628.923778 491.052429 
L 631.106892 498.095709 
L 633.290007 503.72801 
L 635.473122 508.222613 
L 637.656237 511.798155 
L 639.839352 514.629666 
L 642.022466 516.857406 
L 644.205581 518.593938 
L 646.388696 519.929781 
L 648.571811 520.937924 
L 650.754926 521.677427 
L 652.938041 522.196289 
L 655.121155 522.533727 
L 657.30427 522.721989 
L 661.6705 522.753417 
L 666.036729 522.456556 
L 672.586074 521.649187 
L 692.234107 518.822653 
L 698.783451 518.219275 
L 705.332796 517.908939 
L 711.88214 517.912017 
L 718.431485 518.219595 
L 724.980829 518.798931 
L 731.530174 519.599743 
L 740.262633 520.905743 
L 766.46001 525.074334 
L 775.19247 526.182821 
L 783.924929 527.063218 
L 792.657388 527.718145 
L 801.389847 528.17513 
L 812.305421 528.530484 
L 827.587225 528.7726 
L 853.784603 528.91042 
L 923.644276 528.997995 
L 984.771491 529.002773 
L 984.771491 529.002773 
" clip-path="url(#p9e869ffedb)" style="fill: none; stroke: #ff7f0e; stroke-width: 1.5; stroke-linecap: square"/>
   </g>
   <g id="line2d_25">
    <path d="M 220.681309 529.002803 
L 370.720836 528.889094 
L 394.338169 528.678805 
L 408.230717 528.347041 
L 419.344756 527.883252 
L 430.458795 527.19605 
L 441.572834 526.279343 
L 456.854638 524.750209 
L 473.525697 523.106994 
L 481.861226 522.487072 
L 488.8075 522.152074 
L 495.753775 522.020558 
L 502.700049 522.112535 
L 509.646323 522.427357 
L 517.981853 523.061002 
L 531.874401 524.43772 
L 538.820676 525.029742 
L 544.377695 525.28366 
L 548.54546 525.244655 
L 551.32397 525.058213 
L 554.102479 524.700299 
L 556.880989 524.122586 
L 559.659499 523.262903 
L 562.438009 522.040596 
L 563.827263 521.261718 
L 565.216518 520.350345 
L 566.605773 519.28811 
L 567.995028 518.053935 
L 569.384283 516.623615 
L 570.773538 514.96934 
L 572.162793 513.05914 
L 573.552048 510.856258 
L 574.941302 508.318415 
L 576.330557 505.396978 
L 577.719812 502.035995 
L 579.109067 498.171091 
L 580.498322 493.728198 
L 581.887577 488.622097 
L 583.276832 482.754745 
L 584.666087 476.013354 
L 586.055341 468.268179 
L 590.223106 441.993158 
L 593.001616 426.24406 
L 594.390871 419.351255 
L 595.780126 413.287768 
L 597.16938 408.165937 
L 598.558635 404.080582 
L 599.94789 401.107285 
L 601.337145 399.301032 
L 602.7264 398.695215 
L 604.115655 399.301032 
L 605.50491 401.107285 
L 606.894165 404.080582 
L 608.28342 408.165937 
L 609.672674 413.287768 
L 611.061929 419.351255 
L 612.451184 426.24406 
L 615.229694 441.993158 
L 620.786713 476.013354 
L 622.175968 482.754745 
L 623.565223 488.622097 
L 624.954478 493.728198 
L 626.343733 498.171091 
L 627.732988 502.035995 
L 629.122243 505.396978 
L 630.511498 508.318415 
L 631.900752 510.856258 
L 633.290007 513.05914 
L 634.679262 514.96934 
L 636.068517 516.623615 
L 637.457772 518.053935 
L 638.847027 519.28811 
L 640.236282 520.350345 
L 643.014791 522.040596 
L 645.793301 523.262903 
L 648.571811 524.122586 
L 651.350321 524.700299 
L 654.12883 525.058213 
L 658.296595 525.285766 
L 662.46436 525.247176 
L 668.021379 524.92915 
L 676.356908 524.160445 
L 690.249457 522.823288 
L 698.584986 522.275726 
L 705.531261 522.048448 
L 712.477535 522.047056 
L 719.42381 522.263354 
L 727.759339 522.771466 
L 737.484123 523.615948 
L 774.994005 527.19605 
L 786.108044 527.883252 
L 797.222083 528.347041 
L 811.114631 528.678805 
L 829.174945 528.86203 
L 868.074081 528.963921 
L 981.992981 529.002688 
L 984.771491 529.002803 
L 984.771491 529.002803 
" clip-path="url(#p9e869ffedb)" style="fill: none; stroke: #2ca02c; stroke-width: 1.5; stroke-linecap: square"/>
   </g>
   <g id="line2d_26">
    <path d="M 220.681309 529.002811 
L 377.574493 528.893044 
L 399.987805 528.685241 
L 415.269609 528.323934 
L 428.513839 527.779786 
L 441.758068 526.997373 
L 460.096233 525.647068 
L 475.378036 524.585002 
L 485.565905 524.102263 
L 493.716201 523.926072 
L 501.866496 523.971669 
L 510.016791 524.243692 
L 519.185873 524.781997 
L 542.617972 526.322307 
L 547.711907 526.35469 
L 551.787055 526.164127 
L 554.843415 525.8396 
L 557.899776 525.304774 
L 560.956137 524.493376 
L 562.993711 523.756314 
L 565.031284 522.82448 
L 567.068858 521.657373 
L 569.106432 520.205509 
L 571.144006 518.408348 
L 573.18158 516.191742 
L 575.219153 513.464814 
L 577.256727 510.116133 
L 579.294301 506.009028 
L 581.331875 500.975849 
L 583.369449 494.810956 
L 585.407023 487.262127 
L 587.444596 478.020059 
L 590.500957 463.827313 
L 592.538531 455.152046 
L 594.576105 447.519806 
L 596.613679 441.238808 
L 597.632465 438.686628 
L 598.651252 436.562395 
L 599.670039 434.887557 
L 600.688826 433.679023 
L 601.707613 432.94899 
L 602.7264 432.704824 
L 603.745187 432.94899 
L 604.763974 433.679023 
L 605.782761 434.887557 
L 606.801548 436.562395 
L 607.820335 438.686628 
L 608.839121 441.238808 
L 609.857908 444.193152 
L 611.895482 451.185132 
L 613.933056 459.380388 
L 616.989417 473.194721 
L 620.045777 487.262127 
L 622.083351 494.810956 
L 624.120925 500.975849 
L 626.158499 506.009028 
L 628.196073 510.116133 
L 630.233647 513.464814 
L 632.27122 516.191742 
L 634.308794 518.408348 
L 636.346368 520.205509 
L 638.383942 521.657373 
L 640.421516 522.82448 
L 642.459089 523.756314 
L 644.496663 524.493376 
L 647.553024 525.304774 
L 650.609385 525.8396 
L 653.665745 526.164127 
L 657.740893 526.35469 
L 662.834828 526.322307 
L 668.947549 526.038671 
L 680.154205 525.22994 
L 692.379648 524.399277 
L 700.529943 524.047914 
L 708.680239 523.916266 
L 716.830534 524.011699 
L 725.999616 524.361928 
L 737.206272 525.04805 
L 777.957748 527.830239 
L 791.201978 528.356141 
L 805.464995 528.685241 
L 823.803159 528.872259 
L 860.479488 528.965621 
L 984.771491 529.002811 
L 984.771491 529.002811 
" clip-path="url(#p9e869ffedb)" style="fill: none; stroke: #d62728; stroke-width: 1.5; stroke-linecap: square"/>
   </g>
   <g id="line2d_27">
    <path d="M 220.681309 529.002815 
L 383.151011 528.892282 
L 405.671564 528.668124 
L 420.953367 528.305873 
L 435.430865 527.738324 
L 451.516975 526.871581 
L 478.059055 525.405552 
L 488.515025 525.077328 
L 498.166691 525.008189 
L 507.014051 525.166328 
L 516.665716 525.562341 
L 545.620713 526.964472 
L 550.446545 526.872532 
L 554.468073 526.585082 
L 557.685295 526.1583 
L 560.902516 525.493049 
L 563.315433 524.790181 
L 565.728349 523.864258 
L 568.141265 522.659381 
L 570.554182 521.104716 
L 572.162793 519.83048 
L 573.771404 518.328921 
L 575.380015 516.562013 
L 576.988625 514.485117 
L 578.597236 512.045816 
L 580.205847 509.182564 
L 581.814458 505.823086 
L 583.423069 501.882517 
L 585.03168 497.261213 
L 586.640291 491.842189 
L 590.661818 476.912973 
L 593.074735 468.869221 
L 594.683345 464.179049 
L 596.291956 460.16785 
L 597.900567 456.937407 
L 598.704873 455.641402 
L 599.509178 454.569634 
L 600.313484 453.728902 
L 601.117789 453.124541 
L 601.922095 452.760384 
L 602.7264 452.638741 
L 603.530705 452.760384 
L 604.335011 453.124541 
L 605.139316 453.728902 
L 605.943622 454.569634 
L 606.747927 455.641402 
L 607.552233 456.937407 
L 609.160844 460.16785 
L 610.769455 464.179049 
L 612.378065 468.869221 
L 614.790982 476.912973 
L 618.008204 488.791505 
L 619.616815 494.659484 
L 621.225425 499.66383 
L 622.834036 503.931292 
L 624.442647 507.569838 
L 626.051258 510.67143 
L 627.659869 513.314382 
L 629.26848 515.565392 
L 630.877091 517.481258 
L 632.485702 519.11035 
L 634.094313 520.493867 
L 635.702924 521.666908 
L 638.11584 523.096025 
L 640.528756 524.200861 
L 642.941673 525.046858 
L 645.354589 525.685696 
L 648.571811 526.284719 
L 651.789033 526.66187 
L 655.81056 526.904297 
L 660.636393 526.959893 
L 667.070836 526.783476 
L 676.722502 526.261909 
L 693.612916 525.338351 
L 703.264582 525.053764 
L 712.111942 525.011932 
L 721.763607 525.199729 
L 733.023884 525.666624 
L 749.914298 526.63194 
L 770.82624 527.775778 
L 785.303738 528.330709 
L 800.585542 528.681412 
L 819.888873 528.879422 
L 855.278313 528.968116 
L 984.771491 529.002815 
L 984.771491 529.002815 
" clip-path="url(#p9e869ffedb)" style="fill: none; stroke: #9467bd; stroke-width: 1.5; stroke-linecap: square"/>
   </g>
   <g id="line2d_28">
    <path d="M 220.681309 529.002816 
L 387.452297 528.891298 
L 410.042789 528.659036 
L 426.653445 528.265464 
L 442.599675 527.660834 
L 487.116233 525.7913 
L 497.082627 525.707518 
L 507.049021 525.845078 
L 517.679841 526.217623 
L 544.921317 527.336958 
L 550.236727 527.272149 
L 554.88771 526.99036 
L 558.209842 526.599144 
L 561.531973 525.987037 
L 564.189678 525.287142 
L 566.847383 524.344271 
L 568.840662 523.437419 
L 570.83394 522.320061 
L 572.827219 520.948426 
L 574.820498 519.269183 
L 576.813776 517.217322 
L 578.807055 514.71357 
L 580.135908 512.746435 
L 581.46476 510.502219 
L 582.793613 507.942445 
L 584.122465 505.023195 
L 585.451318 501.694341 
L 586.78017 497.898674 
L 590.766728 485.626463 
L 592.760006 480.065318 
L 594.753285 475.18437 
L 596.082138 472.40401 
L 597.41099 470.060037 
L 598.739843 468.193257 
L 600.068695 466.836155 
L 601.397548 466.012336 
L 602.061974 465.805256 
L 602.7264 465.736129 
L 603.390826 465.805256 
L 604.055252 466.012336 
L 604.719679 466.356468 
L 606.048531 467.449307 
L 607.377384 469.064765 
L 608.706236 471.174737 
L 610.035089 473.742499 
L 611.363941 476.723338 
L 613.35722 481.853746 
L 616.014925 489.604966 
L 620.001482 501.694341 
L 621.330335 505.023195 
L 622.659187 507.942445 
L 624.652466 511.661247 
L 626.645745 514.71357 
L 628.639024 517.217322 
L 630.632302 519.269183 
L 632.625581 520.948426 
L 634.61886 522.320061 
L 636.612138 523.437419 
L 638.605417 524.344271 
L 641.263122 525.287142 
L 643.920827 525.987037 
L 647.242958 526.599144 
L 650.56509 526.99036 
L 654.551647 527.247088 
L 659.867057 527.34006 
L 666.51132 527.20827 
L 677.142139 526.734131 
L 695.081648 525.938995 
L 705.048042 525.728503 
L 715.014435 525.739783 
L 725.645255 525.978326 
L 738.93378 526.512484 
L 778.799355 528.265464 
L 794.745585 528.647629 
L 814.013946 528.867654 
L 845.906406 528.964607 
L 973.476245 529.002545 
L 984.771491 529.002816 
L 984.771491 529.002816 
" clip-path="url(#p9e869ffedb)" style="fill: none; stroke: #8c564b; stroke-width: 1.5; stroke-linecap: square"/>
   </g>
   <g id="line2d_29">
    <path d="M 220.681309 529.002817 
L 390.479127 528.892883 
L 413.118836 528.662641 
L 430.664611 528.263023 
L 448.776378 527.618268 
L 482.169949 526.369636 
L 494.055796 526.202656 
L 504.809658 526.276204 
L 516.129513 526.581521 
L 547.259113 527.594927 
L 552.353047 527.459675 
L 556.880989 527.120741 
L 560.276945 526.668649 
L 563.672902 525.979134 
L 566.502865 525.161863 
L 568.766836 524.30215 
L 571.030807 523.212386 
L 573.294778 521.837602 
L 574.992756 520.578715 
L 576.690735 519.08596 
L 578.388713 517.317654 
L 580.086691 515.22445 
L 581.784669 512.747927 
L 583.482647 509.818921 
L 585.180625 506.355558 
L 586.878604 502.260928 
L 590.840553 491.844116 
L 593.104524 486.500268 
L 594.802502 482.995935 
L 596.50048 480.035559 
L 597.632465 478.406574 
L 598.764451 477.077893 
L 599.896436 476.066363 
L 601.028422 475.384803 
L 602.160407 475.04185 
L 603.292393 475.04185 
L 604.424378 475.384803 
L 605.556364 476.066363 
L 606.688349 477.077893 
L 607.820335 478.406574 
L 608.95232 480.035559 
L 610.650298 482.995935 
L 612.348276 486.500268 
L 614.612247 491.844116 
L 617.442211 499.216181 
L 619.706182 505.066092 
L 621.40416 508.728291 
L 623.102138 511.825628 
L 624.800116 514.44471 
L 626.498095 516.658703 
L 628.196073 518.529408 
L 629.894051 520.10903 
L 631.592029 521.441664 
L 633.856 522.897837 
L 636.119971 524.053216 
L 638.383942 524.965932 
L 641.213905 525.835503 
L 644.043869 526.468882 
L 647.439825 526.992164 
L 651.401775 527.361741 
L 655.929716 527.560369 
L 661.589644 527.587467 
L 669.513542 527.388604 
L 704.605091 526.223137 
L 715.358953 526.231115 
L 727.2448 526.474502 
L 742.526604 527.0287 
L 775.920175 528.295867 
L 792.899956 528.671814 
L 813.275695 528.88335 
L 847.235258 528.971497 
L 984.771491 529.002817 
L 984.771491 529.002817 
" clip-path="url(#p9e869ffedb)" style="fill: none; stroke: #e377c2; stroke-width: 1.5; stroke-linecap: square"/>
   </g>
   <g id="line2d_30">
    <path d="M 220.681309 529.002818 
L 393.217802 528.893235 
L 416.386988 528.656758 
L 434.62656 528.25204 
L 455.823901 527.543094 
L 480.471971 526.748401 
L 493.288968 526.569775 
L 504.62708 526.629237 
L 516.951115 526.924967 
L 547.021761 527.786286 
L 552.937298 527.640882 
L 557.37395 527.32511 
L 561.317642 526.818332 
L 564.27541 526.242748 
L 567.233179 525.441368 
L 569.697986 524.550282 
L 572.162793 523.399628 
L 574.134638 522.246839 
L 576.106484 520.840998 
L 578.07833 519.129208 
L 580.050175 517.047137 
L 581.529059 515.196124 
L 583.007944 513.054071 
L 584.486828 510.575704 
L 585.965712 507.708601 
L 587.444596 504.392058 
L 590.895326 496.503473 
L 592.867172 492.41335 
L 594.839017 488.827617 
L 596.317902 486.55339 
L 597.796786 484.690521 
L 599.27567 483.279416 
L 600.261593 482.605191 
L 601.247516 482.152064 
L 602.233439 481.924403 
L 603.219361 481.924403 
L 604.205284 482.152064 
L 605.191207 482.605191 
L 606.17713 483.279416 
L 607.163053 484.168237 
L 608.641937 485.884538 
L 610.120821 488.026708 
L 611.599705 490.548267 
L 613.571551 494.404839 
L 616.036358 499.807655 
L 619.980049 508.711058 
L 621.458933 511.442272 
L 622.937818 513.803084 
L 624.416702 515.843417 
L 626.388548 518.138989 
L 628.360393 520.027073 
L 630.332239 521.578614 
L 632.304084 522.851947 
L 634.27593 523.895042 
L 636.740737 524.934568 
L 639.205544 525.73756 
L 642.163313 526.456738 
L 645.614042 527.038742 
L 649.557734 527.45562 
L 653.994386 527.701723 
L 659.909923 527.788334 
L 667.797306 527.655072 
L 683.079109 527.112124 
L 697.867952 526.679899 
L 709.699025 526.564347 
L 721.530099 526.677505 
L 735.82598 527.054017 
L 786.601005 528.614848 
L 806.319461 528.855343 
L 835.897146 528.963303 
L 944.841617 529.002353 
L 984.771491 529.002818 
L 984.771491 529.002818 
" clip-path="url(#p9e869ffedb)" style="fill: none; stroke: #7f7f7f; stroke-width: 1.5; stroke-linecap: square"/>
   </g>
   <g id="line2d_31">
    <path d="M 220.681309 529.002818 
L 395.767116 528.892574 
L 419.344756 528.651422 
L 438.99279 528.22389 
L 493.134037 526.850466 
L 505.35948 526.913171 
L 518.458169 527.209874 
L 545.965415 527.933232 
L 552.514759 527.819393 
L 557.317612 527.527265 
L 561.247219 527.083269 
L 564.740202 526.46592 
L 567.796563 525.689611 
L 570.416301 524.791671 
L 572.599416 523.833974 
L 574.78253 522.638953 
L 576.965645 521.151434 
L 578.712137 519.705322 
L 580.458629 517.985971 
L 582.205121 515.94282 
L 583.951613 513.515748 
L 585.698105 510.633271 
L 587.444596 507.210405 
L 590.93758 500.124921 
L 593.120695 496.136674 
L 594.867187 493.347382 
L 596.613679 491.007239 
L 597.923547 489.590125 
L 599.233416 488.490043 
L 600.543285 487.72575 
L 601.853154 487.310274 
L 602.7264 487.230822 
L 603.599646 487.310274 
L 604.472892 487.548027 
L 605.782761 488.197205 
L 607.09263 489.187164 
L 608.402498 490.501027 
L 609.712367 492.116387 
L 611.458859 494.690879 
L 613.205351 497.673781 
L 615.388466 501.837872 
L 620.627941 512.136402 
L 622.374433 514.781452 
L 624.120925 517.008384 
L 625.867417 518.882756 
L 627.613909 520.459703 
L 629.360401 521.785592 
L 631.543515 523.148704 
L 633.72663 524.242827 
L 636.346368 525.271248 
L 638.966106 526.053839 
L 642.022466 526.726771 
L 645.51545 527.256593 
L 649.445057 527.630123 
L 654.247909 527.863765 
L 660.360631 527.931392 
L 669.09309 527.780552 
L 707.079288 526.850077 
L 719.304731 526.911857 
L 733.713288 527.218054 
L 792.657388 528.744523 
L 815.798405 528.921274 
L 861.207193 528.986907 
L 984.771491 529.002818 
L 984.771491 529.002818 
" clip-path="url(#p9e869ffedb)" style="fill: none; stroke: #bcbd22; stroke-width: 1.5; stroke-linecap: square"/>
   </g>
   <g id="line2d_32">
    <path d="M 220.681309 529.002818 
L 397.793495 528.89325 
L 421.695803 528.652293 
L 442.463382 528.216407 
L 489.876158 527.090792 
L 502.806915 527.101104 
L 516.129513 527.336093 
L 548.260484 528.036438 
L 554.529942 527.859278 
L 559.232036 527.51334 
L 563.150447 527.009384 
L 566.285176 526.405722 
L 569.028064 525.680562 
L 571.770952 524.715162 
L 574.121998 523.64311 
L 576.081204 522.534238 
L 578.04041 521.186061 
L 579.999615 519.548723 
L 581.958821 517.561688 
L 583.526185 515.671388 
L 585.09355 513.4658 
L 586.660914 510.892675 
L 592.930372 499.786403 
L 594.889578 496.953126 
L 596.456942 495.048404 
L 598.024307 493.516398 
L 599.19983 492.634889 
L 600.375353 491.996434 
L 601.550877 491.609815 
L 602.7264 491.480348 
L 603.901923 491.609815 
L 605.077447 491.996434 
L 606.25297 492.634889 
L 607.428493 493.516398 
L 608.604017 494.628833 
L 610.171381 496.444405 
L 611.738746 498.598549 
L 613.697951 501.686345 
L 616.048998 505.813425 
L 619.967409 512.859198 
L 621.534774 515.151453 
L 623.102138 517.116107 
L 625.061344 519.181441 
L 627.020549 520.883496 
L 628.979755 522.285205 
L 630.938961 523.438396 
L 633.290007 524.553737 
L 635.641054 525.432004 
L 638.383942 526.219611 
L 641.518671 526.877622 
L 645.045241 527.386471 
L 649.355493 527.76916 
L 654.449428 527.98982 
L 661.110727 528.041619 
L 670.514914 527.873626 
L 704.605091 527.085217 
L 717.535848 527.108039 
L 732.42581 527.370553 
L 763.381259 528.226546 
L 784.93252 528.670261 
L 806.875623 528.888828 
L 841.749483 528.976977 
L 984.771491 529.002818 
L 984.771491 529.002818 
" clip-path="url(#p9e869ffedb)" style="fill: none; stroke: #17becf; stroke-width: 1.5; stroke-linecap: square"/>
   </g>
   <g id="line2d_33">
    <path d="M 220.681309 529.002818 
L 399.798263 528.892844 
L 424.320227 528.646204 
L 446.354456 528.195658 
L 487.224396 527.291741 
L 501.084636 527.26639 
L 514.944877 527.466741 
L 549.417783 528.116049 
L 555.459426 527.922615 
L 560.079506 527.573457 
L 563.988805 527.069074 
L 567.187322 526.453914 
L 570.030448 525.699744 
L 572.518184 524.831174 
L 575.005919 523.713447 
L 577.138264 522.506839 
L 579.270608 521.015464 
L 581.047562 519.508467 
L 582.824516 517.712893 
L 584.60147 515.574179 
L 586.378424 513.027274 
L 588.866159 508.864986 
L 591.709286 504.288493 
L 593.84163 501.243967 
L 595.618584 499.073891 
L 597.040147 497.628091 
L 598.461711 496.472224 
L 599.883274 495.62957 
L 600.949446 495.21358 
L 602.015618 494.988167 
L 603.081791 494.955883 
L 604.147963 495.117096 
L 605.214135 495.469979 
L 606.280308 496.010532 
L 607.701871 497.012318 
L 609.123434 498.316439 
L 610.544997 499.896626 
L 612.321951 502.211075 
L 614.454296 505.388305 
L 617.297422 510.063401 
L 619.785158 514.099676 
L 621.562111 516.474748 
L 623.339065 518.469028 
L 625.116019 520.143151 
L 626.892973 521.547974 
L 629.025318 522.937842 
L 631.157663 524.061813 
L 633.645398 525.102229 
L 636.133134 525.909777 
L 638.97626 526.609647 
L 642.174777 527.178644 
L 646.084075 527.642207 
L 650.704156 527.958436 
L 656.390408 528.120795 
L 664.209005 528.103332 
L 677.003073 527.812748 
L 699.037302 527.318043 
L 712.542152 527.254014 
L 727.113174 527.417023 
L 747.725839 527.901557 
L 778.644837 528.606415 
L 800.679066 528.861419 
L 831.598064 528.969415 
L 946.033896 529.002478 
L 984.771491 529.002818 
L 984.771491 529.002818 
" clip-path="url(#p9e869ffedb)" style="fill: none; stroke: #1f77b4; stroke-width: 1.5; stroke-linecap: square"/>
   </g>
   <g id="line2d_34">
    <path d="M 587.444596 551.106 
L 587.444596 64.836 
" clip-path="url(#p9e869ffedb)" style="fill: none; stroke-dasharray: 5.55,2.4; stroke-dashoffset: 0; stroke: #ff0000; stroke-width: 1.5"/>
   </g>
   <g id="line2d_35">
    <path d="M 618.008204 551.106 
L 618.008204 64.836 
" clip-path="url(#p9e869ffedb)" style="fill: none; stroke-dasharray: 5.55,2.4; stroke-dashoffset: 0; stroke: #ff0000; stroke-width: 1.5"/>
   </g>
   <g id="patch_3">
    <path d="M 182.4768 551.106 
L 182.4768 64.836 
" style="fill: none; stroke: #000000; stroke-width: 0.8; stroke-linejoin: miter; stroke-linecap: square"/>
   </g>
   <g id="patch_4">
    <path d="M 1022.976 551.106 
L 1022.976 64.836 
" style="fill: none; stroke: #000000; stroke-width: 0.8; stroke-linejoin: miter; stroke-linecap: square"/>
   </g>
   <g id="patch_5">
    <path d="M 182.4768 551.106 
L 1022.976 551.106 
" style="fill: none; stroke: #000000; stroke-width: 0.8; stroke-linejoin: miter; stroke-linecap: square"/>
   </g>
   <g id="patch_6">
    <path d="M 182.4768 64.836 
L 1022.976 64.836 
" style="fill: none; stroke: #000000; stroke-width: 0.8; stroke-linejoin: miter; stroke-linecap: square"/>
   </g>
   <g id="text_14">
    <!-- Field intensity distribution at far end for different Nx  -->
    <g transform="translate(444.062025 45.398625) scale(0.12 -0.12)">
     <defs>
      <path id="DejaVuSans-46" d="M 628 4666 
L 3309 4666 
L 3309 4134 
L 1259 4134 
L 1259 2759 
L 3109 2759 
L 3109 2228 
L 1259 2228 
L 1259 0 
L 628 0 
L 628 4666 
z
" transform="scale(0.015625)"/>
      <path id="DejaVuSans-6c" d="M 603 4863 
L 1178 4863 
L 1178 0 
L 603 0 
L 603 4863 
z
" transform="scale(0.015625)"/>
      <path id="DejaVuSans-64" d="M 2906 2969 
L 2906 4863 
L 3481 4863 
L 3481 0 
L 2906 0 
L 2906 525 
Q 2725 213 2448 61 
Q 2172 -91 1784 -91 
Q 1150 -91 751 415 
Q 353 922 353 1747 
Q 353 2572 751 3078 
Q 1150 3584 1784 3584 
Q 2172 3584 2448 3432 
Q 2725 3281 2906 2969 
z
M 947 1747 
Q 947 1113 1208 752 
Q 1469 391 1925 391 
Q 2381 391 2643 752 
Q 2906 1113 2906 1747 
Q 2906 2381 2643 2742 
Q 2381 3103 1925 3103 
Q 1469 3103 1208 2742 
Q 947 2381 947 1747 
z
" transform="scale(0.015625)"/>
      <path id="DejaVuSans-72" d="M 2631 2963 
Q 2534 3019 2420 3045 
Q 2306 3072 2169 3072 
Q 1681 3072 1420 2755 
Q 1159 2438 1159 1844 
L 1159 0 
L 581 0 
L 581 3500 
L 1159 3500 
L 1159 2956 
Q 1341 3275 1631 3429 
Q 1922 3584 2338 3584 
Q 2397 3584 2469 3576 
Q 2541 3569 2628 3553 
L 2631 2963 
z
" transform="scale(0.015625)"/>
      <path id="DejaVuSans-62" d="M 3116 1747 
Q 3116 2381 2855 2742 
Q 2594 3103 2138 3103 
Q 1681 3103 1420 2742 
Q 1159 2381 1159 1747 
Q 1159 1113 1420 752 
Q 1681 391 2138 391 
Q 2594 391 2855 752 
Q 3116 1113 3116 1747 
z
M 1159 2969 
Q 1341 3281 1617 3432 
Q 1894 3584 2278 3584 
Q 2916 3584 3314 3078 
Q 3713 2572 3713 1747 
Q 3713 922 3314 415 
Q 2916 -91 2278 -91 
Q 1894 -91 1617 61 
Q 1341 213 1159 525 
L 1159 0 
L 581 0 
L 581 4863 
L 1159 4863 
L 1159 2969 
z
" transform="scale(0.015625)"/>
      <path id="DejaVuSans-75" d="M 544 1381 
L 544 3500 
L 1119 3500 
L 1119 1403 
Q 1119 906 1312 657 
Q 1506 409 1894 409 
Q 2359 409 2629 706 
Q 2900 1003 2900 1516 
L 2900 3500 
L 3475 3500 
L 3475 0 
L 2900 0 
L 2900 538 
Q 2691 219 2414 64 
Q 2138 -91 1772 -91 
Q 1169 -91 856 284 
Q 544 659 544 1381 
z
M 1991 3584 
L 1991 3584 
z
" transform="scale(0.015625)"/>
      <path id="DejaVuSans-6f" d="M 1959 3097 
Q 1497 3097 1228 2736 
Q 959 2375 959 1747 
Q 959 1119 1226 758 
Q 1494 397 1959 397 
Q 2419 397 2687 759 
Q 2956 1122 2956 1747 
Q 2956 2369 2687 2733 
Q 2419 3097 1959 3097 
z
M 1959 3584 
Q 2709 3584 3137 3096 
Q 3566 2609 3566 1747 
Q 3566 888 3137 398 
Q 2709 -91 1959 -91 
Q 1206 -91 779 398 
Q 353 888 353 1747 
Q 353 2609 779 3096 
Q 1206 3584 1959 3584 
z
" transform="scale(0.015625)"/>
      <path id="DejaVuSans-61" d="M 2194 1759 
Q 1497 1759 1228 1600 
Q 959 1441 959 1056 
Q 959 750 1161 570 
Q 1363 391 1709 391 
Q 2188 391 2477 730 
Q 2766 1069 2766 1631 
L 2766 1759 
L 2194 1759 
z
M 3341 1997 
L 3341 0 
L 2766 0 
L 2766 531 
Q 2569 213 2275 61 
Q 1981 -91 1556 -91 
Q 1019 -91 701 211 
Q 384 513 384 1019 
Q 384 1609 779 1909 
Q 1175 2209 1959 2209 
L 2766 2209 
L 2766 2266 
Q 2766 2663 2505 2880 
Q 2244 3097 1772 3097 
Q 1472 3097 1187 3025 
Q 903 2953 641 2809 
L 641 3341 
Q 956 3463 1253 3523 
Q 1550 3584 1831 3584 
Q 2591 3584 2966 3190 
Q 3341 2797 3341 1997 
z
" transform="scale(0.015625)"/>
      <path id="DejaVuSans-66" d="M 2375 4863 
L 2375 4384 
L 1825 4384 
Q 1516 4384 1395 4259 
Q 1275 4134 1275 3809 
L 1275 3500 
L 2222 3500 
L 2222 3053 
L 1275 3053 
L 1275 0 
L 697 0 
L 697 3053 
L 147 3053 
L 147 3500 
L 697 3500 
L 697 3744 
Q 697 4328 969 4595 
Q 1241 4863 1831 4863 
L 2375 4863 
z
" transform="scale(0.015625)"/>
      <path id="DejaVuSans-4e" d="M 628 4666 
L 1478 4666 
L 3547 763 
L 3547 4666 
L 4159 4666 
L 4159 0 
L 3309 0 
L 1241 3903 
L 1241 0 
L 628 0 
L 628 4666 
z
" transform="scale(0.015625)"/>
     </defs>
     <use xlink:href="#DejaVuSans-46"/>
     <use xlink:href="#DejaVuSans-69" x="50.269531"/>
     <use xlink:href="#DejaVuSans-65" x="78.052734"/>
     <use xlink:href="#DejaVuSans-6c" x="139.576172"/>
     <use xlink:href="#DejaVuSans-64" x="167.359375"/>
     <use xlink:href="#DejaVuSans-20" x="230.835938"/>
     <use xlink:href="#DejaVuSans-69" x="262.623047"/>
     <use xlink:href="#DejaVuSans-6e" x="290.40625"/>
     <use xlink:href="#DejaVuSans-74" x="353.785156"/>
     <use xlink:href="#DejaVuSans-65" x="392.994141"/>
     <use xlink:href="#DejaVuSans-6e" x="454.517578"/>
     <use xlink:href="#DejaVuSans-73" x="517.896484"/>
     <use xlink:href="#DejaVuSans-69" x="569.996094"/>
     <use xlink:href="#DejaVuSans-74" x="597.779297"/>
     <use xlink:href="#DejaVuSans-79" x="636.988281"/>
     <use xlink:href="#DejaVuSans-20" x="696.167969"/>
     <use xlink:href="#DejaVuSans-64" x="727.955078"/>
     <use xlink:href="#DejaVuSans-69" x="791.431641"/>
     <use xlink:href="#DejaVuSans-73" x="819.214844"/>
     <use xlink:href="#DejaVuSans-74" x="871.314453"/>
     <use xlink:href="#DejaVuSans-72" x="910.523438"/>
     <use xlink:href="#DejaVuSans-69" x="951.636719"/>
     <use xlink:href="#DejaVuSans-62" x="979.419922"/>
     <use xlink:href="#DejaVuSans-75" x="1042.896484"/>
     <use xlink:href="#DejaVuSans-74" x="1106.275391"/>
     <use xlink:href="#DejaVuSans-69" x="1145.484375"/>
     <use xlink:href="#DejaVuSans-6f" x="1173.267578"/>
     <use xlink:href="#DejaVuSans-6e" x="1234.449219"/>
     <use xlink:href="#DejaVuSans-20" x="1297.828125"/>
     <use xlink:href="#DejaVuSans-61" x="1329.615234"/>
     <use xlink:href="#DejaVuSans-74" x="1390.894531"/>
     <use xlink:href="#DejaVuSans-20" x="1430.103516"/>
     <use xlink:href="#DejaVuSans-66" x="1461.890625"/>
     <use xlink:href="#DejaVuSans-61" x="1497.095703"/>
     <use xlink:href="#DejaVuSans-72" x="1558.375"/>
     <use xlink:href="#DejaVuSans-20" x="1599.488281"/>
     <use xlink:href="#DejaVuSans-65" x="1631.275391"/>
     <use xlink:href="#DejaVuSans-6e" x="1692.798828"/>
     <use xlink:href="#DejaVuSans-64" x="1756.177734"/>
     <use xlink:href="#DejaVuSans-20" x="1819.654297"/>
     <use xlink:href="#DejaVuSans-66" x="1851.441406"/>
     <use xlink:href="#DejaVuSans-6f" x="1886.646484"/>
     <use xlink:href="#DejaVuSans-72" x="1947.828125"/>
     <use xlink:href="#DejaVuSans-20" x="1988.941406"/>
     <use xlink:href="#DejaVuSans-64" x="2020.728516"/>
     <use xlink:href="#DejaVuSans-69" x="2084.205078"/>
     <use xlink:href="#DejaVuSans-66" x="2111.988281"/>
     <use xlink:href="#DejaVuSans-66" x="2147.193359"/>
     <use xlink:href="#DejaVuSans-65" x="2182.398438"/>
     <use xlink:href="#DejaVuSans-72" x="2243.921875"/>
     <use xlink:href="#DejaVuSans-65" x="2282.785156"/>
     <use xlink:href="#DejaVuSans-6e" x="2344.308594"/>
     <use xlink:href="#DejaVuSans-74" x="2407.6875"/>
     <use xlink:href="#DejaVuSans-20" x="2446.896484"/>
     <use xlink:href="#DejaVuSans-4e" x="2478.683594"/>
     <use xlink:href="#DejaVuSans-78" x="2553.488281"/>
     <use xlink:href="#DejaVuSans-20" x="2612.667969"/>
    </g>
    <!--  Crank-Nicolson scheme -->
    <g transform="translate(530.290462 58.836) scale(0.12 -0.12)">
     <defs>
      <path id="DejaVuSans-43" d="M 4122 4306 
L 4122 3641 
Q 3803 3938 3442 4084 
Q 3081 4231 2675 4231 
Q 1875 4231 1450 3742 
Q 1025 3253 1025 2328 
Q 1025 1406 1450 917 
Q 1875 428 2675 428 
Q 3081 428 3442 575 
Q 3803 722 4122 1019 
L 4122 359 
Q 3791 134 3420 21 
Q 3050 -91 2638 -91 
Q 1578 -91 968 557 
Q 359 1206 359 2328 
Q 359 3453 968 4101 
Q 1578 4750 2638 4750 
Q 3056 4750 3426 4639 
Q 3797 4528 4122 4306 
z
" transform="scale(0.015625)"/>
      <path id="DejaVuSans-6b" d="M 581 4863 
L 1159 4863 
L 1159 1991 
L 2875 3500 
L 3609 3500 
L 1753 1863 
L 3688 0 
L 2938 0 
L 1159 1709 
L 1159 0 
L 581 0 
L 581 4863 
z
" transform="scale(0.015625)"/>
      <path id="DejaVuSans-2d" d="M 313 2009 
L 1997 2009 
L 1997 1497 
L 313 1497 
L 313 2009 
z
" transform="scale(0.015625)"/>
      <path id="DejaVuSans-63" d="M 3122 3366 
L 3122 2828 
Q 2878 2963 2633 3030 
Q 2388 3097 2138 3097 
Q 1578 3097 1268 2742 
Q 959 2388 959 1747 
Q 959 1106 1268 751 
Q 1578 397 2138 397 
Q 2388 397 2633 464 
Q 2878 531 3122 666 
L 3122 134 
Q 2881 22 2623 -34 
Q 2366 -91 2075 -91 
Q 1284 -91 818 406 
Q 353 903 353 1747 
Q 353 2603 823 3093 
Q 1294 3584 2113 3584 
Q 2378 3584 2631 3529 
Q 2884 3475 3122 3366 
z
" transform="scale(0.015625)"/>
      <path id="DejaVuSans-68" d="M 3513 2113 
L 3513 0 
L 2938 0 
L 2938 2094 
Q 2938 2591 2744 2837 
Q 2550 3084 2163 3084 
Q 1697 3084 1428 2787 
Q 1159 2491 1159 1978 
L 1159 0 
L 581 0 
L 581 4863 
L 1159 4863 
L 1159 2956 
Q 1366 3272 1645 3428 
Q 1925 3584 2291 3584 
Q 2894 3584 3203 3211 
Q 3513 2838 3513 2113 
z
" transform="scale(0.015625)"/>
     </defs>
     <use xlink:href="#DejaVuSans-20"/>
     <use xlink:href="#DejaVuSans-43" x="31.787109"/>
     <use xlink:href="#DejaVuSans-72" x="101.611328"/>
     <use xlink:href="#DejaVuSans-61" x="142.724609"/>
     <use xlink:href="#DejaVuSans-6e" x="204.003906"/>
     <use xlink:href="#DejaVuSans-6b" x="267.382812"/>
     <use xlink:href="#DejaVuSans-2d" x="325.292969"/>
     <use xlink:href="#DejaVuSans-4e" x="361.376953"/>
     <use xlink:href="#DejaVuSans-69" x="436.181641"/>
     <use xlink:href="#DejaVuSans-63" x="463.964844"/>
     <use xlink:href="#DejaVuSans-6f" x="518.945312"/>
     <use xlink:href="#DejaVuSans-6c" x="580.126953"/>
     <use xlink:href="#DejaVuSans-73" x="607.910156"/>
     <use xlink:href="#DejaVuSans-6f" x="660.009766"/>
     <use xlink:href="#DejaVuSans-6e" x="721.191406"/>
     <use xlink:href="#DejaVuSans-20" x="784.570312"/>
     <use xlink:href="#DejaVuSans-73" x="816.357422"/>
     <use xlink:href="#DejaVuSans-63" x="868.457031"/>
     <use xlink:href="#DejaVuSans-68" x="923.4375"/>
     <use xlink:href="#DejaVuSans-65" x="986.816406"/>
     <use xlink:href="#DejaVuSans-6d" x="1048.339844"/>
     <use xlink:href="#DejaVuSans-65" x="1145.751953"/>
    </g>
   </g>
   <g id="legend_1">
    <g id="patch_7">
     <path d="M 930.390063 234.295375 
L 1015.976 234.295375 
Q 1017.976 234.295375 1017.976 232.295375 
L 1017.976 71.836 
Q 1017.976 69.836 1015.976 69.836 
L 930.390063 69.836 
Q 928.390063 69.836 928.390063 71.836 
L 928.390063 232.295375 
Q 928.390063 234.295375 930.390063 234.295375 
z
" style="fill: #ffffff; opacity: 0.8; stroke: #cccccc; stroke-linejoin: miter"/>
    </g>
    <g id="line2d_36">
     <path d="M 932.390063 77.934437 
L 942.390063 77.934437 
L 952.390063 77.934437 
" style="fill: none; stroke: #1f77b4; stroke-width: 1.5; stroke-linecap: square"/>
    </g>
    <g id="text_15">
     <!-- Nx = 151 -->
     <g transform="translate(960.390063 81.434437) scale(0.1 -0.1)">
      <defs>
       <path id="DejaVuSans-3d" d="M 678 2906 
L 4684 2906 
L 4684 2381 
L 678 2381 
L 678 2906 
z
M 678 1631 
L 4684 1631 
L 4684 1100 
L 678 1100 
L 678 1631 
z
" transform="scale(0.015625)"/>
       <path id="DejaVuSans-35" d="M 691 4666 
L 3169 4666 
L 3169 4134 
L 1269 4134 
L 1269 2991 
Q 1406 3038 1543 3061 
Q 1681 3084 1819 3084 
Q 2600 3084 3056 2656 
Q 3513 2228 3513 1497 
Q 3513 744 3044 326 
Q 2575 -91 1722 -91 
Q 1428 -91 1123 -41 
Q 819 9 494 109 
L 494 744 
Q 775 591 1075 516 
Q 1375 441 1709 441 
Q 2250 441 2565 725 
Q 2881 1009 2881 1497 
Q 2881 1984 2565 2268 
Q 2250 2553 1709 2553 
Q 1456 2553 1204 2497 
Q 953 2441 691 2322 
L 691 4666 
z
" transform="scale(0.015625)"/>
      </defs>
      <use xlink:href="#DejaVuSans-4e"/>
      <use xlink:href="#DejaVuSans-78" x="74.804688"/>
      <use xlink:href="#DejaVuSans-20" x="133.984375"/>
      <use xlink:href="#DejaVuSans-3d" x="165.771484"/>
      <use xlink:href="#DejaVuSans-20" x="249.560547"/>
      <use xlink:href="#DejaVuSans-31" x="281.347656"/>
      <use xlink:href="#DejaVuSans-35" x="344.970703"/>
      <use xlink:href="#DejaVuSans-31" x="408.59375"/>
     </g>
    </g>
    <g id="line2d_37">
     <path d="M 932.390063 92.612562 
L 942.390063 92.612562 
L 952.390063 92.612562 
" style="fill: none; stroke: #ff7f0e; stroke-width: 1.5; stroke-linecap: square"/>
    </g>
    <g id="text_16">
     <!-- Nx = 351 -->
     <g transform="translate(960.390063 96.112562) scale(0.1 -0.1)">
      <defs>
       <path id="DejaVuSans-33" d="M 2597 2516 
Q 3050 2419 3304 2112 
Q 3559 1806 3559 1356 
Q 3559 666 3084 287 
Q 2609 -91 1734 -91 
Q 1441 -91 1130 -33 
Q 819 25 488 141 
L 488 750 
Q 750 597 1062 519 
Q 1375 441 1716 441 
Q 2309 441 2620 675 
Q 2931 909 2931 1356 
Q 2931 1769 2642 2001 
Q 2353 2234 1838 2234 
L 1294 2234 
L 1294 2753 
L 1863 2753 
Q 2328 2753 2575 2939 
Q 2822 3125 2822 3475 
Q 2822 3834 2567 4026 
Q 2313 4219 1838 4219 
Q 1578 4219 1281 4162 
Q 984 4106 628 3988 
L 628 4550 
Q 988 4650 1302 4700 
Q 1616 4750 1894 4750 
Q 2613 4750 3031 4423 
Q 3450 4097 3450 3541 
Q 3450 3153 3228 2886 
Q 3006 2619 2597 2516 
z
" transform="scale(0.015625)"/>
      </defs>
      <use xlink:href="#DejaVuSans-4e"/>
      <use xlink:href="#DejaVuSans-78" x="74.804688"/>
      <use xlink:href="#DejaVuSans-20" x="133.984375"/>
      <use xlink:href="#DejaVuSans-3d" x="165.771484"/>
      <use xlink:href="#DejaVuSans-20" x="249.560547"/>
      <use xlink:href="#DejaVuSans-33" x="281.347656"/>
      <use xlink:href="#DejaVuSans-35" x="344.970703"/>
      <use xlink:href="#DejaVuSans-31" x="408.59375"/>
     </g>
    </g>
    <g id="line2d_38">
     <path d="M 932.390063 107.290687 
L 942.390063 107.290687 
L 952.390063 107.290687 
" style="fill: none; stroke: #2ca02c; stroke-width: 1.5; stroke-linecap: square"/>
    </g>
    <g id="text_17">
     <!-- Nx = 551 -->
     <g transform="translate(960.390063 110.790687) scale(0.1 -0.1)">
      <use xlink:href="#DejaVuSans-4e"/>
      <use xlink:href="#DejaVuSans-78" x="74.804688"/>
      <use xlink:href="#DejaVuSans-20" x="133.984375"/>
      <use xlink:href="#DejaVuSans-3d" x="165.771484"/>
      <use xlink:href="#DejaVuSans-20" x="249.560547"/>
      <use xlink:href="#DejaVuSans-35" x="281.347656"/>
      <use xlink:href="#DejaVuSans-35" x="344.970703"/>
      <use xlink:href="#DejaVuSans-31" x="408.59375"/>
     </g>
    </g>
    <g id="line2d_39">
     <path d="M 932.390063 121.968812 
L 942.390063 121.968812 
L 952.390063 121.968812 
" style="fill: none; stroke: #d62728; stroke-width: 1.5; stroke-linecap: square"/>
    </g>
    <g id="text_18">
     <!-- Nx = 751 -->
     <g transform="translate(960.390063 125.468812) scale(0.1 -0.1)">
      <defs>
       <path id="DejaVuSans-37" d="M 525 4666 
L 3525 4666 
L 3525 4397 
L 1831 0 
L 1172 0 
L 2766 4134 
L 525 4134 
L 525 4666 
z
" transform="scale(0.015625)"/>
      </defs>
      <use xlink:href="#DejaVuSans-4e"/>
      <use xlink:href="#DejaVuSans-78" x="74.804688"/>
      <use xlink:href="#DejaVuSans-20" x="133.984375"/>
      <use xlink:href="#DejaVuSans-3d" x="165.771484"/>
      <use xlink:href="#DejaVuSans-20" x="249.560547"/>
      <use xlink:href="#DejaVuSans-37" x="281.347656"/>
      <use xlink:href="#DejaVuSans-35" x="344.970703"/>
      <use xlink:href="#DejaVuSans-31" x="408.59375"/>
     </g>
    </g>
    <g id="line2d_40">
     <path d="M 932.390063 136.646937 
L 942.390063 136.646937 
L 952.390063 136.646937 
" style="fill: none; stroke: #9467bd; stroke-width: 1.5; stroke-linecap: square"/>
    </g>
    <g id="text_19">
     <!-- Nx = 951 -->
     <g transform="translate(960.390063 140.146937) scale(0.1 -0.1)">
      <defs>
       <path id="DejaVuSans-39" d="M 703 97 
L 703 672 
Q 941 559 1184 500 
Q 1428 441 1663 441 
Q 2288 441 2617 861 
Q 2947 1281 2994 2138 
Q 2813 1869 2534 1725 
Q 2256 1581 1919 1581 
Q 1219 1581 811 2004 
Q 403 2428 403 3163 
Q 403 3881 828 4315 
Q 1253 4750 1959 4750 
Q 2769 4750 3195 4129 
Q 3622 3509 3622 2328 
Q 3622 1225 3098 567 
Q 2575 -91 1691 -91 
Q 1453 -91 1209 -44 
Q 966 3 703 97 
z
M 1959 2075 
Q 2384 2075 2632 2365 
Q 2881 2656 2881 3163 
Q 2881 3666 2632 3958 
Q 2384 4250 1959 4250 
Q 1534 4250 1286 3958 
Q 1038 3666 1038 3163 
Q 1038 2656 1286 2365 
Q 1534 2075 1959 2075 
z
" transform="scale(0.015625)"/>
      </defs>
      <use xlink:href="#DejaVuSans-4e"/>
      <use xlink:href="#DejaVuSans-78" x="74.804688"/>
      <use xlink:href="#DejaVuSans-20" x="133.984375"/>
      <use xlink:href="#DejaVuSans-3d" x="165.771484"/>
      <use xlink:href="#DejaVuSans-20" x="249.560547"/>
      <use xlink:href="#DejaVuSans-39" x="281.347656"/>
      <use xlink:href="#DejaVuSans-35" x="344.970703"/>
      <use xlink:href="#DejaVuSans-31" x="408.59375"/>
     </g>
    </g>
    <g id="line2d_41">
     <path d="M 932.390063 151.325062 
L 942.390063 151.325062 
L 952.390063 151.325062 
" style="fill: none; stroke: #8c564b; stroke-width: 1.5; stroke-linecap: square"/>
    </g>
    <g id="text_20">
     <!-- Nx = 1151 -->
     <g transform="translate(960.390063 154.825062) scale(0.1 -0.1)">
      <use xlink:href="#DejaVuSans-4e"/>
      <use xlink:href="#DejaVuSans-78" x="74.804688"/>
      <use xlink:href="#DejaVuSans-20" x="133.984375"/>
      <use xlink:href="#DejaVuSans-3d" x="165.771484"/>
      <use xlink:href="#DejaVuSans-20" x="249.560547"/>
      <use xlink:href="#DejaVuSans-31" x="281.347656"/>
      <use xlink:href="#DejaVuSans-31" x="344.970703"/>
      <use xlink:href="#DejaVuSans-35" x="408.59375"/>
      <use xlink:href="#DejaVuSans-31" x="472.216797"/>
     </g>
    </g>
    <g id="line2d_42">
     <path d="M 932.390063 166.003187 
L 942.390063 166.003187 
L 952.390063 166.003187 
" style="fill: none; stroke: #e377c2; stroke-width: 1.5; stroke-linecap: square"/>
    </g>
    <g id="text_21">
     <!-- Nx = 1351 -->
     <g transform="translate(960.390063 169.503187) scale(0.1 -0.1)">
      <use xlink:href="#DejaVuSans-4e"/>
      <use xlink:href="#DejaVuSans-78" x="74.804688"/>
      <use xlink:href="#DejaVuSans-20" x="133.984375"/>
      <use xlink:href="#DejaVuSans-3d" x="165.771484"/>
      <use xlink:href="#DejaVuSans-20" x="249.560547"/>
      <use xlink:href="#DejaVuSans-31" x="281.347656"/>
      <use xlink:href="#DejaVuSans-33" x="344.970703"/>
      <use xlink:href="#DejaVuSans-35" x="408.59375"/>
      <use xlink:href="#DejaVuSans-31" x="472.216797"/>
     </g>
    </g>
    <g id="line2d_43">
     <path d="M 932.390063 180.681312 
L 942.390063 180.681312 
L 952.390063 180.681312 
" style="fill: none; stroke: #7f7f7f; stroke-width: 1.5; stroke-linecap: square"/>
    </g>
    <g id="text_22">
     <!-- Nx = 1551 -->
     <g transform="translate(960.390063 184.181312) scale(0.1 -0.1)">
      <use xlink:href="#DejaVuSans-4e"/>
      <use xlink:href="#DejaVuSans-78" x="74.804688"/>
      <use xlink:href="#DejaVuSans-20" x="133.984375"/>
      <use xlink:href="#DejaVuSans-3d" x="165.771484"/>
      <use xlink:href="#DejaVuSans-20" x="249.560547"/>
      <use xlink:href="#DejaVuSans-31" x="281.347656"/>
      <use xlink:href="#DejaVuSans-35" x="344.970703"/>
      <use xlink:href="#DejaVuSans-35" x="408.59375"/>
      <use xlink:href="#DejaVuSans-31" x="472.216797"/>
     </g>
    </g>
    <g id="line2d_44">
     <path d="M 932.390063 195.359437 
L 942.390063 195.359437 
L 952.390063 195.359437 
" style="fill: none; stroke: #bcbd22; stroke-width: 1.5; stroke-linecap: square"/>
    </g>
    <g id="text_23">
     <!-- Nx = 1751 -->
     <g transform="translate(960.390063 198.859437) scale(0.1 -0.1)">
      <use xlink:href="#DejaVuSans-4e"/>
      <use xlink:href="#DejaVuSans-78" x="74.804688"/>
      <use xlink:href="#DejaVuSans-20" x="133.984375"/>
      <use xlink:href="#DejaVuSans-3d" x="165.771484"/>
      <use xlink:href="#DejaVuSans-20" x="249.560547"/>
      <use xlink:href="#DejaVuSans-31" x="281.347656"/>
      <use xlink:href="#DejaVuSans-37" x="344.970703"/>
      <use xlink:href="#DejaVuSans-35" x="408.59375"/>
      <use xlink:href="#DejaVuSans-31" x="472.216797"/>
     </g>
    </g>
    <g id="line2d_45">
     <path d="M 932.390063 210.037562 
L 942.390063 210.037562 
L 952.390063 210.037562 
" style="fill: none; stroke: #17becf; stroke-width: 1.5; stroke-linecap: square"/>
    </g>
    <g id="text_24">
     <!-- Nx = 1951 -->
     <g transform="translate(960.390063 213.537562) scale(0.1 -0.1)">
      <use xlink:href="#DejaVuSans-4e"/>
      <use xlink:href="#DejaVuSans-78" x="74.804688"/>
      <use xlink:href="#DejaVuSans-20" x="133.984375"/>
      <use xlink:href="#DejaVuSans-3d" x="165.771484"/>
      <use xlink:href="#DejaVuSans-20" x="249.560547"/>
      <use xlink:href="#DejaVuSans-31" x="281.347656"/>
      <use xlink:href="#DejaVuSans-39" x="344.970703"/>
      <use xlink:href="#DejaVuSans-35" x="408.59375"/>
      <use xlink:href="#DejaVuSans-31" x="472.216797"/>
     </g>
    </g>
    <g id="line2d_46">
     <path d="M 932.390063 224.715687 
L 942.390063 224.715687 
L 952.390063 224.715687 
" style="fill: none; stroke: #1f77b4; stroke-width: 1.5; stroke-linecap: square"/>
    </g>
    <g id="text_25">
     <!-- Nx = 2151 -->
     <g transform="translate(960.390063 228.215687) scale(0.1 -0.1)">
      <use xlink:href="#DejaVuSans-4e"/>
      <use xlink:href="#DejaVuSans-78" x="74.804688"/>
      <use xlink:href="#DejaVuSans-20" x="133.984375"/>
      <use xlink:href="#DejaVuSans-3d" x="165.771484"/>
      <use xlink:href="#DejaVuSans-20" x="249.560547"/>
      <use xlink:href="#DejaVuSans-32" x="281.347656"/>
      <use xlink:href="#DejaVuSans-31" x="344.970703"/>
      <use xlink:href="#DejaVuSans-35" x="408.59375"/>
      <use xlink:href="#DejaVuSans-31" x="472.216797"/>
     </g>
    </g>
   </g>
  </g>
 </g>
 <defs>
  <clipPath id="p9e869ffedb">
   <rect x="182.4768" y="64.836" width="840.4992" height="486.27"/>
  </clipPath>
 </defs>
</svg>
